<svg width="20" height="20" viewBox="0 0 20 20" fill="none" xmlns="http://www.w3.org/2000/svg">
<path d="M10 3C8.61553 3 7.26215 3.41054 6.11101 4.17971C4.95987 4.94888 4.06266 6.04213 3.53285 7.32121C3.00303 8.6003 2.86441 10.0078 3.13451 11.3656C3.4046 12.7235 4.07129 13.9708 5.05026 14.9497C6.02922 15.9287 7.2765 16.5954 8.63437 16.8655C9.99224 17.1356 11.3997 16.997 12.6788 16.4672C13.9579 15.9373 15.0511 15.0401 15.8203 13.889C16.5895 12.7378 17 11.3845 17 10C16.9979 8.14411 16.2598 6.36483 14.9475 5.05253C13.6352 3.74022 11.8559 3.00206 10 3ZM10 15.4444C8.92319 15.4444 7.87056 15.1251 6.97523 14.5269C6.0799 13.9286 5.38207 13.0783 4.96999 12.0835C4.55791 11.0887 4.4501 9.99396 4.66017 8.93784C4.87025 7.88172 5.38878 6.91161 6.1502 6.1502C6.91162 5.38878 7.88172 4.87024 8.93784 4.66017C9.99396 4.45009 11.0887 4.55791 12.0835 4.96999C13.0783 5.38207 13.9286 6.07989 14.5269 6.97523C15.1251 7.87056 15.4444 8.92319 15.4444 10C15.4429 11.4435 14.8688 12.8274 13.8481 13.8481C12.8274 14.8688 11.4435 15.4429 10 15.4444ZM9.22222 10.2593V6.88889C9.22222 6.68261 9.30417 6.48478 9.45003 6.33892C9.59589 6.19305 9.79372 6.11111 10 6.11111C10.2063 6.11111 10.4041 6.19305 10.55 6.33892C10.6958 6.48478 10.7778 6.68261 10.7778 6.88889V10.2593C10.7778 10.4655 10.6958 10.6634 10.55 10.8092C10.4041 10.9551 10.2063 11.037 10 11.037C9.79372 11.037 9.59589 10.9551 9.45003 10.8092C9.30417 10.6634 9.22222 10.4655 9.22222 10.2593ZM11.037 12.8518C11.037 13.057 10.9762 13.2575 10.8623 13.428C10.7483 13.5985 10.5864 13.7315 10.3969 13.8099C10.2074 13.8884 9.99885 13.909 9.79769 13.869C9.59652 13.8289 9.41174 13.7302 9.26671 13.5851C9.12167 13.4401 9.0229 13.2553 8.98289 13.0542C8.94288 12.853 8.96341 12.6445 9.0419 12.455C9.12039 12.2655 9.25331 12.1035 9.42385 11.9896C9.59439 11.8756 9.79489 11.8148 10 11.8148C10.275 11.8148 10.5388 11.9241 10.7333 12.1186C10.9278 12.313 11.037 12.5768 11.037 12.8518Z" fill="#DF1B41"/>
</svg>
