<svg width="28" height="28" viewBox="0 0 28 28" fill="none" xmlns="http://www.w3.org/2000/svg">
<path d="M14.9684 2.5433C14.6644 2.40464 14.3342 2.33289 14 2.33289C13.6659 2.33289 13.3357 2.40464 13.0317 2.5433L3.03337 7.0933C2.82635 7.18459 2.65033 7.3341 2.52676 7.52364C2.40319 7.71317 2.3374 7.93454 2.3374 8.1608C2.3374 8.38706 2.40319 8.60844 2.52676 8.79797C2.65033 8.9875 2.82635 9.13702 3.03337 9.2283L13.0434 13.79C13.3474 13.9286 13.6776 14.0004 14.0117 14.0004C14.3458 14.0004 14.6761 13.9286 14.98 13.79L24.99 9.23997C25.1971 9.14869 25.3731 8.99917 25.4967 8.80964C25.6202 8.6201 25.686 8.39873 25.686 8.17247C25.686 7.94621 25.6202 7.72484 25.4967 7.5353C25.3731 7.34577 25.1971 7.19625 24.99 7.10497L14.9684 2.5433Z" stroke="#0043C0" stroke-width="1.75" stroke-linecap="round" stroke-linejoin="round"/>
<path d="M2.33326 14C2.3327 14.2231 2.39616 14.4418 2.51609 14.6299C2.63603 14.8181 2.80741 14.9679 3.00992 15.0617L13.0433 19.6233C13.3457 19.7603 13.6738 19.8311 14.0058 19.8311C14.3377 19.8311 14.6659 19.7603 14.9683 19.6233L24.9783 15.0733C25.1848 14.9805 25.3598 14.8296 25.482 14.639C25.6043 14.4484 25.6684 14.2264 25.6666 14" stroke="#0043C0" stroke-width="1.75" stroke-linecap="round" stroke-linejoin="round"/>
<path d="M2.33326 19.8334C2.3327 20.0565 2.39616 20.2751 2.51609 20.4633C2.63603 20.6515 2.80741 20.8013 3.00992 20.895L13.0433 25.4567C13.3457 25.5936 13.6738 25.6645 14.0058 25.6645C14.3377 25.6645 14.6659 25.5936 14.9683 25.4567L24.9783 20.9067C25.1848 20.8139 25.3598 20.663 25.482 20.4724C25.6043 20.2818 25.6684 20.0598 25.6666 19.8334" stroke="#0043C0" stroke-width="1.75" stroke-linecap="round" stroke-linejoin="round"/>
</svg>
