<svg width="28" height="28" viewBox="0 0 28 28" fill="none" xmlns="http://www.w3.org/2000/svg">
<path d="M23.3333 3.5H4.66667C4.02233 3.5 3.5 4.02233 3.5 4.66667V10.5C3.5 11.1443 4.02233 11.6667 4.66667 11.6667H23.3333C23.9777 11.6667 24.5 11.1443 24.5 10.5V4.66667C24.5 4.02233 23.9777 3.5 23.3333 3.5Z" stroke="#0043C0" stroke-width="1.75" stroke-linecap="round" stroke-linejoin="round"/>
<path d="M12.8333 16.3334H4.66667C4.02233 16.3334 3.5 16.8557 3.5 17.5V23.3334C3.5 23.9777 4.02233 24.5 4.66667 24.5H12.8333C13.4777 24.5 14 23.9777 14 23.3334V17.5C14 16.8557 13.4777 16.3334 12.8333 16.3334Z" stroke="#0043C0" stroke-width="1.75" stroke-linecap="round" stroke-linejoin="round"/>
<path d="M23.3334 16.3334H19.8334C19.1891 16.3334 18.6667 16.8557 18.6667 17.5V23.3334C18.6667 23.9777 19.1891 24.5 19.8334 24.5H23.3334C23.9777 24.5 24.5001 23.9777 24.5001 23.3334V17.5C24.5001 16.8557 23.9777 16.3334 23.3334 16.3334Z" stroke="#0043C0" stroke-width="1.75" stroke-linecap="round" stroke-linejoin="round"/>
</svg>
