<svg width="32" height="32" viewBox="0 0 32 32" fill="none" xmlns="http://www.w3.org/2000/svg">
<path d="M23 16C23 16.2228 22.9115 16.4364 22.754 16.594C22.5964 16.7515 22.3828 16.84 22.16 16.84H16.84V22.16C16.84 22.3828 16.7515 22.5964 16.594 22.754C16.4364 22.9115 16.2228 23 16 23C15.7772 23 15.5636 22.9115 15.406 22.754C15.2485 22.5964 15.16 22.3828 15.16 22.16V16.84H9.84C9.61722 16.84 9.40356 16.7515 9.24603 16.594C9.0885 16.4364 9 16.2228 9 16C9 15.7772 9.0885 15.5636 9.24603 15.406C9.40356 15.2485 9.61722 15.16 9.84 15.16H15.16V9.84C15.16 9.61722 15.2485 9.40356 15.406 9.24603C15.5636 9.0885 15.7772 9 16 9C16.2228 9 16.4364 9.0885 16.594 9.24603C16.7515 9.40356 16.84 9.61722 16.84 9.84V15.16H22.16C22.3828 15.16 22.5964 15.2485 22.754 15.406C22.9115 15.5636 23 15.7772 23 16Z" fill="black" fill-opacity="0.92"/>
</svg>
