<svg width="1198" height="499" viewBox="0 0 1198 499" fill="none" xmlns="http://www.w3.org/2000/svg">
<path d="M0 16C0 7.16345 7.16344 0 16 0H1182C1190.84 0 1198 7.16344 1198 16V484C1198 492.837 1190.84 500 1182 500H16C7.16347 500 0 492.837 0 484V16Z" fill="url(#paint0_linear_3016_13360)"/>
<g opacity="0.9" filter="url(#filter0_df_3016_13360)">
<path d="M56 52C56 45.3726 61.3726 40 68 40H364C370.627 40 376 45.3726 376 52V448C376 454.627 370.627 460 364 460H68C61.3726 460 56 454.627 56 448V52Z" fill="white"/>
<path d="M80 72C80 67.5817 83.5817 64 88 64H344C348.418 64 352 67.5817 352 72V104C352 108.418 348.418 112 344 112H88C83.5817 112 80 108.418 80 104V72Z" fill="url(#paint1_linear_3016_13360)"/>
<mask id="path-4-inside-1_3016_13360" fill="white">
<path d="M80 136C80 131.582 83.5817 128 88 128H202C206.418 128 210 131.582 210 136V200C210 204.418 206.418 208 202 208H88C83.5817 208 80 204.418 80 200V136Z"/>
</mask>
<path d="M80 136C80 131.582 83.5817 128 88 128H202C206.418 128 210 131.582 210 136V200C210 204.418 206.418 208 202 208H88C83.5817 208 80 204.418 80 200V136Z" fill="#F8F9FA"/>
<path d="M88 128V129H202V128V127H88V128ZM210 136H209V200H210H211V136H210ZM202 208V207H88V208V209H202V208ZM80 200H81V136H80H79V200H80ZM88 208V207C84.134 207 81 203.866 81 200H80H79C79 204.971 83.0294 209 88 209V208ZM210 200H209C209 203.866 205.866 207 202 207V208V209C206.971 209 211 204.971 211 200H210ZM202 128V129C205.866 129 209 132.134 209 136H210H211C211 131.029 206.971 127 202 127V128ZM88 128V127C83.0294 127 79 131.029 79 136H80H81C81 132.134 84.134 129 88 129V128Z" fill="#E1E3E5" mask="url(#path-4-inside-1_3016_13360)"/>
<mask id="path-6-inside-2_3016_13360" fill="white">
<path d="M222 136C222 131.582 225.582 128 230 128H344C348.418 128 352 131.582 352 136V200C352 204.418 348.418 208 344 208H230C225.582 208 222 204.418 222 200V136Z"/>
</mask>
<path d="M222 136C222 131.582 225.582 128 230 128H344C348.418 128 352 131.582 352 136V200C352 204.418 348.418 208 344 208H230C225.582 208 222 204.418 222 200V136Z" fill="#F8F9FA"/>
<path d="M230 128V129H344V128V127H230V128ZM352 136H351V200H352H353V136H352ZM344 208V207H230V208V209H344V208ZM222 200H223V136H222H221V200H222ZM230 208V207C226.134 207 223 203.866 223 200H222H221C221 204.971 225.029 209 230 209V208ZM352 200H351C351 203.866 347.866 207 344 207V208V209C348.971 209 353 204.971 353 200H352ZM344 128V129C347.866 129 351 132.134 351 136H352H353C353 131.029 348.971 127 344 127V128ZM230 128V127C225.029 127 221 131.029 221 136H222H223C223 132.134 226.134 129 230 129V128Z" fill="#E1E3E5" mask="url(#path-6-inside-2_3016_13360)"/>
<mask id="path-8-inside-3_3016_13360" fill="white">
<path d="M80 228C80 223.582 83.5817 220 88 220H202C206.418 220 210 223.582 210 228V292C210 296.418 206.418 300 202 300H88C83.5817 300 80 296.418 80 292V228Z"/>
</mask>
<path d="M80 228C80 223.582 83.5817 220 88 220H202C206.418 220 210 223.582 210 228V292C210 296.418 206.418 300 202 300H88C83.5817 300 80 296.418 80 292V228Z" fill="#F8F9FA"/>
<path d="M88 220V221H202V220V219H88V220ZM210 228H209V292H210H211V228H210ZM202 300V299H88V300V301H202V300ZM80 292H81V228H80H79V292H80ZM88 300V299C84.134 299 81 295.866 81 292H80H79C79 296.971 83.0294 301 88 301V300ZM210 292H209C209 295.866 205.866 299 202 299V300V301C206.971 301 211 296.971 211 292H210ZM202 220V221C205.866 221 209 224.134 209 228H210H211C211 223.029 206.971 219 202 219V220ZM88 220V219C83.0294 219 79 223.029 79 228H80H81C81 224.134 84.134 221 88 221V220Z" fill="#E1E3E5" mask="url(#path-8-inside-3_3016_13360)"/>
<mask id="path-10-inside-4_3016_13360" fill="white">
<path d="M222 228C222 223.582 225.582 220 230 220H344C348.418 220 352 223.582 352 228V292C352 296.418 348.418 300 344 300H230C225.582 300 222 296.418 222 292V228Z"/>
</mask>
<path d="M222 228C222 223.582 225.582 220 230 220H344C348.418 220 352 223.582 352 228V292C352 296.418 348.418 300 344 300H230C225.582 300 222 296.418 222 292V228Z" fill="#F8F9FA"/>
<path d="M230 220V221H344V220V219H230V220ZM352 228H351V292H352H353V228H352ZM344 300V299H230V300V301H344V300ZM222 292H223V228H222H221V292H222ZM230 300V299C226.134 299 223 295.866 223 292H222H221C221 296.971 225.029 301 230 301V300ZM352 292H351C351 295.866 347.866 299 344 299V300V301C348.971 301 353 296.971 353 292H352ZM344 220V221C347.866 221 351 224.134 351 228H352H353C353 223.029 348.971 219 344 219V220ZM230 220V219C225.029 219 221 223.029 221 228H222H223C223 224.134 226.134 221 230 221V220Z" fill="#E1E3E5" mask="url(#path-10-inside-4_3016_13360)"/>
<mask id="path-12-inside-5_3016_13360" fill="white">
<path d="M80 324C80 319.582 83.5817 316 88 316H344C348.418 316 352 319.582 352 324V428C352 432.418 348.418 436 344 436H88C83.5817 436 80 432.418 80 428V324Z"/>
</mask>
<path d="M80 324C80 319.582 83.5817 316 88 316H344C348.418 316 352 319.582 352 324V428C352 432.418 348.418 436 344 436H88C83.5817 436 80 432.418 80 428V324Z" fill="#F8F9FA"/>
<path d="M88 316V317H344V316V315H88V316ZM352 324H351V428H352H353V324H352ZM344 436V435H88V436V437H344V436ZM80 428H81V324H80H79V428H80ZM88 436V435C84.134 435 81 431.866 81 428H80H79C79 432.971 83.0294 437 88 437V436ZM352 428H351C351 431.866 347.866 435 344 435V436V437C348.971 437 353 432.971 353 428H352ZM344 316V317C347.866 317 351 320.134 351 324H352H353C353 319.029 348.971 315 344 315V316ZM88 316V315C83.0294 315 79 319.029 79 324H80H81C81 320.134 84.134 317 88 317V316Z" fill="#E1E3E5" mask="url(#path-12-inside-5_3016_13360)"/>
</g>
<g opacity="0.95" filter="url(#filter1_df_3016_13360)">
<g clip-path="url(#clip0_3016_13360)">
<path d="M380 31C380 24.3726 385.373 19 392 19H808C814.627 19 820 24.3726 820 31V469C820 475.627 814.627 481 808 481H392C385.373 481 380 475.627 380 469V31Z" fill="white"/>
<mask id="path-15-inside-6_3016_13360" fill="white">
<path d="M380 19H820V89.4H380V19Z"/>
</mask>
<path d="M380 19H820V89.4H380V19Z" fill="white"/>
<path d="M820 89.4V88.4H380V89.4V90.4H820V89.4Z" fill="#E1E3E5" mask="url(#path-15-inside-6_3016_13360)"/>
<path d="M406.4 42.1C406.4 38.7863 409.086 36.1 412.4 36.1H532.4C535.714 36.1 538.4 38.7863 538.4 42.1V65.3C538.4 68.6138 535.714 71.3 532.4 71.3H412.4C409.086 71.3 406.4 68.6138 406.4 65.3V42.1Z" fill="#0043C0"/>
<path d="M758.4 53.7C758.4 43.9798 766.28 36.1 776 36.1C785.72 36.1 793.6 43.9798 793.6 53.7C793.6 63.4202 785.72 71.3 776 71.3C766.28 71.3 758.4 63.4202 758.4 53.7Z" fill="#F8F9FA"/>
<mask id="path-19-inside-7_3016_13360" fill="white">
<path d="M380 89.4H468V481H380V89.4Z"/>
</mask>
<path d="M380 89.4H468V481H380V89.4Z" fill="#F8F9FA"/>
<path d="M468 89.4H467V481H468H469V89.4H468Z" fill="#E1E3E5" mask="url(#path-19-inside-7_3016_13360)"/>
<path d="M397.6 115C397.6 110.582 401.182 107 405.6 107H441.3C445.718 107 449.3 110.582 449.3 115V151.8C449.3 156.218 445.718 159.8 441.3 159.8H405.6C401.182 159.8 397.6 156.218 397.6 151.8V115Z" fill="#0043C0"/>
<mask id="path-22-inside-8_3016_13360" fill="white">
<path d="M397.6 181C397.6 176.582 401.182 173 405.6 173H441.3C445.718 173 449.3 176.582 449.3 181V217.8C449.3 222.218 445.718 225.8 441.3 225.8H405.6C401.182 225.8 397.6 222.218 397.6 217.8V181Z"/>
</mask>
<path d="M397.6 181C397.6 176.582 401.182 173 405.6 173H441.3C445.718 173 449.3 176.582 449.3 181V217.8C449.3 222.218 445.718 225.8 441.3 225.8H405.6C401.182 225.8 397.6 222.218 397.6 217.8V181Z" fill="white"/>
<path d="M405.6 173V174H441.3V173V172H405.6V173ZM449.3 181H448.3V217.8H449.3H450.3V181H449.3ZM441.3 225.8V224.8H405.6V225.8V226.8H441.3V225.8ZM397.6 217.8H398.6V181H397.6H396.6V217.8H397.6ZM405.6 225.8V224.8C401.734 224.8 398.6 221.666 398.6 217.8H397.6H396.6C396.6 222.771 400.629 226.8 405.6 226.8V225.8ZM449.3 217.8H448.3C448.3 221.666 445.166 224.8 441.3 224.8V225.8V226.8C446.271 226.8 450.3 222.771 450.3 217.8H449.3ZM441.3 173V174C445.166 174 448.3 177.134 448.3 181H449.3H450.3C450.3 176.029 446.271 172 441.3 172V173ZM405.6 173V172C400.629 172 396.6 176.029 396.6 181H397.6H398.6C398.6 177.134 401.734 174 405.6 174V173Z" fill="#E1E3E5" mask="url(#path-22-inside-8_3016_13360)"/>
<mask id="path-24-inside-9_3016_13360" fill="white">
<path d="M397.6 247C397.6 242.582 401.182 239 405.6 239H441.3C445.718 239 449.3 242.582 449.3 247V283.8C449.3 288.218 445.718 291.8 441.3 291.8H405.6C401.182 291.8 397.6 288.218 397.6 283.8V247Z"/>
</mask>
<path d="M397.6 247C397.6 242.582 401.182 239 405.6 239H441.3C445.718 239 449.3 242.582 449.3 247V283.8C449.3 288.218 445.718 291.8 441.3 291.8H405.6C401.182 291.8 397.6 288.218 397.6 283.8V247Z" fill="white"/>
<path d="M405.6 239V240H441.3V239V238H405.6V239ZM449.3 247H448.3V283.8H449.3H450.3V247H449.3ZM441.3 291.8V290.8H405.6V291.8V292.8H441.3V291.8ZM397.6 283.8H398.6V247H397.6H396.6V283.8H397.6ZM405.6 291.8V290.8C401.734 290.8 398.6 287.666 398.6 283.8H397.6H396.6C396.6 288.771 400.629 292.8 405.6 292.8V291.8ZM449.3 283.8H448.3C448.3 287.666 445.166 290.8 441.3 290.8V291.8V292.8C446.271 292.8 450.3 288.771 450.3 283.8H449.3ZM441.3 239V240C445.166 240 448.3 243.134 448.3 247H449.3H450.3C450.3 242.029 446.271 238 441.3 238V239ZM405.6 239V238C400.629 238 396.6 242.029 396.6 247H397.6H398.6C398.6 243.134 401.734 240 405.6 240V239Z" fill="#E1E3E5" mask="url(#path-24-inside-9_3016_13360)"/>
<mask id="path-26-inside-10_3016_13360" fill="white">
<path d="M397.6 313C397.6 308.582 401.182 305 405.6 305H441.3C445.718 305 449.3 308.582 449.3 313V349.8C449.3 354.218 445.718 357.8 441.3 357.8H405.6C401.182 357.8 397.6 354.218 397.6 349.8V313Z"/>
</mask>
<path d="M397.6 313C397.6 308.582 401.182 305 405.6 305H441.3C445.718 305 449.3 308.582 449.3 313V349.8C449.3 354.218 445.718 357.8 441.3 357.8H405.6C401.182 357.8 397.6 354.218 397.6 349.8V313Z" fill="white"/>
<path d="M405.6 305V306H441.3V305V304H405.6V305ZM449.3 313H448.3V349.8H449.3H450.3V313H449.3ZM441.3 357.8V356.8H405.6V357.8V358.8H441.3V357.8ZM397.6 349.8H398.6V313H397.6H396.6V349.8H397.6ZM405.6 357.8V356.8C401.734 356.8 398.6 353.666 398.6 349.8H397.6H396.6C396.6 354.771 400.629 358.8 405.6 358.8V357.8ZM449.3 349.8H448.3C448.3 353.666 445.166 356.8 441.3 356.8V357.8V358.8C446.271 358.8 450.3 354.771 450.3 349.8H449.3ZM441.3 305V306C445.166 306 448.3 309.134 448.3 313H449.3H450.3C450.3 308.029 446.271 304 441.3 304V305ZM405.6 305V304C400.629 304 396.6 308.029 396.6 313H397.6H398.6C398.6 309.134 401.734 306 405.6 306V305Z" fill="#E1E3E5" mask="url(#path-26-inside-10_3016_13360)"/>
<mask id="path-28-inside-11_3016_13360" fill="white">
<path d="M494.4 123.8C494.4 119.382 497.982 115.8 502.4 115.8H785.6C790.018 115.8 793.6 119.382 793.6 123.8V151.8C793.6 156.218 790.018 159.8 785.6 159.8H502.4C497.982 159.8 494.4 156.218 494.4 151.8V123.8Z"/>
</mask>
<path d="M494.4 123.8C494.4 119.382 497.982 115.8 502.4 115.8H785.6C790.018 115.8 793.6 119.382 793.6 123.8V151.8C793.6 156.218 790.018 159.8 785.6 159.8H502.4C497.982 159.8 494.4 156.218 494.4 151.8V123.8Z" fill="#F8F9FA"/>
<path d="M502.4 115.8V116.8H785.6V115.8V114.8H502.4V115.8ZM793.6 123.8H792.6V151.8H793.6H794.6V123.8H793.6ZM785.6 159.8V158.8H502.4V159.8V160.8H785.6V159.8ZM494.4 151.8H495.4V123.8H494.4H493.4V151.8H494.4ZM502.4 159.8V158.8C498.534 158.8 495.4 155.666 495.4 151.8H494.4H493.4C493.4 156.771 497.429 160.8 502.4 160.8V159.8ZM793.6 151.8H792.6C792.6 155.666 789.466 158.8 785.6 158.8V159.8V160.8C790.571 160.8 794.6 156.771 794.6 151.8H793.6ZM785.6 115.8V116.8C789.466 116.8 792.6 119.934 792.6 123.8H793.6H794.6C794.6 118.829 790.571 114.8 785.6 114.8V115.8ZM502.4 115.8V114.8C497.429 114.8 493.4 118.829 493.4 123.8H494.4H495.4C495.4 119.934 498.534 116.8 502.4 116.8V115.8Z" fill="#E1E3E5" mask="url(#path-28-inside-11_3016_13360)"/>
<mask id="path-30-inside-12_3016_13360" fill="white">
<path d="M494.4 185.4C494.4 180.982 497.982 177.4 502.4 177.4H627.2C631.618 177.4 635.2 180.982 635.2 185.4V299.2C635.2 303.618 631.618 307.2 627.2 307.2H502.4C497.982 307.2 494.4 303.618 494.4 299.2V185.4Z"/>
</mask>
<path d="M494.4 185.4C494.4 180.982 497.982 177.4 502.4 177.4H627.2C631.618 177.4 635.2 180.982 635.2 185.4V299.2C635.2 303.618 631.618 307.2 627.2 307.2H502.4C497.982 307.2 494.4 303.618 494.4 299.2V185.4Z" fill="#F8F9FA"/>
<path d="M502.4 177.4V178.4H627.2V177.4V176.4H502.4V177.4ZM635.2 185.4H634.2V299.2H635.2H636.2V185.4H635.2ZM627.2 307.2V306.2H502.4V307.2V308.2H627.2V307.2ZM494.4 299.2H495.4V185.4H494.4H493.4V299.2H494.4ZM502.4 307.2V306.2C498.534 306.2 495.4 303.066 495.4 299.2H494.4H493.4C493.4 304.171 497.429 308.2 502.4 308.2V307.2ZM635.2 299.2H634.2C634.2 303.066 631.066 306.2 627.2 306.2V307.2V308.2C632.171 308.2 636.2 304.171 636.2 299.2H635.2ZM627.2 177.4V178.4C631.066 178.4 634.2 181.534 634.2 185.4H635.2H636.2C636.2 180.429 632.171 176.4 627.2 176.4V177.4ZM502.4 177.4V176.4C497.429 176.4 493.4 180.429 493.4 185.4H494.4H495.4C495.4 181.534 498.534 178.4 502.4 178.4V177.4Z" fill="#E1E3E5" mask="url(#path-30-inside-12_3016_13360)"/>
<mask id="path-32-inside-13_3016_13360" fill="white">
<path d="M652.8 185.4C652.8 180.982 656.382 177.4 660.8 177.4H785.6C790.018 177.4 793.6 180.982 793.6 185.4V299.2C793.6 303.618 790.018 307.2 785.6 307.2H660.8C656.382 307.2 652.8 303.618 652.8 299.2V185.4Z"/>
</mask>
<path d="M652.8 185.4C652.8 180.982 656.382 177.4 660.8 177.4H785.6C790.018 177.4 793.6 180.982 793.6 185.4V299.2C793.6 303.618 790.018 307.2 785.6 307.2H660.8C656.382 307.2 652.8 303.618 652.8 299.2V185.4Z" fill="#F8F9FA"/>
<path d="M660.8 177.4V178.4H785.6V177.4V176.4H660.8V177.4ZM793.6 185.4H792.6V299.2H793.6H794.6V185.4H793.6ZM785.6 307.2V306.2H660.8V307.2V308.2H785.6V307.2ZM652.8 299.2H653.8V185.4H652.8H651.8V299.2H652.8ZM660.8 307.2V306.2C656.934 306.2 653.8 303.066 653.8 299.2H652.8H651.8C651.8 304.171 655.829 308.2 660.8 308.2V307.2ZM793.6 299.2H792.6C792.6 303.066 789.466 306.2 785.6 306.2V307.2V308.2C790.571 308.2 794.6 304.171 794.6 299.2H793.6ZM785.6 177.4V178.4C789.466 178.4 792.6 181.534 792.6 185.4H793.6H794.6C794.6 180.429 790.571 176.4 785.6 176.4V177.4ZM660.8 177.4V176.4C655.829 176.4 651.8 180.429 651.8 185.4H652.8H653.8C653.8 181.534 656.934 178.4 660.8 178.4V177.4Z" fill="#E1E3E5" mask="url(#path-32-inside-13_3016_13360)"/>
<mask id="path-34-inside-14_3016_13360" fill="white">
<path d="M494.4 332.8C494.4 328.382 497.982 324.8 502.4 324.8H627.2C631.618 324.8 635.2 328.382 635.2 332.8V446.6C635.2 451.018 631.618 454.6 627.2 454.6H502.4C497.982 454.6 494.4 451.018 494.4 446.6V332.8Z"/>
</mask>
<path d="M494.4 332.8C494.4 328.382 497.982 324.8 502.4 324.8H627.2C631.618 324.8 635.2 328.382 635.2 332.8V446.6C635.2 451.018 631.618 454.6 627.2 454.6H502.4C497.982 454.6 494.4 451.018 494.4 446.6V332.8Z" fill="#F8F9FA"/>
<path d="M502.4 324.8V325.8H627.2V324.8V323.8H502.4V324.8ZM635.2 332.8H634.2V446.6H635.2H636.2V332.8H635.2ZM627.2 454.6V453.6H502.4V454.6V455.6H627.2V454.6ZM494.4 446.6H495.4V332.8H494.4H493.4V446.6H494.4ZM502.4 454.6V453.6C498.534 453.6 495.4 450.466 495.4 446.6H494.4H493.4C493.4 451.571 497.429 455.6 502.4 455.6V454.6ZM635.2 446.6H634.2C634.2 450.466 631.066 453.6 627.2 453.6V454.6V455.6C632.171 455.6 636.2 451.571 636.2 446.6H635.2ZM627.2 324.8V325.8C631.066 325.8 634.2 328.934 634.2 332.8H635.2H636.2C636.2 327.829 632.171 323.8 627.2 323.8V324.8ZM502.4 324.8V323.8C497.429 323.8 493.4 327.829 493.4 332.8H494.4H495.4C495.4 328.934 498.534 325.8 502.4 325.8V324.8Z" fill="#E1E3E5" mask="url(#path-34-inside-14_3016_13360)"/>
<mask id="path-36-inside-15_3016_13360" fill="white">
<path d="M652.8 332.8C652.8 328.382 656.382 324.8 660.8 324.8H785.6C790.018 324.8 793.6 328.382 793.6 332.8V446.6C793.6 451.018 790.018 454.6 785.6 454.6H660.8C656.382 454.6 652.8 451.018 652.8 446.6V332.8Z"/>
</mask>
<path d="M652.8 332.8C652.8 328.382 656.382 324.8 660.8 324.8H785.6C790.018 324.8 793.6 328.382 793.6 332.8V446.6C793.6 451.018 790.018 454.6 785.6 454.6H660.8C656.382 454.6 652.8 451.018 652.8 446.6V332.8Z" fill="#F8F9FA"/>
<path d="M660.8 324.8V325.8H785.6V324.8V323.8H660.8V324.8ZM793.6 332.8H792.6V446.6H793.6H794.6V332.8H793.6ZM785.6 454.6V453.6H660.8V454.6V455.6H785.6V454.6ZM652.8 446.6H653.8V332.8H652.8H651.8V446.6H652.8ZM660.8 454.6V453.6C656.934 453.6 653.8 450.466 653.8 446.6H652.8H651.8C651.8 451.571 655.829 455.6 660.8 455.6V454.6ZM793.6 446.6H792.6C792.6 450.466 789.466 453.6 785.6 453.6V454.6V455.6C790.571 455.6 794.6 451.571 794.6 446.6H793.6ZM785.6 324.8V325.8C789.466 325.8 792.6 328.934 792.6 332.8H793.6H794.6C794.6 327.829 790.571 323.8 785.6 323.8V324.8ZM660.8 324.8V323.8C655.829 323.8 651.8 327.829 651.8 332.8H652.8H653.8C653.8 328.934 656.934 325.8 660.8 325.8V324.8Z" fill="#E1E3E5" mask="url(#path-36-inside-15_3016_13360)"/>
</g>
</g>
<g opacity="0.9" filter="url(#filter2_df_3016_13360)">
<path d="M824 52C824 45.3726 829.373 40 836 40H1132C1138.63 40 1144 45.3726 1144 52V448C1144 454.627 1138.63 460 1132 460H836C829.373 460 824 454.627 824 448V52Z" fill="white"/>
<mask id="path-39-inside-16_3016_13360" fill="white">
<path d="M848 72C848 67.5817 851.582 64 856 64H1112C1116.42 64 1120 67.5817 1120 72V96C1120 100.418 1116.42 104 1112 104H856C851.582 104 848 100.418 848 96V72Z"/>
</mask>
<path d="M848 72C848 67.5817 851.582 64 856 64H1112C1116.42 64 1120 67.5817 1120 72V96C1120 100.418 1116.42 104 1112 104H856C851.582 104 848 100.418 848 96V72Z" fill="#F8F9FA"/>
<path d="M856 64V65H1112V64V63H856V64ZM1120 72H1119V96H1120H1121V72H1120ZM1112 104V103H856V104V105H1112V104ZM848 96H849V72H848H847V96H848ZM856 104V103C852.134 103 849 99.866 849 96H848H847C847 100.971 851.029 105 856 105V104ZM1120 96H1119C1119 99.866 1115.87 103 1112 103V104V105C1116.97 105 1121 100.971 1121 96H1120ZM1112 64V65C1115.87 65 1119 68.134 1119 72H1120H1121C1121 67.0294 1116.97 63 1112 63V64ZM856 64V63C851.029 63 847 67.0294 847 72H848H849C849 68.134 852.134 65 856 65V64Z" fill="#E1E3E5" mask="url(#path-39-inside-16_3016_13360)"/>
<mask id="path-41-inside-17_3016_13360" fill="white">
<path d="M848 128C848 123.582 851.582 120 856 120H1112C1116.42 120 1120 123.582 1120 128V168C1120 172.418 1116.42 176 1112 176H856C851.582 176 848 172.418 848 168V128Z"/>
</mask>
<path d="M848 128C848 123.582 851.582 120 856 120H1112C1116.42 120 1120 123.582 1120 128V168C1120 172.418 1116.42 176 1112 176H856C851.582 176 848 172.418 848 168V128Z" fill="#F8F9FA"/>
<path d="M856 120V121H1112V120V119H856V120ZM1120 128H1119V168H1120H1121V128H1120ZM1112 176V175H856V176V177H1112V176ZM848 168H849V128H848H847V168H848ZM856 176V175C852.134 175 849 171.866 849 168H848H847C847 172.971 851.029 177 856 177V176ZM1120 168H1119C1119 171.866 1115.87 175 1112 175V176V177C1116.97 177 1121 172.971 1121 168H1120ZM1112 120V121C1115.87 121 1119 124.134 1119 128H1120H1121C1121 123.029 1116.97 119 1112 119V120ZM856 120V119C851.029 119 847 123.029 847 128H848H849C849 124.134 852.134 121 856 121V120Z" fill="#E1E3E5" mask="url(#path-41-inside-17_3016_13360)"/>
<mask id="path-43-inside-18_3016_13360" fill="white">
<path d="M848 196C848 191.582 851.582 188 856 188H1112C1116.42 188 1120 191.582 1120 196V236C1120 240.418 1116.42 244 1112 244H856C851.582 244 848 240.418 848 236V196Z"/>
</mask>
<path d="M848 196C848 191.582 851.582 188 856 188H1112C1116.42 188 1120 191.582 1120 196V236C1120 240.418 1116.42 244 1112 244H856C851.582 244 848 240.418 848 236V196Z" fill="#F8F9FA"/>
<path d="M856 188V189H1112V188V187H856V188ZM1120 196H1119V236H1120H1121V196H1120ZM1112 244V243H856V244V245H1112V244ZM848 236H849V196H848H847V236H848ZM856 244V243C852.134 243 849 239.866 849 236H848H847C847 240.971 851.029 245 856 245V244ZM1120 236H1119C1119 239.866 1115.87 243 1112 243V244V245C1116.97 245 1121 240.971 1121 236H1120ZM1112 188V189C1115.87 189 1119 192.134 1119 196H1120H1121C1121 191.029 1116.97 187 1112 187V188ZM856 188V187C851.029 187 847 191.029 847 196H848H849C849 192.134 852.134 189 856 189V188Z" fill="#E1E3E5" mask="url(#path-43-inside-18_3016_13360)"/>
<mask id="path-45-inside-19_3016_13360" fill="white">
<path d="M848 264C848 259.582 851.582 256 856 256H1112C1116.42 256 1120 259.582 1120 264V304C1120 308.418 1116.42 312 1112 312H856C851.582 312 848 308.418 848 304V264Z"/>
</mask>
<path d="M848 264C848 259.582 851.582 256 856 256H1112C1116.42 256 1120 259.582 1120 264V304C1120 308.418 1116.42 312 1112 312H856C851.582 312 848 308.418 848 304V264Z" fill="#F8F9FA"/>
<path d="M856 256V257H1112V256V255H856V256ZM1120 264H1119V304H1120H1121V264H1120ZM1112 312V311H856V312V313H1112V312ZM848 304H849V264H848H847V304H848ZM856 312V311C852.134 311 849 307.866 849 304H848H847C847 308.971 851.029 313 856 313V312ZM1120 304H1119C1119 307.866 1115.87 311 1112 311V312V313C1116.97 313 1121 308.971 1121 304H1120ZM1112 256V257C1115.87 257 1119 260.134 1119 264H1120H1121C1121 259.029 1116.97 255 1112 255V256ZM856 256V255C851.029 255 847 259.029 847 264H848H849C849 260.134 852.134 257 856 257V256Z" fill="#E1E3E5" mask="url(#path-45-inside-19_3016_13360)"/>
<mask id="path-47-inside-20_3016_13360" fill="white">
<path d="M848 332C848 327.582 851.582 324 856 324H1112C1116.42 324 1120 327.582 1120 332V372C1120 376.418 1116.42 380 1112 380H856C851.582 380 848 376.418 848 372V332Z"/>
</mask>
<path d="M848 332C848 327.582 851.582 324 856 324H1112C1116.42 324 1120 327.582 1120 332V372C1120 376.418 1116.42 380 1112 380H856C851.582 380 848 376.418 848 372V332Z" fill="#F8F9FA"/>
<path d="M856 324V325H1112V324V323H856V324ZM1120 332H1119V372H1120H1121V332H1120ZM1112 380V379H856V380V381H1112V380ZM848 372H849V332H848H847V372H848ZM856 380V379C852.134 379 849 375.866 849 372H848H847C847 376.971 851.029 381 856 381V380ZM1120 372H1119C1119 375.866 1115.87 379 1112 379V380V381C1116.97 381 1121 376.971 1121 372H1120ZM1112 324V325C1115.87 325 1119 328.134 1119 332H1120H1121C1121 327.029 1116.97 323 1112 323V324ZM856 324V323C851.029 323 847 327.029 847 332H848H849C849 328.134 852.134 325 856 325V324Z" fill="#E1E3E5" mask="url(#path-47-inside-20_3016_13360)"/>
<mask id="path-49-inside-21_3016_13360" fill="white">
<path d="M848 404C848 399.582 851.582 396 856 396H970C974.418 396 978 399.582 978 404V428C978 432.418 974.418 436 970 436H856C851.582 436 848 432.418 848 428V404Z"/>
</mask>
<path d="M848 404C848 399.582 851.582 396 856 396H970C974.418 396 978 399.582 978 404V428C978 432.418 974.418 436 970 436H856C851.582 436 848 432.418 848 428V404Z" fill="white"/>
<path d="M856 396V398H970V396V394H856V396ZM978 404H976V428H978H980V404H978ZM970 436V434H856V436V438H970V436ZM848 428H850V404H848H846V428H848ZM856 436V434C852.686 434 850 431.314 850 428H848H846C846 433.523 850.477 438 856 438V436ZM978 428H976C976 431.314 973.314 434 970 434V436V438C975.523 438 980 433.523 980 428H978ZM970 396V398C973.314 398 976 400.686 976 404H978H980C980 398.477 975.523 394 970 394V396ZM856 396V394C850.477 394 846 398.477 846 404H848H850C850 400.686 852.686 398 856 398V396Z" fill="#0043C0" mask="url(#path-49-inside-21_3016_13360)"/>
<path d="M990 404C990 399.582 993.582 396 998 396H1112C1116.42 396 1120 399.582 1120 404V428C1120 432.418 1116.42 436 1112 436H998C993.582 436 990 432.418 990 428V404Z" fill="#0043C0"/>
</g>
<defs>
<filter id="filter0_df_3016_13360" x="18" y="24" width="396" height="499" filterUnits="userSpaceOnUse" color-interpolation-filters="sRGB">
<feFlood flood-opacity="0" result="BackgroundImageFix"/>
<feColorMatrix in="SourceAlpha" type="matrix" values="0 0 0 0 0 0 0 0 0 0 0 0 0 0 0 0 0 0 127 0" result="hardAlpha"/>
<feMorphology radius="12" operator="erode" in="SourceAlpha" result="effect1_dropShadow_3016_13360"/>
<feOffset dy="25"/>
<feGaussianBlur stdDeviation="25"/>
<feComposite in2="hardAlpha" operator="out"/>
<feColorMatrix type="matrix" values="0 0 0 0 0 0 0 0 0 0 0 0 0 0 0 0 0 0 0.25 0"/>
<feBlend mode="normal" in2="BackgroundImageFix" result="effect1_dropShadow_3016_13360"/>
<feBlend mode="normal" in="SourceGraphic" in2="effect1_dropShadow_3016_13360" result="shape"/>
<feGaussianBlur stdDeviation="8" result="effect2_foregroundBlur_3016_13360"/>
</filter>
<filter id="filter1_df_3016_13360" x="342" y="3" width="516" height="541" filterUnits="userSpaceOnUse" color-interpolation-filters="sRGB">
<feFlood flood-opacity="0" result="BackgroundImageFix"/>
<feColorMatrix in="SourceAlpha" type="matrix" values="0 0 0 0 0 0 0 0 0 0 0 0 0 0 0 0 0 0 127 0" result="hardAlpha"/>
<feMorphology radius="12" operator="erode" in="SourceAlpha" result="effect1_dropShadow_3016_13360"/>
<feOffset dy="25"/>
<feGaussianBlur stdDeviation="25"/>
<feComposite in2="hardAlpha" operator="out"/>
<feColorMatrix type="matrix" values="0 0 0 0 0 0 0 0 0 0 0 0 0 0 0 0 0 0 0.25 0"/>
<feBlend mode="normal" in2="BackgroundImageFix" result="effect1_dropShadow_3016_13360"/>
<feBlend mode="normal" in="SourceGraphic" in2="effect1_dropShadow_3016_13360" result="shape"/>
<feGaussianBlur stdDeviation="8" result="effect2_foregroundBlur_3016_13360"/>
</filter>
<filter id="filter2_df_3016_13360" x="786" y="24" width="396" height="499" filterUnits="userSpaceOnUse" color-interpolation-filters="sRGB">
<feFlood flood-opacity="0" result="BackgroundImageFix"/>
<feColorMatrix in="SourceAlpha" type="matrix" values="0 0 0 0 0 0 0 0 0 0 0 0 0 0 0 0 0 0 127 0" result="hardAlpha"/>
<feMorphology radius="12" operator="erode" in="SourceAlpha" result="effect1_dropShadow_3016_13360"/>
<feOffset dy="25"/>
<feGaussianBlur stdDeviation="25"/>
<feComposite in2="hardAlpha" operator="out"/>
<feColorMatrix type="matrix" values="0 0 0 0 0 0 0 0 0 0 0 0 0 0 0 0 0 0 0.25 0"/>
<feBlend mode="normal" in2="BackgroundImageFix" result="effect1_dropShadow_3016_13360"/>
<feBlend mode="normal" in="SourceGraphic" in2="effect1_dropShadow_3016_13360" result="shape"/>
<feGaussianBlur stdDeviation="8" result="effect2_foregroundBlur_3016_13360"/>
</filter>
<linearGradient id="paint0_linear_3016_13360" x1="599" y1="0" x2="599" y2="500" gradientUnits="userSpaceOnUse">
<stop stop-color="#F8F9FA"/>
<stop offset="0.5" stop-color="#E9ECEF"/>
<stop offset="1" stop-color="#DEE2E6"/>
</linearGradient>
<linearGradient id="paint1_linear_3016_13360" x1="216" y1="64" x2="216" y2="112" gradientUnits="userSpaceOnUse">
<stop stop-color="#0043C0"/>
<stop offset="1" stop-color="#0056E0"/>
</linearGradient>
<clipPath id="clip0_3016_13360">
<path d="M380 31C380 24.3726 385.373 19 392 19H808C814.627 19 820 24.3726 820 31V469C820 475.627 814.627 481 808 481H392C385.373 481 380 475.627 380 469V31Z" fill="white"/>
</clipPath>
</defs>
</svg>
