<svg width="1200" height="500" viewBox="0 0 1200 500" fill="none" xmlns="http://www.w3.org/2000/svg">
<mask id="path-1-inside-1_3016_13359" fill="white">
<path d="M0 17C0 7.61117 7.61116 0 17 0H1183C1192.39 0 1200 7.61116 1200 17V485C1200 494.389 1192.39 502 1183 502H17C7.61114 502 0 494.389 0 485V17Z"/>
</mask>
<path d="M17 0V1H1183V0V-1H17V0ZM1200 17H1199V485H1200H1201V17H1200ZM1183 502V501H17V502V503H1183V502ZM0 485H1V17H0H-1V485H0ZM17 502V501C8.16343 501 1 493.837 1 485H0H-1C-1 494.941 7.05886 503 17 503V502ZM1200 485H1199C1199 493.837 1191.84 501 1183 501V502V503C1192.94 503 1201 494.941 1201 485H1200ZM1183 0V1C1191.84 1 1199 8.16344 1199 17H1200H1201C1201 7.05888 1192.94 -1 1183 -1V0ZM17 0V-1C7.05887 -1 -1 7.05888 -1 17H0H1C1 8.16345 8.16345 1 17 1V0Z" fill="#E1E3E5" mask="url(#path-1-inside-1_3016_13359)"/>
<path d="M1 17C1 8.16345 8.16344 1 17 1H1183C1191.84 1 1199 8.16344 1199 17V485C1199 493.837 1191.84 501 1183 501H17C8.16347 501 1 493.837 1 485V17Z" fill="url(#paint0_linear_3016_13359)"/>
<g opacity="0.9" filter="url(#filter0_df_3016_13359)">
<path d="M57 53C57 46.3726 62.3726 41 69 41H365C371.627 41 377 46.3726 377 53V449C377 455.627 371.627 461 365 461H69C62.3726 461 57 455.627 57 449V53Z" fill="white"/>
<path d="M81 73C81 68.5817 84.5817 65 89 65H345C349.418 65 353 68.5817 353 73V105C353 109.418 349.418 113 345 113H89C84.5817 113 81 109.418 81 105V73Z" fill="url(#paint1_linear_3016_13359)"/>
<mask id="path-6-inside-2_3016_13359" fill="white">
<path d="M81 137C81 132.582 84.5817 129 89 129H203C207.418 129 211 132.582 211 137V201C211 205.418 207.418 209 203 209H89C84.5817 209 81 205.418 81 201V137Z"/>
</mask>
<path d="M81 137C81 132.582 84.5817 129 89 129H203C207.418 129 211 132.582 211 137V201C211 205.418 207.418 209 203 209H89C84.5817 209 81 205.418 81 201V137Z" fill="#F8F9FA"/>
<path d="M89 129V130H203V129V128H89V129ZM211 137H210V201H211H212V137H211ZM203 209V208H89V209V210H203V209ZM81 201H82V137H81H80V201H81ZM89 209V208C85.134 208 82 204.866 82 201H81H80C80 205.971 84.0294 210 89 210V209ZM211 201H210C210 204.866 206.866 208 203 208V209V210C207.971 210 212 205.971 212 201H211ZM203 129V130C206.866 130 210 133.134 210 137H211H212C212 132.029 207.971 128 203 128V129ZM89 129V128C84.0294 128 80 132.029 80 137H81H82C82 133.134 85.134 130 89 130V129Z" fill="#E1E3E5" mask="url(#path-6-inside-2_3016_13359)"/>
<mask id="path-8-inside-3_3016_13359" fill="white">
<path d="M223 137C223 132.582 226.582 129 231 129H345C349.418 129 353 132.582 353 137V201C353 205.418 349.418 209 345 209H231C226.582 209 223 205.418 223 201V137Z"/>
</mask>
<path d="M223 137C223 132.582 226.582 129 231 129H345C349.418 129 353 132.582 353 137V201C353 205.418 349.418 209 345 209H231C226.582 209 223 205.418 223 201V137Z" fill="#F8F9FA"/>
<path d="M231 129V130H345V129V128H231V129ZM353 137H352V201H353H354V137H353ZM345 209V208H231V209V210H345V209ZM223 201H224V137H223H222V201H223ZM231 209V208C227.134 208 224 204.866 224 201H223H222C222 205.971 226.029 210 231 210V209ZM353 201H352C352 204.866 348.866 208 345 208V209V210C349.971 210 354 205.971 354 201H353ZM345 129V130C348.866 130 352 133.134 352 137H353H354C354 132.029 349.971 128 345 128V129ZM231 129V128C226.029 128 222 132.029 222 137H223H224C224 133.134 227.134 130 231 130V129Z" fill="#E1E3E5" mask="url(#path-8-inside-3_3016_13359)"/>
<mask id="path-10-inside-4_3016_13359" fill="white">
<path d="M81 229C81 224.582 84.5817 221 89 221H203C207.418 221 211 224.582 211 229V293C211 297.418 207.418 301 203 301H89C84.5817 301 81 297.418 81 293V229Z"/>
</mask>
<path d="M81 229C81 224.582 84.5817 221 89 221H203C207.418 221 211 224.582 211 229V293C211 297.418 207.418 301 203 301H89C84.5817 301 81 297.418 81 293V229Z" fill="#F8F9FA"/>
<path d="M89 221V222H203V221V220H89V221ZM211 229H210V293H211H212V229H211ZM203 301V300H89V301V302H203V301ZM81 293H82V229H81H80V293H81ZM89 301V300C85.134 300 82 296.866 82 293H81H80C80 297.971 84.0294 302 89 302V301ZM211 293H210C210 296.866 206.866 300 203 300V301V302C207.971 302 212 297.971 212 293H211ZM203 221V222C206.866 222 210 225.134 210 229H211H212C212 224.029 207.971 220 203 220V221ZM89 221V220C84.0294 220 80 224.029 80 229H81H82C82 225.134 85.134 222 89 222V221Z" fill="#E1E3E5" mask="url(#path-10-inside-4_3016_13359)"/>
<mask id="path-12-inside-5_3016_13359" fill="white">
<path d="M223 229C223 224.582 226.582 221 231 221H345C349.418 221 353 224.582 353 229V293C353 297.418 349.418 301 345 301H231C226.582 301 223 297.418 223 293V229Z"/>
</mask>
<path d="M223 229C223 224.582 226.582 221 231 221H345C349.418 221 353 224.582 353 229V293C353 297.418 349.418 301 345 301H231C226.582 301 223 297.418 223 293V229Z" fill="#F8F9FA"/>
<path d="M231 221V222H345V221V220H231V221ZM353 229H352V293H353H354V229H353ZM345 301V300H231V301V302H345V301ZM223 293H224V229H223H222V293H223ZM231 301V300C227.134 300 224 296.866 224 293H223H222C222 297.971 226.029 302 231 302V301ZM353 293H352C352 296.866 348.866 300 345 300V301V302C349.971 302 354 297.971 354 293H353ZM345 221V222C348.866 222 352 225.134 352 229H353H354C354 224.029 349.971 220 345 220V221ZM231 221V220C226.029 220 222 224.029 222 229H223H224C224 225.134 227.134 222 231 222V221Z" fill="#E1E3E5" mask="url(#path-12-inside-5_3016_13359)"/>
<mask id="path-14-inside-6_3016_13359" fill="white">
<path d="M81 325C81 320.582 84.5817 317 89 317H345C349.418 317 353 320.582 353 325V429C353 433.418 349.418 437 345 437H89C84.5817 437 81 433.418 81 429V325Z"/>
</mask>
<path d="M81 325C81 320.582 84.5817 317 89 317H345C349.418 317 353 320.582 353 325V429C353 433.418 349.418 437 345 437H89C84.5817 437 81 433.418 81 429V325Z" fill="#F8F9FA"/>
<path d="M89 317V318H345V317V316H89V317ZM353 325H352V429H353H354V325H353ZM345 437V436H89V437V438H345V437ZM81 429H82V325H81H80V429H81ZM89 437V436C85.134 436 82 432.866 82 429H81H80C80 433.971 84.0294 438 89 438V437ZM353 429H352C352 432.866 348.866 436 345 436V437V438C349.971 438 354 433.971 354 429H353ZM345 317V318C348.866 318 352 321.134 352 325H353H354C354 320.029 349.971 316 345 316V317ZM89 317V316C84.0294 316 80 320.029 80 325H81H82C82 321.134 85.134 318 89 318V317Z" fill="#E1E3E5" mask="url(#path-14-inside-6_3016_13359)"/>
</g>
<g opacity="0.95" filter="url(#filter1_df_3016_13359)">
<g clip-path="url(#clip0_3016_13359)">
<path d="M381 32C381 25.3726 386.373 20 393 20H809C815.627 20 821 25.3726 821 32V470C821 476.627 815.627 482 809 482H393C386.373 482 381 476.627 381 470V32Z" fill="white"/>
<mask id="path-17-inside-7_3016_13359" fill="white">
<path d="M381 20H821V90.4H381V20Z"/>
</mask>
<path d="M381 20H821V90.4H381V20Z" fill="white"/>
<path d="M821 90.4V89.4H381V90.4V91.4H821V90.4Z" fill="#E1E3E5" mask="url(#path-17-inside-7_3016_13359)"/>
<path d="M407.4 43.1C407.4 39.7863 410.086 37.1 413.4 37.1H533.4C536.714 37.1 539.4 39.7863 539.4 43.1V66.3C539.4 69.6138 536.714 72.3 533.4 72.3H413.4C410.086 72.3 407.4 69.6138 407.4 66.3V43.1Z" fill="#0043C0"/>
<path d="M759.4 54.7C759.4 44.9798 767.28 37.1 777 37.1C786.72 37.1 794.6 44.9798 794.6 54.7C794.6 64.4202 786.72 72.3 777 72.3C767.28 72.3 759.4 64.4202 759.4 54.7Z" fill="#F8F9FA"/>
<mask id="path-21-inside-8_3016_13359" fill="white">
<path d="M381 90.4H469V482H381V90.4Z"/>
</mask>
<path d="M381 90.4H469V482H381V90.4Z" fill="#F8F9FA"/>
<path d="M469 90.4H468V482H469H470V90.4H469Z" fill="#E1E3E5" mask="url(#path-21-inside-8_3016_13359)"/>
<path d="M398.6 116C398.6 111.582 402.182 108 406.6 108H442.3C446.718 108 450.3 111.582 450.3 116V152.8C450.3 157.218 446.718 160.8 442.3 160.8H406.6C402.182 160.8 398.6 157.218 398.6 152.8V116Z" fill="#0043C0"/>
<mask id="path-24-inside-9_3016_13359" fill="white">
<path d="M398.6 182C398.6 177.582 402.182 174 406.6 174H442.3C446.718 174 450.3 177.582 450.3 182V218.8C450.3 223.218 446.718 226.8 442.3 226.8H406.6C402.182 226.8 398.6 223.218 398.6 218.8V182Z"/>
</mask>
<path d="M398.6 182C398.6 177.582 402.182 174 406.6 174H442.3C446.718 174 450.3 177.582 450.3 182V218.8C450.3 223.218 446.718 226.8 442.3 226.8H406.6C402.182 226.8 398.6 223.218 398.6 218.8V182Z" fill="white"/>
<path d="M406.6 174V175H442.3V174V173H406.6V174ZM450.3 182H449.3V218.8H450.3H451.3V182H450.3ZM442.3 226.8V225.8H406.6V226.8V227.8H442.3V226.8ZM398.6 218.8H399.6V182H398.6H397.6V218.8H398.6ZM406.6 226.8V225.8C402.734 225.8 399.6 222.666 399.6 218.8H398.6H397.6C397.6 223.771 401.629 227.8 406.6 227.8V226.8ZM450.3 218.8H449.3C449.3 222.666 446.166 225.8 442.3 225.8V226.8V227.8C447.271 227.8 451.3 223.771 451.3 218.8H450.3ZM442.3 174V175C446.166 175 449.3 178.134 449.3 182H450.3H451.3C451.3 177.029 447.271 173 442.3 173V174ZM406.6 174V173C401.629 173 397.6 177.029 397.6 182H398.6H399.6C399.6 178.134 402.734 175 406.6 175V174Z" fill="#E1E3E5" mask="url(#path-24-inside-9_3016_13359)"/>
<mask id="path-26-inside-10_3016_13359" fill="white">
<path d="M398.6 248C398.6 243.582 402.182 240 406.6 240H442.3C446.718 240 450.3 243.582 450.3 248V284.8C450.3 289.218 446.718 292.8 442.3 292.8H406.6C402.182 292.8 398.6 289.218 398.6 284.8V248Z"/>
</mask>
<path d="M398.6 248C398.6 243.582 402.182 240 406.6 240H442.3C446.718 240 450.3 243.582 450.3 248V284.8C450.3 289.218 446.718 292.8 442.3 292.8H406.6C402.182 292.8 398.6 289.218 398.6 284.8V248Z" fill="white"/>
<path d="M406.6 240V241H442.3V240V239H406.6V240ZM450.3 248H449.3V284.8H450.3H451.3V248H450.3ZM442.3 292.8V291.8H406.6V292.8V293.8H442.3V292.8ZM398.6 284.8H399.6V248H398.6H397.6V284.8H398.6ZM406.6 292.8V291.8C402.734 291.8 399.6 288.666 399.6 284.8H398.6H397.6C397.6 289.771 401.629 293.8 406.6 293.8V292.8ZM450.3 284.8H449.3C449.3 288.666 446.166 291.8 442.3 291.8V292.8V293.8C447.271 293.8 451.3 289.771 451.3 284.8H450.3ZM442.3 240V241C446.166 241 449.3 244.134 449.3 248H450.3H451.3C451.3 243.029 447.271 239 442.3 239V240ZM406.6 240V239C401.629 239 397.6 243.029 397.6 248H398.6H399.6C399.6 244.134 402.734 241 406.6 241V240Z" fill="#E1E3E5" mask="url(#path-26-inside-10_3016_13359)"/>
<mask id="path-28-inside-11_3016_13359" fill="white">
<path d="M398.6 314C398.6 309.582 402.182 306 406.6 306H442.3C446.718 306 450.3 309.582 450.3 314V350.8C450.3 355.218 446.718 358.8 442.3 358.8H406.6C402.182 358.8 398.6 355.218 398.6 350.8V314Z"/>
</mask>
<path d="M398.6 314C398.6 309.582 402.182 306 406.6 306H442.3C446.718 306 450.3 309.582 450.3 314V350.8C450.3 355.218 446.718 358.8 442.3 358.8H406.6C402.182 358.8 398.6 355.218 398.6 350.8V314Z" fill="white"/>
<path d="M406.6 306V307H442.3V306V305H406.6V306ZM450.3 314H449.3V350.8H450.3H451.3V314H450.3ZM442.3 358.8V357.8H406.6V358.8V359.8H442.3V358.8ZM398.6 350.8H399.6V314H398.6H397.6V350.8H398.6ZM406.6 358.8V357.8C402.734 357.8 399.6 354.666 399.6 350.8H398.6H397.6C397.6 355.771 401.629 359.8 406.6 359.8V358.8ZM450.3 350.8H449.3C449.3 354.666 446.166 357.8 442.3 357.8V358.8V359.8C447.271 359.8 451.3 355.771 451.3 350.8H450.3ZM442.3 306V307C446.166 307 449.3 310.134 449.3 314H450.3H451.3C451.3 309.029 447.271 305 442.3 305V306ZM406.6 306V305C401.629 305 397.6 309.029 397.6 314H398.6H399.6C399.6 310.134 402.734 307 406.6 307V306Z" fill="#E1E3E5" mask="url(#path-28-inside-11_3016_13359)"/>
<mask id="path-30-inside-12_3016_13359" fill="white">
<path d="M495.4 124.8C495.4 120.382 498.982 116.8 503.4 116.8H786.6C791.018 116.8 794.6 120.382 794.6 124.8V152.8C794.6 157.218 791.018 160.8 786.6 160.8H503.4C498.982 160.8 495.4 157.218 495.4 152.8V124.8Z"/>
</mask>
<path d="M495.4 124.8C495.4 120.382 498.982 116.8 503.4 116.8H786.6C791.018 116.8 794.6 120.382 794.6 124.8V152.8C794.6 157.218 791.018 160.8 786.6 160.8H503.4C498.982 160.8 495.4 157.218 495.4 152.8V124.8Z" fill="#F8F9FA"/>
<path d="M503.4 116.8V117.8H786.6V116.8V115.8H503.4V116.8ZM794.6 124.8H793.6V152.8H794.6H795.6V124.8H794.6ZM786.6 160.8V159.8H503.4V160.8V161.8H786.6V160.8ZM495.4 152.8H496.4V124.8H495.4H494.4V152.8H495.4ZM503.4 160.8V159.8C499.534 159.8 496.4 156.666 496.4 152.8H495.4H494.4C494.4 157.771 498.429 161.8 503.4 161.8V160.8ZM794.6 152.8H793.6C793.6 156.666 790.466 159.8 786.6 159.8V160.8V161.8C791.571 161.8 795.6 157.771 795.6 152.8H794.6ZM786.6 116.8V117.8C790.466 117.8 793.6 120.934 793.6 124.8H794.6H795.6C795.6 119.829 791.571 115.8 786.6 115.8V116.8ZM503.4 116.8V115.8C498.429 115.8 494.4 119.829 494.4 124.8H495.4H496.4C496.4 120.934 499.534 117.8 503.4 117.8V116.8Z" fill="#E1E3E5" mask="url(#path-30-inside-12_3016_13359)"/>
<mask id="path-32-inside-13_3016_13359" fill="white">
<path d="M495.4 186.4C495.4 181.982 498.982 178.4 503.4 178.4H628.2C632.618 178.4 636.2 181.982 636.2 186.4V300.2C636.2 304.618 632.618 308.2 628.2 308.2H503.4C498.982 308.2 495.4 304.618 495.4 300.2V186.4Z"/>
</mask>
<path d="M495.4 186.4C495.4 181.982 498.982 178.4 503.4 178.4H628.2C632.618 178.4 636.2 181.982 636.2 186.4V300.2C636.2 304.618 632.618 308.2 628.2 308.2H503.4C498.982 308.2 495.4 304.618 495.4 300.2V186.4Z" fill="#F8F9FA"/>
<path d="M503.4 178.4V179.4H628.2V178.4V177.4H503.4V178.4ZM636.2 186.4H635.2V300.2H636.2H637.2V186.4H636.2ZM628.2 308.2V307.2H503.4V308.2V309.2H628.2V308.2ZM495.4 300.2H496.4V186.4H495.4H494.4V300.2H495.4ZM503.4 308.2V307.2C499.534 307.2 496.4 304.066 496.4 300.2H495.4H494.4C494.4 305.171 498.429 309.2 503.4 309.2V308.2ZM636.2 300.2H635.2C635.2 304.066 632.066 307.2 628.2 307.2V308.2V309.2C633.171 309.2 637.2 305.171 637.2 300.2H636.2ZM628.2 178.4V179.4C632.066 179.4 635.2 182.534 635.2 186.4H636.2H637.2C637.2 181.429 633.171 177.4 628.2 177.4V178.4ZM503.4 178.4V177.4C498.429 177.4 494.4 181.429 494.4 186.4H495.4H496.4C496.4 182.534 499.534 179.4 503.4 179.4V178.4Z" fill="#E1E3E5" mask="url(#path-32-inside-13_3016_13359)"/>
<mask id="path-34-inside-14_3016_13359" fill="white">
<path d="M653.8 186.4C653.8 181.982 657.382 178.4 661.8 178.4H786.6C791.018 178.4 794.6 181.982 794.6 186.4V300.2C794.6 304.618 791.018 308.2 786.6 308.2H661.8C657.382 308.2 653.8 304.618 653.8 300.2V186.4Z"/>
</mask>
<path d="M653.8 186.4C653.8 181.982 657.382 178.4 661.8 178.4H786.6C791.018 178.4 794.6 181.982 794.6 186.4V300.2C794.6 304.618 791.018 308.2 786.6 308.2H661.8C657.382 308.2 653.8 304.618 653.8 300.2V186.4Z" fill="#F8F9FA"/>
<path d="M661.8 178.4V179.4H786.6V178.4V177.4H661.8V178.4ZM794.6 186.4H793.6V300.2H794.6H795.6V186.4H794.6ZM786.6 308.2V307.2H661.8V308.2V309.2H786.6V308.2ZM653.8 300.2H654.8V186.4H653.8H652.8V300.2H653.8ZM661.8 308.2V307.2C657.934 307.2 654.8 304.066 654.8 300.2H653.8H652.8C652.8 305.171 656.829 309.2 661.8 309.2V308.2ZM794.6 300.2H793.6C793.6 304.066 790.466 307.2 786.6 307.2V308.2V309.2C791.571 309.2 795.6 305.171 795.6 300.2H794.6ZM786.6 178.4V179.4C790.466 179.4 793.6 182.534 793.6 186.4H794.6H795.6C795.6 181.429 791.571 177.4 786.6 177.4V178.4ZM661.8 178.4V177.4C656.829 177.4 652.8 181.429 652.8 186.4H653.8H654.8C654.8 182.534 657.934 179.4 661.8 179.4V178.4Z" fill="#E1E3E5" mask="url(#path-34-inside-14_3016_13359)"/>
<mask id="path-36-inside-15_3016_13359" fill="white">
<path d="M495.4 333.8C495.4 329.382 498.982 325.8 503.4 325.8H628.2C632.618 325.8 636.2 329.382 636.2 333.8V447.6C636.2 452.018 632.618 455.6 628.2 455.6H503.4C498.982 455.6 495.4 452.018 495.4 447.6V333.8Z"/>
</mask>
<path d="M495.4 333.8C495.4 329.382 498.982 325.8 503.4 325.8H628.2C632.618 325.8 636.2 329.382 636.2 333.8V447.6C636.2 452.018 632.618 455.6 628.2 455.6H503.4C498.982 455.6 495.4 452.018 495.4 447.6V333.8Z" fill="#F8F9FA"/>
<path d="M503.4 325.8V326.8H628.2V325.8V324.8H503.4V325.8ZM636.2 333.8H635.2V447.6H636.2H637.2V333.8H636.2ZM628.2 455.6V454.6H503.4V455.6V456.6H628.2V455.6ZM495.4 447.6H496.4V333.8H495.4H494.4V447.6H495.4ZM503.4 455.6V454.6C499.534 454.6 496.4 451.466 496.4 447.6H495.4H494.4C494.4 452.571 498.429 456.6 503.4 456.6V455.6ZM636.2 447.6H635.2C635.2 451.466 632.066 454.6 628.2 454.6V455.6V456.6C633.171 456.6 637.2 452.571 637.2 447.6H636.2ZM628.2 325.8V326.8C632.066 326.8 635.2 329.934 635.2 333.8H636.2H637.2C637.2 328.829 633.171 324.8 628.2 324.8V325.8ZM503.4 325.8V324.8C498.429 324.8 494.4 328.829 494.4 333.8H495.4H496.4C496.4 329.934 499.534 326.8 503.4 326.8V325.8Z" fill="#E1E3E5" mask="url(#path-36-inside-15_3016_13359)"/>
<mask id="path-38-inside-16_3016_13359" fill="white">
<path d="M653.8 333.8C653.8 329.382 657.382 325.8 661.8 325.8H786.6C791.018 325.8 794.6 329.382 794.6 333.8V447.6C794.6 452.018 791.018 455.6 786.6 455.6H661.8C657.382 455.6 653.8 452.018 653.8 447.6V333.8Z"/>
</mask>
<path d="M653.8 333.8C653.8 329.382 657.382 325.8 661.8 325.8H786.6C791.018 325.8 794.6 329.382 794.6 333.8V447.6C794.6 452.018 791.018 455.6 786.6 455.6H661.8C657.382 455.6 653.8 452.018 653.8 447.6V333.8Z" fill="#F8F9FA"/>
<path d="M661.8 325.8V326.8H786.6V325.8V324.8H661.8V325.8ZM794.6 333.8H793.6V447.6H794.6H795.6V333.8H794.6ZM786.6 455.6V454.6H661.8V455.6V456.6H786.6V455.6ZM653.8 447.6H654.8V333.8H653.8H652.8V447.6H653.8ZM661.8 455.6V454.6C657.934 454.6 654.8 451.466 654.8 447.6H653.8H652.8C652.8 452.571 656.829 456.6 661.8 456.6V455.6ZM794.6 447.6H793.6C793.6 451.466 790.466 454.6 786.6 454.6V455.6V456.6C791.571 456.6 795.6 452.571 795.6 447.6H794.6ZM786.6 325.8V326.8C790.466 326.8 793.6 329.934 793.6 333.8H794.6H795.6C795.6 328.829 791.571 324.8 786.6 324.8V325.8ZM661.8 325.8V324.8C656.829 324.8 652.8 328.829 652.8 333.8H653.8H654.8C654.8 329.934 657.934 326.8 661.8 326.8V325.8Z" fill="#E1E3E5" mask="url(#path-38-inside-16_3016_13359)"/>
</g>
</g>
<g opacity="0.9" filter="url(#filter2_df_3016_13359)">
<path d="M825 53C825 46.3726 830.373 41 837 41H1133C1139.63 41 1145 46.3726 1145 53V449C1145 455.627 1139.63 461 1133 461H837C830.373 461 825 455.627 825 449V53Z" fill="white"/>
<mask id="path-41-inside-17_3016_13359" fill="white">
<path d="M849 73C849 68.5817 852.582 65 857 65H1113C1117.42 65 1121 68.5817 1121 73V97C1121 101.418 1117.42 105 1113 105H857C852.582 105 849 101.418 849 97V73Z"/>
</mask>
<path d="M849 73C849 68.5817 852.582 65 857 65H1113C1117.42 65 1121 68.5817 1121 73V97C1121 101.418 1117.42 105 1113 105H857C852.582 105 849 101.418 849 97V73Z" fill="#F8F9FA"/>
<path d="M857 65V66H1113V65V64H857V65ZM1121 73H1120V97H1121H1122V73H1121ZM1113 105V104H857V105V106H1113V105ZM849 97H850V73H849H848V97H849ZM857 105V104C853.134 104 850 100.866 850 97H849H848C848 101.971 852.029 106 857 106V105ZM1121 97H1120C1120 100.866 1116.87 104 1113 104V105V106C1117.97 106 1122 101.971 1122 97H1121ZM1113 65V66C1116.87 66 1120 69.134 1120 73H1121H1122C1122 68.0294 1117.97 64 1113 64V65ZM857 65V64C852.029 64 848 68.0294 848 73H849H850C850 69.134 853.134 66 857 66V65Z" fill="#E1E3E5" mask="url(#path-41-inside-17_3016_13359)"/>
<mask id="path-43-inside-18_3016_13359" fill="white">
<path d="M849 129C849 124.582 852.582 121 857 121H1113C1117.42 121 1121 124.582 1121 129V169C1121 173.418 1117.42 177 1113 177H857C852.582 177 849 173.418 849 169V129Z"/>
</mask>
<path d="M849 129C849 124.582 852.582 121 857 121H1113C1117.42 121 1121 124.582 1121 129V169C1121 173.418 1117.42 177 1113 177H857C852.582 177 849 173.418 849 169V129Z" fill="#F8F9FA"/>
<path d="M857 121V122H1113V121V120H857V121ZM1121 129H1120V169H1121H1122V129H1121ZM1113 177V176H857V177V178H1113V177ZM849 169H850V129H849H848V169H849ZM857 177V176C853.134 176 850 172.866 850 169H849H848C848 173.971 852.029 178 857 178V177ZM1121 169H1120C1120 172.866 1116.87 176 1113 176V177V178C1117.97 178 1122 173.971 1122 169H1121ZM1113 121V122C1116.87 122 1120 125.134 1120 129H1121H1122C1122 124.029 1117.97 120 1113 120V121ZM857 121V120C852.029 120 848 124.029 848 129H849H850C850 125.134 853.134 122 857 122V121Z" fill="#E1E3E5" mask="url(#path-43-inside-18_3016_13359)"/>
<mask id="path-45-inside-19_3016_13359" fill="white">
<path d="M849 197C849 192.582 852.582 189 857 189H1113C1117.42 189 1121 192.582 1121 197V237C1121 241.418 1117.42 245 1113 245H857C852.582 245 849 241.418 849 237V197Z"/>
</mask>
<path d="M849 197C849 192.582 852.582 189 857 189H1113C1117.42 189 1121 192.582 1121 197V237C1121 241.418 1117.42 245 1113 245H857C852.582 245 849 241.418 849 237V197Z" fill="#F8F9FA"/>
<path d="M857 189V190H1113V189V188H857V189ZM1121 197H1120V237H1121H1122V197H1121ZM1113 245V244H857V245V246H1113V245ZM849 237H850V197H849H848V237H849ZM857 245V244C853.134 244 850 240.866 850 237H849H848C848 241.971 852.029 246 857 246V245ZM1121 237H1120C1120 240.866 1116.87 244 1113 244V245V246C1117.97 246 1122 241.971 1122 237H1121ZM1113 189V190C1116.87 190 1120 193.134 1120 197H1121H1122C1122 192.029 1117.97 188 1113 188V189ZM857 189V188C852.029 188 848 192.029 848 197H849H850C850 193.134 853.134 190 857 190V189Z" fill="#E1E3E5" mask="url(#path-45-inside-19_3016_13359)"/>
<mask id="path-47-inside-20_3016_13359" fill="white">
<path d="M849 265C849 260.582 852.582 257 857 257H1113C1117.42 257 1121 260.582 1121 265V305C1121 309.418 1117.42 313 1113 313H857C852.582 313 849 309.418 849 305V265Z"/>
</mask>
<path d="M849 265C849 260.582 852.582 257 857 257H1113C1117.42 257 1121 260.582 1121 265V305C1121 309.418 1117.42 313 1113 313H857C852.582 313 849 309.418 849 305V265Z" fill="#F8F9FA"/>
<path d="M857 257V258H1113V257V256H857V257ZM1121 265H1120V305H1121H1122V265H1121ZM1113 313V312H857V313V314H1113V313ZM849 305H850V265H849H848V305H849ZM857 313V312C853.134 312 850 308.866 850 305H849H848C848 309.971 852.029 314 857 314V313ZM1121 305H1120C1120 308.866 1116.87 312 1113 312V313V314C1117.97 314 1122 309.971 1122 305H1121ZM1113 257V258C1116.87 258 1120 261.134 1120 265H1121H1122C1122 260.029 1117.97 256 1113 256V257ZM857 257V256C852.029 256 848 260.029 848 265H849H850C850 261.134 853.134 258 857 258V257Z" fill="#E1E3E5" mask="url(#path-47-inside-20_3016_13359)"/>
<mask id="path-49-inside-21_3016_13359" fill="white">
<path d="M849 333C849 328.582 852.582 325 857 325H1113C1117.42 325 1121 328.582 1121 333V373C1121 377.418 1117.42 381 1113 381H857C852.582 381 849 377.418 849 373V333Z"/>
</mask>
<path d="M849 333C849 328.582 852.582 325 857 325H1113C1117.42 325 1121 328.582 1121 333V373C1121 377.418 1117.42 381 1113 381H857C852.582 381 849 377.418 849 373V333Z" fill="#F8F9FA"/>
<path d="M857 325V326H1113V325V324H857V325ZM1121 333H1120V373H1121H1122V333H1121ZM1113 381V380H857V381V382H1113V381ZM849 373H850V333H849H848V373H849ZM857 381V380C853.134 380 850 376.866 850 373H849H848C848 377.971 852.029 382 857 382V381ZM1121 373H1120C1120 376.866 1116.87 380 1113 380V381V382C1117.97 382 1122 377.971 1122 373H1121ZM1113 325V326C1116.87 326 1120 329.134 1120 333H1121H1122C1122 328.029 1117.97 324 1113 324V325ZM857 325V324C852.029 324 848 328.029 848 333H849H850C850 329.134 853.134 326 857 326V325Z" fill="#E1E3E5" mask="url(#path-49-inside-21_3016_13359)"/>
<mask id="path-51-inside-22_3016_13359" fill="white">
<path d="M849 405C849 400.582 852.582 397 857 397H971C975.418 397 979 400.582 979 405V429C979 433.418 975.418 437 971 437H857C852.582 437 849 433.418 849 429V405Z"/>
</mask>
<path d="M849 405C849 400.582 852.582 397 857 397H971C975.418 397 979 400.582 979 405V429C979 433.418 975.418 437 971 437H857C852.582 437 849 433.418 849 429V405Z" fill="white"/>
<path d="M857 397V399H971V397V395H857V397ZM979 405H977V429H979H981V405H979ZM971 437V435H857V437V439H971V437ZM849 429H851V405H849H847V429H849ZM857 437V435C853.686 435 851 432.314 851 429H849H847C847 434.523 851.477 439 857 439V437ZM979 429H977C977 432.314 974.314 435 971 435V437V439C976.523 439 981 434.523 981 429H979ZM971 397V399C974.314 399 977 401.686 977 405H979H981C981 399.477 976.523 395 971 395V397ZM857 397V395C851.477 395 847 399.477 847 405H849H851C851 401.686 853.686 399 857 399V397Z" fill="#0043C0" mask="url(#path-51-inside-22_3016_13359)"/>
<path d="M991 405C991 400.582 994.582 397 999 397H1113C1117.42 397 1121 400.582 1121 405V429C1121 433.418 1117.42 437 1113 437H999C994.582 437 991 433.418 991 429V405Z" fill="#0043C0"/>
</g>
<defs>
<filter id="filter0_df_3016_13359" x="19" y="25" width="396" height="499" filterUnits="userSpaceOnUse" color-interpolation-filters="sRGB">
<feFlood flood-opacity="0" result="BackgroundImageFix"/>
<feColorMatrix in="SourceAlpha" type="matrix" values="0 0 0 0 0 0 0 0 0 0 0 0 0 0 0 0 0 0 127 0" result="hardAlpha"/>
<feMorphology radius="12" operator="erode" in="SourceAlpha" result="effect1_dropShadow_3016_13359"/>
<feOffset dy="25"/>
<feGaussianBlur stdDeviation="25"/>
<feComposite in2="hardAlpha" operator="out"/>
<feColorMatrix type="matrix" values="0 0 0 0 0 0 0 0 0 0 0 0 0 0 0 0 0 0 0.25 0"/>
<feBlend mode="normal" in2="BackgroundImageFix" result="effect1_dropShadow_3016_13359"/>
<feBlend mode="normal" in="SourceGraphic" in2="effect1_dropShadow_3016_13359" result="shape"/>
<feGaussianBlur stdDeviation="8" result="effect2_foregroundBlur_3016_13359"/>
</filter>
<filter id="filter1_df_3016_13359" x="343" y="4" width="516" height="541" filterUnits="userSpaceOnUse" color-interpolation-filters="sRGB">
<feFlood flood-opacity="0" result="BackgroundImageFix"/>
<feColorMatrix in="SourceAlpha" type="matrix" values="0 0 0 0 0 0 0 0 0 0 0 0 0 0 0 0 0 0 127 0" result="hardAlpha"/>
<feMorphology radius="12" operator="erode" in="SourceAlpha" result="effect1_dropShadow_3016_13359"/>
<feOffset dy="25"/>
<feGaussianBlur stdDeviation="25"/>
<feComposite in2="hardAlpha" operator="out"/>
<feColorMatrix type="matrix" values="0 0 0 0 0 0 0 0 0 0 0 0 0 0 0 0 0 0 0.25 0"/>
<feBlend mode="normal" in2="BackgroundImageFix" result="effect1_dropShadow_3016_13359"/>
<feBlend mode="normal" in="SourceGraphic" in2="effect1_dropShadow_3016_13359" result="shape"/>
<feGaussianBlur stdDeviation="8" result="effect2_foregroundBlur_3016_13359"/>
</filter>
<filter id="filter2_df_3016_13359" x="787" y="25" width="396" height="499" filterUnits="userSpaceOnUse" color-interpolation-filters="sRGB">
<feFlood flood-opacity="0" result="BackgroundImageFix"/>
<feColorMatrix in="SourceAlpha" type="matrix" values="0 0 0 0 0 0 0 0 0 0 0 0 0 0 0 0 0 0 127 0" result="hardAlpha"/>
<feMorphology radius="12" operator="erode" in="SourceAlpha" result="effect1_dropShadow_3016_13359"/>
<feOffset dy="25"/>
<feGaussianBlur stdDeviation="25"/>
<feComposite in2="hardAlpha" operator="out"/>
<feColorMatrix type="matrix" values="0 0 0 0 0 0 0 0 0 0 0 0 0 0 0 0 0 0 0.25 0"/>
<feBlend mode="normal" in2="BackgroundImageFix" result="effect1_dropShadow_3016_13359"/>
<feBlend mode="normal" in="SourceGraphic" in2="effect1_dropShadow_3016_13359" result="shape"/>
<feGaussianBlur stdDeviation="8" result="effect2_foregroundBlur_3016_13359"/>
</filter>
<linearGradient id="paint0_linear_3016_13359" x1="600" y1="1" x2="600" y2="501" gradientUnits="userSpaceOnUse">
<stop stop-color="#F8F9FA"/>
<stop offset="0.5" stop-color="#E9ECEF"/>
<stop offset="1" stop-color="#DEE2E6"/>
</linearGradient>
<linearGradient id="paint1_linear_3016_13359" x1="217" y1="65" x2="217" y2="113" gradientUnits="userSpaceOnUse">
<stop stop-color="#0043C0"/>
<stop offset="1" stop-color="#0056E0"/>
</linearGradient>
<clipPath id="clip0_3016_13359">
<path d="M381 32C381 25.3726 386.373 20 393 20H809C815.627 20 821 25.3726 821 32V470C821 476.627 815.627 482 809 482H393C386.373 482 381 476.627 381 470V32Z" fill="white"/>
</clipPath>
</defs>
</svg>
