<svg width="105" height="32" viewBox="0 0 105 32" fill="none" xmlns="http://www.w3.org/2000/svg">
<g filter="url(#filter0_i_3383_12115)">
<rect width="32" height="32" rx="8" fill="#0043C0"/>
<g filter="url(#filter1_d_3383_12115)">
<path d="M6 12H8.96518L11.0048 16.5313H11.1077L13.1473 12H16.1125V20H13.7815V15.375H13.7129L11.759 19.9375H10.3535L8.39957 15.3438H8.33101V20H6V12Z" fill="white"/>
<path d="M19.5212 20H16.9502L19.8468 12H23.1034L26 20H23.429L21.5094 14.2031H21.4408L19.5212 20ZM19.0412 16.8438H23.8747V18.4688H19.0412V16.8438Z" fill="white"/>
<path d="M9.03027 11.9004L9.05664 11.959L11.0557 16.4023L13.0557 11.959L13.083 11.9004H16.2129V20.0996H13.6816V15.7012L11.8506 19.9766L11.8252 20.0371H10.2871L10.2617 19.9766L8.43066 15.6719V20.0996H5.90039V11.9004H9.03027ZM23.1738 11.9004L23.1973 11.9658L26.0938 19.9658L26.1426 20.0996H23.3564L23.334 20.0312L22.8496 18.5684H20.1006L19.6162 20.0312L19.5938 20.0996H16.8076L16.8564 19.9658L19.7529 11.9658L19.7764 11.9004H23.1738ZM20.7051 16.7441H22.2451L21.4746 14.418L20.7051 16.7441Z" stroke="#0043C0" stroke-width="0.2"/>
</g>
<path d="M23.85 4L23.85 10M26.15 4L26.15 10" stroke="url(#paint0_linear_3383_12115)" stroke-width="0.3"/>
<path d="M22 5.8501H28M22 8.15015H28" stroke="url(#paint1_linear_3383_12115)" stroke-width="0.3"/>
</g>
<path d="M44.2459 19.8536H40V9.14639H44.2028C45.3379 9.14639 46.3185 9.36074 47.1447 9.78945C47.9745 10.2147 48.6139 10.8281 49.0629 11.6298C49.5155 12.4279 49.7418 13.3847 49.7418 14.5C49.7418 15.6153 49.5173 16.5738 49.0683 17.3755C48.6193 18.1736 47.9834 18.7871 47.1609 19.2158C46.3383 19.641 45.3666 19.8536 44.2459 19.8536ZM42.9958 17.3859H44.1381C44.6841 17.3859 45.1493 17.3005 45.5336 17.1298C45.9216 16.959 46.2161 16.6644 46.4173 16.2462C46.622 15.8279 46.7244 15.2459 46.7244 14.5C46.7244 13.7541 46.6202 13.1721 46.4119 12.7538C46.2072 12.3356 45.9054 12.041 45.5067 11.8702C45.1116 11.6995 44.6266 11.6141 44.0519 11.6141H42.9958V17.3859Z" fill="#0043C0"/>
<path d="M54.1237 9.14639V19.8536H51.1279V9.14639H54.1237Z" fill="#0043C0"/>
<path d="M62.7097 12.6806C62.663 12.4959 62.5894 12.3338 62.4888 12.1944C62.3882 12.0515 62.2625 11.9312 62.1116 11.8337C61.9644 11.7326 61.7919 11.6576 61.5944 11.6088C61.4004 11.5566 61.1867 11.5304 60.9532 11.5304C60.4503 11.5304 60.021 11.6472 59.6654 11.8807C59.3134 12.1142 59.044 12.4506 58.8572 12.8897C58.674 13.3289 58.5824 13.8587 58.5824 14.4791C58.5824 15.1065 58.6704 15.6432 58.8464 16.0894C59.0224 16.5355 59.2847 16.8771 59.6331 17.1141C59.9815 17.3511 60.4144 17.4696 60.9316 17.4696C61.3878 17.4696 61.7668 17.4051 62.0685 17.2761C62.3739 17.1472 62.602 16.9642 62.7528 16.7272C62.9037 16.4902 62.9791 16.2113 62.9791 15.8907L63.4964 15.943H60.9747V13.8726H65.8672V15.3574C65.8672 16.3333 65.6535 17.1681 65.226 17.8617C64.8021 18.5518 64.2166 19.0816 63.4695 19.451C62.7259 19.817 61.8728 20 60.9101 20C59.836 20 58.8931 19.7787 58.0813 19.336C57.2695 18.8934 56.6355 18.2625 56.1793 17.4434C55.7267 16.6244 55.5004 15.6502 55.5004 14.5209C55.5004 13.6356 55.6387 12.8514 55.9153 12.1683C56.1954 11.4851 56.5834 10.9083 57.0791 10.4377C57.5748 9.96372 58.1478 9.60646 58.7979 9.36597C59.4481 9.12199 60.145 9 60.8885 9C61.5423 9 62.1494 9.09062 62.7097 9.27186C63.2737 9.44962 63.7712 9.70406 64.2022 10.0352C64.6369 10.3628 64.9871 10.7514 65.2529 11.201C65.5187 11.6507 65.6804 12.1439 65.7379 12.6806H62.7097Z" fill="#0043C0"/>
<path d="M70.2599 9.14639V19.8536H67.2641V9.14639H70.2599Z" fill="#0043C0"/>
<path d="M71.3779 11.4886V9.14639H80.9688V11.4886H77.6497V19.8536H74.697V11.4886H71.3779Z" fill="#0043C0"/>
<path d="M85.0921 9.14639V19.8536H82.0963V9.14639H85.0921Z" fill="#0043C0"/>
<path d="M86.555 19.8536V18.2433L91.7707 11.4886H86.5765V9.14639H95.5855V10.7567L90.3698 17.5114H95.564V19.8536H86.555Z" fill="#0043C0"/>
<path d="M97.0471 19.8536V9.14639H105V11.4886H100.043V13.3289H104.59V15.6711H100.043V17.5114H104.978V19.8536H97.0471Z" fill="#0043C0"/>
<path d="M41.8941 30.2235H40V24.2396H41.9541C42.5274 24.2396 43.0197 24.3594 43.4311 24.599C43.8425 24.8366 44.1577 25.1785 44.3767 25.6245C44.5976 26.0687 44.7081 26.6014 44.7081 27.2228C44.7081 27.8461 44.5967 28.3818 44.3738 28.8298C44.1529 29.2778 43.8329 29.6226 43.4139 29.8641C42.9949 30.1037 42.4883 30.2235 41.8941 30.2235ZM40.8828 29.4346H41.8455C42.2912 29.4346 42.6616 29.3489 42.9568 29.1775C43.2521 29.0041 43.473 28.7538 43.6196 28.4266C43.7663 28.0974 43.8396 27.6961 43.8396 27.2228C43.8396 26.7533 43.7663 26.355 43.6196 26.0278C43.4749 25.7005 43.2587 25.4522 42.9711 25.2827C42.6835 25.1132 42.3264 25.0285 41.8998 25.0285H40.8828V29.4346Z" fill="#0043C0"/>
<path d="M47.7894 30.3141C47.3571 30.3141 46.9847 30.2196 46.6724 30.0307C46.3619 29.8398 46.122 29.572 45.9525 29.2272C45.7849 28.8804 45.7011 28.4743 45.7011 28.0088C45.7011 27.5491 45.7849 27.1439 45.9525 26.7933C46.122 26.4427 46.3581 26.169 46.661 25.9722C46.9657 25.7755 47.3218 25.6771 47.7294 25.6771C47.977 25.6771 48.217 25.719 48.4493 25.8028C48.6817 25.8865 48.8903 26.018 49.075 26.1972C49.2597 26.3764 49.4054 26.6092 49.5121 26.8955C49.6187 27.1799 49.6721 27.5257 49.6721 27.9328V28.2425H46.1839V27.588H48.835C48.835 27.3582 48.7893 27.1546 48.6979 26.9774C48.6065 26.7981 48.4779 26.6569 48.3122 26.5537C48.1484 26.4505 47.9561 26.3988 47.7351 26.3988C47.4952 26.3988 47.2857 26.4592 47.1066 26.58C46.9295 26.6988 46.7924 26.8546 46.6952 27.0475C46.6 27.2384 46.5524 27.4458 46.5524 27.6698V28.1812C46.5524 28.4811 46.6038 28.7363 46.7067 28.9467C46.8114 29.157 46.9571 29.3177 47.1438 29.4288C47.3304 29.5379 47.5485 29.5924 47.798 29.5924C47.9599 29.5924 48.1075 29.569 48.2408 29.5223C48.3741 29.4736 48.4893 29.4015 48.5865 29.3061C48.6836 29.2106 48.7579 29.0928 48.8093 28.9525L49.6178 29.1015C49.553 29.345 49.4369 29.5583 49.2693 29.7414C49.1036 29.9226 48.895 30.0638 48.6436 30.1651C48.3941 30.2644 48.1094 30.3141 47.7894 30.3141Z" fill="#0043C0"/>
<path d="M54.069 26.8313L53.2948 26.9715C53.2624 26.8702 53.211 26.7738 53.1405 26.6822C53.0719 26.5907 52.9786 26.5157 52.8605 26.4573C52.7424 26.3988 52.5948 26.3696 52.4177 26.3696C52.1758 26.3696 51.9739 26.4251 51.8121 26.5362C51.6502 26.6452 51.5692 26.7865 51.5692 26.9598C51.5692 27.1098 51.6235 27.2306 51.7321 27.3221C51.8406 27.4137 52.0159 27.4887 52.2577 27.5471L52.9548 27.7107C53.3586 27.8062 53.6595 27.9533 53.8576 28.1519C54.0556 28.3506 54.1547 28.6087 54.1547 28.9262C54.1547 29.195 54.0785 29.4346 53.9261 29.645C53.7757 29.8534 53.5652 30.017 53.2948 30.1359C53.0262 30.2547 52.7148 30.3141 52.3606 30.3141C51.8692 30.3141 51.4683 30.207 51.1578 29.9927C50.8474 29.7765 50.6569 29.4697 50.5865 29.0723L51.4121 28.9438C51.4635 29.1639 51.5692 29.3304 51.7292 29.4434C51.8892 29.5544 52.0977 29.6099 52.3549 29.6099C52.6348 29.6099 52.8586 29.5505 53.0262 29.4317C53.1938 29.3109 53.2776 29.1639 53.2776 28.9905C53.2776 28.8503 53.2262 28.7324 53.1234 28.637C53.0224 28.5415 52.8672 28.4694 52.6577 28.4207L51.9149 28.2542C51.5054 28.1588 51.2026 28.0068 51.0064 27.7984C50.8122 27.59 50.715 27.326 50.715 27.0066C50.715 26.7417 50.7874 26.5099 50.9321 26.3112C51.0769 26.1125 51.2769 25.9576 51.5321 25.8466C51.7873 25.7336 52.0797 25.6771 52.4091 25.6771C52.8834 25.6771 53.2567 25.7823 53.529 25.9927C53.8014 26.2011 53.9814 26.4806 54.069 26.8313Z" fill="#0043C0"/>
<path d="M55.2548 30.2235V25.7356H56.109V30.2235H55.2548ZM55.6862 25.0431C55.5376 25.0431 55.41 24.9925 55.3033 24.8912C55.1986 24.7879 55.1462 24.6652 55.1462 24.523C55.1462 24.3789 55.1986 24.2561 55.3033 24.1549C55.41 24.0516 55.5376 24 55.6862 24C55.8347 24 55.9614 24.0516 56.0661 24.1549C56.1728 24.2561 56.2261 24.3789 56.2261 24.523C56.2261 24.6652 56.1728 24.7879 56.0661 24.8912C55.9614 24.9925 55.8347 25.0431 55.6862 25.0431Z" fill="#0043C0"/>
<path d="M59.2589 32C58.9103 32 58.6103 31.9533 58.3589 31.8598C58.1094 31.7663 57.9057 31.6426 57.7476 31.4887C57.5895 31.3348 57.4714 31.1663 57.3933 30.9832L58.1275 30.6735C58.179 30.7592 58.2475 30.8498 58.3332 30.9452C58.4208 31.0426 58.5389 31.1254 58.6875 31.1936C58.8379 31.2617 59.0313 31.2958 59.2674 31.2958C59.5912 31.2958 59.8588 31.215 60.0702 31.0533C60.2816 30.8936 60.3873 30.6384 60.3873 30.2878V29.4054H60.333C60.2816 29.5009 60.2073 29.607 60.1102 29.7239C60.015 29.8408 59.8835 29.942 59.7159 30.0278C59.5483 30.1135 59.3303 30.1563 59.0617 30.1563C58.7151 30.1563 58.4027 30.0735 58.1247 29.908C57.8485 29.7404 57.6295 29.494 57.4676 29.1687C57.3076 28.8415 57.2276 28.4392 57.2276 27.962C57.2276 27.4848 57.3067 27.0757 57.4647 26.7348C57.6247 26.394 57.8438 26.1329 58.1218 25.9518C58.3999 25.7687 58.7151 25.6771 59.0674 25.6771C59.3398 25.6771 59.5598 25.7239 59.7274 25.8174C59.895 25.9089 60.0254 26.0161 60.1188 26.1388C60.214 26.2615 60.2873 26.3696 60.3387 26.4631H60.4016V25.7356H61.2386V30.3229C61.2386 30.7085 61.151 31.0251 60.9758 31.2725C60.8006 31.5198 60.5635 31.7029 60.2645 31.8218C59.9674 31.9406 59.6321 32 59.2589 32ZM59.2503 29.4317C59.496 29.4317 59.7036 29.3733 59.8731 29.2564C60.0445 29.1376 60.174 28.9681 60.2616 28.748C60.3511 28.5259 60.3959 28.26 60.3959 27.9503C60.3959 27.6484 60.3521 27.3825 60.2645 27.1527C60.1769 26.9228 60.0483 26.7436 59.8788 26.615C59.7093 26.4845 59.4998 26.4193 59.2503 26.4193C58.9932 26.4193 58.7789 26.4875 58.6075 26.6238C58.4361 26.7582 58.3066 26.9413 58.219 27.1731C58.1332 27.4049 58.0904 27.664 58.0904 27.9503C58.0904 28.2445 58.1342 28.5026 58.2218 28.7246C58.3094 28.9467 58.4389 29.12 58.6103 29.2447C58.7837 29.3694 58.997 29.4317 59.2503 29.4317Z" fill="#0043C0"/>
<path d="M63.3993 27.5588V30.2235H62.5451V25.7356H63.3651V26.466H63.4193C63.5203 26.2284 63.6784 26.0375 63.8936 25.8934C64.1107 25.7492 64.384 25.6771 64.7135 25.6771C65.0125 25.6771 65.2744 25.7414 65.4991 25.87C65.7239 25.9966 65.8981 26.1855 66.0219 26.4368C66.1457 26.6881 66.2076 26.9988 66.2076 27.3689V30.2235H65.3534V27.4741C65.3534 27.1488 65.2706 26.8946 65.1049 26.7115C64.9392 26.5264 64.7116 26.4339 64.4221 26.4339C64.224 26.4339 64.0479 26.4777 63.8936 26.5654C63.7412 26.653 63.6203 26.7816 63.5308 26.9511C63.4431 27.1186 63.3993 27.3212 63.3993 27.5588Z" fill="#0043C0"/>
<path d="M73.0638 25.8115C73.0333 25.5349 72.9076 25.3207 72.6867 25.1687C72.4657 25.0149 72.1877 24.9379 71.8525 24.9379C71.6125 24.9379 71.4049 24.9769 71.2297 25.0548C71.0544 25.1308 70.9183 25.2359 70.8211 25.3703C70.7259 25.5028 70.6783 25.6538 70.6783 25.8232C70.6783 25.9654 70.7107 26.0881 70.7754 26.1914C70.8421 26.2946 70.9287 26.3813 71.0354 26.4514C71.144 26.5196 71.2601 26.5771 71.3839 26.6238C71.5077 26.6686 71.6268 26.7056 71.741 26.7348L72.3124 26.8868C72.4991 26.9335 72.6905 26.9968 72.8866 27.0767C73.0828 27.1566 73.2647 27.2617 73.4323 27.3923C73.5999 27.5228 73.7351 27.6844 73.838 27.8773C73.9427 28.0701 73.9951 28.3009 73.9951 28.5698C73.9951 28.9087 73.9094 29.2096 73.738 29.4726C73.5685 29.7356 73.3218 29.943 72.9981 30.095C72.6762 30.2469 72.2867 30.3229 71.8296 30.3229C71.3916 30.3229 71.0125 30.2518 70.6926 30.1096C70.3726 29.9674 70.1222 29.7658 69.9412 29.5047C69.7603 29.2418 69.6603 28.9301 69.6413 28.5698H70.5269C70.544 28.786 70.6126 28.9662 70.7326 29.1103C70.8545 29.2525 71.0097 29.3587 71.1982 29.4288C71.3887 29.497 71.5972 29.531 71.8239 29.531C72.0734 29.531 72.2953 29.4911 72.4895 29.4112C72.6857 29.3294 72.84 29.2165 72.9524 29.0723C73.0647 28.9262 73.1209 28.7558 73.1209 28.561C73.1209 28.3837 73.0714 28.2386 72.9724 28.1256C72.8752 28.0127 72.7429 27.9192 72.5752 27.8451C72.4095 27.7711 72.2219 27.7059 72.0124 27.6494L71.3211 27.4565C70.8526 27.326 70.4812 27.1342 70.2069 26.8809C69.9346 26.6277 69.7984 26.2927 69.7984 25.8758C69.7984 25.531 69.8898 25.2301 70.0726 24.973C70.2555 24.7159 70.5031 24.5162 70.8154 24.374C71.1278 24.2299 71.4801 24.1578 71.8725 24.1578C72.2686 24.1578 72.6181 24.2289 72.9209 24.3711C73.2257 24.5133 73.4656 24.709 73.6409 24.9584C73.8161 25.2057 73.9075 25.4901 73.9151 25.8115H73.0638Z" fill="#0043C0"/>
<path d="M75.1423 30.2235V25.7356H75.9622V26.466H76.0165C76.1079 26.2187 76.2575 26.0258 76.465 25.8875C76.6726 25.7473 76.9212 25.6771 77.2107 25.6771C77.504 25.6771 77.7497 25.7473 77.9478 25.8875C78.1477 26.0278 78.2953 26.2206 78.3906 26.466H78.4363C78.541 26.2264 78.7077 26.0355 78.9362 25.8934C79.1648 25.7492 79.4371 25.6771 79.7533 25.6771C80.1513 25.6771 80.4761 25.8047 80.7275 26.0599C80.9808 26.3151 81.1074 26.6998 81.1074 27.214V30.2235H80.2532V27.2958C80.2532 26.992 80.1723 26.7719 80.0104 26.6355C79.8485 26.4991 79.6552 26.431 79.4305 26.431C79.1524 26.431 78.9362 26.5186 78.782 26.6939C78.6277 26.8673 78.5506 27.0903 78.5506 27.363V30.2235H77.6992V27.2403C77.6992 26.9968 77.6249 26.8011 77.4764 26.653C77.3278 26.505 77.1345 26.431 76.8964 26.431C76.7345 26.431 76.585 26.4748 76.4479 26.5625C76.3127 26.6482 76.2032 26.768 76.1194 26.9218C76.0375 27.0757 75.9965 27.254 75.9965 27.4565V30.2235H75.1423Z" fill="#0043C0"/>
<path d="M83.6902 30.3229C83.4122 30.3229 83.1608 30.2703 82.936 30.1651C82.7113 30.058 82.5332 29.9031 82.4018 29.7005C82.2723 29.4979 82.2075 29.2496 82.2075 28.9554C82.2075 28.7022 82.2551 28.4938 82.3504 28.3302C82.4456 28.1665 82.5742 28.037 82.736 27.9416C82.8979 27.8461 83.0789 27.774 83.2788 27.7253C83.4788 27.6766 83.6826 27.6396 83.8902 27.6143C84.153 27.5832 84.3664 27.5578 84.5301 27.5383C84.6939 27.5169 84.813 27.4828 84.8873 27.4361C84.9615 27.3893 84.9987 27.3134 84.9987 27.2082V27.1877C84.9987 26.9326 84.9282 26.7348 84.7873 26.5946C84.6482 26.4543 84.4406 26.3842 84.1645 26.3842C83.8769 26.3842 83.6502 26.4495 83.4845 26.58C83.3207 26.7085 83.2074 26.8517 83.1446 27.0095L82.3418 26.8225C82.437 26.5498 82.5761 26.3297 82.7589 26.1622C82.9436 25.9927 83.156 25.87 83.396 25.794C83.636 25.7161 83.8883 25.6771 84.153 25.6771C84.3283 25.6771 84.514 25.6986 84.7101 25.7414C84.9082 25.7823 85.0929 25.8583 85.2644 25.9693C85.4377 26.0804 85.5796 26.2391 85.69 26.4456C85.8005 26.6501 85.8557 26.916 85.8557 27.2432V30.2235H85.0215V29.6099H84.9872C84.932 29.7229 84.8492 29.8339 84.7387 29.943C84.6282 30.0521 84.4863 30.1427 84.313 30.2148C84.1397 30.2868 83.9321 30.3229 83.6902 30.3229ZM83.8759 29.6216C84.1121 29.6216 84.314 29.5739 84.4816 29.4785C84.6511 29.383 84.7796 29.2583 84.8673 29.1045C84.9568 28.9486 85.0015 28.7821 85.0015 28.6048V28.0263C84.9711 28.0575 84.912 28.0867 84.8244 28.114C84.7387 28.1393 84.6406 28.1617 84.5301 28.1812C84.4197 28.1987 84.3121 28.2152 84.2073 28.2308C84.1026 28.2445 84.015 28.2561 83.9445 28.2659C83.7788 28.2873 83.6274 28.3234 83.4903 28.374C83.355 28.4246 83.2465 28.4977 83.1646 28.5931C83.0846 28.6866 83.0446 28.8113 83.0446 28.9671C83.0446 29.1833 83.1227 29.347 83.2788 29.458C83.435 29.5671 83.634 29.6216 83.8759 29.6216Z" fill="#0043C0"/>
<path d="M87.1544 30.2235V25.7356H87.98V26.4485H88.0257C88.1057 26.207 88.2466 26.017 88.4485 25.8787C88.6523 25.7385 88.8828 25.6684 89.1399 25.6684C89.1932 25.6684 89.2561 25.6703 89.3284 25.6742C89.4027 25.6781 89.4608 25.683 89.5027 25.6888V26.5245C89.4684 26.5147 89.4075 26.504 89.3199 26.4923C89.2323 26.4787 89.1446 26.4719 89.057 26.4719C88.8551 26.4719 88.6752 26.5157 88.5171 26.6034C88.3609 26.6891 88.2371 26.8089 88.1457 26.9627C88.0543 27.1147 88.0086 27.288 88.0086 27.4828V30.2235H87.1544Z" fill="#0043C0"/>
<path d="M92.7104 25.7356V26.4368H90.3135V25.7356H92.7104ZM90.9563 24.6603H91.8105V28.9058C91.8105 29.0752 91.8353 29.2028 91.8848 29.2885C91.9343 29.3723 91.9981 29.4298 92.0762 29.4609C92.1562 29.4901 92.2429 29.5047 92.3362 29.5047C92.4048 29.5047 92.4647 29.4999 92.5162 29.4901C92.5676 29.4804 92.6076 29.4726 92.6362 29.4668L92.7904 30.1885C92.7409 30.2079 92.6704 30.2274 92.579 30.2469C92.4876 30.2683 92.3733 30.28 92.2362 30.282C92.0115 30.2859 91.802 30.2449 91.6077 30.1592C91.4134 30.0735 91.2563 29.9411 91.1363 29.7619C91.0163 29.5827 90.9563 29.3577 90.9563 29.0869V24.6603Z" fill="#0043C0"/>
<path d="M95.6603 30.3141C95.228 30.3141 94.8557 30.2196 94.5433 30.0307C94.2329 29.8398 93.9929 29.572 93.8234 29.2272C93.6558 28.8804 93.572 28.4743 93.572 28.0088C93.572 27.5491 93.6558 27.1439 93.8234 26.7933C93.9929 26.4427 94.2291 26.169 94.5319 25.9722C94.8366 25.7755 95.1928 25.6771 95.6003 25.6771C95.8479 25.6771 96.0879 25.719 96.3203 25.8028C96.5526 25.8865 96.7612 26.018 96.9459 26.1972C97.1307 26.3764 97.2764 26.6092 97.383 26.8955C97.4897 27.1799 97.543 27.5257 97.543 27.9328V28.2425H94.0548V27.588H96.7059C96.7059 27.3582 96.6602 27.1546 96.5688 26.9774C96.4774 26.7981 96.3488 26.6569 96.1831 26.5537C96.0193 26.4505 95.827 26.3988 95.6061 26.3988C95.3661 26.3988 95.1566 26.4592 94.9775 26.58C94.8004 26.6988 94.6633 26.8546 94.5662 27.0475C94.4709 27.2384 94.4233 27.4458 94.4233 27.6698V28.1812C94.4233 28.4811 94.4747 28.7363 94.5776 28.9467C94.6823 29.157 94.828 29.3177 95.0147 29.4288C95.2013 29.5379 95.4194 29.5924 95.6689 29.5924C95.8308 29.5924 95.9784 29.569 96.1117 29.5223C96.245 29.4736 96.3603 29.4015 96.4574 29.3061C96.5545 29.2106 96.6288 29.0928 96.6802 28.9525L97.4887 29.1015C97.424 29.345 97.3078 29.5583 97.1402 29.7414C96.9745 29.9226 96.7659 30.0638 96.5145 30.1651C96.265 30.2644 95.9803 30.3141 95.6603 30.3141Z" fill="#0043C0"/>
<path d="M98.6517 30.2235V25.7356H99.4773V26.4485H99.523C99.603 26.207 99.7439 26.017 99.9458 25.8787C100.15 25.7385 100.38 25.6684 100.637 25.6684C100.691 25.6684 100.753 25.6703 100.826 25.6742C100.9 25.6781 100.958 25.683 101 25.6888V26.5245C100.966 26.5147 100.905 26.504 100.817 26.4923C100.73 26.4787 100.642 26.4719 100.554 26.4719C100.352 26.4719 100.172 26.5157 100.014 26.6034C99.8582 26.6891 99.7344 26.8089 99.643 26.9627C99.5516 27.1147 99.5059 27.288 99.5059 27.4828V30.2235H98.6517Z" fill="#0043C0"/>
<defs>
<filter id="filter0_i_3383_12115" x="0" y="0" width="32" height="34" filterUnits="userSpaceOnUse" color-interpolation-filters="sRGB">
<feFlood flood-opacity="0" result="BackgroundImageFix"/>
<feBlend mode="normal" in="SourceGraphic" in2="BackgroundImageFix" result="shape"/>
<feColorMatrix in="SourceAlpha" type="matrix" values="0 0 0 0 0 0 0 0 0 0 0 0 0 0 0 0 0 0 127 0" result="hardAlpha"/>
<feOffset dy="2"/>
<feGaussianBlur stdDeviation="2"/>
<feComposite in2="hardAlpha" operator="arithmetic" k2="-1" k3="1"/>
<feColorMatrix type="matrix" values="0 0 0 0 0 0 0 0 0 0 0 0 0 0 0 0 0 0 0.25 0"/>
<feBlend mode="normal" in2="shape" result="effect1_innerShadow_3383_12115"/>
</filter>
<filter id="filter1_d_3383_12115" x="1.8" y="9.8" width="28.4851" height="16.4" filterUnits="userSpaceOnUse" color-interpolation-filters="sRGB">
<feFlood flood-opacity="0" result="BackgroundImageFix"/>
<feColorMatrix in="SourceAlpha" type="matrix" values="0 0 0 0 0 0 0 0 0 0 0 0 0 0 0 0 0 0 127 0" result="hardAlpha"/>
<feOffset dy="2"/>
<feGaussianBlur stdDeviation="2"/>
<feComposite in2="hardAlpha" operator="out"/>
<feColorMatrix type="matrix" values="0 0 0 0 0 0 0 0 0 0 0 0 0 0 0 0 0 0 0.25 0"/>
<feBlend mode="normal" in2="BackgroundImageFix" result="effect1_dropShadow_3383_12115"/>
<feBlend mode="normal" in="SourceGraphic" in2="effect1_dropShadow_3383_12115" result="shape"/>
</filter>
<linearGradient id="paint0_linear_3383_12115" x1="25.5" y1="4" x2="25.5" y2="10" gradientUnits="userSpaceOnUse">
<stop stop-color="white" stop-opacity="0"/>
<stop offset="0.525" stop-color="white"/>
<stop offset="1" stop-color="white" stop-opacity="0"/>
</linearGradient>
<linearGradient id="paint1_linear_3383_12115" x1="22" y1="8.80017" x2="28" y2="8.80017" gradientUnits="userSpaceOnUse">
<stop stop-color="white" stop-opacity="0"/>
<stop offset="0.525" stop-color="white"/>
<stop offset="1" stop-color="white" stop-opacity="0"/>
</linearGradient>
</defs>
</svg>
