<svg width="65" height="64" viewBox="0 0 65 64" fill="none" xmlns="http://www.w3.org/2000/svg">
<g filter="url(#filter0_i_3509_2004)">
<rect x="17" width="32" height="32" rx="8" fill="#0043C0"/>
<g filter="url(#filter1_d_3509_2004)">
<path d="M23 12H25.9652L28.0048 16.5313H28.1077L30.1473 12H33.1125V20H30.7815V15.375H30.7129L28.759 19.9375H27.3535L25.3996 15.3438H25.331V20H23V12Z" fill="white"/>
<path d="M36.5212 20H33.9502L36.8468 12H40.1034L43 20H40.429L38.5094 14.2031H38.4408L36.5212 20ZM36.0412 16.8438H40.8747V18.4688H36.0412V16.8438Z" fill="white"/>
<path d="M26.0303 11.9004L26.0566 11.959L28.0557 16.4023L30.0557 11.959L30.083 11.9004H33.2129V20.0996H30.6816V15.7012L28.8506 19.9766L28.8252 20.0371H27.2871L27.2617 19.9766L25.4307 15.6719V20.0996H22.9004V11.9004H26.0303ZM40.1738 11.9004L40.1973 11.9658L43.0938 19.9658L43.1426 20.0996H40.3564L40.334 20.0312L39.8496 18.5684H37.1006L36.6162 20.0312L36.5938 20.0996H33.8076L33.8564 19.9658L36.7529 11.9658L36.7764 11.9004H40.1738ZM37.7051 16.7441H39.2451L38.4746 14.418L37.7051 16.7441Z" stroke="#0043C0" stroke-width="0.2"/>
</g>
<path d="M40.8501 4L40.8501 10M43.1501 4L43.1501 10" stroke="url(#paint0_linear_3509_2004)" stroke-width="0.3"/>
<path d="M39 5.8501H45M39 8.15015H45" stroke="url(#paint1_linear_3509_2004)" stroke-width="0.3"/>
</g>
<path d="M4.24587 50.8536H0V40.1464H4.20276C5.33786 40.1464 6.31851 40.3607 7.14469 40.7894C7.97447 41.2147 8.61386 41.8281 9.06288 42.6298C9.51548 43.4279 9.74178 44.3847 9.74178 45.5C9.74178 46.6153 9.51728 47.5738 9.06826 48.3755C8.61925 49.1736 7.98345 49.7871 7.16086 50.2158C6.33827 50.641 5.3666 50.8536 4.24587 50.8536ZM2.99581 48.3859H4.1381C4.6841 48.3859 5.14928 48.3005 5.53363 48.1298C5.92158 47.959 6.21613 47.6644 6.41729 47.2462C6.62204 46.8279 6.72442 46.2459 6.72442 45.5C6.72442 44.7541 6.62025 44.1721 6.4119 43.7538C6.20715 43.3356 5.90542 43.041 5.50669 42.8702C5.11156 42.6995 4.62663 42.6141 4.05189 42.6141H2.99581V48.3859Z" fill="#0043C0"/>
<path d="M14.1237 40.1464V50.8536H11.1279V40.1464H14.1237Z" fill="#0043C0"/>
<path d="M22.7097 43.6806C22.663 43.4959 22.5894 43.3338 22.4888 43.1944C22.3882 43.0515 22.2625 42.9312 22.1116 42.8337C21.9644 42.7326 21.7919 42.6576 21.5944 42.6088C21.4004 42.5566 21.1867 42.5304 20.9532 42.5304C20.4503 42.5304 20.021 42.6472 19.6654 42.8807C19.3134 43.1142 19.044 43.4506 18.8572 43.8897C18.674 44.3289 18.5824 44.8587 18.5824 45.4791C18.5824 46.1065 18.6704 46.6432 18.8464 47.0894C19.0224 47.5355 19.2847 47.8771 19.6331 48.1141C19.9815 48.3511 20.4144 48.4696 20.9316 48.4696C21.3878 48.4696 21.7668 48.4051 22.0685 48.2761C22.3739 48.1472 22.602 47.9642 22.7528 47.7272C22.9037 47.4902 22.9791 47.2113 22.9791 46.8907L23.4964 46.943H20.9747V44.8726H25.8672V46.3574C25.8672 47.3333 25.6535 48.1681 25.226 48.8617C24.8021 49.5518 24.2166 50.0816 23.4695 50.451C22.7259 50.817 21.8728 51 20.9101 51C19.836 51 18.8931 50.7787 18.0813 50.336C17.2695 49.8934 16.6355 49.2625 16.1793 48.4434C15.7267 47.6244 15.5004 46.6502 15.5004 45.5209C15.5004 44.6356 15.6387 43.8514 15.9153 43.1683C16.1954 42.4851 16.5834 41.9083 17.0791 41.4377C17.5748 40.9637 18.1478 40.6065 18.7979 40.366C19.4481 40.122 20.145 40 20.8885 40C21.5423 40 22.1494 40.0906 22.7097 40.2719C23.2737 40.4496 23.7712 40.7041 24.2022 41.0352C24.6369 41.3628 24.9871 41.7514 25.2529 42.201C25.5187 42.6507 25.6804 43.1439 25.7379 43.6806H22.7097Z" fill="#0043C0"/>
<path d="M30.2599 40.1464V50.8536H27.2641V40.1464H30.2599Z" fill="#0043C0"/>
<path d="M31.3779 42.4886V40.1464H40.9688V42.4886H37.6497V50.8536H34.697V42.4886H31.3779Z" fill="#0043C0"/>
<path d="M45.0921 40.1464V50.8536H42.0963V40.1464H45.0921Z" fill="#0043C0"/>
<path d="M46.555 50.8536V49.2433L51.7707 42.4886H46.5765V40.1464H55.5855V41.7567L50.3698 48.5114H55.564V50.8536H46.555Z" fill="#0043C0"/>
<path d="M57.0471 50.8536V40.1464H65V42.4886H60.0429V44.3289H64.5905V46.6711H60.0429V48.5114H64.9784V50.8536H57.0471Z" fill="#0043C0"/>
<path d="M3.89409 61.2235H2V55.2396H3.95409C4.52736 55.2396 5.01969 55.3594 5.43108 55.599C5.84247 55.8366 6.15767 56.1785 6.3767 56.6245C6.59763 57.0687 6.7081 57.6014 6.7081 58.2228C6.7081 58.8461 6.59668 59.3818 6.37384 59.8298C6.15291 60.2778 5.83295 60.6226 5.41394 60.8641C4.99494 61.1037 4.48832 61.2235 3.89409 61.2235ZM2.88277 60.4346H3.84553C4.2912 60.4346 4.66164 60.3489 4.95684 60.1775C5.25205 60.0041 5.47298 59.7538 5.61963 59.4266C5.76629 59.0974 5.83961 58.6961 5.83961 58.2228C5.83961 57.7533 5.76629 57.355 5.61963 57.0278C5.47489 56.7005 5.25872 56.4522 4.97113 56.2827C4.68354 56.1132 4.32643 56.0285 3.89981 56.0285H2.88277V60.4346Z" fill="#0043C0"/>
<path d="M9.78941 61.3141C9.35707 61.3141 8.98473 61.2196 8.67238 61.0307C8.36194 60.8398 8.12196 60.572 7.95245 60.2272C7.78485 59.8804 7.70105 59.4743 7.70105 59.0088C7.70105 58.5491 7.78485 58.1439 7.95245 57.7933C8.12196 57.4427 8.35813 57.169 8.66095 56.9722C8.96569 56.7755 9.32184 56.6771 9.72942 56.6771C9.97701 56.6771 10.217 56.719 10.4493 56.8028C10.6817 56.8865 10.8903 57.018 11.075 57.1972C11.2597 57.3764 11.4054 57.6092 11.5121 57.8955C11.6187 58.1799 11.6721 58.5257 11.6721 58.9328V59.2425H8.18386V58.588H10.835C10.835 58.3582 10.7893 58.1546 10.6979 57.9774C10.6065 57.7981 10.4779 57.6569 10.3122 57.5537C10.1484 57.4505 9.95606 57.3988 9.73513 57.3988C9.49516 57.3988 9.28565 57.4592 9.10662 57.58C8.9295 57.6988 8.79237 57.8546 8.69524 58.0475C8.60001 58.2384 8.55239 58.4458 8.55239 58.6698V59.1812C8.55239 59.4811 8.60382 59.7363 8.70666 59.9467C8.81142 60.157 8.95711 60.3177 9.14376 60.4288C9.33041 60.5379 9.54848 60.5924 9.79798 60.5924C9.95987 60.5924 10.1075 60.569 10.2408 60.5223C10.3741 60.4736 10.4893 60.4015 10.5865 60.3061C10.6836 60.2106 10.7579 60.0928 10.8093 59.9525L11.6178 60.1015C11.553 60.345 11.4369 60.5583 11.2693 60.7414C11.1036 60.9226 10.895 61.0638 10.6436 61.1651C10.3941 61.2644 10.1094 61.3141 9.78941 61.3141Z" fill="#0043C0"/>
<path d="M16.069 57.8313L15.2948 57.9715C15.2624 57.8702 15.211 57.7738 15.1405 57.6822C15.0719 57.5907 14.9786 57.5157 14.8605 57.4573C14.7424 57.3988 14.5948 57.3696 14.4177 57.3696C14.1758 57.3696 13.9739 57.4251 13.8121 57.5362C13.6502 57.6452 13.5692 57.7865 13.5692 57.9598C13.5692 58.1098 13.6235 58.2306 13.7321 58.3221C13.8406 58.4137 14.0159 58.4887 14.2577 58.5471L14.9548 58.7107C15.3586 58.8062 15.6595 58.9533 15.8576 59.1519C16.0556 59.3506 16.1547 59.6087 16.1547 59.9262C16.1547 60.195 16.0785 60.4346 15.9261 60.645C15.7757 60.8534 15.5652 61.017 15.2948 61.1359C15.0262 61.2547 14.7148 61.3141 14.3606 61.3141C13.8692 61.3141 13.4683 61.207 13.1578 60.9927C12.8474 60.7765 12.6569 60.4697 12.5865 60.0723L13.4121 59.9438C13.4635 60.1639 13.5692 60.3304 13.7292 60.4434C13.8892 60.5544 14.0977 60.6099 14.3549 60.6099C14.6348 60.6099 14.8586 60.5505 15.0262 60.4317C15.1938 60.3109 15.2776 60.1639 15.2776 59.9905C15.2776 59.8503 15.2262 59.7324 15.1234 59.637C15.0224 59.5415 14.8672 59.4694 14.6577 59.4207L13.9149 59.2542C13.5054 59.1588 13.2026 59.0068 13.0064 58.7984C12.8122 58.59 12.715 58.326 12.715 58.0066C12.715 57.7417 12.7874 57.5099 12.9321 57.3112C13.0769 57.1125 13.2769 56.9576 13.5321 56.8466C13.7873 56.7336 14.0797 56.6771 14.4091 56.6771C14.8834 56.6771 15.2567 56.7823 15.529 56.9927C15.8014 57.2011 15.9814 57.4806 16.069 57.8313Z" fill="#0043C0"/>
<path d="M17.2548 61.2235V56.7356H18.109V61.2235H17.2548ZM17.6862 56.0431C17.5376 56.0431 17.41 55.9925 17.3033 55.8912C17.1986 55.7879 17.1462 55.6652 17.1462 55.523C17.1462 55.3789 17.1986 55.2561 17.3033 55.1549C17.41 55.0516 17.5376 55 17.6862 55C17.8347 55 17.9614 55.0516 18.0661 55.1549C18.1728 55.2561 18.2261 55.3789 18.2261 55.523C18.2261 55.6652 18.1728 55.7879 18.0661 55.8912C17.9614 55.9925 17.8347 56.0431 17.6862 56.0431Z" fill="#0043C0"/>
<path d="M21.2589 63C20.9103 63 20.6103 62.9533 20.3589 62.8598C20.1094 62.7663 19.9057 62.6426 19.7476 62.4887C19.5895 62.3348 19.4714 62.1663 19.3933 61.9832L20.1275 61.6735C20.179 61.7592 20.2475 61.8498 20.3332 61.9452C20.4208 62.0426 20.5389 62.1254 20.6875 62.1936C20.8379 62.2617 21.0313 62.2958 21.2674 62.2958C21.5912 62.2958 21.8588 62.215 22.0702 62.0533C22.2816 61.8936 22.3873 61.6384 22.3873 61.2878V60.4054H22.333C22.2816 60.5009 22.2073 60.607 22.1102 60.7239C22.015 60.8408 21.8835 60.942 21.7159 61.0278C21.5483 61.1135 21.3303 61.1563 21.0617 61.1563C20.7151 61.1563 20.4027 61.0735 20.1247 60.908C19.8485 60.7404 19.6295 60.494 19.4676 60.1687C19.3076 59.8415 19.2276 59.4392 19.2276 58.962C19.2276 58.4848 19.3067 58.0757 19.4647 57.7348C19.6247 57.394 19.8438 57.1329 20.1218 56.9518C20.3999 56.7687 20.7151 56.6771 21.0674 56.6771C21.3398 56.6771 21.5598 56.7239 21.7274 56.8174C21.895 56.9089 22.0254 57.0161 22.1188 57.1388C22.214 57.2615 22.2873 57.3696 22.3387 57.4631H22.4016V56.7356H23.2386V61.3229C23.2386 61.7085 23.151 62.0251 22.9758 62.2725C22.8006 62.5198 22.5635 62.7029 22.2645 62.8218C21.9674 62.9406 21.6321 63 21.2589 63ZM21.2503 60.4317C21.496 60.4317 21.7036 60.3733 21.8731 60.2564C22.0445 60.1376 22.174 59.9681 22.2616 59.748C22.3511 59.5259 22.3959 59.26 22.3959 58.9503C22.3959 58.6484 22.3521 58.3825 22.2645 58.1527C22.1769 57.9228 22.0483 57.7436 21.8788 57.615C21.7093 57.4845 21.4998 57.4193 21.2503 57.4193C20.9932 57.4193 20.7789 57.4875 20.6075 57.6238C20.4361 57.7582 20.3066 57.9413 20.219 58.1731C20.1332 58.4049 20.0904 58.664 20.0904 58.9503C20.0904 59.2445 20.1342 59.5026 20.2218 59.7246C20.3094 59.9467 20.4389 60.12 20.6103 60.2447C20.7837 60.3694 20.997 60.4317 21.2503 60.4317Z" fill="#0043C0"/>
<path d="M25.3993 58.5588V61.2235H24.5451V56.7356H25.3651V57.466H25.4193C25.5203 57.2284 25.6784 57.0375 25.8936 56.8934C26.1107 56.7492 26.384 56.6771 26.7135 56.6771C27.0125 56.6771 27.2744 56.7414 27.4991 56.87C27.7239 56.9966 27.8981 57.1855 28.0219 57.4368C28.1457 57.6881 28.2076 57.9988 28.2076 58.3689V61.2235H27.3534V58.4741C27.3534 58.1488 27.2706 57.8946 27.1049 57.7115C26.9392 57.5264 26.7116 57.4339 26.4221 57.4339C26.224 57.4339 26.0479 57.4777 25.8936 57.5654C25.7412 57.653 25.6203 57.7816 25.5308 57.9511C25.4431 58.1186 25.3993 58.3212 25.3993 58.5588Z" fill="#0043C0"/>
<path d="M35.0638 56.8115C35.0333 56.5349 34.9076 56.3207 34.6867 56.1687C34.4657 56.0149 34.1877 55.9379 33.8525 55.9379C33.6125 55.9379 33.4049 55.9769 33.2297 56.0548C33.0544 56.1308 32.9183 56.2359 32.8211 56.3703C32.7259 56.5028 32.6783 56.6538 32.6783 56.8232C32.6783 56.9654 32.7107 57.0881 32.7754 57.1914C32.8421 57.2946 32.9287 57.3813 33.0354 57.4514C33.144 57.5196 33.2601 57.5771 33.3839 57.6238C33.5077 57.6686 33.6268 57.7056 33.741 57.7348L34.3124 57.8868C34.4991 57.9335 34.6905 57.9968 34.8866 58.0767C35.0828 58.1566 35.2647 58.2617 35.4323 58.3923C35.5999 58.5228 35.7351 58.6844 35.838 58.8773C35.9427 59.0701 35.9951 59.3009 35.9951 59.5698C35.9951 59.9087 35.9094 60.2096 35.738 60.4726C35.5685 60.7356 35.3218 60.943 34.9981 61.095C34.6762 61.2469 34.2867 61.3229 33.8296 61.3229C33.3916 61.3229 33.0125 61.2518 32.6926 61.1096C32.3726 60.9674 32.1222 60.7658 31.9412 60.5047C31.7603 60.2418 31.6603 59.9301 31.6413 59.5698H32.5269C32.544 59.786 32.6126 59.9662 32.7326 60.1103C32.8545 60.2525 33.0097 60.3587 33.1982 60.4288C33.3887 60.497 33.5972 60.531 33.8239 60.531C34.0734 60.531 34.2953 60.4911 34.4895 60.4112C34.6857 60.3294 34.84 60.2165 34.9524 60.0723C35.0647 59.9262 35.1209 59.7558 35.1209 59.561C35.1209 59.3837 35.0714 59.2386 34.9724 59.1256C34.8752 59.0127 34.7429 58.9192 34.5752 58.8451C34.4095 58.7711 34.2219 58.7059 34.0124 58.6494L33.3211 58.4565C32.8526 58.326 32.4812 58.1342 32.2069 57.8809C31.9346 57.6277 31.7984 57.2927 31.7984 56.8758C31.7984 56.531 31.8898 56.2301 32.0726 55.973C32.2555 55.7159 32.5031 55.5162 32.8154 55.374C33.1278 55.2299 33.4801 55.1578 33.8725 55.1578C34.2686 55.1578 34.6181 55.2289 34.9209 55.3711C35.2257 55.5133 35.4656 55.709 35.6409 55.9584C35.8161 56.2057 35.9075 56.4901 35.9151 56.8115H35.0638Z" fill="#0043C0"/>
<path d="M37.1423 61.2235V56.7356H37.9622V57.466H38.0165C38.1079 57.2187 38.2575 57.0258 38.465 56.8875C38.6726 56.7473 38.9212 56.6771 39.2107 56.6771C39.504 56.6771 39.7497 56.7473 39.9478 56.8875C40.1477 57.0278 40.2953 57.2206 40.3906 57.466H40.4363C40.541 57.2264 40.7077 57.0355 40.9362 56.8934C41.1648 56.7492 41.4371 56.6771 41.7533 56.6771C42.1513 56.6771 42.4761 56.8047 42.7275 57.0599C42.9808 57.3151 43.1074 57.6998 43.1074 58.214V61.2235H42.2532V58.2958C42.2532 57.992 42.1723 57.7719 42.0104 57.6355C41.8485 57.4991 41.6552 57.431 41.4305 57.431C41.1524 57.431 40.9362 57.5186 40.782 57.6939C40.6277 57.8673 40.5506 58.0903 40.5506 58.363V61.2235H39.6992V58.2403C39.6992 57.9968 39.6249 57.8011 39.4764 57.653C39.3278 57.505 39.1345 57.431 38.8964 57.431C38.7345 57.431 38.585 57.4748 38.4479 57.5625C38.3127 57.6482 38.2032 57.768 38.1194 57.9218C38.0375 58.0757 37.9965 58.254 37.9965 58.4565V61.2235H37.1423Z" fill="#0043C0"/>
<path d="M45.6902 61.3229C45.4122 61.3229 45.1608 61.2703 44.936 61.1651C44.7113 61.058 44.5332 60.9031 44.4018 60.7005C44.2723 60.4979 44.2075 60.2496 44.2075 59.9554C44.2075 59.7022 44.2551 59.4938 44.3504 59.3302C44.4456 59.1665 44.5742 59.037 44.736 58.9416C44.8979 58.8461 45.0789 58.774 45.2788 58.7253C45.4788 58.6766 45.6826 58.6396 45.8902 58.6143C46.153 58.5832 46.3664 58.5578 46.5301 58.5383C46.6939 58.5169 46.813 58.4828 46.8873 58.4361C46.9615 58.3893 46.9987 58.3134 46.9987 58.2082V58.1877C46.9987 57.9326 46.9282 57.7348 46.7873 57.5946C46.6482 57.4543 46.4406 57.3842 46.1645 57.3842C45.8769 57.3842 45.6502 57.4495 45.4845 57.58C45.3207 57.7085 45.2074 57.8517 45.1446 58.0095L44.3418 57.8225C44.437 57.5498 44.5761 57.3297 44.7589 57.1622C44.9436 56.9927 45.156 56.87 45.396 56.794C45.636 56.7161 45.8883 56.6771 46.153 56.6771C46.3283 56.6771 46.514 56.6986 46.7101 56.7414C46.9082 56.7823 47.0929 56.8583 47.2644 56.9693C47.4377 57.0804 47.5796 57.2391 47.69 57.4456C47.8005 57.6501 47.8557 57.916 47.8557 58.2432V61.2235H47.0215V60.6099H46.9872C46.932 60.7229 46.8492 60.8339 46.7387 60.943C46.6282 61.0521 46.4863 61.1427 46.313 61.2148C46.1397 61.2868 45.9321 61.3229 45.6902 61.3229ZM45.8759 60.6216C46.1121 60.6216 46.314 60.5739 46.4816 60.4785C46.6511 60.383 46.7796 60.2583 46.8673 60.1045C46.9568 59.9486 47.0015 59.7821 47.0015 59.6048V59.0263C46.9711 59.0575 46.912 59.0867 46.8244 59.114C46.7387 59.1393 46.6406 59.1617 46.5301 59.1812C46.4197 59.1987 46.3121 59.2152 46.2073 59.2308C46.1026 59.2445 46.015 59.2561 45.9445 59.2659C45.7788 59.2873 45.6274 59.3234 45.4903 59.374C45.355 59.4246 45.2465 59.4977 45.1646 59.5931C45.0846 59.6866 45.0446 59.8113 45.0446 59.9671C45.0446 60.1833 45.1227 60.347 45.2788 60.458C45.435 60.5671 45.634 60.6216 45.8759 60.6216Z" fill="#0043C0"/>
<path d="M49.1544 61.2235V56.7356H49.98V57.4485H50.0257C50.1057 57.207 50.2466 57.017 50.4485 56.8787C50.6523 56.7385 50.8828 56.6684 51.1399 56.6684C51.1932 56.6684 51.2561 56.6703 51.3284 56.6742C51.4027 56.6781 51.4608 56.683 51.5027 56.6888V57.5245C51.4684 57.5147 51.4075 57.504 51.3199 57.4923C51.2323 57.4787 51.1446 57.4719 51.057 57.4719C50.8551 57.4719 50.6752 57.5157 50.5171 57.6034C50.3609 57.6891 50.2371 57.8089 50.1457 57.9627C50.0543 58.1147 50.0086 58.288 50.0086 58.4828V61.2235H49.1544Z" fill="#0043C0"/>
<path d="M54.7104 56.7356V57.4368H52.3135V56.7356H54.7104ZM52.9563 55.6603H53.8105V59.9058C53.8105 60.0752 53.8353 60.2028 53.8848 60.2885C53.9343 60.3723 53.9981 60.4298 54.0762 60.4609C54.1562 60.4901 54.2429 60.5047 54.3362 60.5047C54.4048 60.5047 54.4647 60.4999 54.5162 60.4901C54.5676 60.4804 54.6076 60.4726 54.6362 60.4668L54.7904 61.1885C54.7409 61.2079 54.6704 61.2274 54.579 61.2469C54.4876 61.2683 54.3733 61.28 54.2362 61.282C54.0115 61.2859 53.802 61.2449 53.6077 61.1592C53.4134 61.0735 53.2563 60.9411 53.1363 60.7619C53.0163 60.5827 52.9563 60.3577 52.9563 60.0869V55.6603Z" fill="#0043C0"/>
<path d="M57.6603 61.3141C57.228 61.3141 56.8557 61.2196 56.5433 61.0307C56.2329 60.8398 55.9929 60.572 55.8234 60.2272C55.6558 59.8804 55.572 59.4743 55.572 59.0088C55.572 58.5491 55.6558 58.1439 55.8234 57.7933C55.9929 57.4427 56.2291 57.169 56.5319 56.9722C56.8366 56.7755 57.1928 56.6771 57.6003 56.6771C57.8479 56.6771 58.0879 56.719 58.3203 56.8028C58.5526 56.8865 58.7612 57.018 58.9459 57.1972C59.1307 57.3764 59.2764 57.6092 59.383 57.8955C59.4897 58.1799 59.543 58.5257 59.543 58.9328V59.2425H56.0548V58.588H58.7059C58.7059 58.3582 58.6602 58.1546 58.5688 57.9774C58.4774 57.7981 58.3488 57.6569 58.1831 57.5537C58.0193 57.4505 57.827 57.3988 57.6061 57.3988C57.3661 57.3988 57.1566 57.4592 56.9775 57.58C56.8004 57.6988 56.6633 57.8546 56.5662 58.0475C56.4709 58.2384 56.4233 58.4458 56.4233 58.6698V59.1812C56.4233 59.4811 56.4747 59.7363 56.5776 59.9467C56.6823 60.157 56.828 60.3177 57.0147 60.4288C57.2013 60.5379 57.4194 60.5924 57.6689 60.5924C57.8308 60.5924 57.9784 60.569 58.1117 60.5223C58.245 60.4736 58.3603 60.4015 58.4574 60.3061C58.5545 60.2106 58.6288 60.0928 58.6802 59.9525L59.4887 60.1015C59.424 60.345 59.3078 60.5583 59.1402 60.7414C58.9745 60.9226 58.7659 61.0638 58.5145 61.1651C58.265 61.2644 57.9803 61.3141 57.6603 61.3141Z" fill="#0043C0"/>
<path d="M60.6517 61.2235V56.7356H61.4773V57.4485H61.523C61.603 57.207 61.7439 57.017 61.9458 56.8787C62.1496 56.7385 62.3801 56.6684 62.6372 56.6684C62.6905 56.6684 62.7534 56.6703 62.8257 56.6742C62.9 56.6781 62.9581 56.683 63 56.6888V57.5245C62.9657 57.5147 62.9048 57.504 62.8172 57.4923C62.7295 57.4787 62.6419 57.4719 62.5543 57.4719C62.3524 57.4719 62.1725 57.5157 62.0144 57.6034C61.8582 57.6891 61.7344 57.8089 61.643 57.9627C61.5516 58.1147 61.5059 58.288 61.5059 58.4828V61.2235H60.6517Z" fill="#0043C0"/>
<defs>
<filter id="filter0_i_3509_2004" x="17" y="0" width="32" height="34" filterUnits="userSpaceOnUse" color-interpolation-filters="sRGB">
<feFlood flood-opacity="0" result="BackgroundImageFix"/>
<feBlend mode="normal" in="SourceGraphic" in2="BackgroundImageFix" result="shape"/>
<feColorMatrix in="SourceAlpha" type="matrix" values="0 0 0 0 0 0 0 0 0 0 0 0 0 0 0 0 0 0 127 0" result="hardAlpha"/>
<feOffset dy="2"/>
<feGaussianBlur stdDeviation="2"/>
<feComposite in2="hardAlpha" operator="arithmetic" k2="-1" k3="1"/>
<feColorMatrix type="matrix" values="0 0 0 0 0 0 0 0 0 0 0 0 0 0 0 0 0 0 0.25 0"/>
<feBlend mode="normal" in2="shape" result="effect1_innerShadow_3509_2004"/>
</filter>
<filter id="filter1_d_3509_2004" x="18.8" y="9.7998" width="28.4851" height="16.4004" filterUnits="userSpaceOnUse" color-interpolation-filters="sRGB">
<feFlood flood-opacity="0" result="BackgroundImageFix"/>
<feColorMatrix in="SourceAlpha" type="matrix" values="0 0 0 0 0 0 0 0 0 0 0 0 0 0 0 0 0 0 127 0" result="hardAlpha"/>
<feOffset dy="2"/>
<feGaussianBlur stdDeviation="2"/>
<feComposite in2="hardAlpha" operator="out"/>
<feColorMatrix type="matrix" values="0 0 0 0 0 0 0 0 0 0 0 0 0 0 0 0 0 0 0.25 0"/>
<feBlend mode="normal" in2="BackgroundImageFix" result="effect1_dropShadow_3509_2004"/>
<feBlend mode="normal" in="SourceGraphic" in2="effect1_dropShadow_3509_2004" result="shape"/>
</filter>
<linearGradient id="paint0_linear_3509_2004" x1="42.5001" y1="4" x2="42.5001" y2="10" gradientUnits="userSpaceOnUse">
<stop stop-color="white" stop-opacity="0"/>
<stop offset="0.525" stop-color="white"/>
<stop offset="1" stop-color="white" stop-opacity="0"/>
</linearGradient>
<linearGradient id="paint1_linear_3509_2004" x1="39" y1="8.80017" x2="45" y2="8.80017" gradientUnits="userSpaceOnUse">
<stop stop-color="white" stop-opacity="0"/>
<stop offset="0.525" stop-color="white"/>
<stop offset="1" stop-color="white" stop-opacity="0"/>
</linearGradient>
</defs>
</svg>
