<svg width="93" height="80" viewBox="0 0 93 80" fill="none" xmlns="http://www.w3.org/2000/svg">
<rect x="26.5" width="40" height="40" rx="8" fill="#0043C0"/>
<path d="M32.5 26V15H35.6543L40.2069 22.1814H38.5484L42.9709 15H46.1252L46.1577 26H42.662L42.6295 20.0914H43.1823L40.1581 25.01H38.4671L35.3128 20.0914H35.9957V26H32.5Z" fill="white"/>
<path d="M46.7772 26L51.7525 15H55.5247L60.5 26H56.5328L52.8582 16.76H54.354L50.6794 26H46.7772ZM49.7364 24.0829L50.712 21.4114H55.9474L56.923 24.0829H49.7364Z" fill="white"/>
<path d="M56.9167 4L56.9167 12M60.3833 4L60.3833 12" stroke="url(#paint0_linear_3155_2923)" stroke-width="0.3"/>
<path d="M54.5 6.1167H62.5M54.5 9.5834H62.5" stroke="url(#paint1_linear_3155_2923)" stroke-width="0.3"/>
<path d="M0 65.3999V51.5999H6.504C8.088 51.5999 9.464 51.8799 10.632 52.4399C11.816 52.9999 12.728 53.7999 13.368 54.8399C14.024 55.8639 14.352 57.0879 14.352 58.5119C14.352 59.9199 14.024 61.1439 13.368 62.1839C12.728 63.2079 11.816 63.9999 10.632 64.5599C9.464 65.1199 8.088 65.3999 6.504 65.3999H0ZM3.792 62.4239H6.384C7.232 62.4239 7.96 62.2719 8.568 61.9679C9.192 61.6639 9.672 61.2239 10.008 60.6479C10.344 60.0559 10.512 59.3439 10.512 58.5119C10.512 57.6639 10.344 56.9519 10.008 56.3759C9.672 55.7839 9.192 55.3359 8.568 55.0319C7.96 54.7279 7.232 54.5759 6.384 54.5759H3.792V62.4239Z" fill="#0043C0"/>
<path d="M17.0391 65.3999V51.5999H20.8311V65.3999H17.0391Z" fill="#0043C0"/>
<path d="M37.0202 63.9119C36.5082 64.2799 35.9322 64.5999 35.2922 64.8719C34.6682 65.1279 34.0122 65.3199 33.3242 65.4479C32.6522 65.5919 31.9882 65.6639 31.3322 65.6639C29.7962 65.6639 28.4362 65.3599 27.2522 64.7519C26.0682 64.1279 25.1402 63.2719 24.4682 62.1839C23.8122 61.0959 23.4842 59.8719 23.4842 58.5119C23.4842 57.1199 23.8202 55.8879 24.4922 54.8159C25.1642 53.7439 26.0922 52.8959 27.2762 52.2719C28.4602 51.6479 29.8042 51.3359 31.3082 51.3359C32.6522 51.3359 33.8202 51.5439 34.8122 51.9599C35.8202 52.3599 36.6602 52.9759 37.3322 53.8079L34.8362 56.0399C34.3722 55.4959 33.8442 55.0959 33.2522 54.8399C32.6762 54.5679 32.0442 54.4319 31.3562 54.4319C30.5722 54.4319 29.8762 54.6079 29.2682 54.9599C28.6602 55.2959 28.1802 55.7679 27.8282 56.3759C27.4762 56.9839 27.3002 57.6959 27.3002 58.5119C27.3002 59.2959 27.4762 59.9999 27.8282 60.6239C28.1802 61.2319 28.6602 61.7119 29.2682 62.0639C29.8762 62.3999 30.5882 62.5679 31.4042 62.5679C32.0762 62.5679 32.6842 62.4639 33.2282 62.2559C33.7882 62.0479 34.3402 61.7359 34.8842 61.3199L37.0202 63.9119ZM33.5642 63.9599V58.3199H37.0202V63.9119L33.5642 63.9599Z" fill="#0043C0"/>
<path d="M40.3125 65.3999V51.5999H44.1045V65.3999H40.3125Z" fill="#0043C0"/>
<path d="M50.3576 65.3999V54.5519H46.0136V51.5999H58.4936V54.5519H54.1496V65.3999H50.3576Z" fill="#0043C0"/>
<path d="M60.4453 65.3999V51.5999H64.2373V65.3999H60.4453Z" fill="#0043C0"/>
<path d="M66.9144 65.3999V63.0239L75.2664 53.2559L75.6984 54.5519H67.0824V51.5999H79.0824V53.9759L70.7064 63.7439L70.2744 62.4479H79.3704V65.3999H66.9144Z" fill="#0043C0"/>
<path d="M85.11 57.0239H91.782V59.7839H85.11V57.0239ZM85.494 62.4959H92.862V65.3999H81.75V51.5999H92.598V54.5039H85.494V62.4959Z" fill="#0043C0"/>
<path d="M10.1689 73.7158C10.1689 74.5199 10.0225 75.1921 9.72949 75.7324C9.43652 76.2695 9.01172 76.6748 8.45508 76.9482C7.90169 77.2184 7.22949 77.3535 6.43848 77.3535H4.5V70.2148H6.65332C7.37923 70.2148 8.00423 70.3483 8.52832 70.6152C9.05241 70.8789 9.45605 71.2712 9.73926 71.792C10.0257 72.3096 10.1689 72.9508 10.1689 73.7158ZM9.29492 73.7451C9.29492 73.1038 9.1875 72.5749 8.97266 72.1582C8.76107 71.7415 8.44857 71.4323 8.03516 71.2305C7.625 71.0254 7.12207 70.9229 6.52637 70.9229H5.33008V76.6406H6.34082C7.32389 76.6406 8.0612 76.3981 8.55273 75.9131C9.04753 75.4281 9.29492 74.7054 9.29492 73.7451Z" fill="#0043C0"/>
<path d="M14.6943 71.9043C15.1501 71.9043 15.5407 72.0052 15.8662 72.207C16.1917 72.4089 16.4408 72.6921 16.6133 73.0566C16.7858 73.418 16.8721 73.8411 16.8721 74.3262V74.8291H13.1758C13.1855 75.4574 13.3418 75.9359 13.6445 76.2646C13.9473 76.5934 14.3737 76.7578 14.9238 76.7578C15.2624 76.7578 15.5618 76.7269 15.8223 76.665C16.0827 76.6032 16.3529 76.512 16.6328 76.3916V77.1045C16.3626 77.2249 16.0941 77.3128 15.8271 77.3682C15.5635 77.4235 15.251 77.4512 14.8896 77.4512C14.3753 77.4512 13.9261 77.347 13.542 77.1387C13.1611 76.9271 12.8649 76.6178 12.6533 76.2109C12.4417 75.804 12.3359 75.306 12.3359 74.7168C12.3359 74.1406 12.432 73.6426 12.624 73.2227C12.8193 72.7995 13.0928 72.474 13.4443 72.2461C13.7992 72.0182 14.2158 71.9043 14.6943 71.9043ZM14.6846 72.5684C14.2516 72.5684 13.9066 72.71 13.6494 72.9932C13.3923 73.2764 13.2393 73.6719 13.1904 74.1797H16.0225C16.0192 73.8607 15.9688 73.5807 15.8711 73.3398C15.7767 73.0957 15.6318 72.9069 15.4365 72.7734C15.2412 72.6367 14.9906 72.5684 14.6846 72.5684Z" fill="#0043C0"/>
<path d="M22.7109 75.8887C22.7109 76.2305 22.6247 76.5186 22.4521 76.7529C22.2829 76.984 22.0387 77.1582 21.7197 77.2754C21.404 77.3926 21.0264 77.4512 20.5869 77.4512C20.2126 77.4512 19.8887 77.4219 19.6152 77.3633C19.3418 77.3047 19.1025 77.2217 18.8975 77.1143V76.3672C19.1156 76.4746 19.376 76.5723 19.6787 76.6602C19.9814 76.748 20.2907 76.792 20.6064 76.792C21.0687 76.792 21.404 76.7171 21.6123 76.5674C21.8206 76.4176 21.9248 76.2142 21.9248 75.957C21.9248 75.8105 21.8825 75.682 21.7979 75.5713C21.7165 75.4574 21.5781 75.3483 21.3828 75.2441C21.1875 75.1367 20.9173 75.0195 20.5723 74.8926C20.2305 74.7624 19.9342 74.6338 19.6836 74.5068C19.4362 74.3766 19.2441 74.2188 19.1074 74.0332C18.974 73.8477 18.9072 73.6068 18.9072 73.3105C18.9072 72.8581 19.0895 72.5114 19.4541 72.2705C19.8219 72.0264 20.3037 71.9043 20.8994 71.9043C21.2217 71.9043 21.5228 71.9368 21.8027 72.002C22.0859 72.0638 22.3496 72.1484 22.5938 72.2559L22.3203 72.9053C22.099 72.8109 21.863 72.7311 21.6123 72.666C21.3617 72.6009 21.1061 72.5684 20.8457 72.5684C20.4714 72.5684 20.1833 72.6302 19.9814 72.7539C19.7829 72.8776 19.6836 73.0469 19.6836 73.2617C19.6836 73.4277 19.7292 73.5645 19.8203 73.6719C19.9147 73.7793 20.0645 73.8802 20.2695 73.9746C20.4746 74.069 20.7448 74.1797 21.0801 74.3066C21.4154 74.4303 21.7051 74.5589 21.9492 74.6924C22.1934 74.8226 22.3805 74.9821 22.5107 75.1709C22.6442 75.3564 22.7109 75.5957 22.7109 75.8887Z" fill="#0043C0"/>
<path d="M25.8252 72.002V77.3535H25.0146V72.002H25.8252ZM25.4297 70C25.5632 70 25.6771 70.0439 25.7715 70.1318C25.8691 70.2165 25.918 70.3499 25.918 70.5322C25.918 70.7113 25.8691 70.8447 25.7715 70.9326C25.6771 71.0205 25.5632 71.0645 25.4297 71.0645C25.2897 71.0645 25.1725 71.0205 25.0781 70.9326C24.987 70.8447 24.9414 70.7113 24.9414 70.5322C24.9414 70.3499 24.987 70.2165 25.0781 70.1318C25.1725 70.0439 25.2897 70 25.4297 70Z" fill="#0043C0"/>
<path d="M30.0381 79.7559C29.335 79.7559 28.793 79.624 28.4121 79.3604C28.0312 79.0999 27.8408 78.7337 27.8408 78.2617C27.8408 77.9264 27.9466 77.64 28.1582 77.4023C28.373 77.1647 28.6693 77.0068 29.0469 76.9287C28.9069 76.8636 28.7865 76.766 28.6855 76.6357C28.5879 76.5055 28.5391 76.3558 28.5391 76.1865C28.5391 75.9912 28.5928 75.8203 28.7002 75.6738C28.8109 75.5241 28.9785 75.3809 29.2031 75.2441C28.9232 75.1302 28.6953 74.9382 28.5195 74.668C28.347 74.3945 28.2607 74.0771 28.2607 73.7158C28.2607 73.3317 28.3405 73.0046 28.5 72.7344C28.6595 72.4609 28.8906 72.2526 29.1934 72.1094C29.4961 71.9661 29.8623 71.8945 30.292 71.8945C30.3864 71.8945 30.4808 71.8994 30.5752 71.9092C30.6729 71.9157 30.7656 71.9271 30.8535 71.9434C30.9414 71.9564 31.0179 71.9727 31.083 71.9922H32.9189V72.5146L31.9326 72.6367C32.0303 72.7637 32.1117 72.9167 32.1768 73.0957C32.2419 73.2747 32.2744 73.4733 32.2744 73.6914C32.2744 74.2253 32.0938 74.6501 31.7324 74.9658C31.3711 75.2783 30.8747 75.4346 30.2432 75.4346C30.0934 75.4346 29.9404 75.4215 29.7842 75.3955C29.6247 75.4834 29.5026 75.5811 29.418 75.6885C29.3366 75.7959 29.2959 75.9196 29.2959 76.0596C29.2959 76.1637 29.3268 76.2467 29.3887 76.3086C29.4538 76.3704 29.5465 76.416 29.667 76.4453C29.7874 76.4714 29.9323 76.4844 30.1016 76.4844H31.0439C31.6266 76.4844 32.0726 76.6064 32.3818 76.8506C32.6943 77.0947 32.8506 77.4512 32.8506 77.9199C32.8506 78.5124 32.6097 78.9665 32.1279 79.2822C31.6462 79.598 30.9495 79.7559 30.0381 79.7559ZM30.0625 79.1211C30.5052 79.1211 30.8714 79.0755 31.1611 78.9844C31.4541 78.8965 31.6722 78.7679 31.8154 78.5986C31.9619 78.4326 32.0352 78.234 32.0352 78.0029C32.0352 77.7881 31.9863 77.6253 31.8887 77.5146C31.791 77.4072 31.6478 77.3356 31.459 77.2998C31.2702 77.2607 31.0391 77.2412 30.7656 77.2412H29.8379C29.597 77.2412 29.387 77.2786 29.208 77.3535C29.029 77.4284 28.8906 77.5391 28.793 77.6855C28.6986 77.832 28.6514 78.0143 28.6514 78.2324C28.6514 78.5221 28.7734 78.7419 29.0176 78.8916C29.2617 79.0446 29.61 79.1211 30.0625 79.1211ZM30.2725 74.8438C30.6598 74.8438 30.9512 74.7461 31.1465 74.5508C31.3418 74.3555 31.4395 74.0706 31.4395 73.6963C31.4395 73.2959 31.3402 72.9964 31.1416 72.7979C30.943 72.596 30.6501 72.4951 30.2627 72.4951C29.8916 72.4951 29.6051 72.5993 29.4033 72.8076C29.2048 73.0127 29.1055 73.3138 29.1055 73.7109C29.1055 74.0755 29.2064 74.3555 29.4082 74.5508C29.61 74.7461 29.8981 74.8438 30.2725 74.8438Z" fill="#0043C0"/>
<path d="M37.5078 71.9043C38.1426 71.9043 38.6227 72.0605 38.9482 72.373C39.2738 72.6823 39.4365 73.1803 39.4365 73.8672V77.3535H38.6357V73.9209C38.6357 73.4749 38.5332 73.1413 38.3281 72.9199C38.1263 72.6986 37.8154 72.5879 37.3955 72.5879C36.8031 72.5879 36.3864 72.7555 36.1455 73.0908C35.9046 73.4261 35.7842 73.9128 35.7842 74.5508V77.3535H34.9736V72.002H35.6279L35.75 72.7734H35.7939C35.9079 72.5846 36.0527 72.4268 36.2285 72.2998C36.4043 72.1696 36.6012 72.0719 36.8193 72.0068C37.0374 71.9385 37.2669 71.9043 37.5078 71.9043Z" fill="#0043C0"/>
<path d="M49.8545 75.4541C49.8545 75.8773 49.7487 76.2386 49.5371 76.5381C49.3288 76.8343 49.0358 77.0605 48.6582 77.2168C48.2806 77.373 47.8363 77.4512 47.3252 77.4512C47.055 77.4512 46.7995 77.4382 46.5586 77.4121C46.3177 77.3861 46.0964 77.3486 45.8945 77.2998C45.6927 77.251 45.5153 77.1908 45.3623 77.1191V76.3232C45.6064 76.4242 45.9043 76.5186 46.2559 76.6064C46.6074 76.6911 46.9753 76.7334 47.3594 76.7334C47.7174 76.7334 48.0202 76.6862 48.2676 76.5918C48.515 76.4941 48.7021 76.3558 48.8291 76.1768C48.9593 75.9945 49.0244 75.7764 49.0244 75.5225C49.0244 75.2783 48.9707 75.0749 48.8633 74.9121C48.7559 74.7461 48.5768 74.5964 48.3262 74.4629C48.0788 74.3262 47.7402 74.1813 47.3105 74.0283C47.0078 73.9209 46.7409 73.8037 46.5098 73.6768C46.2786 73.5465 46.085 73.4001 45.9287 73.2373C45.7725 73.0745 45.6536 72.8857 45.5723 72.6709C45.4941 72.4561 45.4551 72.2103 45.4551 71.9336C45.4551 71.5527 45.5511 71.2272 45.7432 70.957C45.9385 70.6836 46.207 70.4753 46.5488 70.332C46.8939 70.1855 47.2894 70.1123 47.7354 70.1123C48.1162 70.1123 48.4678 70.1481 48.79 70.2197C49.1156 70.2913 49.4134 70.3874 49.6836 70.5078L49.4248 71.2207C49.1676 71.1133 48.8942 71.0238 48.6045 70.9521C48.318 70.8805 48.0218 70.8447 47.7158 70.8447C47.4098 70.8447 47.151 70.8903 46.9395 70.9814C46.7311 71.0693 46.5716 71.1947 46.4609 71.3574C46.3503 71.5202 46.2949 71.7139 46.2949 71.9385C46.2949 72.1891 46.347 72.3975 46.4512 72.5635C46.5586 72.7295 46.7279 72.8776 46.959 73.0078C47.1934 73.1348 47.5026 73.2682 47.8867 73.4082C48.3066 73.5612 48.6631 73.724 48.9561 73.8965C49.249 74.0658 49.472 74.2741 49.625 74.5215C49.778 74.7656 49.8545 75.0765 49.8545 75.4541Z" fill="#0043C0"/>
<path d="M58.0029 71.9043C58.5921 71.9043 59.0365 72.0589 59.3359 72.3682C59.6354 72.6742 59.7852 73.1673 59.7852 73.8477V77.3535H58.9844V73.8867C58.9844 73.4538 58.89 73.1299 58.7012 72.915C58.5156 72.6969 58.2389 72.5879 57.8711 72.5879C57.3535 72.5879 56.9775 72.7376 56.7432 73.0371C56.5088 73.3366 56.3916 73.7777 56.3916 74.3604V77.3535H55.5859V73.8867C55.5859 73.597 55.5436 73.3561 55.459 73.1641C55.3776 72.972 55.2539 72.8288 55.0879 72.7344C54.9251 72.6367 54.7184 72.5879 54.4678 72.5879C54.113 72.5879 53.8281 72.6611 53.6133 72.8076C53.3984 72.9541 53.2422 73.1722 53.1445 73.4619C53.0501 73.7484 53.0029 74.1016 53.0029 74.5215V77.3535H52.1924V72.002H52.8467L52.9688 72.7588H53.0127C53.1201 72.5732 53.2552 72.417 53.418 72.29C53.5807 72.1631 53.763 72.0671 53.9648 72.002C54.1667 71.9368 54.3815 71.9043 54.6094 71.9043C55.0163 71.9043 55.3564 71.9808 55.6299 72.1338C55.9066 72.2835 56.1068 72.513 56.2305 72.8223H56.2744C56.4502 72.513 56.6911 72.2835 56.9971 72.1338C57.3031 71.9808 57.6383 71.9043 58.0029 71.9043Z" fill="#0043C0"/>
<path d="M64.4521 71.9141C65.0902 71.9141 65.5638 72.0573 65.873 72.3438C66.1823 72.6302 66.3369 73.0876 66.3369 73.7158V77.3535H65.7461L65.5898 76.5625H65.5508C65.401 76.7578 65.2448 76.9222 65.082 77.0557C64.9193 77.1859 64.7305 77.2852 64.5156 77.3535C64.304 77.4186 64.0436 77.4512 63.7344 77.4512C63.4089 77.4512 63.1191 77.3942 62.8652 77.2803C62.6146 77.1663 62.416 76.9938 62.2695 76.7627C62.1263 76.5316 62.0547 76.2386 62.0547 75.8838C62.0547 75.3499 62.2663 74.9398 62.6895 74.6533C63.1126 74.3669 63.7572 74.2106 64.623 74.1846L65.5459 74.1455V73.8184C65.5459 73.3561 65.4466 73.0322 65.248 72.8467C65.0495 72.6611 64.7695 72.5684 64.4082 72.5684C64.1283 72.5684 63.8613 72.609 63.6074 72.6904C63.3535 72.7718 63.1126 72.8678 62.8848 72.9785L62.6357 72.3633C62.8766 72.2396 63.1533 72.1338 63.4658 72.0459C63.7783 71.958 64.1071 71.9141 64.4521 71.9141ZM65.5361 74.7168L64.7207 74.751C64.0534 74.777 63.583 74.8861 63.3096 75.0781C63.0361 75.2702 62.8994 75.542 62.8994 75.8936C62.8994 76.1995 62.9922 76.4258 63.1777 76.5723C63.3633 76.7188 63.6091 76.792 63.915 76.792C64.3903 76.792 64.7793 76.6602 65.082 76.3965C65.3848 76.1328 65.5361 75.7373 65.5361 75.21V74.7168Z" fill="#0043C0"/>
<path d="M71.4385 71.9043C71.5459 71.9043 71.6582 71.9108 71.7754 71.9238C71.8926 71.9336 71.9967 71.9482 72.0879 71.9678L71.9854 72.7197C71.8975 72.6969 71.7998 72.679 71.6924 72.666C71.585 72.653 71.484 72.6465 71.3896 72.6465C71.1748 72.6465 70.9714 72.6904 70.7793 72.7783C70.5905 72.863 70.4245 72.9867 70.2812 73.1494C70.138 73.3089 70.0257 73.5026 69.9443 73.7305C69.863 73.9551 69.8223 74.2057 69.8223 74.4824V77.3535H69.0068V72.002H69.6807L69.7686 72.9883H69.8027C69.9134 72.7897 70.0469 72.609 70.2031 72.4463C70.3594 72.2803 70.54 72.1484 70.7451 72.0508C70.9535 71.9531 71.1846 71.9043 71.4385 71.9043Z" fill="#0043C0"/>
<path d="M75.8271 76.7871C75.9606 76.7871 76.0973 76.7757 76.2373 76.7529C76.3773 76.7301 76.4912 76.7025 76.5791 76.6699V77.2998C76.4847 77.3421 76.3529 77.3779 76.1836 77.4072C76.0176 77.4365 75.8548 77.4512 75.6953 77.4512C75.4121 77.4512 75.1549 77.4023 74.9238 77.3047C74.6927 77.2038 74.5072 77.0345 74.3672 76.7969C74.2305 76.5592 74.1621 76.2305 74.1621 75.8105V72.6367H73.4004V72.2412L74.167 71.9238L74.4893 70.7617H74.9775V72.002H76.5449V72.6367H74.9775V75.7861C74.9775 76.1214 75.054 76.3721 75.207 76.5381C75.3633 76.7041 75.57 76.7871 75.8271 76.7871Z" fill="#0043C0"/>
<path d="M80.7236 71.9043C81.1794 71.9043 81.57 72.0052 81.8955 72.207C82.221 72.4089 82.4701 72.6921 82.6426 73.0566C82.8151 73.418 82.9014 73.8411 82.9014 74.3262V74.8291H79.2051C79.2148 75.4574 79.3711 75.9359 79.6738 76.2646C79.9766 76.5934 80.403 76.7578 80.9531 76.7578C81.2917 76.7578 81.5911 76.7269 81.8516 76.665C82.112 76.6032 82.3822 76.512 82.6621 76.3916V77.1045C82.3919 77.2249 82.1234 77.3128 81.8564 77.3682C81.5928 77.4235 81.2803 77.4512 80.9189 77.4512C80.4046 77.4512 79.9554 77.347 79.5713 77.1387C79.1904 76.9271 78.8942 76.6178 78.6826 76.2109C78.471 75.804 78.3652 75.306 78.3652 74.7168C78.3652 74.1406 78.4613 73.6426 78.6533 73.2227C78.8486 72.7995 79.1221 72.474 79.4736 72.2461C79.8285 72.0182 80.2451 71.9043 80.7236 71.9043ZM80.7139 72.5684C80.2809 72.5684 79.9359 72.71 79.6787 72.9932C79.4215 73.2764 79.2686 73.6719 79.2197 74.1797H82.0518C82.0485 73.8607 81.998 73.5807 81.9004 73.3398C81.806 73.0957 81.6611 72.9069 81.4658 72.7734C81.2705 72.6367 81.0199 72.5684 80.7139 72.5684Z" fill="#0043C0"/>
<path d="M87.71 71.9043C87.8174 71.9043 87.9297 71.9108 88.0469 71.9238C88.1641 71.9336 88.2682 71.9482 88.3594 71.9678L88.2568 72.7197C88.1689 72.6969 88.0713 72.679 87.9639 72.666C87.8564 72.653 87.7555 72.6465 87.6611 72.6465C87.4463 72.6465 87.2428 72.6904 87.0508 72.7783C86.862 72.863 86.696 72.9867 86.5527 73.1494C86.4095 73.3089 86.2972 73.5026 86.2158 73.7305C86.1344 73.9551 86.0938 74.2057 86.0938 74.4824V77.3535H85.2783V72.002H85.9521L86.04 72.9883H86.0742C86.1849 72.7897 86.3184 72.609 86.4746 72.4463C86.6309 72.2803 86.8115 72.1484 87.0166 72.0508C87.2249 71.9531 87.4561 71.9043 87.71 71.9043Z" fill="#0043C0"/>
<defs>
<linearGradient id="paint0_linear_3155_2923" x1="59.7334" y1="4" x2="59.7334" y2="12" gradientUnits="userSpaceOnUse">
<stop stop-color="white" stop-opacity="0"/>
<stop offset="0.525" stop-color="white"/>
<stop offset="1" stop-color="white" stop-opacity="0"/>
</linearGradient>
<linearGradient id="paint1_linear_3155_2923" x1="54.5" y1="10.2334" x2="62.5" y2="10.2334" gradientUnits="userSpaceOnUse">
<stop stop-color="white" stop-opacity="0"/>
<stop offset="0.525" stop-color="white"/>
<stop offset="1" stop-color="white" stop-opacity="0"/>
</linearGradient>
</defs>
</svg>
