<svg width="143" height="40" viewBox="0 0 143 40" fill="none" xmlns="http://www.w3.org/2000/svg">
<g clip-path="url(#clip0_3153_2358)">
<rect width="40" height="40" rx="8" fill="#0043C0"/>
<path d="M6 26V15H9.15429L13.7069 22.1814H12.0484L16.4709 15H19.6252L19.6577 26H16.162L16.1295 20.0914H16.6823L13.6581 25.01H11.9671L8.81284 20.0914H9.49573V26H6Z" fill="white"/>
<path d="M20.2772 26L25.2525 15H29.0247L34 26H30.0328L26.3582 16.76H27.854L24.1794 26H20.2772ZM23.2364 24.0829L24.212 21.4114H29.4474L30.423 24.0829H23.2364Z" fill="white"/>
<path d="M30.4167 4L30.4167 12M33.8833 4L33.8833 12" stroke="url(#paint0_linear_3153_2358)" stroke-width="0.3"/>
<path d="M28 6.11665H36M28 9.58335H36" stroke="url(#paint1_linear_3153_2358)" stroke-width="0.3"/>
<path d="M50 25.3999V11.5999H56.504C58.088 11.5999 59.464 11.8799 60.632 12.4399C61.816 12.9999 62.728 13.7999 63.368 14.8399C64.024 15.8639 64.352 17.0879 64.352 18.5119C64.352 19.9199 64.024 21.1439 63.368 22.1839C62.728 23.2079 61.816 23.9999 60.632 24.5599C59.464 25.1199 58.088 25.3999 56.504 25.3999H50ZM53.792 22.4239H56.384C57.232 22.4239 57.96 22.2719 58.568 21.9679C59.192 21.6639 59.672 21.2239 60.008 20.6479C60.344 20.0559 60.512 19.3439 60.512 18.5119C60.512 17.6639 60.344 16.9519 60.008 16.3759C59.672 15.7839 59.192 15.3359 58.568 15.0319C57.96 14.7279 57.232 14.5759 56.384 14.5759H53.792V22.4239Z" fill="#0043C0"/>
<path d="M67.0391 25.3999V11.5999H70.8311V25.3999H67.0391Z" fill="#0043C0"/>
<path d="M87.0202 23.9119C86.5082 24.2799 85.9322 24.5999 85.2922 24.8719C84.6682 25.1279 84.0122 25.3199 83.3242 25.4479C82.6522 25.5919 81.9882 25.6639 81.3322 25.6639C79.7962 25.6639 78.4362 25.3599 77.2522 24.7519C76.0682 24.1279 75.1402 23.2719 74.4682 22.1839C73.8122 21.0959 73.4842 19.8719 73.4842 18.5119C73.4842 17.1199 73.8202 15.8879 74.4922 14.8159C75.1642 13.7439 76.0922 12.8959 77.2762 12.2719C78.4602 11.6479 79.8042 11.3359 81.3082 11.3359C82.6522 11.3359 83.8202 11.5439 84.8122 11.9599C85.8202 12.3599 86.6602 12.9759 87.3322 13.8079L84.8362 16.0399C84.3722 15.4959 83.8442 15.0959 83.2522 14.8399C82.6762 14.5679 82.0442 14.4319 81.3562 14.4319C80.5722 14.4319 79.8762 14.6079 79.2682 14.9599C78.6602 15.2959 78.1802 15.7679 77.8282 16.3759C77.4762 16.9839 77.3002 17.6959 77.3002 18.5119C77.3002 19.2959 77.4762 19.9999 77.8282 20.6239C78.1802 21.2319 78.6602 21.7119 79.2682 22.0639C79.8762 22.3999 80.5882 22.5679 81.4042 22.5679C82.0762 22.5679 82.6842 22.4639 83.2282 22.2559C83.7882 22.0479 84.3402 21.7359 84.8842 21.3199L87.0202 23.9119ZM83.5642 23.9599V18.3199H87.0202V23.9119L83.5642 23.9599Z" fill="#0043C0"/>
<path d="M90.3125 25.3999V11.5999H94.1045V25.3999H90.3125Z" fill="#0043C0"/>
<path d="M100.358 25.3999V14.5519H96.0136V11.5999H108.494V14.5519H104.15V25.3999H100.358Z" fill="#0043C0"/>
<path d="M110.445 25.3999V11.5999H114.237V25.3999H110.445Z" fill="#0043C0"/>
<path d="M116.914 25.3999V23.0239L125.266 13.2559L125.698 14.5519H117.082V11.5999H129.082V13.9759L120.706 23.7439L120.274 22.4479H129.37V25.3999H116.914Z" fill="#0043C0"/>
<path d="M135.11 17.0239H141.782V19.7839H135.11V17.0239ZM135.494 22.4959H142.862V25.3999H131.75V11.5999H142.598V14.5039H135.494V22.4959Z" fill="#0043C0"/>
<path d="M55.6689 33.7158C55.6689 34.5199 55.5225 35.1921 55.2295 35.7324C54.9365 36.2695 54.5117 36.6748 53.9551 36.9482C53.4017 37.2184 52.7295 37.3535 51.9385 37.3535H50V30.2148H52.1533C52.8792 30.2148 53.5042 30.3483 54.0283 30.6152C54.5524 30.8789 54.9561 31.2712 55.2393 31.792C55.5257 32.3096 55.6689 32.9508 55.6689 33.7158ZM54.7949 33.7451C54.7949 33.1038 54.6875 32.5749 54.4727 32.1582C54.2611 31.7415 53.9486 31.4323 53.5352 31.2305C53.125 31.0254 52.6221 30.9229 52.0264 30.9229H50.8301V36.6406H51.8408C52.8239 36.6406 53.5612 36.3981 54.0527 35.9131C54.5475 35.4281 54.7949 34.7054 54.7949 33.7451Z" fill="#0043C0"/>
<path d="M60.1943 31.9043C60.6501 31.9043 61.0407 32.0052 61.3662 32.207C61.6917 32.4089 61.9408 32.6921 62.1133 33.0566C62.2858 33.418 62.3721 33.8411 62.3721 34.3262V34.8291H58.6758C58.6855 35.4574 58.8418 35.9359 59.1445 36.2646C59.4473 36.5934 59.8737 36.7578 60.4238 36.7578C60.7624 36.7578 61.0618 36.7269 61.3223 36.665C61.5827 36.6032 61.8529 36.512 62.1328 36.3916V37.1045C61.8626 37.2249 61.5941 37.3128 61.3271 37.3682C61.0635 37.4235 60.751 37.4512 60.3896 37.4512C59.8753 37.4512 59.4261 37.347 59.042 37.1387C58.6611 36.9271 58.3649 36.6178 58.1533 36.2109C57.9417 35.804 57.8359 35.306 57.8359 34.7168C57.8359 34.1406 57.932 33.6426 58.124 33.2227C58.3193 32.7995 58.5928 32.474 58.9443 32.2461C59.2992 32.0182 59.7158 31.9043 60.1943 31.9043ZM60.1846 32.5684C59.7516 32.5684 59.4066 32.71 59.1494 32.9932C58.8923 33.2764 58.7393 33.6719 58.6904 34.1797H61.5225C61.5192 33.8607 61.4688 33.5807 61.3711 33.3398C61.2767 33.0957 61.1318 32.9069 60.9365 32.7734C60.7412 32.6367 60.4906 32.5684 60.1846 32.5684Z" fill="#0043C0"/>
<path d="M68.2109 35.8887C68.2109 36.2305 68.1247 36.5186 67.9521 36.7529C67.7829 36.984 67.5387 37.1582 67.2197 37.2754C66.904 37.3926 66.5264 37.4512 66.0869 37.4512C65.7126 37.4512 65.3887 37.4219 65.1152 37.3633C64.8418 37.3047 64.6025 37.2217 64.3975 37.1143V36.3672C64.6156 36.4746 64.876 36.5723 65.1787 36.6602C65.4814 36.748 65.7907 36.792 66.1064 36.792C66.5687 36.792 66.904 36.7171 67.1123 36.5674C67.3206 36.4176 67.4248 36.2142 67.4248 35.957C67.4248 35.8105 67.3825 35.682 67.2979 35.5713C67.2165 35.4574 67.0781 35.3483 66.8828 35.2441C66.6875 35.1367 66.4173 35.0195 66.0723 34.8926C65.7305 34.7624 65.4342 34.6338 65.1836 34.5068C64.9362 34.3766 64.7441 34.2188 64.6074 34.0332C64.474 33.8477 64.4072 33.6068 64.4072 33.3105C64.4072 32.8581 64.5895 32.5114 64.9541 32.2705C65.3219 32.0264 65.8037 31.9043 66.3994 31.9043C66.7217 31.9043 67.0228 31.9368 67.3027 32.002C67.5859 32.0638 67.8496 32.1484 68.0938 32.2559L67.8203 32.9053C67.599 32.8109 67.363 32.7311 67.1123 32.666C66.8617 32.6009 66.6061 32.5684 66.3457 32.5684C65.9714 32.5684 65.6833 32.6302 65.4814 32.7539C65.2829 32.8776 65.1836 33.0469 65.1836 33.2617C65.1836 33.4277 65.2292 33.5645 65.3203 33.6719C65.4147 33.7793 65.5645 33.8802 65.7695 33.9746C65.9746 34.069 66.2448 34.1797 66.5801 34.3066C66.9154 34.4303 67.2051 34.5589 67.4492 34.6924C67.6934 34.8226 67.8805 34.9821 68.0107 35.1709C68.1442 35.3564 68.2109 35.5957 68.2109 35.8887Z" fill="#0043C0"/>
<path d="M71.3252 32.002V37.3535H70.5146V32.002H71.3252ZM70.9297 30C71.0632 30 71.1771 30.0439 71.2715 30.1318C71.3691 30.2165 71.418 30.3499 71.418 30.5322C71.418 30.7113 71.3691 30.8447 71.2715 30.9326C71.1771 31.0205 71.0632 31.0645 70.9297 31.0645C70.7897 31.0645 70.6725 31.0205 70.5781 30.9326C70.487 30.8447 70.4414 30.7113 70.4414 30.5322C70.4414 30.3499 70.487 30.2165 70.5781 30.1318C70.6725 30.0439 70.7897 30 70.9297 30Z" fill="#0043C0"/>
<path d="M75.5381 39.7559C74.835 39.7559 74.293 39.624 73.9121 39.3604C73.5312 39.0999 73.3408 38.7337 73.3408 38.2617C73.3408 37.9264 73.4466 37.64 73.6582 37.4023C73.873 37.1647 74.1693 37.0068 74.5469 36.9287C74.4069 36.8636 74.2865 36.766 74.1855 36.6357C74.0879 36.5055 74.0391 36.3558 74.0391 36.1865C74.0391 35.9912 74.0928 35.8203 74.2002 35.6738C74.3109 35.5241 74.4785 35.3809 74.7031 35.2441C74.4232 35.1302 74.1953 34.9382 74.0195 34.668C73.847 34.3945 73.7607 34.0771 73.7607 33.7158C73.7607 33.3317 73.8405 33.0046 74 32.7344C74.1595 32.4609 74.3906 32.2526 74.6934 32.1094C74.9961 31.9661 75.3623 31.8945 75.792 31.8945C75.8864 31.8945 75.9808 31.8994 76.0752 31.9092C76.1729 31.9157 76.2656 31.9271 76.3535 31.9434C76.4414 31.9564 76.5179 31.9727 76.583 31.9922H78.4189V32.5146L77.4326 32.6367C77.5303 32.7637 77.6117 32.9167 77.6768 33.0957C77.7419 33.2747 77.7744 33.4733 77.7744 33.6914C77.7744 34.2253 77.5938 34.6501 77.2324 34.9658C76.8711 35.2783 76.3747 35.4346 75.7432 35.4346C75.5934 35.4346 75.4404 35.4215 75.2842 35.3955C75.1247 35.4834 75.0026 35.5811 74.918 35.6885C74.8366 35.7959 74.7959 35.9196 74.7959 36.0596C74.7959 36.1637 74.8268 36.2467 74.8887 36.3086C74.9538 36.3704 75.0465 36.416 75.167 36.4453C75.2874 36.4714 75.4323 36.4844 75.6016 36.4844H76.5439C77.1266 36.4844 77.5726 36.6064 77.8818 36.8506C78.1943 37.0947 78.3506 37.4512 78.3506 37.9199C78.3506 38.5124 78.1097 38.9665 77.6279 39.2822C77.1462 39.598 76.4495 39.7559 75.5381 39.7559ZM75.5625 39.1211C76.0052 39.1211 76.3714 39.0755 76.6611 38.9844C76.9541 38.8965 77.1722 38.7679 77.3154 38.5986C77.4619 38.4326 77.5352 38.234 77.5352 38.0029C77.5352 37.7881 77.4863 37.6253 77.3887 37.5146C77.291 37.4072 77.1478 37.3356 76.959 37.2998C76.7702 37.2607 76.5391 37.2412 76.2656 37.2412H75.3379C75.097 37.2412 74.887 37.2786 74.708 37.3535C74.529 37.4284 74.3906 37.5391 74.293 37.6855C74.1986 37.832 74.1514 38.0143 74.1514 38.2324C74.1514 38.5221 74.2734 38.7419 74.5176 38.8916C74.7617 39.0446 75.11 39.1211 75.5625 39.1211ZM75.7725 34.8438C76.1598 34.8438 76.4512 34.7461 76.6465 34.5508C76.8418 34.3555 76.9395 34.0706 76.9395 33.6963C76.9395 33.2959 76.8402 32.9964 76.6416 32.7979C76.443 32.596 76.1501 32.4951 75.7627 32.4951C75.3916 32.4951 75.1051 32.5993 74.9033 32.8076C74.7048 33.0127 74.6055 33.3138 74.6055 33.7109C74.6055 34.0755 74.7064 34.3555 74.9082 34.5508C75.11 34.7461 75.3981 34.8438 75.7725 34.8438Z" fill="#0043C0"/>
<path d="M83.0078 31.9043C83.6426 31.9043 84.1227 32.0605 84.4482 32.373C84.7738 32.6823 84.9365 33.1803 84.9365 33.8672V37.3535H84.1357V33.9209C84.1357 33.4749 84.0332 33.1413 83.8281 32.9199C83.6263 32.6986 83.3154 32.5879 82.8955 32.5879C82.3031 32.5879 81.8864 32.7555 81.6455 33.0908C81.4046 33.4261 81.2842 33.9128 81.2842 34.5508V37.3535H80.4736V32.002H81.1279L81.25 32.7734H81.2939C81.4079 32.5846 81.5527 32.4268 81.7285 32.2998C81.9043 32.1696 82.1012 32.0719 82.3193 32.0068C82.5374 31.9385 82.7669 31.9043 83.0078 31.9043Z" fill="#0043C0"/>
<path d="M95.3545 35.4541C95.3545 35.8773 95.2487 36.2386 95.0371 36.5381C94.8288 36.8343 94.5358 37.0605 94.1582 37.2168C93.7806 37.373 93.3363 37.4512 92.8252 37.4512C92.555 37.4512 92.2995 37.4382 92.0586 37.4121C91.8177 37.3861 91.5964 37.3486 91.3945 37.2998C91.1927 37.251 91.0153 37.1908 90.8623 37.1191V36.3232C91.1064 36.4242 91.4043 36.5186 91.7559 36.6064C92.1074 36.6911 92.4753 36.7334 92.8594 36.7334C93.2174 36.7334 93.5202 36.6862 93.7676 36.5918C94.015 36.4941 94.2021 36.3558 94.3291 36.1768C94.4593 35.9945 94.5244 35.7764 94.5244 35.5225C94.5244 35.2783 94.4707 35.0749 94.3633 34.9121C94.2559 34.7461 94.0768 34.5964 93.8262 34.4629C93.5788 34.3262 93.2402 34.1813 92.8105 34.0283C92.5078 33.9209 92.2409 33.8037 92.0098 33.6768C91.7786 33.5465 91.585 33.4001 91.4287 33.2373C91.2725 33.0745 91.1536 32.8857 91.0723 32.6709C90.9941 32.4561 90.9551 32.2103 90.9551 31.9336C90.9551 31.5527 91.0511 31.2272 91.2432 30.957C91.4385 30.6836 91.707 30.4753 92.0488 30.332C92.3939 30.1855 92.7894 30.1123 93.2354 30.1123C93.6162 30.1123 93.9678 30.1481 94.29 30.2197C94.6156 30.2913 94.9134 30.3874 95.1836 30.5078L94.9248 31.2207C94.6676 31.1133 94.3942 31.0238 94.1045 30.9521C93.818 30.8805 93.5218 30.8447 93.2158 30.8447C92.9098 30.8447 92.651 30.8903 92.4395 30.9814C92.2311 31.0693 92.0716 31.1947 91.9609 31.3574C91.8503 31.5202 91.7949 31.7139 91.7949 31.9385C91.7949 32.1891 91.847 32.3975 91.9512 32.5635C92.0586 32.7295 92.2279 32.8776 92.459 33.0078C92.6934 33.1348 93.0026 33.2682 93.3867 33.4082C93.8066 33.5612 94.1631 33.724 94.4561 33.8965C94.749 34.0658 94.972 34.2741 95.125 34.5215C95.278 34.7656 95.3545 35.0765 95.3545 35.4541Z" fill="#0043C0"/>
<path d="M103.503 31.9043C104.092 31.9043 104.536 32.0589 104.836 32.3682C105.135 32.6742 105.285 33.1673 105.285 33.8477V37.3535H104.484V33.8867C104.484 33.4538 104.39 33.1299 104.201 32.915C104.016 32.6969 103.739 32.5879 103.371 32.5879C102.854 32.5879 102.478 32.7376 102.243 33.0371C102.009 33.3366 101.892 33.7777 101.892 34.3604V37.3535H101.086V33.8867C101.086 33.597 101.044 33.3561 100.959 33.1641C100.878 32.972 100.754 32.8288 100.588 32.7344C100.425 32.6367 100.218 32.5879 99.9678 32.5879C99.613 32.5879 99.3281 32.6611 99.1133 32.8076C98.8984 32.9541 98.7422 33.1722 98.6445 33.4619C98.5501 33.7484 98.5029 34.1016 98.5029 34.5215V37.3535H97.6924V32.002H98.3467L98.4688 32.7588H98.5127C98.6201 32.5732 98.7552 32.417 98.918 32.29C99.0807 32.1631 99.263 32.0671 99.4648 32.002C99.6667 31.9368 99.8815 31.9043 100.109 31.9043C100.516 31.9043 100.856 31.9808 101.13 32.1338C101.407 32.2835 101.607 32.513 101.73 32.8223H101.774C101.95 32.513 102.191 32.2835 102.497 32.1338C102.803 31.9808 103.138 31.9043 103.503 31.9043Z" fill="#0043C0"/>
<path d="M109.952 31.9141C110.59 31.9141 111.064 32.0573 111.373 32.3438C111.682 32.6302 111.837 33.0876 111.837 33.7158V37.3535H111.246L111.09 36.5625H111.051C110.901 36.7578 110.745 36.9222 110.582 37.0557C110.419 37.1859 110.23 37.2852 110.016 37.3535C109.804 37.4186 109.544 37.4512 109.234 37.4512C108.909 37.4512 108.619 37.3942 108.365 37.2803C108.115 37.1663 107.916 36.9938 107.77 36.7627C107.626 36.5316 107.555 36.2386 107.555 35.8838C107.555 35.3499 107.766 34.9398 108.189 34.6533C108.613 34.3669 109.257 34.2106 110.123 34.1846L111.046 34.1455V33.8184C111.046 33.3561 110.947 33.0322 110.748 32.8467C110.549 32.6611 110.27 32.5684 109.908 32.5684C109.628 32.5684 109.361 32.609 109.107 32.6904C108.854 32.7718 108.613 32.8678 108.385 32.9785L108.136 32.3633C108.377 32.2396 108.653 32.1338 108.966 32.0459C109.278 31.958 109.607 31.9141 109.952 31.9141ZM111.036 34.7168L110.221 34.751C109.553 34.777 109.083 34.8861 108.81 35.0781C108.536 35.2702 108.399 35.542 108.399 35.8936C108.399 36.1995 108.492 36.4258 108.678 36.5723C108.863 36.7188 109.109 36.792 109.415 36.792C109.89 36.792 110.279 36.6602 110.582 36.3965C110.885 36.1328 111.036 35.7373 111.036 35.21V34.7168Z" fill="#0043C0"/>
<path d="M116.938 31.9043C117.046 31.9043 117.158 31.9108 117.275 31.9238C117.393 31.9336 117.497 31.9482 117.588 31.9678L117.485 32.7197C117.397 32.6969 117.3 32.679 117.192 32.666C117.085 32.653 116.984 32.6465 116.89 32.6465C116.675 32.6465 116.471 32.6904 116.279 32.7783C116.09 32.863 115.924 32.9867 115.781 33.1494C115.638 33.3089 115.526 33.5026 115.444 33.7305C115.363 33.9551 115.322 34.2057 115.322 34.4824V37.3535H114.507V32.002H115.181L115.269 32.9883H115.303C115.413 32.7897 115.547 32.609 115.703 32.4463C115.859 32.2803 116.04 32.1484 116.245 32.0508C116.453 31.9531 116.685 31.9043 116.938 31.9043Z" fill="#0043C0"/>
<path d="M121.327 36.7871C121.461 36.7871 121.597 36.7757 121.737 36.7529C121.877 36.7301 121.991 36.7025 122.079 36.6699V37.2998C121.985 37.3421 121.853 37.3779 121.684 37.4072C121.518 37.4365 121.355 37.4512 121.195 37.4512C120.912 37.4512 120.655 37.4023 120.424 37.3047C120.193 37.2038 120.007 37.0345 119.867 36.7969C119.73 36.5592 119.662 36.2305 119.662 35.8105V32.6367H118.9V32.2412L119.667 31.9238L119.989 30.7617H120.478V32.002H122.045V32.6367H120.478V35.7861C120.478 36.1214 120.554 36.3721 120.707 36.5381C120.863 36.7041 121.07 36.7871 121.327 36.7871Z" fill="#0043C0"/>
<path d="M126.224 31.9043C126.679 31.9043 127.07 32.0052 127.396 32.207C127.721 32.4089 127.97 32.6921 128.143 33.0566C128.315 33.418 128.401 33.8411 128.401 34.3262V34.8291H124.705C124.715 35.4574 124.871 35.9359 125.174 36.2646C125.477 36.5934 125.903 36.7578 126.453 36.7578C126.792 36.7578 127.091 36.7269 127.352 36.665C127.612 36.6032 127.882 36.512 128.162 36.3916V37.1045C127.892 37.2249 127.623 37.3128 127.356 37.3682C127.093 37.4235 126.78 37.4512 126.419 37.4512C125.905 37.4512 125.455 37.347 125.071 37.1387C124.69 36.9271 124.394 36.6178 124.183 36.2109C123.971 35.804 123.865 35.306 123.865 34.7168C123.865 34.1406 123.961 33.6426 124.153 33.2227C124.349 32.7995 124.622 32.474 124.974 32.2461C125.328 32.0182 125.745 31.9043 126.224 31.9043ZM126.214 32.5684C125.781 32.5684 125.436 32.71 125.179 32.9932C124.922 33.2764 124.769 33.6719 124.72 34.1797H127.552C127.549 33.8607 127.498 33.5807 127.4 33.3398C127.306 33.0957 127.161 32.9069 126.966 32.7734C126.771 32.6367 126.52 32.5684 126.214 32.5684Z" fill="#0043C0"/>
<path d="M133.21 31.9043C133.317 31.9043 133.43 31.9108 133.547 31.9238C133.664 31.9336 133.768 31.9482 133.859 31.9678L133.757 32.7197C133.669 32.6969 133.571 32.679 133.464 32.666C133.356 32.653 133.256 32.6465 133.161 32.6465C132.946 32.6465 132.743 32.6904 132.551 32.7783C132.362 32.863 132.196 32.9867 132.053 33.1494C131.91 33.3089 131.797 33.5026 131.716 33.7305C131.634 33.9551 131.594 34.2057 131.594 34.4824V37.3535H130.778V32.002H131.452L131.54 32.9883H131.574C131.685 32.7897 131.818 32.609 131.975 32.4463C132.131 32.2803 132.312 32.1484 132.517 32.0508C132.725 31.9531 132.956 31.9043 133.21 31.9043Z" fill="#0043C0"/>
</g>
<defs>
<linearGradient id="paint0_linear_3153_2358" x1="33.2334" y1="4" x2="33.2334" y2="12" gradientUnits="userSpaceOnUse">
<stop stop-color="white" stop-opacity="0"/>
<stop offset="0.525" stop-color="white"/>
<stop offset="1" stop-color="white" stop-opacity="0"/>
</linearGradient>
<linearGradient id="paint1_linear_3153_2358" x1="28" y1="10.2333" x2="36" y2="10.2333" gradientUnits="userSpaceOnUse">
<stop stop-color="white" stop-opacity="0"/>
<stop offset="0.525" stop-color="white"/>
<stop offset="1" stop-color="white" stop-opacity="0"/>
</linearGradient>
<clipPath id="clip0_3153_2358">
<rect width="143" height="40" fill="white"/>
</clipPath>
</defs>
</svg>
