<svg width="400" height="280" viewBox="0 0 400 280" fill="none" xmlns="http://www.w3.org/2000/svg">
<g opacity="0.7" filter="url(#filter0_f_3022_1571)">
<path d="M24 32C24 27.5817 27.5817 24 32 24H352C356.418 24 360 27.5817 360 32V56C360 60.4183 356.418 64 352 64H32C27.5817 64 24 60.4183 24 56V32Z" fill="#0043C0"/>
<mask id="path-2-inside-1_3022_1571" fill="white">
<path d="M24 84C24 79.5817 27.5817 76 32 76H178C182.418 76 186 79.5817 186 84V108C186 112.418 182.418 116 178 116H32C27.5817 116 24 112.418 24 108V84Z"/>
</mask>
<path d="M24 84C24 79.5817 27.5817 76 32 76H178C182.418 76 186 79.5817 186 84V108C186 112.418 182.418 116 178 116H32C27.5817 116 24 112.418 24 108V84Z" fill="white"/>
<path d="M32 76V78H178V76V74H32V76ZM186 84H184V108H186H188V84H186ZM178 116V114H32V116V118H178V116ZM24 108H26V84H24H22V108H24ZM32 116V114C28.6863 114 26 111.314 26 108H24H22C22 113.523 26.4771 118 32 118V116ZM186 108H184C184 111.314 181.314 114 178 114V116V118C183.523 118 188 113.523 188 108H186ZM178 76V78C181.314 78 184 80.6863 184 84H186H188C188 78.4772 183.523 74 178 74V76ZM32 76V74C26.4772 74 22 78.4772 22 84H24H26C26 80.6863 28.6863 78 32 78V76Z" fill="#0043C0" mask="url(#path-2-inside-1_3022_1571)"/>
<mask id="path-4-inside-2_3022_1571" fill="white">
<path d="M198 84C198 79.5817 201.582 76 206 76H352C356.418 76 360 79.5817 360 84V108C360 112.418 356.418 116 352 116H206C201.582 116 198 112.418 198 108V84Z"/>
</mask>
<path d="M198 84C198 79.5817 201.582 76 206 76H352C356.418 76 360 79.5817 360 84V108C360 112.418 356.418 116 352 116H206C201.582 116 198 112.418 198 108V84Z" fill="#F8F9FA"/>
<path d="M206 76V77H352V76V75H206V76ZM360 84H359V108H360H361V84H360ZM352 116V115H206V116V117H352V116ZM198 108H199V84H198H197V108H198ZM206 116V115C202.134 115 199 111.866 199 108H198H197C197 112.971 201.029 117 206 117V116ZM360 108H359C359 111.866 355.866 115 352 115V116V117C356.971 117 361 112.971 361 108H360ZM352 76V77C355.866 77 359 80.134 359 84H360H361C361 79.0294 356.971 75 352 75V76ZM206 76V75C201.029 75 197 79.0294 197 84H198H199C199 80.134 202.134 77 206 77V76Z" fill="#E1E3E5" mask="url(#path-4-inside-2_3022_1571)"/>
<mask id="path-6-inside-3_3022_1571" fill="white">
<path d="M24 136C24 131.582 27.5817 128 32 128H352C356.418 128 360 131.582 360 136V168C360 172.418 356.418 176 352 176H32C27.5817 176 24 172.418 24 168V136Z"/>
</mask>
<path d="M24 136C24 131.582 27.5817 128 32 128H352C356.418 128 360 131.582 360 136V168C360 172.418 356.418 176 352 176H32C27.5817 176 24 172.418 24 168V136Z" fill="white"/>
<path d="M32 128V129H352V128V127H32V128ZM360 136H359V168H360H361V136H360ZM352 176V175H32V176V177H352V176ZM24 168H25V136H24H23V168H24ZM32 176V175C28.134 175 25 171.866 25 168H24H23C23 172.971 27.0294 177 32 177V176ZM360 168H359C359 171.866 355.866 175 352 175V176V177C356.971 177 361 172.971 361 168H360ZM352 128V129C355.866 129 359 132.134 359 136H360H361C361 131.029 356.971 127 352 127V128ZM32 128V127C27.0294 127 23 131.029 23 136H24H25C25 132.134 28.134 129 32 129V128Z" fill="#E1E3E5" mask="url(#path-6-inside-3_3022_1571)"/>
<path d="M24 192C24 189.791 25.7909 188 28 188H40C42.2091 188 44 189.791 44 192V204C44 206.209 42.2091 208 40 208H28C25.7909 208 24 206.209 24 204V192Z" fill="#0043C0"/>
<path d="M52 196C52 193.791 53.7909 192 56 192H356C358.209 192 360 193.791 360 196V200C360 202.209 358.209 204 356 204H56C53.7909 204 52 202.209 52 200V196Z" fill="#DEE2E6"/>
<mask id="path-10-inside-4_3022_1571" fill="white">
<path d="M24 228C24 223.582 27.5817 220 32 220H352C356.418 220 360 223.582 360 228V248C360 252.418 356.418 256 352 256H32C27.5817 256 24 252.418 24 248V228Z"/>
</mask>
<path d="M24 228C24 223.582 27.5817 220 32 220H352C356.418 220 360 223.582 360 228V248C360 252.418 356.418 256 352 256H32C27.5817 256 24 252.418 24 248V228Z" fill="white"/>
<path d="M32 220V221H352V220V219H32V220ZM360 228H359V248H360H361V228H360ZM352 256V255H32V256V257H352V256ZM24 248H25V228H24H23V248H24ZM32 256V255C28.134 255 25 251.866 25 248H24H23C23 252.971 27.0294 257 32 257V256ZM360 248H359C359 251.866 355.866 255 352 255V256V257C356.971 257 361 252.971 361 248H360ZM352 220V221C355.866 221 359 224.134 359 228H360H361C361 223.029 356.971 219 352 219V220ZM32 220V219C27.0294 219 23 223.029 23 228H24H25C25 224.134 28.134 221 32 221V220Z" fill="#E1E3E5" mask="url(#path-10-inside-4_3022_1571)"/>
</g>
<defs>
<filter id="filter0_f_3022_1571" x="-12" y="-12" width="424" height="304" filterUnits="userSpaceOnUse" color-interpolation-filters="sRGB">
<feFlood flood-opacity="0" result="BackgroundImageFix"/>
<feBlend mode="normal" in="SourceGraphic" in2="BackgroundImageFix" result="shape"/>
<feGaussianBlur stdDeviation="6" result="effect1_foregroundBlur_3022_1571"/>
</filter>
</defs>
</svg>
