<svg width="400" height="280" viewBox="0 0 400 280" fill="none" xmlns="http://www.w3.org/2000/svg">
<g opacity="0.7" filter="url(#filter0_f_3022_1674)">
<g filter="url(#filter1_d_3022_1674)">
<mask id="path-1-inside-1_3022_1674" fill="white">
<path d="M28 32C28 25.3726 33.3726 20 40 20H360C366.627 20 372 25.3726 372 32V248C372 254.627 366.627 260 360 260H40C33.3726 260 28 254.627 28 248V32Z"/>
</mask>
<path d="M28 32C28 25.3726 33.3726 20 40 20H360C366.627 20 372 25.3726 372 32V248C372 254.627 366.627 260 360 260H40C33.3726 260 28 254.627 28 248V32Z" fill="white" shape-rendering="crispEdges"/>
<path d="M40 20V22H360V20V18H40V20ZM372 32H370V248H372H374V32H372ZM360 260V258H40V260V262H360V260ZM28 248H30V32H28H26V248H28ZM40 260V258C34.4772 258 30 253.523 30 248H28H26C26 255.732 32.268 262 40 262V260ZM372 248H370C370 253.523 365.523 258 360 258V260V262C367.732 262 374 255.732 374 248H372ZM360 20V22C365.523 22 370 26.4772 370 32H372H374C374 24.268 367.732 18 360 18V20ZM40 20V18C32.268 18 26 24.268 26 32H28H30C30 26.4772 34.4772 22 40 22V20Z" fill="#E1E3E5" mask="url(#path-1-inside-1_3022_1674)"/>
<path d="M50 46C50 43.7909 51.7909 42 54 42H146C148.209 42 150 43.7909 150 46V58C150 60.2091 148.209 62 146 62H54C51.7909 62 50 60.2091 50 58V46Z" fill="#DEE2E6"/>
<path d="M330 46C330 43.7909 331.791 42 334 42H346C348.209 42 350 43.7909 350 46V58C350 60.2091 348.209 62 346 62H334C331.791 62 330 60.2091 330 58V46Z" fill="#DEE2E6"/>
<path d="M50 82C50 77.5817 53.5817 74 58 74H342C346.418 74 350 77.5817 350 82V182C350 186.418 346.418 190 342 190H58C53.5817 190 50 186.418 50 182V82Z" fill="#F8F9FA"/>
<mask id="path-6-inside-2_3022_1674" fill="white">
<path d="M202 208C202 204.686 204.686 202 208 202H266C269.314 202 272 204.686 272 208V232C272 235.314 269.314 238 266 238H208C204.686 238 202 235.314 202 232V208Z"/>
</mask>
<path d="M202 208C202 204.686 204.686 202 208 202H266C269.314 202 272 204.686 272 208V232C272 235.314 269.314 238 266 238H208C204.686 238 202 235.314 202 232V208Z" fill="#F8F9FA"/>
<path d="M208 202V203H266V202V201H208V202ZM272 208H271V232H272H273V208H272ZM266 238V237H208V238V239H266V238ZM202 232H203V208H202H201V232H202ZM208 238V237C205.239 237 203 234.761 203 232H202H201C201 235.866 204.134 239 208 239V238ZM272 232H271C271 234.761 268.761 237 266 237V238V239C269.866 239 273 235.866 273 232H272ZM266 202V203C268.761 203 271 205.239 271 208H272H273C273 204.134 269.866 201 266 201V202ZM208 202V201C204.134 201 201 204.134 201 208H202H203C203 205.239 205.239 203 208 203V202Z" fill="#E1E3E5" mask="url(#path-6-inside-2_3022_1674)"/>
<path d="M280 208C280 204.686 282.686 202 286 202H344C347.314 202 350 204.686 350 208V232C350 235.314 347.314 238 344 238H286C282.686 238 280 235.314 280 232V208Z" fill="#0043C0"/>
</g>
</g>
<defs>
<filter id="filter0_f_3022_1674" x="-12" y="-12" width="424" height="304" filterUnits="userSpaceOnUse" color-interpolation-filters="sRGB">
<feFlood flood-opacity="0" result="BackgroundImageFix"/>
<feBlend mode="normal" in="SourceGraphic" in2="BackgroundImageFix" result="shape"/>
<feGaussianBlur stdDeviation="6" result="effect1_foregroundBlur_3022_1674"/>
</filter>
<filter id="filter1_d_3022_1674" x="-10" y="7" width="420" height="316" filterUnits="userSpaceOnUse" color-interpolation-filters="sRGB">
<feFlood flood-opacity="0" result="BackgroundImageFix"/>
<feColorMatrix in="SourceAlpha" type="matrix" values="0 0 0 0 0 0 0 0 0 0 0 0 0 0 0 0 0 0 127 0" result="hardAlpha"/>
<feMorphology radius="12" operator="erode" in="SourceAlpha" result="effect1_dropShadow_3022_1674"/>
<feOffset dy="25"/>
<feGaussianBlur stdDeviation="25"/>
<feComposite in2="hardAlpha" operator="out"/>
<feColorMatrix type="matrix" values="0 0 0 0 0 0 0 0 0 0 0 0 0 0 0 0 0 0 0.25 0"/>
<feBlend mode="normal" in2="BackgroundImageFix" result="effect1_dropShadow_3022_1674"/>
<feBlend mode="normal" in="SourceGraphic" in2="effect1_dropShadow_3022_1674" result="shape"/>
</filter>
</defs>
</svg>
