<svg width="400" height="280" viewBox="0 0 400 280" fill="none" xmlns="http://www.w3.org/2000/svg">
<g opacity="0.7" filter="url(#filter0_f_3022_1613)">
<path d="M24 28C24 25.7909 25.7909 24 28 24H140C142.209 24 144 25.7909 144 28V40C144 42.2091 142.209 44 140 44H28C25.7909 44 24 42.2091 24 40V28Z" fill="#DEE2E6"/>
<mask id="path-2-inside-1_3022_1613" fill="white">
<path d="M24 64C24 59.5817 27.5817 56 32 56H352C356.418 56 360 59.5817 360 64V88C360 92.4183 356.418 96 352 96H32C27.5817 96 24 92.4183 24 88V64Z"/>
</mask>
<path d="M24 64C24 59.5817 27.5817 56 32 56H352C356.418 56 360 59.5817 360 64V88C360 92.4183 356.418 96 352 96H32C27.5817 96 24 92.4183 24 88V64Z" fill="white"/>
<path d="M32 56V57H352V56V55H32V56ZM360 64H359V88H360H361V64H360ZM352 96V95H32V96V97H352V96ZM24 88H25V64H24H23V88H24ZM32 96V95C28.134 95 25 91.866 25 88H24H23C23 92.9706 27.0294 97 32 97V96ZM360 88H359C359 91.866 355.866 95 352 95V96V97C356.971 97 361 92.9706 361 88H360ZM352 56V57C355.866 57 359 60.134 359 64H360H361C361 59.0294 356.971 55 352 55V56ZM32 56V55C27.0294 55 23 59.0294 23 64H24H25C25 60.134 28.134 57 32 57V56Z" fill="#E1E3E5" mask="url(#path-2-inside-1_3022_1613)"/>
<path d="M24 112C24 109.791 25.7909 108 28 108H140C142.209 108 144 109.791 144 112V124C144 126.209 142.209 128 140 128H28C25.7909 128 24 126.209 24 124V112Z" fill="#DEE2E6"/>
<mask id="path-5-inside-2_3022_1613" fill="white">
<path d="M24 148C24 143.582 27.5817 140 32 140H352C356.418 140 360 143.582 360 148V172C360 176.418 356.418 180 352 180H32C27.5817 180 24 176.418 24 172V148Z"/>
</mask>
<path d="M24 148C24 143.582 27.5817 140 32 140H352C356.418 140 360 143.582 360 148V172C360 176.418 356.418 180 352 180H32C27.5817 180 24 176.418 24 172V148Z" fill="white"/>
<path d="M32 140V141H352V140V139H32V140ZM360 148H359V172H360H361V148H360ZM352 180V179H32V180V181H352V180ZM24 172H25V148H24H23V172H24ZM32 180V179C28.134 179 25 175.866 25 172H24H23C23 176.971 27.0294 181 32 181V180ZM360 172H359C359 175.866 355.866 179 352 179V180V181C356.971 181 361 176.971 361 172H360ZM352 140V141C355.866 141 359 144.134 359 148H360H361C361 143.029 356.971 139 352 139V140ZM32 140V139C27.0294 139 23 143.029 23 148H24H25C25 144.134 28.134 141 32 141V140Z" fill="#E1E3E5" mask="url(#path-5-inside-2_3022_1613)"/>
<path d="M24 196C24 193.791 25.7909 192 28 192H140C142.209 192 144 193.791 144 196V208C144 210.209 142.209 212 140 212H28C25.7909 212 24 210.209 24 208V196Z" fill="#DEE2E6"/>
<mask id="path-8-inside-3_3022_1613" fill="white">
<path d="M24 232C24 227.582 27.5817 224 32 224H352C356.418 224 360 227.582 360 232V248C360 252.418 356.418 256 352 256H32C27.5817 256 24 252.418 24 248V232Z"/>
</mask>
<path d="M24 232C24 227.582 27.5817 224 32 224H352C356.418 224 360 227.582 360 232V248C360 252.418 356.418 256 352 256H32C27.5817 256 24 252.418 24 248V232Z" fill="white"/>
<path d="M32 224V225H352V224V223H32V224ZM360 232H359V248H360H361V232H360ZM352 256V255H32V256V257H352V256ZM24 248H25V232H24H23V248H24ZM32 256V255C28.134 255 25 251.866 25 248H24H23C23 252.971 27.0294 257 32 257V256ZM360 248H359C359 251.866 355.866 255 352 255V256V257C356.971 257 361 252.971 361 248H360ZM352 224V225C355.866 225 359 228.134 359 232H360H361C361 227.029 356.971 223 352 223V224ZM32 224V223C27.0294 223 23 227.029 23 232H24H25C25 228.134 28.134 225 32 225V224Z" fill="#E1E3E5" mask="url(#path-8-inside-3_3022_1613)"/>
</g>
<defs>
<filter id="filter0_f_3022_1613" x="-12" y="-12" width="424" height="304" filterUnits="userSpaceOnUse" color-interpolation-filters="sRGB">
<feFlood flood-opacity="0" result="BackgroundImageFix"/>
<feBlend mode="normal" in="SourceGraphic" in2="BackgroundImageFix" result="shape"/>
<feGaussianBlur stdDeviation="6" result="effect1_foregroundBlur_3022_1613"/>
</filter>
</defs>
</svg>
