<svg width="400" height="280" viewBox="0 0 400 280" fill="none" xmlns="http://www.w3.org/2000/svg">
<g opacity="0.7" filter="url(#filter0_f_3022_1633)">
<path d="M24 90C24 85.5817 27.5817 82 32 82H76C80.4183 82 84 85.5817 84 90V214C84 218.418 80.4183 222 76 222H32C27.5817 222 24 218.418 24 214V90Z" fill="#0043C0"/>
<g opacity="0.3">
<path d="M32 96C32 92.6863 34.6863 90 38 90H70C73.3137 90 76 92.6863 76 96V120C76 123.314 73.3137 126 70 126H38C34.6863 126 32 123.314 32 120V96Z" fill="white"/>
</g>
<g opacity="0.3">
<path d="M32 140C32 136.686 34.6863 134 38 134H70C73.3137 134 76 136.686 76 140V164C76 167.314 73.3137 170 70 170H38C34.6863 170 32 167.314 32 164V140Z" fill="white"/>
</g>
<g opacity="0.3">
<path d="M32 184C32 180.686 34.6863 178 38 178H70C73.3137 178 76 180.686 76 184V208C76 211.314 73.3137 214 70 214H38C34.6863 214 32 211.314 32 208V184Z" fill="white"/>
</g>
<mask id="path-5-inside-1_3022_1633" fill="white">
<path d="M96 90C96 85.5817 99.5817 82 104 82H352C356.418 82 360 85.5817 360 90V214C360 218.418 356.418 222 352 222H104C99.5817 222 96 218.418 96 214V90Z"/>
</mask>
<path d="M96 90C96 85.5817 99.5817 82 104 82H352C356.418 82 360 85.5817 360 90V214C360 218.418 356.418 222 352 222H104C99.5817 222 96 218.418 96 214V90Z" fill="white"/>
<path d="M104 82V83H352V82V81H104V82ZM360 90H359V214H360H361V90H360ZM352 222V221H104V222V223H352V222ZM96 214H97V90H96H95V214H96ZM104 222V221C100.134 221 97 217.866 97 214H96H95C95 218.971 99.0294 223 104 223V222ZM360 214H359C359 217.866 355.866 221 352 221V222V223C356.971 223 361 218.971 361 214H360ZM352 82V83C355.866 83 359 86.134 359 90H360H361C361 85.0294 356.971 81 352 81V82ZM104 82V81C99.0294 81 95 85.0294 95 90H96H97C97 86.134 100.134 83 104 83V82Z" fill="#E1E3E5" mask="url(#path-5-inside-1_3022_1633)"/>
</g>
<defs>
<filter id="filter0_f_3022_1633" x="-12" y="-12" width="424" height="304" filterUnits="userSpaceOnUse" color-interpolation-filters="sRGB">
<feFlood flood-opacity="0" result="BackgroundImageFix"/>
<feBlend mode="normal" in="SourceGraphic" in2="BackgroundImageFix" result="shape"/>
<feGaussianBlur stdDeviation="6" result="effect1_foregroundBlur_3022_1633"/>
</filter>
</defs>
</svg>
