<svg width="400" height="280" viewBox="0 0 400 280" fill="none" xmlns="http://www.w3.org/2000/svg">
<rect width="400" height="280" fill="url(#paint0_linear_3491_11775)"/>
<g opacity="0.7" filter="url(#filter0_f_3491_11775)">
<mask id="path-1-inside-1_3491_11775" fill="white">
<path d="M32 33C32 28.5817 35.5817 25 40 25H360C364.418 25 368 28.5817 368 33V247C368 251.418 364.418 255 360 255H40C35.5817 255 32 251.418 32 247V33Z"/>
</mask>
<path d="M32 33C32 28.5817 35.5817 25 40 25H360C364.418 25 368 28.5817 368 33V247C368 251.418 364.418 255 360 255H40C35.5817 255 32 251.418 32 247V33Z" fill="white"/>
<path d="M40 25V26H360V25V24H40V25ZM368 33H367V247H368H369V33H368ZM360 255V254H40V255V256H360V255ZM32 247H33V33H32H31V247H32ZM40 255V254C36.134 254 33 250.866 33 247H32H31C31 251.971 35.0294 256 40 256V255ZM368 247H367C367 250.866 363.866 254 360 254V255V256C364.971 256 369 251.971 369 247H368ZM360 25V26C363.866 26 367 29.134 367 33H368H369C369 28.0294 364.971 24 360 24V25ZM40 25V24C35.0294 24 31 28.0294 31 33H32H33C33 29.134 36.134 26 40 26V25Z" fill="#E1E3E5" mask="url(#path-1-inside-1_3491_11775)"/>
<mask id="path-3-inside-2_3491_11775" fill="white">
<path d="M33 26H367V81H33V26Z"/>
</mask>
<path d="M367 81V80H33V81V82H367V81Z" fill="#E1E3E5" mask="url(#path-3-inside-2_3491_11775)"/>
<g opacity="0.6">
<path d="M49 43C49 41.3431 50.3431 40 52 40H146C147.657 40 149 41.3431 149 43V51C149 52.6569 147.657 54 146 54H52C50.3431 54 49 52.6569 49 51V43Z" fill="#212529"/>
</g>
<g opacity="0.3">
<path d="M49 58C49 56.8954 49.8954 56 51 56H187C188.105 56 189 56.8954 189 58V64C189 65.1046 188.105 66 187 66H51C49.8954 66 49 65.1046 49 64V58Z" fill="#6C757D"/>
</g>
<path d="M307 53C307 46.3726 312.373 41 319 41H339C345.627 41 351 46.3726 351 53C351 59.6274 345.627 65 339 65H319C312.373 65 307 59.6274 307 53Z" fill="#615FFF"/>
<path d="M329 53C329 47.4772 333.477 43 339 43C344.523 43 349 47.4772 349 53C349 58.5228 344.523 63 339 63C333.477 63 329 58.5228 329 53Z" fill="white"/>
<mask id="path-9-inside-3_3491_11775" fill="white">
<path d="M33 81H367V168H33V81Z"/>
</mask>
<path d="M367 168V167H33V168V169H367V168Z" fill="#E1E3E5" mask="url(#path-9-inside-3_3491_11775)"/>
<g opacity="0.6">
<path d="M49 98C49 96.3431 50.3431 95 52 95H126C127.657 95 129 96.3431 129 98V106C129 107.657 127.657 109 126 109H52C50.3431 109 49 107.657 49 106V98Z" fill="#212529"/>
</g>
<mask id="path-12-inside-4_3491_11775" fill="white">
<path d="M49 123C49 119.686 51.6863 117 55 117H345C348.314 117 351 119.686 351 123V147C351 150.314 348.314 153 345 153H55C51.6863 153 49 150.314 49 147V123Z"/>
</mask>
<path d="M49 123C49 119.686 51.6863 117 55 117H345C348.314 117 351 119.686 351 123V147C351 150.314 348.314 153 345 153H55C51.6863 153 49 150.314 49 147V123Z" fill="#F8F9FA"/>
<path d="M55 117V118H345V117V116H55V117ZM351 123H350V147H351H352V123H351ZM345 153V152H55V153V154H345V153ZM49 147H50V123H49H48V147H49ZM55 153V152C52.2386 152 50 149.761 50 147H49H48C48 150.866 51.134 154 55 154V153ZM351 147H350C350 149.761 347.761 152 345 152V153V154C348.866 154 352 150.866 352 147H351ZM345 117V118C347.761 118 350 120.239 350 123H351H352C352 119.134 348.866 116 345 116V117ZM55 117V116C51.134 116 48 119.134 48 123H49H50C50 120.239 52.2386 118 55 118V117Z" fill="#E1E3E5" mask="url(#path-12-inside-4_3491_11775)"/>
<g opacity="0.3">
<path d="M62 132C62 130.343 63.3431 129 65 129H179C180.657 129 182 130.343 182 132V138C182 139.657 180.657 141 179 141H65C63.3431 141 62 139.657 62 138V132Z" fill="#6C757D"/>
</g>
<g opacity="0.6">
<path d="M49 185C49 183.343 50.3431 182 52 182H116C117.657 182 119 183.343 119 185V193C119 194.657 117.657 196 116 196H52C50.3431 196 49 194.657 49 193V185Z" fill="#212529"/>
</g>
<mask id="path-16-inside-5_3491_11775" fill="white">
<path d="M49 210C49 206.686 51.6863 204 55 204H345C348.314 204 351 206.686 351 210V234C351 237.314 348.314 240 345 240H55C51.6863 240 49 237.314 49 234V210Z"/>
</mask>
<path d="M49 210C49 206.686 51.6863 204 55 204H345C348.314 204 351 206.686 351 210V234C351 237.314 348.314 240 345 240H55C51.6863 240 49 237.314 49 234V210Z" fill="white"/>
<path d="M55 204V205H345V204V203H55V204ZM351 210H350V234H351H352V210H351ZM345 240V239H55V240V241H345V240ZM49 234H50V210H49H48V234H49ZM55 240V239C52.2386 239 50 236.761 50 234H49H48C48 237.866 51.134 241 55 241V240ZM351 234H350C350 236.761 347.761 239 345 239V240V241C348.866 241 352 237.866 352 234H351ZM345 204V205C347.761 205 350 207.239 350 210H351H352C352 206.134 348.866 203 345 203V204ZM55 204V203C51.134 203 48 206.134 48 210H49H50C50 207.239 52.2386 205 55 205V204Z" fill="#E1E3E5" mask="url(#path-16-inside-5_3491_11775)"/>
<g opacity="0.4">
<path d="M62 219C62 217.343 63.3431 216 65 216H139C140.657 216 142 217.343 142 219V225C142 226.657 140.657 228 139 228H65C63.3431 228 62 226.657 62 225V219Z" fill="#212529"/>
</g>
<g opacity="0.3">
<path d="M326 218C326 216.895 326.895 216 328 216H336C337.105 216 338 216.895 338 218V226C338 227.105 337.105 228 336 228H328C326.895 228 326 227.105 326 226V218Z" fill="#6C757D"/>
</g>
</g>
<defs>
<filter id="filter0_f_3491_11775" x="-20" y="-20" width="440" height="356" filterUnits="userSpaceOnUse" color-interpolation-filters="sRGB">
<feFlood flood-opacity="0" result="BackgroundImageFix"/>
<feBlend mode="normal" in="SourceGraphic" in2="BackgroundImageFix" result="shape"/>
<feGaussianBlur stdDeviation="10" result="effect1_foregroundBlur_3491_11775"/>
</filter>
<linearGradient id="paint0_linear_3491_11775" x1="200" y1="0" x2="200" y2="280" gradientUnits="userSpaceOnUse">
<stop stop-color="#F8F9FA"/>
<stop offset="0.5" stop-color="#E9ECEF"/>
<stop offset="1" stop-color="#DEE2E6"/>
</linearGradient>
</defs>
</svg>
