<svg width="404" height="284" viewBox="0 0 404 284" fill="none" xmlns="http://www.w3.org/2000/svg">
<g filter="url(#filter0_d_3907_11390)">
<mask id="path-1-inside-1_3907_11390" fill="white">
<path d="M2 13C2 6.37259 7.37258 1 14 1H390C396.627 1 402 6.37258 402 13V269C402 275.627 396.627 281 390 281H14C7.37257 281 2 275.627 2 269V13Z"/>
</mask>
<path d="M2 13C2 6.37259 7.37258 1 14 1H390C396.627 1 402 6.37258 402 13V269C402 275.627 396.627 281 390 281H14C7.37257 281 2 275.627 2 269V13Z" fill="#F9FAFB" shape-rendering="crispEdges"/>
<path d="M14 1V2H390V1V0H14V1ZM402 13H401V269H402H403V13H402ZM390 281V280H14V281V282H390V281ZM2 269H3V13H2H1V269H2ZM14 281V280C7.92486 280 3 275.075 3 269H2H1C1 276.18 6.82029 282 14 282V281ZM402 269H401C401 275.075 396.075 280 390 280V281V282C397.18 282 403 276.18 403 269H402ZM390 1V2C396.075 2 401 6.92487 401 13H402H403C403 5.8203 397.18 0 390 0V1ZM14 1V0C6.8203 0 1 5.82031 1 13H2H3C3 6.92487 7.92487 2 14 2V1Z" fill="#E5E7EB" mask="url(#path-1-inside-1_3907_11390)"/>
<g filter="url(#filter1_d_3907_11390)">
<path d="M132 67C132 62.5817 135.582 59 140 59H264C268.418 59 272 62.5817 272 67V99C272 103.418 268.418 107 264 107H140C135.582 107 132 103.418 132 99V67Z" fill="#4F39F6" shape-rendering="crispEdges"/>
<path d="M166.667 78L157.5 87.1667L153.333 83" stroke="#A3B3FF" stroke-width="1.68" stroke-linecap="round" stroke-linejoin="round"/>
<path d="M177.249 89V77.3636H181.704C182.545 77.3636 183.244 77.4962 183.8 77.7614C184.361 78.0227 184.78 78.3807 185.056 78.8352C185.336 79.2898 185.477 79.8049 185.477 80.3807C185.477 80.8542 185.386 81.2595 185.204 81.5966C185.022 81.9299 184.778 82.2008 184.471 82.4091C184.164 82.6174 183.821 82.767 183.442 82.858V82.9716C183.855 82.9943 184.251 83.1212 184.63 83.3523C185.013 83.5795 185.325 83.9015 185.567 84.3182C185.81 84.7348 185.931 85.2386 185.931 85.8295C185.931 86.4318 185.785 86.9735 185.494 87.4545C185.202 87.9318 184.763 88.3087 184.175 88.5852C183.588 88.8617 182.85 89 181.96 89H177.249ZM179.357 87.2386H181.624C182.389 87.2386 182.941 87.0928 183.278 86.8011C183.619 86.5057 183.789 86.1269 183.789 85.6648C183.789 85.3201 183.704 85.0095 183.533 84.733C183.363 84.4527 183.121 84.233 182.806 84.0739C182.492 83.911 182.117 83.8295 181.681 83.8295H179.357V87.2386ZM179.357 82.3125H181.442C181.806 82.3125 182.134 82.2462 182.425 82.1136C182.717 81.9773 182.946 81.786 183.113 81.5398C183.283 81.2898 183.369 80.9943 183.369 80.6534C183.369 80.2027 183.21 79.8314 182.891 79.5398C182.577 79.2481 182.109 79.1023 181.488 79.1023H179.357V82.3125ZM193.237 85.3295V80.2727H195.293V89H193.299V87.4489H193.208C193.011 87.9375 192.687 88.3371 192.237 88.6477C191.79 88.9583 191.238 89.1136 190.583 89.1136C190.011 89.1136 189.505 88.9867 189.066 88.733C188.63 88.4754 188.29 88.1023 188.043 87.6136C187.797 87.1212 187.674 86.5265 187.674 85.8295V80.2727H189.731V85.5114C189.731 86.0644 189.882 86.5038 190.185 86.8295C190.488 87.1553 190.886 87.3182 191.379 87.3182C191.682 87.3182 191.975 87.2443 192.259 87.0966C192.543 86.9489 192.776 86.7292 192.958 86.4375C193.144 86.142 193.237 85.7727 193.237 85.3295ZM201.766 80.2727V81.8636H196.749V80.2727H201.766ZM197.988 78.1818H200.045V86.375C200.045 86.6515 200.086 86.8636 200.17 87.0114C200.257 87.1553 200.371 87.2538 200.511 87.3068C200.651 87.3598 200.806 87.3864 200.977 87.3864C201.105 87.3864 201.223 87.3769 201.329 87.358C201.439 87.339 201.522 87.322 201.579 87.3068L201.925 88.9148C201.816 88.9527 201.658 88.9943 201.454 89.0398C201.253 89.0852 201.007 89.1117 200.715 89.1193C200.2 89.1345 199.736 89.0568 199.323 88.8864C198.91 88.7121 198.583 88.4432 198.34 88.0795C198.102 87.7159 197.984 87.2614 197.988 86.7159V78.1818ZM207.844 80.2727V81.8636H202.827V80.2727H207.844ZM204.066 78.1818H206.123V86.375C206.123 86.6515 206.165 86.8636 206.248 87.0114C206.335 87.1553 206.449 87.2538 206.589 87.3068C206.729 87.3598 206.884 87.3864 207.055 87.3864C207.183 87.3864 207.301 87.3769 207.407 87.358C207.517 87.339 207.6 87.322 207.657 87.3068L208.004 88.9148C207.894 88.9527 207.737 88.9943 207.532 89.0398C207.331 89.0852 207.085 89.1117 206.793 89.1193C206.278 89.1345 205.814 89.0568 205.401 88.8864C204.988 88.7121 204.661 88.4432 204.418 88.0795C204.18 87.7159 204.062 87.2614 204.066 86.7159V78.1818ZM213.278 89.1705C212.425 89.1705 211.687 88.983 211.062 88.608C210.437 88.233 209.952 87.7083 209.607 87.0341C209.266 86.3598 209.096 85.572 209.096 84.6705C209.096 83.7689 209.266 82.9792 209.607 82.3011C209.952 81.6231 210.437 81.0966 211.062 80.7216C211.687 80.3466 212.425 80.1591 213.278 80.1591C214.13 80.1591 214.869 80.3466 215.494 80.7216C216.119 81.0966 216.602 81.6231 216.942 82.3011C217.287 82.9792 217.46 83.7689 217.46 84.6705C217.46 85.572 217.287 86.3598 216.942 87.0341C216.602 87.7083 216.119 88.233 215.494 88.608C214.869 88.983 214.13 89.1705 213.278 89.1705ZM213.289 87.5227C213.751 87.5227 214.138 87.3958 214.448 87.142C214.759 86.8845 214.99 86.5398 215.141 86.108C215.297 85.6761 215.374 85.1951 215.374 84.6648C215.374 84.1307 215.297 83.6477 215.141 83.2159C214.99 82.7803 214.759 82.4337 214.448 82.1761C214.138 81.9186 213.751 81.7898 213.289 81.7898C212.816 81.7898 212.422 81.9186 212.107 82.1761C211.797 82.4337 211.564 82.7803 211.408 83.2159C211.257 83.6477 211.181 84.1307 211.181 84.6648C211.181 85.1951 211.257 85.6761 211.408 86.108C211.564 86.5398 211.797 86.8845 212.107 87.142C212.422 87.3958 212.816 87.5227 213.289 87.5227ZM221.262 83.8864V89H219.205V80.2727H221.171V81.7557H221.273C221.474 81.267 221.794 80.8788 222.234 80.5909C222.677 80.303 223.224 80.1591 223.876 80.1591C224.478 80.1591 225.003 80.2879 225.45 80.5455C225.9 80.803 226.249 81.1761 226.495 81.6648C226.745 82.1534 226.868 82.7462 226.864 83.4432V89H224.808V83.7614C224.808 83.178 224.656 82.7216 224.353 82.392C224.054 82.0625 223.639 81.8977 223.109 81.8977C222.749 81.8977 222.429 81.9773 222.148 82.1364C221.872 82.2917 221.654 82.517 221.495 82.8125C221.34 83.108 221.262 83.4659 221.262 83.8864Z" fill="white"/>
<path d="M250.667 78L241.5 87.1667L237.333 83" stroke="#A3B3FF" stroke-width="1.68" stroke-linecap="round" stroke-linejoin="round"/>
</g>
<g filter="url(#filter2_d_3907_11390)">
<path d="M132 131C132 126.582 135.582 123 140 123H264C268.418 123 272 126.582 272 131V163C272 167.418 268.418 171 264 171H140C135.582 171 132 167.418 132 163V131Z" fill="white" shape-rendering="crispEdges"/>
<path d="M140 123.5H264C268.142 123.5 271.5 126.858 271.5 131V163C271.5 167.142 268.142 170.5 264 170.5H140C135.858 170.5 132.5 167.142 132.5 163V131C132.5 126.858 135.858 123.5 140 123.5Z" stroke="#D1D5DC" shape-rendering="crispEdges"/>
<path d="M166.667 142L157.5 151.167L153.333 147" stroke="#99A1AF" stroke-width="1.68" stroke-linecap="round" stroke-linejoin="round"/>
<path d="M177.249 153V141.364H181.704C182.545 141.364 183.244 141.496 183.8 141.761C184.361 142.023 184.78 142.381 185.056 142.835C185.336 143.29 185.477 143.805 185.477 144.381C185.477 144.854 185.386 145.259 185.204 145.597C185.022 145.93 184.778 146.201 184.471 146.409C184.164 146.617 183.821 146.767 183.442 146.858V146.972C183.855 146.994 184.251 147.121 184.63 147.352C185.013 147.58 185.325 147.902 185.567 148.318C185.81 148.735 185.931 149.239 185.931 149.83C185.931 150.432 185.785 150.973 185.494 151.455C185.202 151.932 184.763 152.309 184.175 152.585C183.588 152.862 182.85 153 181.96 153H177.249ZM179.357 151.239H181.624C182.389 151.239 182.941 151.093 183.278 150.801C183.619 150.506 183.789 150.127 183.789 149.665C183.789 149.32 183.704 149.009 183.533 148.733C183.363 148.453 183.121 148.233 182.806 148.074C182.492 147.911 182.117 147.83 181.681 147.83H179.357V151.239ZM179.357 146.312H181.442C181.806 146.312 182.134 146.246 182.425 146.114C182.717 145.977 182.946 145.786 183.113 145.54C183.283 145.29 183.369 144.994 183.369 144.653C183.369 144.203 183.21 143.831 182.891 143.54C182.577 143.248 182.109 143.102 181.488 143.102H179.357V146.312ZM193.237 149.33V144.273H195.293V153H193.299V151.449H193.208C193.011 151.937 192.687 152.337 192.237 152.648C191.79 152.958 191.238 153.114 190.583 153.114C190.011 153.114 189.505 152.987 189.066 152.733C188.63 152.475 188.29 152.102 188.043 151.614C187.797 151.121 187.674 150.527 187.674 149.83V144.273H189.731V149.511C189.731 150.064 189.882 150.504 190.185 150.83C190.488 151.155 190.886 151.318 191.379 151.318C191.682 151.318 191.975 151.244 192.259 151.097C192.543 150.949 192.776 150.729 192.958 150.438C193.144 150.142 193.237 149.773 193.237 149.33ZM201.766 144.273V145.864H196.749V144.273H201.766ZM197.988 142.182H200.045V150.375C200.045 150.652 200.086 150.864 200.17 151.011C200.257 151.155 200.371 151.254 200.511 151.307C200.651 151.36 200.806 151.386 200.977 151.386C201.105 151.386 201.223 151.377 201.329 151.358C201.439 151.339 201.522 151.322 201.579 151.307L201.925 152.915C201.816 152.953 201.658 152.994 201.454 153.04C201.253 153.085 201.007 153.112 200.715 153.119C200.2 153.134 199.736 153.057 199.323 152.886C198.91 152.712 198.583 152.443 198.34 152.08C198.102 151.716 197.984 151.261 197.988 150.716V142.182ZM207.844 144.273V145.864H202.827V144.273H207.844ZM204.066 142.182H206.123V150.375C206.123 150.652 206.165 150.864 206.248 151.011C206.335 151.155 206.449 151.254 206.589 151.307C206.729 151.36 206.884 151.386 207.055 151.386C207.183 151.386 207.301 151.377 207.407 151.358C207.517 151.339 207.6 151.322 207.657 151.307L208.004 152.915C207.894 152.953 207.737 152.994 207.532 153.04C207.331 153.085 207.085 153.112 206.793 153.119C206.278 153.134 205.814 153.057 205.401 152.886C204.988 152.712 204.661 152.443 204.418 152.08C204.18 151.716 204.062 151.261 204.066 150.716V142.182ZM213.278 153.17C212.425 153.17 211.687 152.983 211.062 152.608C210.437 152.233 209.952 151.708 209.607 151.034C209.266 150.36 209.096 149.572 209.096 148.67C209.096 147.769 209.266 146.979 209.607 146.301C209.952 145.623 210.437 145.097 211.062 144.722C211.687 144.347 212.425 144.159 213.278 144.159C214.13 144.159 214.869 144.347 215.494 144.722C216.119 145.097 216.602 145.623 216.942 146.301C217.287 146.979 217.46 147.769 217.46 148.67C217.46 149.572 217.287 150.36 216.942 151.034C216.602 151.708 216.119 152.233 215.494 152.608C214.869 152.983 214.13 153.17 213.278 153.17ZM213.289 151.523C213.751 151.523 214.138 151.396 214.448 151.142C214.759 150.884 214.99 150.54 215.141 150.108C215.297 149.676 215.374 149.195 215.374 148.665C215.374 148.131 215.297 147.648 215.141 147.216C214.99 146.78 214.759 146.434 214.448 146.176C214.138 145.919 213.751 145.79 213.289 145.79C212.816 145.79 212.422 145.919 212.107 146.176C211.797 146.434 211.564 146.78 211.408 147.216C211.257 147.648 211.181 148.131 211.181 148.665C211.181 149.195 211.257 149.676 211.408 150.108C211.564 150.54 211.797 150.884 212.107 151.142C212.422 151.396 212.816 151.523 213.289 151.523ZM221.262 147.886V153H219.205V144.273H221.171V145.756H221.273C221.474 145.267 221.794 144.879 222.234 144.591C222.677 144.303 223.224 144.159 223.876 144.159C224.478 144.159 225.003 144.288 225.45 144.545C225.9 144.803 226.249 145.176 226.495 145.665C226.745 146.153 226.868 146.746 226.864 147.443V153H224.808V147.761C224.808 147.178 224.656 146.722 224.353 146.392C224.054 146.062 223.639 145.898 223.109 145.898C222.749 145.898 222.429 145.977 222.148 146.136C221.872 146.292 221.654 146.517 221.495 146.812C221.34 147.108 221.262 147.466 221.262 147.886Z" fill="#364153"/>
<path d="M250.667 142L241.5 151.167L237.333 147" stroke="#99A1AF" stroke-width="1.68" stroke-linecap="round" stroke-linejoin="round"/>
</g>
<path d="M171.667 200L162.5 209.167L158.333 205" stroke="#99A1AF" stroke-width="1.68" stroke-linecap="round" stroke-linejoin="round"/>
<path d="M180.343 210V199.818H184.241C184.977 199.818 185.588 199.934 186.075 200.166C186.566 200.395 186.932 200.708 187.174 201.106C187.419 201.504 187.542 201.954 187.542 202.458C187.542 202.872 187.462 203.227 187.303 203.522C187.144 203.814 186.93 204.051 186.662 204.233C186.394 204.415 186.094 204.546 185.762 204.626V204.725C186.123 204.745 186.47 204.856 186.801 205.058C187.136 205.257 187.409 205.539 187.622 205.903C187.834 206.268 187.94 206.709 187.94 207.226C187.94 207.753 187.812 208.227 187.557 208.648C187.302 209.065 186.917 209.395 186.403 209.637C185.89 209.879 185.243 210 184.465 210H180.343ZM182.188 208.459H184.171C184.841 208.459 185.323 208.331 185.618 208.076C185.916 207.817 186.065 207.486 186.065 207.082C186.065 206.78 185.991 206.508 185.842 206.266C185.693 206.021 185.48 205.829 185.205 205.69C184.93 205.547 184.602 205.476 184.221 205.476H182.188V208.459ZM182.188 204.148H184.012C184.33 204.148 184.617 204.09 184.872 203.974C185.127 203.855 185.328 203.688 185.474 203.472C185.623 203.254 185.698 202.995 185.698 202.697C185.698 202.302 185.558 201.978 185.28 201.722C185.005 201.467 184.595 201.339 184.052 201.339H182.188V204.148ZM194.332 206.788V202.364H196.132V210H194.387V208.643H194.307C194.135 209.07 193.851 209.42 193.457 209.692C193.066 209.964 192.584 210.099 192.01 210.099C191.51 210.099 191.067 209.988 190.683 209.766C190.302 209.541 190.003 209.214 189.788 208.787C189.572 208.356 189.465 207.836 189.465 207.226V202.364H191.264V206.947C191.264 207.431 191.397 207.816 191.662 208.101C191.927 208.386 192.275 208.528 192.706 208.528C192.971 208.528 193.228 208.464 193.477 208.335C193.725 208.205 193.929 208.013 194.088 207.758C194.251 207.499 194.332 207.176 194.332 206.788ZM201.796 202.364V203.756H197.406V202.364H201.796ZM198.489 200.534H200.289V207.703C200.289 207.945 200.326 208.131 200.399 208.26C200.475 208.386 200.574 208.472 200.697 208.518C200.819 208.565 200.955 208.588 201.104 208.588C201.217 208.588 201.32 208.58 201.413 208.563C201.509 208.547 201.582 208.532 201.631 208.518L201.935 209.925C201.839 209.959 201.701 209.995 201.522 210.035C201.346 210.075 201.131 210.098 200.876 210.104C200.425 210.118 200.019 210.05 199.658 209.901C199.296 209.748 199.01 209.513 198.798 209.195C198.589 208.876 198.486 208.479 198.489 208.001V200.534ZM207.114 202.364V203.756H202.724V202.364H207.114ZM203.808 200.534H205.608V207.703C205.608 207.945 205.644 208.131 205.717 208.26C205.793 208.386 205.893 208.472 206.015 208.518C206.138 208.565 206.274 208.588 206.423 208.588C206.536 208.588 206.638 208.58 206.731 208.563C206.827 208.547 206.9 208.532 206.95 208.518L207.253 209.925C207.157 209.959 207.019 209.995 206.84 210.035C206.665 210.075 206.449 210.098 206.194 210.104C205.743 210.118 205.337 210.05 204.976 209.901C204.615 209.748 204.328 209.513 204.116 209.195C203.907 208.876 203.804 208.479 203.808 208.001V200.534ZM211.868 210.149C211.122 210.149 210.476 209.985 209.929 209.657C209.382 209.329 208.958 208.87 208.656 208.28C208.358 207.69 208.209 207 208.209 206.212C208.209 205.423 208.358 204.732 208.656 204.138C208.958 203.545 209.382 203.085 209.929 202.756C210.476 202.428 211.122 202.264 211.868 202.264C212.614 202.264 213.26 202.428 213.807 202.756C214.354 203.085 214.776 203.545 215.075 204.138C215.376 204.732 215.527 205.423 215.527 206.212C215.527 207 215.376 207.69 215.075 208.28C214.776 208.87 214.354 209.329 213.807 209.657C213.26 209.985 212.614 210.149 211.868 210.149ZM211.878 208.707C212.282 208.707 212.62 208.596 212.892 208.374C213.164 208.149 213.366 207.847 213.499 207.469C213.635 207.092 213.703 206.671 213.703 206.207C213.703 205.739 213.635 205.317 213.499 204.939C213.366 204.558 213.164 204.254 212.892 204.029C212.62 203.804 212.282 203.691 211.878 203.691C211.464 203.691 211.119 203.804 210.844 204.029C210.572 204.254 210.368 204.558 210.232 204.939C210.1 205.317 210.033 205.739 210.033 206.207C210.033 206.671 210.1 207.092 210.232 207.469C210.368 207.847 210.572 208.149 210.844 208.374C211.119 208.596 211.464 208.707 211.878 208.707ZM218.854 205.526V210H217.055V202.364H218.775V203.661H218.864C219.04 203.234 219.32 202.894 219.704 202.642C220.092 202.39 220.571 202.264 221.141 202.264C221.668 202.264 222.127 202.377 222.518 202.602C222.913 202.828 223.218 203.154 223.433 203.582C223.652 204.009 223.76 204.528 223.756 205.138V210H221.957V205.416C221.957 204.906 221.824 204.506 221.559 204.218C221.297 203.93 220.934 203.786 220.47 203.786C220.155 203.786 219.875 203.855 219.63 203.994C219.388 204.13 219.197 204.327 219.058 204.586C218.922 204.844 218.854 205.158 218.854 205.526Z" fill="#4A5565"/>
<path d="M245.667 200L236.5 209.167L232.333 205" stroke="#99A1AF" stroke-width="1.68" stroke-linecap="round" stroke-linejoin="round"/>
</g>
<defs>
<filter id="filter0_d_3907_11390" x="0" y="0" width="404" height="284" filterUnits="userSpaceOnUse" color-interpolation-filters="sRGB">
<feFlood flood-opacity="0" result="BackgroundImageFix"/>
<feColorMatrix in="SourceAlpha" type="matrix" values="0 0 0 0 0 0 0 0 0 0 0 0 0 0 0 0 0 0 127 0" result="hardAlpha"/>
<feOffset dy="1"/>
<feGaussianBlur stdDeviation="1"/>
<feComposite in2="hardAlpha" operator="out"/>
<feColorMatrix type="matrix" values="0 0 0 0 0.0117647 0 0 0 0 0.027451 0 0 0 0 0.0705882 0 0 0 0.06 0"/>
<feBlend mode="normal" in2="BackgroundImageFix" result="effect1_dropShadow_3907_11390"/>
<feBlend mode="normal" in="SourceGraphic" in2="effect1_dropShadow_3907_11390" result="shape"/>
</filter>
<filter id="filter1_d_3907_11390" x="130" y="58" width="144" height="52" filterUnits="userSpaceOnUse" color-interpolation-filters="sRGB">
<feFlood flood-opacity="0" result="BackgroundImageFix"/>
<feColorMatrix in="SourceAlpha" type="matrix" values="0 0 0 0 0 0 0 0 0 0 0 0 0 0 0 0 0 0 127 0" result="hardAlpha"/>
<feOffset dy="1"/>
<feGaussianBlur stdDeviation="1"/>
<feComposite in2="hardAlpha" operator="out"/>
<feColorMatrix type="matrix" values="0 0 0 0 0.0117647 0 0 0 0 0.027451 0 0 0 0 0.0705882 0 0 0 0.06 0"/>
<feBlend mode="normal" in2="BackgroundImageFix" result="effect1_dropShadow_3907_11390"/>
<feBlend mode="normal" in="SourceGraphic" in2="effect1_dropShadow_3907_11390" result="shape"/>
</filter>
<filter id="filter2_d_3907_11390" x="130" y="122" width="144" height="52" filterUnits="userSpaceOnUse" color-interpolation-filters="sRGB">
<feFlood flood-opacity="0" result="BackgroundImageFix"/>
<feColorMatrix in="SourceAlpha" type="matrix" values="0 0 0 0 0 0 0 0 0 0 0 0 0 0 0 0 0 0 127 0" result="hardAlpha"/>
<feOffset dy="1"/>
<feGaussianBlur stdDeviation="1"/>
<feComposite in2="hardAlpha" operator="out"/>
<feColorMatrix type="matrix" values="0 0 0 0 0.0117647 0 0 0 0 0.027451 0 0 0 0 0.0705882 0 0 0 0.06 0"/>
<feBlend mode="normal" in2="BackgroundImageFix" result="effect1_dropShadow_3907_11390"/>
<feBlend mode="normal" in="SourceGraphic" in2="effect1_dropShadow_3907_11390" result="shape"/>
</filter>
</defs>
</svg>
