<svg width="400" height="280" viewBox="0 0 400 280" fill="none" xmlns="http://www.w3.org/2000/svg">
<g opacity="0.7" filter="url(#filter0_f_3022_1594)">
<mask id="path-1-inside-1_3022_1594" fill="white">
<path d="M24 30C24 26.6863 26.6863 24 30 24H354C357.314 24 360 26.6863 360 30V50C360 53.3137 357.314 56 354 56H30C26.6863 56 24 53.3137 24 50V30Z"/>
</mask>
<path d="M24 30C24 26.6863 26.6863 24 30 24H354C357.314 24 360 26.6863 360 30V50C360 53.3137 357.314 56 354 56H30C26.6863 56 24 53.3137 24 50V30Z" fill="white"/>
<path d="M30 24V25H354V24V23H30V24ZM360 30H359V50H360H361V30H360ZM354 56V55H30V56V57H354V56ZM24 50H25V30H24H23V50H24ZM30 56V55C27.2386 55 25 52.7614 25 50H24H23C23 53.866 26.134 57 30 57V56ZM360 50H359C359 52.7614 356.761 55 354 55V56V57C357.866 57 361 53.866 361 50H360ZM354 24V25C356.761 25 359 27.2386 359 30H360H361C361 26.134 357.866 23 354 23V24ZM30 24V23C26.134 23 23 26.134 23 30H24H25C25 27.2386 27.2386 25 30 25V24Z" fill="#E1E3E5" mask="url(#path-1-inside-1_3022_1594)"/>
<mask id="path-3-inside-2_3022_1594" fill="white">
<path d="M24 76C24 71.5817 27.5817 68 32 68H178C182.418 68 186 71.5817 186 76V120C186 124.418 182.418 128 178 128H32C27.5817 128 24 124.418 24 120V76Z"/>
</mask>
<path d="M24 76C24 71.5817 27.5817 68 32 68H178C182.418 68 186 71.5817 186 76V120C186 124.418 182.418 128 178 128H32C27.5817 128 24 124.418 24 120V76Z" fill="white"/>
<path d="M32 68V69H178V68V67H32V68ZM186 76H185V120H186H187V76H186ZM178 128V127H32V128V129H178V128ZM24 120H25V76H24H23V120H24ZM32 128V127C28.134 127 25 123.866 25 120H24H23C23 124.971 27.0294 129 32 129V128ZM186 120H185C185 123.866 181.866 127 178 127V128V129C182.971 129 187 124.971 187 120H186ZM178 68V69C181.866 69 185 72.134 185 76H186H187C187 71.0294 182.971 67 178 67V68ZM32 68V67C27.0294 67 23 71.0294 23 76H24H25C25 72.134 28.134 69 32 69V68Z" fill="#E1E3E5" mask="url(#path-3-inside-2_3022_1594)"/>
<mask id="path-5-inside-3_3022_1594" fill="white">
<path d="M198 76C198 71.5817 201.582 68 206 68H352C356.418 68 360 71.5817 360 76V120C360 124.418 356.418 128 352 128H206C201.582 128 198 124.418 198 120V76Z"/>
</mask>
<path d="M198 76C198 71.5817 201.582 68 206 68H352C356.418 68 360 71.5817 360 76V120C360 124.418 356.418 128 352 128H206C201.582 128 198 124.418 198 120V76Z" fill="white"/>
<path d="M206 68V69H352V68V67H206V68ZM360 76H359V120H360H361V76H360ZM352 128V127H206V128V129H352V128ZM198 120H199V76H198H197V120H198ZM206 128V127C202.134 127 199 123.866 199 120H198H197C197 124.971 201.029 129 206 129V128ZM360 120H359C359 123.866 355.866 127 352 127V128V129C356.971 129 361 124.971 361 120H360ZM352 68V69C355.866 69 359 72.134 359 76H360H361C361 71.0294 356.971 67 352 67V68ZM206 68V67C201.029 67 197 71.0294 197 76H198H199C199 72.134 202.134 69 206 69V68Z" fill="#E1E3E5" mask="url(#path-5-inside-3_3022_1594)"/>
<mask id="path-7-inside-4_3022_1594" fill="white">
<path d="M24 148C24 143.582 27.5817 140 32 140H352C356.418 140 360 143.582 360 148V248C360 252.418 356.418 256 352 256H32C27.5817 256 24 252.418 24 248V148Z"/>
</mask>
<path d="M24 148C24 143.582 27.5817 140 32 140H352C356.418 140 360 143.582 360 148V248C360 252.418 356.418 256 352 256H32C27.5817 256 24 252.418 24 248V148Z" fill="white"/>
<path d="M32 140V141H352V140V139H32V140ZM360 148H359V248H360H361V148H360ZM352 256V255H32V256V257H352V256ZM24 248H25V148H24H23V248H24ZM32 256V255C28.134 255 25 251.866 25 248H24H23C23 252.971 27.0294 257 32 257V256ZM360 248H359C359 251.866 355.866 255 352 255V256V257C356.971 257 361 252.971 361 248H360ZM352 140V141C355.866 141 359 144.134 359 148H360H361C361 143.029 356.971 139 352 139V140ZM32 140V139C27.0294 139 23 143.029 23 148H24H25C25 144.134 28.134 141 32 141V140Z" fill="#E1E3E5" mask="url(#path-7-inside-4_3022_1594)"/>
</g>
<defs>
<filter id="filter0_f_3022_1594" x="-12" y="-12" width="424" height="304" filterUnits="userSpaceOnUse" color-interpolation-filters="sRGB">
<feFlood flood-opacity="0" result="BackgroundImageFix"/>
<feBlend mode="normal" in="SourceGraphic" in2="BackgroundImageFix" result="shape"/>
<feGaussianBlur stdDeviation="6" result="effect1_foregroundBlur_3022_1594"/>
</filter>
</defs>
</svg>
