<svg width="404" height="284" viewBox="0 0 404 284" fill="none" xmlns="http://www.w3.org/2000/svg">
<g filter="url(#filter0_d_3908_11417)">
<mask id="path-1-inside-1_3908_11417" fill="white">
<path d="M2 13C2 6.37259 7.37258 1 14 1H390C396.627 1 402 6.37258 402 13V269C402 275.627 396.627 281 390 281H14C7.37257 281 2 275.627 2 269V13Z"/>
</mask>
<path d="M2 13C2 6.37259 7.37258 1 14 1H390C396.627 1 402 6.37258 402 13V269C402 275.627 396.627 281 390 281H14C7.37257 281 2 275.627 2 269V13Z" fill="#F9FAFB" shape-rendering="crispEdges"/>
<path d="M14 1V2H390V1V0H14V1ZM402 13H401V269H402H403V13H402ZM390 281V280H14V281V282H390V281ZM2 269H3V13H2H1V269H2ZM14 281V280C7.92486 280 3 275.075 3 269H2H1C1 276.18 6.82029 282 14 282V281ZM402 269H401C401 275.075 396.075 280 390 280V281V282C397.18 282 403 276.18 403 269H402ZM390 1V2C396.075 2 401 6.92487 401 13H402H403C403 5.8203 397.18 0 390 0V1ZM14 1V0C6.8203 0 1 5.82031 1 13H2H3C3 6.92487 7.92487 2 14 2V1Z" fill="#E5E7EB" mask="url(#path-1-inside-1_3908_11417)"/>
<rect x="26.5" y="55.5" width="141" height="31" rx="7.5" fill="white"/>
<rect x="26.5" y="55.5" width="141" height="31" rx="7.5" stroke="#E5E7EB"/>
<path d="M39.1477 77V65.3636H41.2045V69.7159H41.2898C41.3958 69.5038 41.5455 69.2784 41.7386 69.0398C41.9318 68.7973 42.1932 68.5909 42.5227 68.4205C42.8523 68.2462 43.2727 68.1591 43.7841 68.1591C44.4583 68.1591 45.0663 68.3314 45.608 68.6761C46.1534 69.017 46.5852 69.5227 46.9034 70.1932C47.2254 70.8598 47.3864 71.678 47.3864 72.6477C47.3864 73.6061 47.2292 74.4205 46.9148 75.0909C46.6004 75.7614 46.1723 76.2727 45.6307 76.625C45.089 76.9773 44.4754 77.1534 43.7898 77.1534C43.2898 77.1534 42.875 77.0701 42.5455 76.9034C42.2159 76.7367 41.9508 76.536 41.75 76.3011C41.553 76.0625 41.3996 75.8371 41.2898 75.625H41.1705V77H39.1477ZM41.1648 72.6364C41.1648 73.2008 41.2443 73.6951 41.4034 74.1193C41.5663 74.5436 41.7992 74.875 42.1023 75.1136C42.4091 75.3485 42.7803 75.4659 43.2159 75.4659C43.6705 75.4659 44.0511 75.3447 44.358 75.1023C44.6648 74.8561 44.8958 74.5208 45.0511 74.0966C45.2102 73.6686 45.2898 73.1818 45.2898 72.6364C45.2898 72.0947 45.2121 71.6136 45.0568 71.1932C44.9015 70.7727 44.6705 70.4432 44.3636 70.2045C44.0568 69.9659 43.6742 69.8466 43.2159 69.8466C42.7765 69.8466 42.4034 69.9621 42.0966 70.1932C41.7898 70.4242 41.5568 70.7481 41.3977 71.1648C41.2424 71.5814 41.1648 72.072 41.1648 72.6364ZM52.9304 80.4545C52.1918 80.4545 51.5573 80.3542 51.027 80.1534C50.4967 79.9564 50.0705 79.6913 49.7486 79.358C49.4266 79.0246 49.2031 78.6553 49.0781 78.25L50.9304 77.8011C51.0137 77.9716 51.1349 78.1402 51.294 78.3068C51.4531 78.4773 51.6671 78.6174 51.9361 78.7273C52.2088 78.8409 52.5516 78.8977 52.9645 78.8977C53.5478 78.8977 54.0308 78.7557 54.4134 78.4716C54.7959 78.1913 54.9872 77.7292 54.9872 77.0852V75.4318H54.8849C54.7789 75.6439 54.6236 75.8617 54.419 76.0852C54.2183 76.3087 53.9512 76.4962 53.6179 76.6477C53.2884 76.7992 52.8736 76.875 52.3736 76.875C51.7031 76.875 51.0952 76.7178 50.5497 76.4034C50.008 76.0852 49.5762 75.6117 49.2543 74.983C48.9361 74.3504 48.777 73.5587 48.777 72.608C48.777 71.6496 48.9361 70.8409 49.2543 70.1818C49.5762 69.5189 50.0099 69.017 50.5554 68.6761C51.1009 68.3314 51.7088 68.1591 52.3793 68.1591C52.8906 68.1591 53.3111 68.2462 53.6406 68.4205C53.974 68.5909 54.2391 68.7973 54.4361 69.0398C54.633 69.2784 54.7827 69.5038 54.8849 69.7159H54.9986V68.2727H57.027V77.142C57.027 77.8883 56.849 78.5057 56.4929 78.9943C56.1368 79.483 55.6501 79.8485 55.0327 80.0909C54.4152 80.3333 53.7145 80.4545 52.9304 80.4545ZM52.9474 75.2614C53.383 75.2614 53.7543 75.1553 54.0611 74.9432C54.3679 74.7311 54.6009 74.4261 54.7599 74.0284C54.919 73.6307 54.9986 73.1534 54.9986 72.5966C54.9986 72.0473 54.919 71.5663 54.7599 71.1534C54.6046 70.7405 54.3736 70.4205 54.0668 70.1932C53.7637 69.9621 53.3906 69.8466 52.9474 69.8466C52.4891 69.8466 52.1065 69.9659 51.7997 70.2045C51.4929 70.4432 51.2618 70.7708 51.1065 71.1875C50.9512 71.6004 50.8736 72.0701 50.8736 72.5966C50.8736 73.1307 50.9512 73.5985 51.1065 74C51.2656 74.3977 51.4986 74.7083 51.8054 74.9318C52.116 75.1515 52.4967 75.2614 52.9474 75.2614ZM64.4247 71.3068V73H59.1861V71.3068H64.4247ZM66.679 77V65.3636H68.7358V69.7159H68.821C68.9271 69.5038 69.0767 69.2784 69.2699 69.0398C69.4631 68.7973 69.7244 68.5909 70.054 68.4205C70.3835 68.2462 70.804 68.1591 71.3153 68.1591C71.9896 68.1591 72.5975 68.3314 73.1392 68.6761C73.6847 69.017 74.1165 69.5227 74.4347 70.1932C74.7566 70.8598 74.9176 71.678 74.9176 72.6477C74.9176 73.6061 74.7604 74.4205 74.446 75.0909C74.1316 75.7614 73.7036 76.2727 73.1619 76.625C72.6203 76.9773 72.0066 77.1534 71.321 77.1534C70.821 77.1534 70.4063 77.0701 70.0767 76.9034C69.7472 76.7367 69.482 76.536 69.2812 76.3011C69.0843 76.0625 68.9309 75.8371 68.821 75.625H68.7017V77H66.679ZM68.696 72.6364C68.696 73.2008 68.7756 73.6951 68.9347 74.1193C69.0975 74.5436 69.3305 74.875 69.6335 75.1136C69.9403 75.3485 70.3116 75.4659 70.7472 75.4659C71.2017 75.4659 71.5824 75.3447 71.8892 75.1023C72.196 74.8561 72.4271 74.5208 72.5824 74.0966C72.7415 73.6686 72.821 73.1818 72.821 72.6364C72.821 72.0947 72.7434 71.6136 72.5881 71.1932C72.4328 70.7727 72.2017 70.4432 71.8949 70.2045C71.5881 69.9659 71.2055 69.8466 70.7472 69.8466C70.3078 69.8466 69.9347 69.9621 69.6278 70.1932C69.321 70.4242 69.0881 70.7481 68.929 71.1648C68.7737 71.5814 68.696 72.072 68.696 72.6364ZM76.6662 77V68.2727H78.6605V69.7273H78.7514C78.9105 69.2235 79.1832 68.8352 79.5696 68.5625C79.9598 68.286 80.4048 68.1477 80.9048 68.1477C81.0185 68.1477 81.1454 68.1534 81.2855 68.1648C81.4295 68.1723 81.5488 68.1856 81.6435 68.2045V70.0966C81.5563 70.0663 81.4181 70.0398 81.2287 70.017C81.0431 69.9905 80.8632 69.9773 80.6889 69.9773C80.3139 69.9773 79.9768 70.0587 79.6776 70.2216C79.3821 70.3807 79.1491 70.6023 78.9787 70.8864C78.8082 71.1705 78.723 71.4981 78.723 71.8693V77H76.6662ZM85.3651 77.1761C84.812 77.1761 84.3139 77.0777 83.8707 76.8807C83.4313 76.6799 83.0829 76.3845 82.8253 75.9943C82.5715 75.6042 82.4446 75.1231 82.4446 74.5511C82.4446 74.0587 82.5355 73.6515 82.7173 73.3295C82.8991 73.0076 83.1473 72.75 83.4616 72.5568C83.776 72.3636 84.1302 72.2178 84.5241 72.1193C84.9219 72.017 85.3329 71.9432 85.7571 71.8977C86.2685 71.8447 86.6832 71.7973 87.0014 71.7557C87.3196 71.7102 87.5507 71.642 87.6946 71.5511C87.8423 71.4564 87.9162 71.3106 87.9162 71.1136V71.0795C87.9162 70.6515 87.7893 70.3201 87.5355 70.0852C87.2817 69.8504 86.9162 69.733 86.4389 69.733C85.9351 69.733 85.5355 69.8428 85.2401 70.0625C84.9484 70.2822 84.7514 70.5417 84.6491 70.8409L82.7287 70.5682C82.8802 70.0379 83.1302 69.5947 83.4787 69.2386C83.8272 68.8788 84.2533 68.6098 84.7571 68.4318C85.2609 68.25 85.8177 68.1591 86.4276 68.1591C86.848 68.1591 87.2666 68.2083 87.6832 68.3068C88.0999 68.4053 88.4806 68.5682 88.8253 68.7955C89.17 69.0189 89.4465 69.3239 89.6548 69.7102C89.867 70.0966 89.973 70.5795 89.973 71.1591V77H87.9957V75.8011H87.9276C87.8026 76.0436 87.6264 76.2708 87.3991 76.483C87.1757 76.6913 86.8935 76.8598 86.5526 76.9886C86.2154 77.1136 85.8196 77.1761 85.3651 77.1761ZM85.8991 75.6648C86.312 75.6648 86.67 75.5833 86.973 75.4205C87.276 75.2538 87.509 75.0341 87.6719 74.7614C87.8385 74.4886 87.9219 74.1913 87.9219 73.8693V72.8409C87.8575 72.8939 87.7476 72.9432 87.5923 72.9886C87.4408 73.0341 87.2704 73.0739 87.081 73.108C86.8916 73.142 86.7041 73.1723 86.5185 73.1989C86.3329 73.2254 86.1719 73.2481 86.0355 73.267C85.7287 73.3087 85.4541 73.3769 85.2116 73.4716C84.9692 73.5663 84.7779 73.6989 84.6378 73.8693C84.4976 74.036 84.4276 74.2519 84.4276 74.517C84.4276 74.8958 84.5658 75.1818 84.8423 75.375C85.1188 75.5682 85.4711 75.6648 85.8991 75.6648ZM94.098 71.8864V77H92.0412V68.2727H94.0071V69.7557H94.1094C94.3101 69.267 94.6302 68.8788 95.0696 68.5909C95.5128 68.303 96.0601 68.1591 96.7116 68.1591C97.3139 68.1591 97.8385 68.2879 98.2855 68.5455C98.7363 68.803 99.0848 69.1761 99.331 69.6648C99.581 70.1534 99.7041 70.7462 99.7003 71.4432V77H97.6435V71.7614C97.6435 71.178 97.492 70.7216 97.1889 70.392C96.8897 70.0625 96.4749 69.8977 95.9446 69.8977C95.5848 69.8977 95.2647 69.9773 94.9844 70.1364C94.7079 70.2917 94.4901 70.517 94.331 70.8125C94.1757 71.108 94.098 71.4659 94.098 71.8864ZM105.03 77.1534C104.344 77.1534 103.731 76.9773 103.189 76.625C102.647 76.2727 102.219 75.7614 101.905 75.0909C101.59 74.4205 101.433 73.6061 101.433 72.6477C101.433 71.678 101.592 70.8598 101.911 70.1932C102.232 69.5227 102.666 69.017 103.212 68.6761C103.757 68.3314 104.365 68.1591 105.036 68.1591C105.547 68.1591 105.967 68.2462 106.297 68.4205C106.626 68.5909 106.888 68.7973 107.081 69.0398C107.274 69.2784 107.424 69.5038 107.53 69.7159H107.615V65.3636H109.678V77H107.655V75.625H107.53C107.424 75.8371 107.27 76.0625 107.07 76.3011C106.869 76.536 106.604 76.7367 106.274 76.9034C105.945 77.0701 105.53 77.1534 105.03 77.1534ZM105.604 75.4659C106.039 75.4659 106.411 75.3485 106.717 75.1136C107.024 74.875 107.257 74.5436 107.416 74.1193C107.575 73.6951 107.655 73.2008 107.655 72.6364C107.655 72.072 107.575 71.5814 107.416 71.1648C107.261 70.7481 107.03 70.4242 106.723 70.1932C106.42 69.9621 106.047 69.8466 105.604 69.8466C105.145 69.8466 104.763 69.9659 104.456 70.2045C104.149 70.4432 103.918 70.7727 103.763 71.1932C103.607 71.6136 103.53 72.0947 103.53 72.6364C103.53 73.1818 103.607 73.6686 103.763 74.0966C103.922 74.5208 104.155 74.8561 104.462 75.1023C104.772 75.3447 105.153 75.4659 105.604 75.4659ZM117.159 71.3068V73H111.92V71.3068H117.159ZM126.22 70.5795L124.345 70.7841C124.292 70.5947 124.199 70.4167 124.067 70.25C123.938 70.0833 123.764 69.9489 123.544 69.8466C123.324 69.7443 123.055 69.6932 122.737 69.6932C122.309 69.6932 121.949 69.786 121.658 69.9716C121.37 70.1572 121.228 70.3977 121.232 70.6932C121.228 70.947 121.321 71.1534 121.51 71.3125C121.703 71.4716 122.021 71.6023 122.464 71.7045L123.953 72.0227C124.779 72.2008 125.393 72.483 125.794 72.8693C126.199 73.2557 126.404 73.7614 126.408 74.3864C126.404 74.9356 126.243 75.4205 125.925 75.8409C125.61 76.2576 125.173 76.5833 124.612 76.8182C124.052 77.053 123.408 77.1705 122.68 77.1705C121.612 77.1705 120.752 76.947 120.101 76.5C119.449 76.0492 119.061 75.4223 118.936 74.6193L120.942 74.4261C121.033 74.8201 121.226 75.1174 121.521 75.3182C121.817 75.5189 122.201 75.6193 122.675 75.6193C123.163 75.6193 123.555 75.5189 123.851 75.3182C124.15 75.1174 124.3 74.8693 124.3 74.5739C124.3 74.3239 124.203 74.1174 124.01 73.9545C123.821 73.7917 123.525 73.6667 123.124 73.5795L121.635 73.267C120.798 73.0928 120.179 72.7992 119.777 72.3864C119.375 71.9697 119.177 71.4432 119.18 70.8068C119.177 70.2689 119.322 69.803 119.618 69.4091C119.917 69.0114 120.332 68.7045 120.862 68.4886C121.396 68.2689 122.012 68.1591 122.709 68.1591C123.732 68.1591 124.536 68.3769 125.124 68.8125C125.714 69.2481 126.08 69.8371 126.22 70.5795ZM131.911 77.1705C131.058 77.1705 130.32 76.983 129.695 76.608C129.07 76.233 128.585 75.7083 128.24 75.0341C127.899 74.3598 127.729 73.572 127.729 72.6705C127.729 71.7689 127.899 70.9792 128.24 70.3011C128.585 69.6231 129.07 69.0966 129.695 68.7216C130.32 68.3466 131.058 68.1591 131.911 68.1591C132.763 68.1591 133.501 68.3466 134.126 68.7216C134.751 69.0966 135.234 69.6231 135.575 70.3011C135.92 70.9792 136.092 71.7689 136.092 72.6705C136.092 73.572 135.92 74.3598 135.575 75.0341C135.234 75.7083 134.751 76.233 134.126 76.608C133.501 76.983 132.763 77.1705 131.911 77.1705ZM131.922 75.5227C132.384 75.5227 132.77 75.3958 133.081 75.142C133.392 74.8845 133.623 74.5398 133.774 74.108C133.929 73.6761 134.007 73.1951 134.007 72.6648C134.007 72.1307 133.929 71.6477 133.774 71.2159C133.623 70.7803 133.392 70.4337 133.081 70.1761C132.77 69.9186 132.384 69.7898 131.922 69.7898C131.448 69.7898 131.054 69.9186 130.74 70.1761C130.429 70.4337 130.196 70.7803 130.041 71.2159C129.89 71.6477 129.814 72.1307 129.814 72.6648C129.814 73.1951 129.89 73.6761 130.041 74.108C130.196 74.5398 130.429 74.8845 130.74 75.142C131.054 75.3958 131.448 75.5227 131.922 75.5227ZM139.895 65.3636V77H137.838V65.3636H139.895ZM142.01 77V68.2727H144.067V77H142.01ZM143.044 67.0341C142.718 67.0341 142.438 66.9261 142.203 66.7102C141.968 66.4905 141.851 66.2273 141.851 65.9205C141.851 65.6098 141.968 65.3466 142.203 65.1307C142.438 64.911 142.718 64.8011 143.044 64.8011C143.374 64.8011 143.654 64.911 143.885 65.1307C144.12 65.3466 144.237 65.6098 144.237 65.9205C144.237 66.2273 144.12 66.4905 143.885 66.7102C143.654 66.9261 143.374 67.0341 143.044 67.0341ZM149.42 77.1534C148.735 77.1534 148.121 76.9773 147.58 76.625C147.038 76.2727 146.61 75.7614 146.295 75.0909C145.981 74.4205 145.824 73.6061 145.824 72.6477C145.824 71.678 145.983 70.8598 146.301 70.1932C146.623 69.5227 147.057 69.017 147.602 68.6761C148.148 68.3314 148.756 68.1591 149.426 68.1591C149.938 68.1591 150.358 68.2462 150.688 68.4205C151.017 68.5909 151.278 68.7973 151.472 69.0398C151.665 69.2784 151.814 69.5038 151.92 69.7159H152.006V65.3636H154.068V77H152.045V75.625H151.92C151.814 75.8371 151.661 76.0625 151.46 76.3011C151.259 76.536 150.994 76.7367 150.665 76.9034C150.335 77.0701 149.92 77.1534 149.42 77.1534ZM149.994 75.4659C150.43 75.4659 150.801 75.3485 151.108 75.1136C151.415 74.875 151.648 74.5436 151.807 74.1193C151.966 73.6951 152.045 73.2008 152.045 72.6364C152.045 72.072 151.966 71.5814 151.807 71.1648C151.652 70.7481 151.42 70.4242 151.114 70.1932C150.811 69.9621 150.438 69.8466 149.994 69.8466C149.536 69.8466 149.153 69.9659 148.847 70.2045C148.54 70.4432 148.309 70.7727 148.153 71.1932C147.998 71.6136 147.92 72.0947 147.92 72.6364C147.92 73.1818 147.998 73.6686 148.153 74.0966C148.313 74.5208 148.545 74.8561 148.852 75.1023C149.163 75.3447 149.544 75.4659 149.994 75.4659Z" fill="#101828"/>
<rect x="235.5" y="49.5" width="142" height="43" rx="11.5" fill="white"/>
<rect x="235.5" y="49.5" width="142" height="43" rx="11.5" stroke="#E5E7EB"/>
<rect x="241.5" y="55.5" width="31" height="31" rx="7.5" fill="white"/>
<rect x="241.5" y="55.5" width="31" height="31" rx="7.5" stroke="#E5E7EB"/>
<rect x="245" y="59" width="24" height="24" rx="4" fill="#4F39F6"/>
<path d="M282.148 77V65.3636H284.205V69.7159H284.29C284.396 69.5038 284.545 69.2784 284.739 69.0398C284.932 68.7973 285.193 68.5909 285.523 68.4205C285.852 68.2462 286.273 68.1591 286.784 68.1591C287.458 68.1591 288.066 68.3314 288.608 68.6761C289.153 69.017 289.585 69.5227 289.903 70.1932C290.225 70.8598 290.386 71.678 290.386 72.6477C290.386 73.6061 290.229 74.4205 289.915 75.0909C289.6 75.7614 289.172 76.2727 288.631 76.625C288.089 76.9773 287.475 77.1534 286.79 77.1534C286.29 77.1534 285.875 77.0701 285.545 76.9034C285.216 76.7367 284.951 76.536 284.75 76.3011C284.553 76.0625 284.4 75.8371 284.29 75.625H284.17V77H282.148ZM284.165 72.6364C284.165 73.2008 284.244 73.6951 284.403 74.1193C284.566 74.5436 284.799 74.875 285.102 75.1136C285.409 75.3485 285.78 75.4659 286.216 75.4659C286.67 75.4659 287.051 75.3447 287.358 75.1023C287.665 74.8561 287.896 74.5208 288.051 74.0966C288.21 73.6686 288.29 73.1818 288.29 72.6364C288.29 72.0947 288.212 71.6136 288.057 71.1932C287.902 70.7727 287.67 70.4432 287.364 70.2045C287.057 69.9659 286.674 69.8466 286.216 69.8466C285.777 69.8466 285.403 69.9621 285.097 70.1932C284.79 70.4242 284.557 70.7481 284.398 71.1648C284.242 71.5814 284.165 72.072 284.165 72.6364ZM292.135 77V68.2727H294.129V69.7273H294.22C294.379 69.2235 294.652 68.8352 295.038 68.5625C295.429 68.286 295.874 68.1477 296.374 68.1477C296.487 68.1477 296.614 68.1534 296.754 68.1648C296.898 68.1723 297.018 68.1856 297.112 68.2045V70.0966C297.025 70.0663 296.887 70.0398 296.697 70.017C296.512 69.9905 296.332 69.9773 296.158 69.9773C295.783 69.9773 295.446 70.0587 295.146 70.2216C294.851 70.3807 294.618 70.6023 294.447 70.8864C294.277 71.1705 294.192 71.4981 294.192 71.8693V77H292.135ZM300.834 77.1761C300.281 77.1761 299.783 77.0777 299.339 76.8807C298.9 76.6799 298.552 76.3845 298.294 75.9943C298.04 75.6042 297.913 75.1231 297.913 74.5511C297.913 74.0587 298.004 73.6515 298.186 73.3295C298.368 73.0076 298.616 72.75 298.93 72.5568C299.245 72.3636 299.599 72.2178 299.993 72.1193C300.391 72.017 300.802 71.9432 301.226 71.8977C301.737 71.8447 302.152 71.7973 302.47 71.7557C302.788 71.7102 303.019 71.642 303.163 71.5511C303.311 71.4564 303.385 71.3106 303.385 71.1136V71.0795C303.385 70.6515 303.258 70.3201 303.004 70.0852C302.75 69.8504 302.385 69.733 301.908 69.733C301.404 69.733 301.004 69.8428 300.709 70.0625C300.417 70.2822 300.22 70.5417 300.118 70.8409L298.197 70.5682C298.349 70.0379 298.599 69.5947 298.947 69.2386C299.296 68.8788 299.722 68.6098 300.226 68.4318C300.73 68.25 301.286 68.1591 301.896 68.1591C302.317 68.1591 302.735 68.2083 303.152 68.3068C303.569 68.4053 303.949 68.5682 304.294 68.7955C304.639 69.0189 304.915 69.3239 305.124 69.7102C305.336 70.0966 305.442 70.5795 305.442 71.1591V77H303.464V75.8011H303.396C303.271 76.0436 303.095 76.2708 302.868 76.483C302.644 76.6913 302.362 76.8598 302.021 76.9886C301.684 77.1136 301.288 77.1761 300.834 77.1761ZM301.368 75.6648C301.781 75.6648 302.139 75.5833 302.442 75.4205C302.745 75.2538 302.978 75.0341 303.141 74.7614C303.307 74.4886 303.391 74.1913 303.391 73.8693V72.8409C303.326 72.8939 303.216 72.9432 303.061 72.9886C302.91 73.0341 302.739 73.0739 302.55 73.108C302.36 73.142 302.173 73.1723 301.987 73.1989C301.802 73.2254 301.641 73.2481 301.504 73.267C301.197 73.3087 300.923 73.3769 300.68 73.4716C300.438 73.5663 300.247 73.6989 300.107 73.8693C299.966 74.036 299.896 74.2519 299.896 74.517C299.896 74.8958 300.035 75.1818 300.311 75.375C300.588 75.5682 300.94 75.6648 301.368 75.6648ZM309.567 71.8864V77H307.51V68.2727H309.476V69.7557H309.578C309.779 69.267 310.099 68.8788 310.538 68.5909C310.982 68.303 311.529 68.1591 312.18 68.1591C312.783 68.1591 313.307 68.2879 313.754 68.5455C314.205 68.803 314.554 69.1761 314.8 69.6648C315.05 70.1534 315.173 70.7462 315.169 71.4432V77H313.112V71.7614C313.112 71.178 312.961 70.7216 312.658 70.392C312.358 70.0625 311.944 69.8977 311.413 69.8977C311.054 69.8977 310.733 69.9773 310.453 70.1364C310.177 70.2917 309.959 70.517 309.8 70.8125C309.644 71.108 309.567 71.4659 309.567 71.8864ZM320.499 77.1534C319.813 77.1534 319.199 76.9773 318.658 76.625C318.116 76.2727 317.688 75.7614 317.374 75.0909C317.059 74.4205 316.902 73.6061 316.902 72.6477C316.902 71.678 317.061 70.8598 317.379 70.1932C317.701 69.5227 318.135 69.017 318.68 68.6761C319.226 68.3314 319.834 68.1591 320.504 68.1591C321.016 68.1591 321.436 68.2462 321.766 68.4205C322.095 68.5909 322.357 68.7973 322.55 69.0398C322.743 69.2784 322.893 69.5038 322.999 69.7159H323.084V65.3636H325.146V77H323.124V75.625H322.999C322.893 75.8371 322.739 76.0625 322.538 76.3011C322.338 76.536 322.072 76.7367 321.743 76.9034C321.413 77.0701 320.999 77.1534 320.499 77.1534ZM321.072 75.4659C321.508 75.4659 321.879 75.3485 322.186 75.1136C322.493 74.875 322.726 74.5436 322.885 74.1193C323.044 73.6951 323.124 73.2008 323.124 72.6364C323.124 72.072 323.044 71.5814 322.885 71.1648C322.73 70.7481 322.499 70.4242 322.192 70.1932C321.889 69.9621 321.516 69.8466 321.072 69.8466C320.614 69.8466 320.232 69.9659 319.925 70.2045C319.618 70.4432 319.387 70.7727 319.232 71.1932C319.076 71.6136 318.999 72.0947 318.999 72.6364C318.999 73.1818 319.076 73.6686 319.232 74.0966C319.391 74.5208 319.624 74.8561 319.93 75.1023C320.241 75.3447 320.622 75.4659 321.072 75.4659ZM332.628 71.3068V73H327.389V71.3068H332.628ZM339.03 77.1591C338.473 77.1553 337.929 77.0587 337.399 76.8693C336.869 76.6761 336.392 76.3636 335.967 75.9318C335.543 75.4962 335.206 74.9186 334.956 74.1989C334.706 73.4754 334.583 72.5795 334.587 71.5114C334.587 70.5152 334.693 69.6269 334.905 68.8466C335.117 68.0663 335.422 67.4072 335.82 66.8693C336.217 66.3277 336.696 65.9148 337.257 65.6307C337.821 65.3466 338.452 65.2045 339.149 65.2045C339.88 65.2045 340.528 65.3485 341.092 65.6364C341.661 65.9242 342.119 66.3182 342.467 66.8182C342.816 67.3144 343.032 67.875 343.115 68.5H341.041C340.935 68.053 340.717 67.697 340.388 67.4318C340.062 67.1629 339.649 67.0284 339.149 67.0284C338.342 67.0284 337.721 67.3788 337.286 68.0795C336.854 68.7803 336.636 69.7424 336.632 70.9659H336.712C336.897 70.6326 337.138 70.3466 337.433 70.108C337.729 69.8693 338.062 69.6856 338.433 69.5568C338.808 69.4242 339.204 69.358 339.621 69.358C340.303 69.358 340.914 69.5208 341.456 69.8466C342.001 70.1723 342.433 70.6212 342.751 71.1932C343.07 71.7614 343.227 72.4129 343.223 73.1477C343.227 73.9129 343.053 74.6004 342.7 75.2102C342.348 75.8163 341.857 76.2936 341.229 76.642C340.6 76.9905 339.867 77.1629 339.03 77.1591ZM339.018 75.4545C339.431 75.4545 339.801 75.3542 340.126 75.1534C340.452 74.9527 340.71 74.6818 340.899 74.3409C341.089 74 341.181 73.6174 341.178 73.1932C341.181 72.7765 341.09 72.3996 340.905 72.0625C340.723 71.7254 340.471 71.4583 340.149 71.2614C339.827 71.0644 339.46 70.9659 339.047 70.9659C338.74 70.9659 338.454 71.0246 338.189 71.142C337.924 71.2595 337.693 71.4223 337.496 71.6307C337.299 71.8352 337.143 72.0739 337.03 72.3466C336.92 72.6155 336.863 72.9034 336.859 73.2102C336.863 73.6155 336.958 73.9886 337.143 74.3295C337.329 74.6705 337.585 74.9432 337.911 75.1477C338.236 75.3523 338.606 75.4545 339.018 75.4545ZM349.445 77.2216C348.509 77.2216 347.706 76.9848 347.036 76.5114C346.369 76.0341 345.856 75.3466 345.496 74.4489C345.14 73.5473 344.962 72.4621 344.962 71.1932C344.965 69.9242 345.145 68.8447 345.501 67.9545C345.861 67.0606 346.375 66.3788 347.041 65.9091C347.712 65.4394 348.513 65.2045 349.445 65.2045C350.376 65.2045 351.178 65.4394 351.848 65.9091C352.518 66.3788 353.032 67.0606 353.388 67.9545C353.748 68.8485 353.928 69.928 353.928 71.1932C353.928 72.4659 353.748 73.553 353.388 74.4545C353.032 75.3523 352.518 76.0379 351.848 76.5114C351.181 76.9848 350.38 77.2216 349.445 77.2216ZM349.445 75.4432C350.172 75.4432 350.746 75.0852 351.166 74.3693C351.59 73.6496 351.803 72.5909 351.803 71.1932C351.803 70.2689 351.706 69.4924 351.513 68.8636C351.32 68.2348 351.047 67.7614 350.695 67.4432C350.342 67.1212 349.926 66.9602 349.445 66.9602C348.721 66.9602 348.149 67.3201 347.729 68.0398C347.308 68.7557 347.096 69.8068 347.092 71.1932C347.089 72.1212 347.181 72.9015 347.371 73.5341C347.564 74.1667 347.837 74.6439 348.189 74.9659C348.541 75.2841 348.96 75.4432 349.445 75.4432ZM360.116 77.2216C359.181 77.2216 358.378 76.9848 357.707 76.5114C357.041 76.0341 356.527 75.3466 356.168 74.4489C355.812 73.5473 355.634 72.4621 355.634 71.1932C355.637 69.9242 355.817 68.8447 356.173 67.9545C356.533 67.0606 357.046 66.3788 357.713 65.9091C358.384 65.4394 359.185 65.2045 360.116 65.2045C361.048 65.2045 361.849 65.4394 362.52 65.9091C363.19 66.3788 363.704 67.0606 364.06 67.9545C364.42 68.8485 364.599 69.928 364.599 71.1932C364.599 72.4659 364.42 73.553 364.06 74.4545C363.704 75.3523 363.19 76.0379 362.52 76.5114C361.853 76.9848 361.052 77.2216 360.116 77.2216ZM360.116 75.4432C360.844 75.4432 361.418 75.0852 361.838 74.3693C362.262 73.6496 362.474 72.5909 362.474 71.1932C362.474 70.2689 362.378 69.4924 362.185 68.8636C361.991 68.2348 361.719 67.7614 361.366 67.4432C361.014 67.1212 360.598 66.9602 360.116 66.9602C359.393 66.9602 358.821 67.3201 358.401 68.0398C357.98 68.7557 357.768 69.8068 357.764 71.1932C357.76 72.1212 357.853 72.9015 358.043 73.5341C358.236 74.1667 358.509 74.6439 358.861 74.9659C359.213 75.2841 359.632 75.4432 360.116 75.4432Z" fill="#101828"/>
<line x1="26" y1="108.5" x2="378" y2="108.5" stroke="#E5E7EB"/>
<rect x="26.5" y="125.5" width="106" height="31" rx="7.5" fill="white"/>
<rect x="26.5" y="125.5" width="106" height="31" rx="7.5" stroke="#E5E7EB"/>
<path d="M45.9545 140.58L44.0795 140.784C44.0265 140.595 43.9337 140.417 43.8011 140.25C43.6723 140.083 43.4981 139.949 43.2784 139.847C43.0587 139.744 42.7898 139.693 42.4716 139.693C42.0436 139.693 41.6837 139.786 41.392 139.972C41.1042 140.157 40.9621 140.398 40.9659 140.693C40.9621 140.947 41.0549 141.153 41.2443 141.312C41.4375 141.472 41.7557 141.602 42.1989 141.705L43.6875 142.023C44.5133 142.201 45.1269 142.483 45.5284 142.869C45.9337 143.256 46.1383 143.761 46.142 144.386C46.1383 144.936 45.9773 145.42 45.6591 145.841C45.3447 146.258 44.9072 146.583 44.3466 146.818C43.786 147.053 43.142 147.17 42.4148 147.17C41.3466 147.17 40.4867 146.947 39.8352 146.5C39.1837 146.049 38.7955 145.422 38.6705 144.619L40.6761 144.426C40.767 144.82 40.9602 145.117 41.2557 145.318C41.5511 145.519 41.9356 145.619 42.4091 145.619C42.8977 145.619 43.2898 145.519 43.5852 145.318C43.8845 145.117 44.0341 144.869 44.0341 144.574C44.0341 144.324 43.9375 144.117 43.7443 143.955C43.5549 143.792 43.2595 143.667 42.858 143.58L41.3693 143.267C40.5322 143.093 39.9129 142.799 39.5114 142.386C39.1098 141.97 38.911 141.443 38.9148 140.807C38.911 140.269 39.0568 139.803 39.3523 139.409C39.6515 139.011 40.0663 138.705 40.5966 138.489C41.1307 138.269 41.7462 138.159 42.4432 138.159C43.4659 138.159 44.2708 138.377 44.858 138.812C45.4489 139.248 45.8144 139.837 45.9545 140.58ZM47.8381 150.273V138.273H49.8608V139.716H49.9801C50.0862 139.504 50.2358 139.278 50.429 139.04C50.6222 138.797 50.8835 138.591 51.2131 138.42C51.5426 138.246 51.9631 138.159 52.4744 138.159C53.1487 138.159 53.7566 138.331 54.2983 138.676C54.8438 139.017 55.2756 139.523 55.5938 140.193C55.9157 140.86 56.0767 141.678 56.0767 142.648C56.0767 143.606 55.9195 144.42 55.6051 145.091C55.2907 145.761 54.8627 146.273 54.321 146.625C53.7794 146.977 53.1657 147.153 52.4801 147.153C51.9801 147.153 51.5653 147.07 51.2358 146.903C50.9063 146.737 50.6411 146.536 50.4403 146.301C50.2434 146.062 50.09 145.837 49.9801 145.625H49.8949V150.273H47.8381ZM49.8551 142.636C49.8551 143.201 49.9347 143.695 50.0938 144.119C50.2566 144.544 50.4896 144.875 50.7926 145.114C51.0994 145.348 51.4706 145.466 51.9062 145.466C52.3608 145.466 52.7415 145.345 53.0483 145.102C53.3551 144.856 53.5862 144.521 53.7415 144.097C53.9006 143.669 53.9801 143.182 53.9801 142.636C53.9801 142.095 53.9025 141.614 53.7472 141.193C53.5919 140.773 53.3608 140.443 53.054 140.205C52.7472 139.966 52.3646 139.847 51.9062 139.847C51.4669 139.847 51.0938 139.962 50.7869 140.193C50.4801 140.424 50.2472 140.748 50.0881 141.165C49.9328 141.581 49.8551 142.072 49.8551 142.636ZM60.3494 147.176C59.7964 147.176 59.2983 147.078 58.8551 146.881C58.4157 146.68 58.0672 146.384 57.8097 145.994C57.5559 145.604 57.429 145.123 57.429 144.551C57.429 144.059 57.5199 143.652 57.7017 143.33C57.8835 143.008 58.1316 142.75 58.446 142.557C58.7604 142.364 59.1146 142.218 59.5085 142.119C59.9063 142.017 60.3172 141.943 60.7415 141.898C61.2528 141.845 61.6676 141.797 61.9858 141.756C62.304 141.71 62.535 141.642 62.679 141.551C62.8267 141.456 62.9006 141.311 62.9006 141.114V141.08C62.9006 140.652 62.7737 140.32 62.5199 140.085C62.2661 139.85 61.9006 139.733 61.4233 139.733C60.9195 139.733 60.5199 139.843 60.2244 140.062C59.9328 140.282 59.7358 140.542 59.6335 140.841L57.7131 140.568C57.8646 140.038 58.1146 139.595 58.4631 139.239C58.8116 138.879 59.2377 138.61 59.7415 138.432C60.2453 138.25 60.8021 138.159 61.4119 138.159C61.8324 138.159 62.2509 138.208 62.6676 138.307C63.0843 138.405 63.465 138.568 63.8097 138.795C64.1544 139.019 64.4309 139.324 64.6392 139.71C64.8513 140.097 64.9574 140.58 64.9574 141.159V147H62.9801V145.801H62.9119C62.7869 146.044 62.6108 146.271 62.3835 146.483C62.16 146.691 61.8778 146.86 61.5369 146.989C61.1998 147.114 60.804 147.176 60.3494 147.176ZM60.8835 145.665C61.2964 145.665 61.6544 145.583 61.9574 145.42C62.2604 145.254 62.4934 145.034 62.6562 144.761C62.8229 144.489 62.9062 144.191 62.9062 143.869V142.841C62.8419 142.894 62.732 142.943 62.5767 142.989C62.4252 143.034 62.2547 143.074 62.0653 143.108C61.8759 143.142 61.6884 143.172 61.5028 143.199C61.3172 143.225 61.1563 143.248 61.0199 143.267C60.7131 143.309 60.4384 143.377 60.196 143.472C59.9536 143.566 59.7623 143.699 59.6222 143.869C59.482 144.036 59.4119 144.252 59.4119 144.517C59.4119 144.896 59.5502 145.182 59.8267 145.375C60.1032 145.568 60.4555 145.665 60.8835 145.665ZM70.8324 147.17C69.9612 147.17 69.2131 146.979 68.5881 146.597C67.9669 146.214 67.4877 145.686 67.1506 145.011C66.8172 144.333 66.6506 143.553 66.6506 142.67C66.6506 141.784 66.821 141.002 67.1619 140.324C67.5028 139.642 67.9839 139.112 68.6051 138.733C69.2301 138.35 69.9688 138.159 70.821 138.159C71.5294 138.159 72.1563 138.29 72.7017 138.551C73.2509 138.809 73.6884 139.174 74.0142 139.648C74.34 140.117 74.5256 140.667 74.571 141.295H72.6051C72.5256 140.875 72.3362 140.525 72.0369 140.244C71.7415 139.96 71.3456 139.818 70.8494 139.818C70.429 139.818 70.0597 139.932 69.7415 140.159C69.4233 140.383 69.1752 140.705 68.9972 141.125C68.8229 141.545 68.7358 142.049 68.7358 142.636C68.7358 143.231 68.8229 143.742 68.9972 144.17C69.1714 144.595 69.4157 144.922 69.7301 145.153C70.0483 145.381 70.4214 145.494 70.8494 145.494C71.1525 145.494 71.4233 145.437 71.6619 145.324C71.9044 145.206 72.107 145.038 72.2699 144.818C72.4328 144.598 72.5445 144.331 72.6051 144.017H74.571C74.5218 144.634 74.34 145.182 74.0256 145.659C73.7112 146.133 73.2831 146.504 72.7415 146.773C72.1998 147.038 71.5634 147.17 70.8324 147.17ZM76.2599 147V138.273H78.3168V147H76.2599ZM77.294 137.034C76.9683 137.034 76.688 136.926 76.4531 136.71C76.2183 136.491 76.1009 136.227 76.1009 135.92C76.1009 135.61 76.2183 135.347 76.4531 135.131C76.688 134.911 76.9683 134.801 77.294 134.801C77.6236 134.801 77.9039 134.911 78.1349 135.131C78.3698 135.347 78.4872 135.61 78.4872 135.92C78.4872 136.227 78.3698 136.491 78.1349 136.71C77.9039 136.926 77.6236 137.034 77.294 137.034ZM82.4886 141.886V147H80.4318V138.273H82.3977V139.756H82.5C82.7008 139.267 83.0208 138.879 83.4602 138.591C83.9034 138.303 84.4508 138.159 85.1023 138.159C85.7045 138.159 86.2292 138.288 86.6761 138.545C87.1269 138.803 87.4754 139.176 87.7216 139.665C87.9716 140.153 88.0947 140.746 88.0909 141.443V147H86.0341V141.761C86.0341 141.178 85.8826 140.722 85.5795 140.392C85.2803 140.062 84.8655 139.898 84.3352 139.898C83.9754 139.898 83.6553 139.977 83.375 140.136C83.0985 140.292 82.8807 140.517 82.7216 140.812C82.5663 141.108 82.4886 141.466 82.4886 141.886ZM93.9773 150.455C93.2386 150.455 92.6042 150.354 92.0739 150.153C91.5436 149.956 91.1174 149.691 90.7955 149.358C90.4735 149.025 90.25 148.655 90.125 148.25L91.9773 147.801C92.0606 147.972 92.1818 148.14 92.3409 148.307C92.5 148.477 92.714 148.617 92.983 148.727C93.2557 148.841 93.5985 148.898 94.0114 148.898C94.5947 148.898 95.0777 148.756 95.4602 148.472C95.8428 148.191 96.0341 147.729 96.0341 147.085V145.432H95.9318C95.8258 145.644 95.6705 145.862 95.4659 146.085C95.2652 146.309 94.9981 146.496 94.6648 146.648C94.3352 146.799 93.9205 146.875 93.4205 146.875C92.75 146.875 92.142 146.718 91.5966 146.403C91.0549 146.085 90.6231 145.612 90.3011 144.983C89.983 144.35 89.8239 143.559 89.8239 142.608C89.8239 141.65 89.983 140.841 90.3011 140.182C90.6231 139.519 91.0568 139.017 91.6023 138.676C92.1477 138.331 92.7557 138.159 93.4261 138.159C93.9375 138.159 94.358 138.246 94.6875 138.42C95.0208 138.591 95.286 138.797 95.483 139.04C95.6799 139.278 95.8295 139.504 95.9318 139.716H96.0455V138.273H98.0739V147.142C98.0739 147.888 97.8958 148.506 97.5398 148.994C97.1837 149.483 96.697 149.848 96.0795 150.091C95.4621 150.333 94.7614 150.455 93.9773 150.455ZM93.9943 145.261C94.4299 145.261 94.8011 145.155 95.108 144.943C95.4148 144.731 95.6477 144.426 95.8068 144.028C95.9659 143.631 96.0455 143.153 96.0455 142.597C96.0455 142.047 95.9659 141.566 95.8068 141.153C95.6515 140.741 95.4205 140.42 95.1136 140.193C94.8106 139.962 94.4375 139.847 93.9943 139.847C93.536 139.847 93.1534 139.966 92.8466 140.205C92.5398 140.443 92.3087 140.771 92.1534 141.188C91.9981 141.6 91.9205 142.07 91.9205 142.597C91.9205 143.131 91.9981 143.598 92.1534 144C92.3125 144.398 92.5455 144.708 92.8523 144.932C93.1629 145.152 93.5436 145.261 93.9943 145.261ZM105.472 141.307V143H100.233V141.307H105.472ZM109.692 135.364V147H107.635V135.364H109.692ZM115.602 150.455C114.864 150.455 114.229 150.354 113.699 150.153C113.169 149.956 112.742 149.691 112.42 149.358C112.098 149.025 111.875 148.655 111.75 148.25L113.602 147.801C113.686 147.972 113.807 148.14 113.966 148.307C114.125 148.477 114.339 148.617 114.608 148.727C114.881 148.841 115.223 148.898 115.636 148.898C116.22 148.898 116.703 148.756 117.085 148.472C117.468 148.191 117.659 147.729 117.659 147.085V145.432H117.557C117.451 145.644 117.295 145.862 117.091 146.085C116.89 146.309 116.623 146.496 116.29 146.648C115.96 146.799 115.545 146.875 115.045 146.875C114.375 146.875 113.767 146.718 113.222 146.403C112.68 146.085 112.248 145.612 111.926 144.983C111.608 144.35 111.449 143.559 111.449 142.608C111.449 141.65 111.608 140.841 111.926 140.182C112.248 139.519 112.682 139.017 113.227 138.676C113.773 138.331 114.381 138.159 115.051 138.159C115.563 138.159 115.983 138.246 116.312 138.42C116.646 138.591 116.911 138.797 117.108 139.04C117.305 139.278 117.455 139.504 117.557 139.716H117.67V138.273H119.699V147.142C119.699 147.888 119.521 148.506 119.165 148.994C118.809 149.483 118.322 149.848 117.705 150.091C117.087 150.333 116.386 150.455 115.602 150.455ZM115.619 145.261C116.055 145.261 116.426 145.155 116.733 144.943C117.04 144.731 117.273 144.426 117.432 144.028C117.591 143.631 117.67 143.153 117.67 142.597C117.67 142.047 117.591 141.566 117.432 141.153C117.277 140.741 117.045 140.42 116.739 140.193C116.436 139.962 116.063 139.847 115.619 139.847C115.161 139.847 114.778 139.966 114.472 140.205C114.165 140.443 113.934 140.771 113.778 141.188C113.623 141.6 113.545 142.07 113.545 142.597C113.545 143.131 113.623 143.598 113.778 144C113.938 144.398 114.17 144.708 114.477 144.932C114.788 145.152 115.169 145.261 115.619 145.261Z" fill="#101828"/>
<path d="M168.333 147.159C167.477 147.159 166.748 146.926 166.146 146.46C165.544 145.991 165.083 145.311 164.765 144.42C164.447 143.527 164.288 142.447 164.288 141.182C164.288 139.924 164.447 138.85 164.765 137.96C165.087 137.066 165.549 136.384 166.151 135.915C166.758 135.441 167.485 135.205 168.333 135.205C169.182 135.205 169.907 135.441 170.509 135.915C171.116 136.384 171.578 137.066 171.896 137.96C172.218 138.85 172.379 139.924 172.379 141.182C172.379 142.447 172.22 143.527 171.901 144.42C171.583 145.311 171.123 145.991 170.521 146.46C169.919 146.926 169.189 147.159 168.333 147.159ZM168.333 145.909C169.182 145.909 169.841 145.5 170.311 144.682C170.78 143.864 171.015 142.697 171.015 141.182C171.015 140.174 170.907 139.316 170.691 138.608C170.479 137.9 170.172 137.36 169.771 136.989C169.373 136.617 168.894 136.432 168.333 136.432C167.492 136.432 166.835 136.847 166.362 137.676C165.888 138.502 165.651 139.67 165.651 141.182C165.651 142.189 165.758 143.045 165.97 143.75C166.182 144.455 166.487 144.991 166.884 145.358C167.286 145.725 167.769 145.909 168.333 145.909ZM175.132 147.091C174.851 147.091 174.611 146.991 174.41 146.79C174.209 146.589 174.109 146.348 174.109 146.068C174.109 145.788 174.209 145.547 174.41 145.347C174.611 145.146 174.851 145.045 175.132 145.045C175.412 145.045 175.652 145.146 175.853 145.347C176.054 145.547 176.154 145.788 176.154 146.068C176.154 146.254 176.107 146.424 176.012 146.58C175.921 146.735 175.798 146.86 175.643 146.955C175.491 147.045 175.321 147.091 175.132 147.091ZM178.667 147L183.872 136.705V136.614H177.872V135.364H185.326V136.682L180.144 147H178.667ZM190.924 147.159C190.258 147.159 189.657 147.027 189.123 146.761C188.589 146.496 188.161 146.133 187.839 145.67C187.517 145.208 187.341 144.682 187.311 144.091H188.674C188.727 144.617 188.966 145.053 189.39 145.398C189.818 145.739 190.33 145.909 190.924 145.909C191.401 145.909 191.826 145.797 192.197 145.574C192.572 145.35 192.866 145.044 193.078 144.653C193.294 144.259 193.401 143.814 193.401 143.318C193.401 142.811 193.29 142.358 193.066 141.96C192.847 141.559 192.544 141.242 192.157 141.011C191.771 140.78 191.33 140.663 190.833 140.659C190.477 140.655 190.112 140.71 189.737 140.824C189.362 140.934 189.053 141.076 188.811 141.25L187.492 141.091L188.197 135.364H194.242V136.614H189.379L188.97 140.045H189.038C189.276 139.856 189.576 139.699 189.936 139.574C190.295 139.449 190.67 139.386 191.061 139.386C191.773 139.386 192.407 139.557 192.964 139.898C193.525 140.235 193.964 140.697 194.282 141.284C194.604 141.871 194.765 142.542 194.765 143.295C194.765 144.038 194.598 144.701 194.265 145.284C193.936 145.864 193.481 146.322 192.901 146.659C192.322 146.992 191.663 147.159 190.924 147.159ZM197.045 147V138.273H198.34V139.591H198.431C198.59 139.159 198.878 138.809 199.295 138.54C199.712 138.271 200.181 138.136 200.704 138.136C200.803 138.136 200.926 138.138 201.073 138.142C201.221 138.146 201.333 138.152 201.409 138.159V139.523C201.363 139.511 201.259 139.494 201.096 139.472C200.937 139.445 200.768 139.432 200.59 139.432C200.166 139.432 199.787 139.521 199.454 139.699C199.125 139.873 198.863 140.116 198.67 140.426C198.481 140.733 198.386 141.083 198.386 141.477V147H197.045ZM206.392 147.182C205.551 147.182 204.825 146.996 204.215 146.625C203.609 146.25 203.142 145.727 202.812 145.057C202.486 144.383 202.323 143.598 202.323 142.705C202.323 141.811 202.486 141.023 202.812 140.341C203.142 139.655 203.6 139.121 204.187 138.739C204.778 138.352 205.467 138.159 206.255 138.159C206.71 138.159 207.159 138.235 207.602 138.386C208.045 138.538 208.448 138.784 208.812 139.125C209.176 139.462 209.465 139.909 209.681 140.466C209.897 141.023 210.005 141.708 210.005 142.523V143.091H203.278V141.932H208.642C208.642 141.439 208.543 141 208.346 140.614C208.153 140.227 207.876 139.922 207.517 139.699C207.16 139.475 206.74 139.364 206.255 139.364C205.721 139.364 205.259 139.496 204.869 139.761C204.482 140.023 204.185 140.364 203.977 140.784C203.768 141.205 203.664 141.655 203.664 142.136V142.909C203.664 143.568 203.778 144.127 204.005 144.585C204.236 145.04 204.556 145.386 204.965 145.625C205.375 145.86 205.85 145.977 206.392 145.977C206.744 145.977 207.062 145.928 207.346 145.83C207.634 145.727 207.882 145.576 208.09 145.375C208.299 145.17 208.46 144.917 208.573 144.614L209.869 144.977C209.732 145.417 209.503 145.803 209.181 146.136C208.859 146.466 208.462 146.723 207.988 146.909C207.515 147.091 206.982 147.182 206.392 147.182ZM212.045 147V138.273H213.34V139.636H213.454C213.636 139.17 213.929 138.809 214.335 138.551C214.74 138.29 215.227 138.159 215.795 138.159C216.371 138.159 216.85 138.29 217.232 138.551C217.619 138.809 217.92 139.17 218.136 139.636H218.227C218.45 139.186 218.785 138.828 219.232 138.562C219.679 138.294 220.215 138.159 220.84 138.159C221.621 138.159 222.259 138.403 222.755 138.892C223.251 139.377 223.5 140.133 223.5 141.159V147H222.159V141.159C222.159 140.515 221.982 140.055 221.63 139.778C221.278 139.502 220.863 139.364 220.386 139.364C219.772 139.364 219.297 139.549 218.96 139.92C218.623 140.288 218.454 140.754 218.454 141.318V147H217.09V141.023C217.09 140.527 216.929 140.127 216.607 139.824C216.285 139.517 215.871 139.364 215.363 139.364C215.015 139.364 214.689 139.456 214.386 139.642C214.087 139.828 213.844 140.085 213.659 140.415C213.477 140.741 213.386 141.117 213.386 141.545V147H212.045Z" fill="#4A5565"/>
<path d="M260.962 135.364V147H259.553V136.841H259.485L256.644 138.727V137.295L259.553 135.364H260.962ZM264.309 147V145.977L268.15 141.773C268.6 141.28 268.972 140.852 269.263 140.489C269.555 140.121 269.771 139.777 269.911 139.455C270.055 139.129 270.127 138.788 270.127 138.432C270.127 138.023 270.028 137.669 269.831 137.369C269.638 137.07 269.373 136.839 269.036 136.676C268.699 136.513 268.32 136.432 267.9 136.432C267.453 136.432 267.062 136.525 266.729 136.71C266.4 136.892 266.144 137.148 265.962 137.477C265.784 137.807 265.695 138.193 265.695 138.636H264.354C264.354 137.955 264.511 137.356 264.826 136.841C265.14 136.326 265.568 135.924 266.11 135.636C266.655 135.348 267.267 135.205 267.945 135.205C268.627 135.205 269.231 135.348 269.758 135.636C270.284 135.924 270.697 136.312 270.996 136.801C271.295 137.29 271.445 137.833 271.445 138.432C271.445 138.86 271.367 139.278 271.212 139.688C271.061 140.093 270.795 140.545 270.417 141.045C270.042 141.542 269.521 142.148 268.854 142.864L266.24 145.659V145.75H271.65V147H264.309ZM274.019 150.273V138.273H275.314V139.659H275.473C275.572 139.508 275.708 139.314 275.883 139.08C276.061 138.841 276.314 138.629 276.644 138.443C276.977 138.254 277.428 138.159 277.996 138.159C278.731 138.159 279.379 138.343 279.939 138.71C280.5 139.078 280.937 139.598 281.252 140.273C281.566 140.947 281.723 141.742 281.723 142.659C281.723 143.583 281.566 144.384 281.252 145.062C280.937 145.737 280.502 146.259 279.945 146.631C279.388 146.998 278.746 147.182 278.019 147.182C277.458 147.182 277.009 147.089 276.672 146.903C276.335 146.714 276.076 146.5 275.894 146.261C275.712 146.019 275.572 145.818 275.473 145.659H275.36V150.273H274.019ZM275.337 142.636C275.337 143.295 275.434 143.877 275.627 144.381C275.82 144.881 276.102 145.273 276.473 145.557C276.845 145.837 277.299 145.977 277.837 145.977C278.398 145.977 278.865 145.83 279.24 145.534C279.619 145.235 279.903 144.833 280.093 144.33C280.286 143.822 280.383 143.258 280.383 142.636C280.383 142.023 280.288 141.47 280.098 140.977C279.913 140.481 279.631 140.089 279.252 139.801C278.877 139.509 278.405 139.364 277.837 139.364C277.292 139.364 276.833 139.502 276.462 139.778C276.091 140.051 275.811 140.434 275.621 140.926C275.432 141.415 275.337 141.985 275.337 142.636ZM284.41 138.273L286.5 141.841L288.591 138.273H290.137L287.319 142.636L290.137 147H288.591L286.5 143.614L284.41 147H282.864L285.637 142.636L282.864 138.273H284.41Z" fill="#4A5565"/>
<path d="M334 133L334 141L334 149" stroke="#4F39F6"/>
<path d="M322 141L334 141" stroke="#4F39F6"/>
<path d="M322 133L322 141L322 149" stroke="#4F39F6"/>
<line x1="26" y1="172.5" x2="378" y2="172.5" stroke="#E5E7EB"/>
<rect x="26.5" y="195.5" width="104" height="31" rx="7.5" fill="white"/>
<rect x="26.5" y="195.5" width="104" height="31" rx="7.5" stroke="#E5E7EB"/>
<path d="M39.0568 217V208.273H41.0511V209.727H41.142C41.3011 209.223 41.5739 208.835 41.9602 208.562C42.3504 208.286 42.7955 208.148 43.2955 208.148C43.4091 208.148 43.536 208.153 43.6761 208.165C43.8201 208.172 43.9394 208.186 44.0341 208.205V210.097C43.947 210.066 43.8087 210.04 43.6193 210.017C43.4337 209.991 43.2538 209.977 43.0795 209.977C42.7045 209.977 42.3674 210.059 42.0682 210.222C41.7727 210.381 41.5398 210.602 41.3693 210.886C41.1989 211.17 41.1136 211.498 41.1136 211.869V217H39.0568ZM47.7557 217.176C47.2027 217.176 46.7045 217.078 46.2614 216.881C45.822 216.68 45.4735 216.384 45.2159 215.994C44.9621 215.604 44.8352 215.123 44.8352 214.551C44.8352 214.059 44.9261 213.652 45.108 213.33C45.2898 213.008 45.5379 212.75 45.8523 212.557C46.1667 212.364 46.5208 212.218 46.9148 212.119C47.3125 212.017 47.7235 211.943 48.1477 211.898C48.6591 211.845 49.0739 211.797 49.392 211.756C49.7102 211.71 49.9413 211.642 50.0852 211.551C50.233 211.456 50.3068 211.311 50.3068 211.114V211.08C50.3068 210.652 50.1799 210.32 49.9261 210.085C49.6723 209.85 49.3068 209.733 48.8295 209.733C48.3258 209.733 47.9261 209.843 47.6307 210.062C47.339 210.282 47.142 210.542 47.0398 210.841L45.1193 210.568C45.2708 210.038 45.5208 209.595 45.8693 209.239C46.2178 208.879 46.6439 208.61 47.1477 208.432C47.6515 208.25 48.2083 208.159 48.8182 208.159C49.2386 208.159 49.6572 208.208 50.0739 208.307C50.4905 208.405 50.8712 208.568 51.2159 208.795C51.5606 209.019 51.8371 209.324 52.0455 209.71C52.2576 210.097 52.3636 210.58 52.3636 211.159V217H50.3864V215.801H50.3182C50.1932 216.044 50.017 216.271 49.7898 216.483C49.5663 216.691 49.2841 216.86 48.9432 216.989C48.6061 217.114 48.2102 217.176 47.7557 217.176ZM48.2898 215.665C48.7027 215.665 49.0606 215.583 49.3636 215.42C49.6667 215.254 49.8996 215.034 50.0625 214.761C50.2292 214.489 50.3125 214.191 50.3125 213.869V212.841C50.2481 212.894 50.1383 212.943 49.983 212.989C49.8314 213.034 49.661 213.074 49.4716 213.108C49.2822 213.142 49.0947 213.172 48.9091 213.199C48.7235 213.225 48.5625 213.248 48.4261 213.267C48.1193 213.309 47.8447 213.377 47.6023 213.472C47.3598 213.566 47.1686 213.699 47.0284 213.869C46.8883 214.036 46.8182 214.252 46.8182 214.517C46.8182 214.896 46.9564 215.182 47.233 215.375C47.5095 215.568 47.8617 215.665 48.2898 215.665ZM57.6705 217.153C56.9848 217.153 56.3712 216.977 55.8295 216.625C55.2879 216.273 54.8598 215.761 54.5455 215.091C54.2311 214.42 54.0739 213.606 54.0739 212.648C54.0739 211.678 54.233 210.86 54.5511 210.193C54.8731 209.523 55.3068 209.017 55.8523 208.676C56.3977 208.331 57.0057 208.159 57.6761 208.159C58.1875 208.159 58.608 208.246 58.9375 208.42C59.267 208.591 59.5284 208.797 59.7216 209.04C59.9148 209.278 60.0644 209.504 60.1705 209.716H60.2557V205.364H62.3182V217H60.2955V215.625H60.1705C60.0644 215.837 59.911 216.062 59.7102 216.301C59.5095 216.536 59.2443 216.737 58.9148 216.903C58.5852 217.07 58.1705 217.153 57.6705 217.153ZM58.2443 215.466C58.6799 215.466 59.0511 215.348 59.358 215.114C59.6648 214.875 59.8977 214.544 60.0568 214.119C60.2159 213.695 60.2955 213.201 60.2955 212.636C60.2955 212.072 60.2159 211.581 60.0568 211.165C59.9015 210.748 59.6705 210.424 59.3636 210.193C59.0606 209.962 58.6875 209.847 58.2443 209.847C57.786 209.847 57.4034 209.966 57.0966 210.205C56.7898 210.443 56.5587 210.773 56.4034 211.193C56.2481 211.614 56.1705 212.095 56.1705 212.636C56.1705 213.182 56.2481 213.669 56.4034 214.097C56.5625 214.521 56.7955 214.856 57.1023 215.102C57.4129 215.345 57.7936 215.466 58.2443 215.466ZM64.5099 217V208.273H66.5668V217H64.5099ZM65.544 207.034C65.2183 207.034 64.938 206.926 64.7031 206.71C64.4683 206.491 64.3509 206.227 64.3509 205.92C64.3509 205.61 64.4683 205.347 64.7031 205.131C64.938 204.911 65.2183 204.801 65.544 204.801C65.8736 204.801 66.1539 204.911 66.3849 205.131C66.6198 205.347 66.7372 205.61 66.7372 205.92C66.7372 206.227 66.6198 206.491 66.3849 206.71C66.1539 206.926 65.8736 207.034 65.544 207.034ZM74.2443 213.33V208.273H76.3011V217H74.3068V215.449H74.2159C74.0189 215.937 73.6951 216.337 73.2443 216.648C72.7973 216.958 72.2462 217.114 71.5909 217.114C71.0189 217.114 70.5133 216.987 70.0739 216.733C69.6383 216.475 69.2973 216.102 69.0511 215.614C68.8049 215.121 68.6818 214.527 68.6818 213.83V208.273H70.7386V213.511C70.7386 214.064 70.8902 214.504 71.1932 214.83C71.4962 215.155 71.8939 215.318 72.3864 215.318C72.6894 215.318 72.983 215.244 73.267 215.097C73.5511 214.949 73.7841 214.729 73.9659 214.438C74.1515 214.142 74.2443 213.773 74.2443 213.33ZM85.3139 210.58L83.4389 210.784C83.3859 210.595 83.2931 210.417 83.1605 210.25C83.0317 210.083 82.8575 209.949 82.6378 209.847C82.4181 209.744 82.1491 209.693 81.831 209.693C81.4029 209.693 81.0431 209.786 80.7514 209.972C80.4635 210.157 80.3215 210.398 80.3253 210.693C80.3215 210.947 80.4143 211.153 80.6037 211.312C80.7969 211.472 81.1151 211.602 81.5582 211.705L83.0469 212.023C83.8726 212.201 84.4863 212.483 84.8878 212.869C85.2931 213.256 85.4976 213.761 85.5014 214.386C85.4976 214.936 85.3366 215.42 85.0185 215.841C84.7041 216.258 84.2666 216.583 83.706 216.818C83.1454 217.053 82.5014 217.17 81.7741 217.17C80.706 217.17 79.8461 216.947 79.1946 216.5C78.5431 216.049 78.1548 215.422 78.0298 214.619L80.0355 214.426C80.1264 214.82 80.3196 215.117 80.6151 215.318C80.9105 215.519 81.295 215.619 81.7685 215.619C82.2571 215.619 82.6491 215.519 82.9446 215.318C83.2438 215.117 83.3935 214.869 83.3935 214.574C83.3935 214.324 83.2969 214.117 83.1037 213.955C82.9143 213.792 82.6188 213.667 82.2173 213.58L80.7287 213.267C79.8916 213.093 79.2723 212.799 78.8707 212.386C78.4692 211.97 78.2704 211.443 78.2741 210.807C78.2704 210.269 78.4162 209.803 78.7116 209.409C79.0109 209.011 79.4257 208.705 79.956 208.489C80.4901 208.269 81.1056 208.159 81.8026 208.159C82.8253 208.159 83.6302 208.377 84.2173 208.812C84.8082 209.248 85.1738 209.837 85.3139 210.58ZM92.4872 211.307V213H87.2486V211.307H92.4872ZM94.6506 217V208.273H96.6165V209.756H96.7188C96.9006 209.256 97.2017 208.866 97.6222 208.585C98.0426 208.301 98.5445 208.159 99.1278 208.159C99.7188 208.159 100.217 208.303 100.622 208.591C101.031 208.875 101.319 209.263 101.486 209.756H101.577C101.77 209.271 102.096 208.884 102.554 208.597C103.016 208.305 103.563 208.159 104.196 208.159C104.999 208.159 105.654 208.413 106.162 208.92C106.67 209.428 106.923 210.169 106.923 211.142V217H104.861V211.46C104.861 210.919 104.717 210.523 104.429 210.273C104.141 210.019 103.789 209.892 103.372 209.892C102.876 209.892 102.488 210.047 102.207 210.358C101.931 210.665 101.793 211.064 101.793 211.557V217H99.7756V211.375C99.7756 210.924 99.6392 210.564 99.3665 210.295C99.0975 210.027 98.7453 209.892 98.3097 209.892C98.0142 209.892 97.7453 209.968 97.5028 210.119C97.2604 210.267 97.0672 210.477 96.9233 210.75C96.7794 211.019 96.7074 211.333 96.7074 211.693V217H94.6506ZM112.249 217.153C111.563 217.153 110.949 216.977 110.408 216.625C109.866 216.273 109.438 215.761 109.124 215.091C108.809 214.42 108.652 213.606 108.652 212.648C108.652 211.678 108.811 210.86 109.129 210.193C109.451 209.523 109.885 209.017 110.43 208.676C110.976 208.331 111.584 208.159 112.254 208.159C112.766 208.159 113.186 208.246 113.516 208.42C113.845 208.591 114.107 208.797 114.3 209.04C114.493 209.278 114.643 209.504 114.749 209.716H114.834V205.364H116.896V217H114.874V215.625H114.749C114.643 215.837 114.489 216.062 114.288 216.301C114.088 216.536 113.822 216.737 113.493 216.903C113.163 217.07 112.749 217.153 112.249 217.153ZM112.822 215.466C113.258 215.466 113.629 215.348 113.936 215.114C114.243 214.875 114.476 214.544 114.635 214.119C114.794 213.695 114.874 213.201 114.874 212.636C114.874 212.072 114.794 211.581 114.635 211.165C114.48 210.748 114.249 210.424 113.942 210.193C113.639 209.962 113.266 209.847 112.822 209.847C112.364 209.847 111.982 209.966 111.675 210.205C111.368 210.443 111.137 210.773 110.982 211.193C110.826 211.614 110.749 212.095 110.749 212.636C110.749 213.182 110.826 213.669 110.982 214.097C111.141 214.521 111.374 214.856 111.68 215.102C111.991 215.345 112.372 215.466 112.822 215.466Z" fill="#101828"/>
<path d="M172.667 217.159C171.811 217.159 171.081 216.926 170.479 216.46C169.877 215.991 169.417 215.311 169.099 214.42C168.78 213.527 168.621 212.447 168.621 211.182C168.621 209.924 168.78 208.85 169.099 207.96C169.42 207.066 169.883 206.384 170.485 205.915C171.091 205.441 171.818 205.205 172.667 205.205C173.515 205.205 174.241 205.441 174.843 205.915C175.449 206.384 175.911 207.066 176.229 207.96C176.551 208.85 176.712 209.924 176.712 211.182C176.712 212.447 176.553 213.527 176.235 214.42C175.917 215.311 175.456 215.991 174.854 216.46C174.252 216.926 173.523 217.159 172.667 217.159ZM172.667 215.909C173.515 215.909 174.174 215.5 174.644 214.682C175.114 213.864 175.349 212.697 175.349 211.182C175.349 210.174 175.241 209.316 175.025 208.608C174.813 207.9 174.506 207.36 174.104 206.989C173.706 206.617 173.227 206.432 172.667 206.432C171.826 206.432 171.169 206.847 170.695 207.676C170.222 208.502 169.985 209.67 169.985 211.182C169.985 212.189 170.091 213.045 170.303 213.75C170.515 214.455 170.82 214.991 171.218 215.358C171.619 215.725 172.102 215.909 172.667 215.909ZM179.465 217.091C179.185 217.091 178.944 216.991 178.743 216.79C178.543 216.589 178.442 216.348 178.442 216.068C178.442 215.788 178.543 215.547 178.743 215.347C178.944 215.146 179.185 215.045 179.465 215.045C179.745 215.045 179.986 215.146 180.187 215.347C180.387 215.547 180.488 215.788 180.488 216.068C180.488 216.254 180.44 216.424 180.346 216.58C180.255 216.735 180.132 216.86 179.976 216.955C179.825 217.045 179.654 217.091 179.465 217.091ZM186.273 217.159C185.607 217.159 185.006 217.027 184.472 216.761C183.938 216.496 183.51 216.133 183.188 215.67C182.866 215.208 182.69 214.682 182.66 214.091H184.023C184.076 214.617 184.315 215.053 184.739 215.398C185.167 215.739 185.679 215.909 186.273 215.909C186.75 215.909 187.175 215.797 187.546 215.574C187.921 215.35 188.215 215.044 188.427 214.653C188.643 214.259 188.75 213.814 188.75 213.318C188.75 212.811 188.639 212.358 188.415 211.96C188.196 211.559 187.893 211.242 187.506 211.011C187.12 210.78 186.679 210.663 186.182 210.659C185.826 210.655 185.461 210.71 185.086 210.824C184.711 210.934 184.402 211.076 184.16 211.25L182.841 211.091L183.546 205.364H189.591V206.614H184.728L184.319 210.045H184.387C184.625 209.856 184.925 209.699 185.285 209.574C185.644 209.449 186.019 209.386 186.41 209.386C187.122 209.386 187.756 209.557 188.313 209.898C188.874 210.235 189.313 210.697 189.631 211.284C189.953 211.871 190.114 212.542 190.114 213.295C190.114 214.038 189.947 214.701 189.614 215.284C189.285 215.864 188.83 216.322 188.25 216.659C187.671 216.992 187.012 217.159 186.273 217.159ZM192.394 217V208.273H193.689V209.591H193.78C193.939 209.159 194.227 208.809 194.644 208.54C195.061 208.271 195.53 208.136 196.053 208.136C196.152 208.136 196.275 208.138 196.422 208.142C196.57 208.146 196.682 208.152 196.758 208.159V209.523C196.712 209.511 196.608 209.494 196.445 209.472C196.286 209.445 196.117 209.432 195.939 209.432C195.515 209.432 195.136 209.521 194.803 209.699C194.474 209.873 194.212 210.116 194.019 210.426C193.83 210.733 193.735 211.083 193.735 211.477V217H192.394ZM201.741 217.182C200.9 217.182 200.174 216.996 199.564 216.625C198.958 216.25 198.491 215.727 198.161 215.057C197.835 214.383 197.672 213.598 197.672 212.705C197.672 211.811 197.835 211.023 198.161 210.341C198.491 209.655 198.949 209.121 199.536 208.739C200.127 208.352 200.816 208.159 201.604 208.159C202.059 208.159 202.508 208.235 202.951 208.386C203.394 208.538 203.797 208.784 204.161 209.125C204.525 209.462 204.814 209.909 205.03 210.466C205.246 211.023 205.354 211.708 205.354 212.523V213.091H198.627V211.932H203.991C203.991 211.439 203.892 211 203.695 210.614C203.502 210.227 203.225 209.922 202.866 209.699C202.509 209.475 202.089 209.364 201.604 209.364C201.07 209.364 200.608 209.496 200.218 209.761C199.831 210.023 199.534 210.364 199.326 210.784C199.117 211.205 199.013 211.655 199.013 212.136V212.909C199.013 213.568 199.127 214.127 199.354 214.585C199.585 215.04 199.905 215.386 200.314 215.625C200.724 215.86 201.199 215.977 201.741 215.977C202.093 215.977 202.411 215.928 202.695 215.83C202.983 215.727 203.231 215.576 203.439 215.375C203.648 215.17 203.809 214.917 203.922 214.614L205.218 214.977C205.081 215.417 204.852 215.803 204.53 216.136C204.208 216.466 203.811 216.723 203.337 216.909C202.864 217.091 202.331 217.182 201.741 217.182ZM207.394 217V208.273H208.689V209.636H208.803C208.985 209.17 209.278 208.809 209.684 208.551C210.089 208.29 210.576 208.159 211.144 208.159C211.72 208.159 212.199 208.29 212.581 208.551C212.968 208.809 213.269 209.17 213.485 209.636H213.576C213.799 209.186 214.134 208.828 214.581 208.562C215.028 208.294 215.564 208.159 216.189 208.159C216.97 208.159 217.608 208.403 218.104 208.892C218.6 209.377 218.849 210.133 218.849 211.159V217H217.508V211.159C217.508 210.515 217.331 210.055 216.979 209.778C216.627 209.502 216.212 209.364 215.735 209.364C215.121 209.364 214.646 209.549 214.309 209.92C213.972 210.288 213.803 210.754 213.803 211.318V217H212.439V211.023C212.439 210.527 212.278 210.127 211.956 209.824C211.634 209.517 211.22 209.364 210.712 209.364C210.364 209.364 210.038 209.456 209.735 209.642C209.436 209.828 209.193 210.085 209.008 210.415C208.826 210.741 208.735 211.117 208.735 211.545V217H207.394Z" fill="#4A5565"/>
<path d="M262.265 217.159C261.485 217.159 260.795 217.021 260.197 216.744C259.602 216.464 259.138 216.08 258.805 215.591C258.472 215.098 258.307 214.538 258.311 213.909C258.307 213.417 258.403 212.962 258.6 212.545C258.797 212.125 259.066 211.775 259.407 211.494C259.752 211.21 260.136 211.03 260.561 210.955V210.886C260.004 210.742 259.561 210.43 259.231 209.949C258.902 209.464 258.739 208.913 258.742 208.295C258.739 207.705 258.888 207.176 259.191 206.71C259.494 206.244 259.911 205.877 260.441 205.608C260.975 205.339 261.583 205.205 262.265 205.205C262.939 205.205 263.542 205.339 264.072 205.608C264.602 205.877 265.019 206.244 265.322 206.71C265.629 207.176 265.784 207.705 265.788 208.295C265.784 208.913 265.616 209.464 265.282 209.949C264.953 210.43 264.515 210.742 263.97 210.886V210.955C264.39 211.03 264.769 211.21 265.106 211.494C265.443 211.775 265.712 212.125 265.913 212.545C266.114 212.962 266.216 213.417 266.22 213.909C266.216 214.538 266.045 215.098 265.708 215.591C265.375 216.08 264.911 216.464 264.316 216.744C263.725 217.021 263.042 217.159 262.265 217.159ZM262.265 215.909C262.792 215.909 263.246 215.824 263.629 215.653C264.011 215.483 264.307 215.242 264.515 214.932C264.724 214.621 264.83 214.258 264.833 213.841C264.83 213.402 264.716 213.013 264.492 212.676C264.269 212.339 263.964 212.074 263.578 211.881C263.195 211.687 262.758 211.591 262.265 211.591C261.769 211.591 261.326 211.687 260.936 211.881C260.549 212.074 260.244 212.339 260.021 212.676C259.801 213.013 259.693 213.402 259.697 213.841C259.693 214.258 259.794 214.621 259.998 214.932C260.206 215.242 260.504 215.483 260.89 215.653C261.277 215.824 261.735 215.909 262.265 215.909ZM262.265 210.386C262.682 210.386 263.051 210.303 263.373 210.136C263.699 209.97 263.955 209.737 264.14 209.438C264.326 209.138 264.42 208.788 264.424 208.386C264.42 207.992 264.328 207.65 264.146 207.358C263.964 207.062 263.712 206.835 263.39 206.676C263.068 206.513 262.693 206.432 262.265 206.432C261.83 206.432 261.449 206.513 261.123 206.676C260.797 206.835 260.545 207.062 260.367 207.358C260.189 207.65 260.102 207.992 260.106 208.386C260.102 208.788 260.191 209.138 260.373 209.438C260.559 209.737 260.814 209.97 261.14 210.136C261.466 210.303 261.841 210.386 262.265 210.386ZM268.42 220.273V208.273H269.715V209.659H269.875C269.973 209.508 270.109 209.314 270.284 209.08C270.462 208.841 270.715 208.629 271.045 208.443C271.378 208.254 271.829 208.159 272.397 208.159C273.132 208.159 273.78 208.343 274.34 208.71C274.901 209.078 275.339 209.598 275.653 210.273C275.967 210.947 276.125 211.742 276.125 212.659C276.125 213.583 275.967 214.384 275.653 215.062C275.339 215.737 274.903 216.259 274.346 216.631C273.789 216.998 273.147 217.182 272.42 217.182C271.859 217.182 271.411 217.089 271.073 216.903C270.736 216.714 270.477 216.5 270.295 216.261C270.113 216.019 269.973 215.818 269.875 215.659H269.761V220.273H268.42ZM269.738 212.636C269.738 213.295 269.835 213.877 270.028 214.381C270.221 214.881 270.503 215.273 270.875 215.557C271.246 215.837 271.7 215.977 272.238 215.977C272.799 215.977 273.267 215.83 273.642 215.534C274.02 215.235 274.304 214.833 274.494 214.33C274.687 213.822 274.784 213.258 274.784 212.636C274.784 212.023 274.689 211.47 274.5 210.977C274.314 210.481 274.032 210.089 273.653 209.801C273.278 209.509 272.806 209.364 272.238 209.364C271.693 209.364 271.234 209.502 270.863 209.778C270.492 210.051 270.212 210.434 270.022 210.926C269.833 211.415 269.738 211.985 269.738 212.636ZM278.811 208.273L280.902 211.841L282.992 208.273H284.538L281.72 212.636L284.538 217H282.992L280.902 213.614L278.811 217H277.265L280.038 212.636L277.265 208.273H278.811Z" fill="#4A5565"/>
<g clip-path="url(#clip0_3908_11417)">
<g clip-path="url(#clip1_3908_11417)">
<rect x="266.5" y="195.5" width="111" height="87" rx="7.5" fill="#EEF2FF"/>
<rect x="266.5" y="195.5" width="111" height="87" rx="7.5" stroke="#615FFF"/>
</g>
</g>
</g>
<defs>
<filter id="filter0_d_3908_11417" x="0" y="0" width="404" height="284" filterUnits="userSpaceOnUse" color-interpolation-filters="sRGB">
<feFlood flood-opacity="0" result="BackgroundImageFix"/>
<feColorMatrix in="SourceAlpha" type="matrix" values="0 0 0 0 0 0 0 0 0 0 0 0 0 0 0 0 0 0 127 0" result="hardAlpha"/>
<feOffset dy="1"/>
<feGaussianBlur stdDeviation="1"/>
<feComposite in2="hardAlpha" operator="out"/>
<feColorMatrix type="matrix" values="0 0 0 0 0.0117647 0 0 0 0 0.027451 0 0 0 0 0.0705882 0 0 0 0.06 0"/>
<feBlend mode="normal" in2="BackgroundImageFix" result="effect1_dropShadow_3908_11417"/>
<feBlend mode="normal" in="SourceGraphic" in2="effect1_dropShadow_3908_11417" result="shape"/>
</filter>
<clipPath id="clip0_3908_11417">
<rect width="56" height="32" fill="white" transform="translate(322 195)"/>
</clipPath>
<clipPath id="clip1_3908_11417">
<rect width="56" height="44" fill="white" transform="translate(322 195)"/>
</clipPath>
</defs>
</svg>
