<svg width="400" height="280" viewBox="0 0 400 280" fill="none" xmlns="http://www.w3.org/2000/svg">
<g opacity="0.7" filter="url(#filter0_f_3022_1653)">
<mask id="path-1-inside-1_3022_1653" fill="white">
<path d="M24 32C24 27.5817 27.5817 24 32 24H352C356.418 24 360 27.5817 360 32V56C360 60.4183 356.418 64 352 64H32C27.5817 64 24 60.4183 24 56V32Z"/>
</mask>
<path d="M24 32C24 27.5817 27.5817 24 32 24H352C356.418 24 360 27.5817 360 32V56C360 60.4183 356.418 64 352 64H32C27.5817 64 24 60.4183 24 56V32Z" fill="white"/>
<path d="M32 24V25H352V24V23H32V24ZM360 32H359V56H360H361V32H360ZM352 64V63H32V64V65H352V64ZM24 56H25V32H24H23V56H24ZM32 64V63C28.134 63 25 59.866 25 56H24H23C23 60.9706 27.0294 65 32 65V64ZM360 56H359C359 59.866 355.866 63 352 63V64V65C356.971 65 361 60.9706 361 56H360ZM352 24V25C355.866 25 359 28.134 359 32H360H361C361 27.0294 356.971 23 352 23V24ZM32 24V23C27.0294 23 23 27.0294 23 32H24H25C25 28.134 28.134 25 32 25V24Z" fill="#E1E3E5" mask="url(#path-1-inside-1_3022_1653)"/>
<path d="M24 82C24 78.6863 26.6863 76 30 76H354C357.314 76 360 78.6863 360 82V102C360 105.314 357.314 108 354 108H30C26.6863 108 24 105.314 24 102V82Z" fill="#0043C0"/>
<mask id="path-4-inside-2_3022_1653" fill="white">
<path d="M24 116C24 113.791 25.7909 112 28 112H356C358.209 112 360 113.791 360 116V132C360 134.209 358.209 136 356 136H28C25.7909 136 24 134.209 24 132V116Z"/>
</mask>
<path d="M24 116C24 113.791 25.7909 112 28 112H356C358.209 112 360 113.791 360 116V132C360 134.209 358.209 136 356 136H28C25.7909 136 24 134.209 24 132V116Z" fill="white"/>
<path d="M28 112V113H356V112V111H28V112ZM360 116H359V132H360H361V116H360ZM356 136V135H28V136V137H356V136ZM24 132H25V116H24H23V132H24ZM28 136V135C26.3431 135 25 133.657 25 132H24H23C23 134.761 25.2386 137 28 137V136ZM360 132H359C359 133.657 357.657 135 356 135V136V137C358.761 137 361 134.761 361 132H360ZM356 112V113C357.657 113 359 114.343 359 116H360H361C361 113.239 358.761 111 356 111V112ZM28 112V111C25.2386 111 23 113.239 23 116H24H25C25 114.343 26.3431 113 28 113V112Z" fill="#E1E3E5" mask="url(#path-4-inside-2_3022_1653)"/>
<mask id="path-6-inside-3_3022_1653" fill="white">
<path d="M24 144C24 141.791 25.7909 140 28 140H356C358.209 140 360 141.791 360 144V160C360 162.209 358.209 164 356 164H28C25.7909 164 24 162.209 24 160V144Z"/>
</mask>
<path d="M24 144C24 141.791 25.7909 140 28 140H356C358.209 140 360 141.791 360 144V160C360 162.209 358.209 164 356 164H28C25.7909 164 24 162.209 24 160V144Z" fill="white"/>
<path d="M28 140V141H356V140V139H28V140ZM360 144H359V160H360H361V144H360ZM356 164V163H28V164V165H356V164ZM24 160H25V144H24H23V160H24ZM28 164V163C26.3431 163 25 161.657 25 160H24H23C23 162.761 25.2386 165 28 165V164ZM360 160H359C359 161.657 357.657 163 356 163V164V165C358.761 165 361 162.761 361 160H360ZM356 140V141C357.657 141 359 142.343 359 144H360H361C361 141.239 358.761 139 356 139V140ZM28 140V139C25.2386 139 23 141.239 23 144H24H25C25 142.343 26.3431 141 28 141V140Z" fill="#E1E3E5" mask="url(#path-6-inside-3_3022_1653)"/>
<mask id="path-8-inside-4_3022_1653" fill="white">
<path d="M24 172C24 169.791 25.7909 168 28 168H356C358.209 168 360 169.791 360 172V188C360 190.209 358.209 192 356 192H28C25.7909 192 24 190.209 24 188V172Z"/>
</mask>
<path d="M24 172C24 169.791 25.7909 168 28 168H356C358.209 168 360 169.791 360 172V188C360 190.209 358.209 192 356 192H28C25.7909 192 24 190.209 24 188V172Z" fill="white"/>
<path d="M28 168V169H356V168V167H28V168ZM360 172H359V188H360H361V172H360ZM356 192V191H28V192V193H356V192ZM24 188H25V172H24H23V188H24ZM28 192V191C26.3431 191 25 189.657 25 188H24H23C23 190.761 25.2386 193 28 193V192ZM360 188H359C359 189.657 357.657 191 356 191V192V193C358.761 193 361 190.761 361 188H360ZM356 168V169C357.657 169 359 170.343 359 172H360H361C361 169.239 358.761 167 356 167V168ZM28 168V167C25.2386 167 23 169.239 23 172H24H25C25 170.343 26.3431 169 28 169V168Z" fill="#E1E3E5" mask="url(#path-8-inside-4_3022_1653)"/>
<mask id="path-10-inside-5_3022_1653" fill="white">
<path d="M24 200C24 197.791 25.7909 196 28 196H356C358.209 196 360 197.791 360 200V216C360 218.209 358.209 220 356 220H28C25.7909 220 24 218.209 24 216V200Z"/>
</mask>
<path d="M24 200C24 197.791 25.7909 196 28 196H356C358.209 196 360 197.791 360 200V216C360 218.209 358.209 220 356 220H28C25.7909 220 24 218.209 24 216V200Z" fill="white"/>
<path d="M28 196V197H356V196V195H28V196ZM360 200H359V216H360H361V200H360ZM356 220V219H28V220V221H356V220ZM24 216H25V200H24H23V216H24ZM28 220V219C26.3431 219 25 217.657 25 216H24H23C23 218.761 25.2386 221 28 221V220ZM360 216H359C359 217.657 357.657 219 356 219V220V221C358.761 221 361 218.761 361 216H360ZM356 196V197C357.657 197 359 198.343 359 200H360H361C361 197.239 358.761 195 356 195V196ZM28 196V195C25.2386 195 23 197.239 23 200H24H25C25 198.343 26.3431 197 28 197V196Z" fill="#E1E3E5" mask="url(#path-10-inside-5_3022_1653)"/>
</g>
<defs>
<filter id="filter0_f_3022_1653" x="-12" y="-12" width="424" height="304" filterUnits="userSpaceOnUse" color-interpolation-filters="sRGB">
<feFlood flood-opacity="0" result="BackgroundImageFix"/>
<feBlend mode="normal" in="SourceGraphic" in2="BackgroundImageFix" result="shape"/>
<feGaussianBlur stdDeviation="6" result="effect1_foregroundBlur_3022_1653"/>
</filter>
</defs>
</svg>
