<svg width="404" height="284" viewBox="0 0 404 284" fill="none" xmlns="http://www.w3.org/2000/svg">
<g filter="url(#filter0_d_3907_10989)">
<mask id="path-1-inside-1_3907_10989" fill="white">
<path d="M2 13C2 6.37259 7.37258 1 14 1H390C396.627 1 402 6.37258 402 13V269C402 275.627 396.627 281 390 281H14C7.37257 281 2 275.627 2 269V13Z"/>
</mask>
<path d="M2 13C2 6.37259 7.37258 1 14 1H390C396.627 1 402 6.37258 402 13V269C402 275.627 396.627 281 390 281H14C7.37257 281 2 275.627 2 269V13Z" fill="#F9FAFB" shape-rendering="crispEdges"/>
<path d="M14 1V2H390V1V0H14V1ZM402 13H401V269H402H403V13H402ZM390 281V280H14V281V282H390V281ZM2 269H3V13H2H1V269H2ZM14 281V280C7.92486 280 3 275.075 3 269H2H1C1 276.18 6.82029 282 14 282V281ZM402 269H401C401 275.075 396.075 280 390 280V281V282C397.18 282 403 276.18 403 269H402ZM390 1V2C396.075 2 401 6.92487 401 13H402H403C403 5.8203 397.18 0 390 0V1ZM14 1V0C6.8203 0 1 5.82031 1 13H2H3C3 6.92487 7.92487 2 14 2V1Z" fill="#E5E7EB" mask="url(#path-1-inside-1_3907_10989)"/>
<path d="M55.1186 56V45.8182H61.5021V47.1406H56.6548V50.2429H61.169V51.5604H56.6548V54.6776H61.5618V56H55.1186ZM63.4348 56V48.3636H64.8617V49.6065H64.9561C65.1152 49.1856 65.3754 48.8575 65.7367 48.6222C66.098 48.3835 66.5305 48.2642 67.0343 48.2642C67.5447 48.2642 67.9722 48.3835 68.3169 48.6222C68.665 48.8608 68.9218 49.1889 69.0875 49.6065H69.1671C69.3494 49.1989 69.6394 48.8741 70.0371 48.6321C70.4348 48.3868 70.9088 48.2642 71.459 48.2642C72.1517 48.2642 72.7168 48.4813 73.1543 48.9155C73.5951 49.3497 73.8155 50.0043 73.8155 50.8793V56H72.329V51.0185C72.329 50.5014 72.1882 50.1269 71.9064 49.8949C71.6247 49.6629 71.2883 49.5469 70.8972 49.5469C70.4133 49.5469 70.0371 49.696 69.7686 49.9943C69.5002 50.2893 69.3659 50.6688 69.3659 51.1328V56H67.8844V50.924C67.8844 50.5097 67.7551 50.1766 67.4966 49.9247C67.2381 49.6728 66.9017 49.5469 66.4874 49.5469C66.2057 49.5469 65.9455 49.6214 65.7069 49.7706C65.4715 49.9164 65.281 50.1203 65.1351 50.3821C64.9926 50.6439 64.9213 50.9472 64.9213 51.2919V56H63.4348ZM78.0302 56.169C77.5463 56.169 77.1088 56.0795 76.7177 55.9006C76.3266 55.7183 76.0167 55.4548 75.788 55.1101C75.5626 54.7654 75.4499 54.3428 75.4499 53.8423C75.4499 53.4115 75.5328 53.0568 75.6985 52.7784C75.8642 52.5 76.0879 52.2796 76.3697 52.1172C76.6514 51.9548 76.9663 51.8321 77.3143 51.7493C77.6623 51.6664 78.0169 51.6035 78.3782 51.5604C78.8356 51.5073 79.2068 51.4643 79.4918 51.4311C79.7769 51.3946 79.984 51.3366 80.1133 51.2571C80.2425 51.1776 80.3072 51.0483 80.3072 50.8693V50.8345C80.3072 50.4003 80.1845 50.0639 79.9393 49.8253C79.6973 49.5866 79.3361 49.4673 78.8555 49.4673C78.355 49.4673 77.9606 49.5784 77.6722 49.8004C77.3872 50.0192 77.19 50.2628 77.0806 50.5312L75.6836 50.2131C75.8493 49.7491 76.0913 49.3745 76.4094 49.0895C76.7309 48.8011 77.1005 48.5923 77.5181 48.4631C77.9357 48.3305 78.3749 48.2642 78.8356 48.2642C79.1405 48.2642 79.4637 48.3007 79.805 48.3736C80.1497 48.4432 80.4712 48.5724 80.7695 48.7614C81.0711 48.9503 81.3181 49.2204 81.5103 49.5717C81.7025 49.9197 81.7987 50.3722 81.7987 50.929V56H80.3469V54.956H80.2873C80.1912 55.1482 80.047 55.3371 79.8548 55.5227C79.6625 55.7083 79.4156 55.8625 79.114 55.9851C78.8124 56.1077 78.4511 56.169 78.0302 56.169ZM78.3533 54.9759C78.7643 54.9759 79.1156 54.8946 79.4073 54.7322C79.7023 54.5698 79.926 54.3577 80.0785 54.0959C80.2343 53.8307 80.3121 53.5473 80.3121 53.2457V52.2614C80.2591 52.3144 80.1564 52.3641 80.0039 52.4105C79.8548 52.4536 79.6841 52.4917 79.4918 52.5249C79.2996 52.5547 79.1123 52.5829 78.93 52.6094C78.7478 52.6326 78.5953 52.6525 78.4727 52.669C78.1843 52.7055 77.9208 52.7668 77.6822 52.853C77.4469 52.9392 77.2579 53.0634 77.1154 53.2259C76.9762 53.3849 76.9066 53.5971 76.9066 53.8622C76.9066 54.2301 77.0425 54.5085 77.3143 54.6974C77.5861 54.883 77.9324 54.9759 78.3533 54.9759ZM83.7786 56V48.3636H85.2651V56H83.7786ZM84.5293 47.1854C84.2708 47.1854 84.0487 47.0992 83.8631 46.9268C83.6808 46.7512 83.5897 46.5424 83.5897 46.3004C83.5897 46.0552 83.6808 45.8464 83.8631 45.674C84.0487 45.4983 84.2708 45.4105 84.5293 45.4105C84.7878 45.4105 85.0082 45.4983 85.1905 45.674C85.3761 45.8464 85.4689 46.0552 85.4689 46.3004C85.4689 46.5424 85.3761 46.7512 85.1905 46.9268C85.0082 47.0992 84.7878 47.1854 84.5293 47.1854ZM88.7514 45.8182V56H87.2649V45.8182H88.7514Z" fill="#364153"/>
<path d="M95.1122 51.5455L95.2067 49.4474L93.4368 50.5859L92.8949 49.6413L94.7741 48.6818L92.8949 47.7223L93.4368 46.7777L95.2067 47.9162L95.1122 45.8182H96.1911L96.0966 47.9162L97.8665 46.7777L98.4084 47.7223L96.5291 48.6818L98.4084 49.6413L97.8665 50.5859L96.0966 49.4474L96.1911 51.5455H95.1122Z" fill="#4F39F6"/>
<g filter="url(#filter1_d_3907_10989)">
<path d="M54 75C54 70.5817 57.5817 67 62 67H342C346.418 67 350 70.5817 350 75V99C350 103.418 346.418 107 342 107H62C57.5817 107 54 103.418 54 99V75Z" fill="white" shape-rendering="crispEdges"/>
<path d="M62 68H342C345.866 68 349 71.134 349 75V99C349 102.866 345.866 106 342 106H62C58.134 106 55 102.866 55 99V75C55 71.134 58.134 68 62 68Z" stroke="#615FFF" stroke-width="2" shape-rendering="crispEdges"/>
<path d="M84.3333 82.8333L76.8408 87.6058C76.5866 87.7534 76.2978 87.8312 76.0037 87.8312C75.7097 87.8312 75.4209 87.7534 75.1667 87.6058L67.6667 82.8333M69.3333 80.3333H82.6667C83.5871 80.3333 84.3333 81.0794 84.3333 81.9999V91.9999C84.3333 92.9204 83.5871 93.6666 82.6667 93.6666H69.3333C68.4129 93.6666 67.6667 92.9204 67.6667 91.9999V81.9999C67.6667 81.0794 68.4129 80.3333 69.3333 80.3333Z" stroke="#99A1AF" stroke-width="1.5" stroke-linecap="round" stroke-linejoin="round"/>
<path d="M96.5682 81.3636V93H95.2273V81.3636H96.5682ZM99.0241 93V84.2727H100.365V93H99.0241ZM99.706 82.8182C99.4446 82.8182 99.2192 82.7292 99.0298 82.5511C98.8442 82.3731 98.7514 82.1591 98.7514 81.9091C98.7514 81.6591 98.8442 81.4451 99.0298 81.267C99.2192 81.089 99.4446 81 99.706 81C99.9673 81 100.191 81.089 100.376 81.267C100.566 81.4451 100.661 81.6591 100.661 81.9091C100.661 82.1591 100.566 82.3731 100.376 82.5511C100.191 82.7292 99.9673 82.8182 99.706 82.8182ZM105.389 93.2045C104.836 93.2045 104.334 93.1004 103.884 92.892C103.433 92.6799 103.075 92.375 102.81 91.9773C102.545 91.5758 102.412 91.0909 102.412 90.5227C102.412 90.0227 102.51 89.6174 102.707 89.3068C102.904 88.9924 103.168 88.7462 103.497 88.5682C103.827 88.3902 104.19 88.2576 104.588 88.1705C104.99 88.0795 105.393 88.0076 105.798 87.9545C106.329 87.8864 106.759 87.8352 107.088 87.8011C107.421 87.7633 107.664 87.7008 107.815 87.6136C107.971 87.5265 108.048 87.375 108.048 87.1591V87.1136C108.048 86.553 107.895 86.1174 107.588 85.8068C107.285 85.4962 106.825 85.3409 106.207 85.3409C105.567 85.3409 105.065 85.4811 104.702 85.7614C104.338 86.0417 104.082 86.3409 103.935 86.6591L102.662 86.2045C102.889 85.6742 103.192 85.2614 103.571 84.9659C103.954 84.6667 104.37 84.4583 104.821 84.3409C105.276 84.2197 105.723 84.1591 106.162 84.1591C106.442 84.1591 106.764 84.1932 107.128 84.2614C107.495 84.3258 107.849 84.4602 108.19 84.6648C108.535 84.8693 108.821 85.178 109.048 85.5909C109.276 86.0038 109.389 86.5568 109.389 87.25V93H108.048V91.8182H107.98C107.889 92.0076 107.738 92.2102 107.526 92.4261C107.313 92.642 107.031 92.8258 106.679 92.9773C106.327 93.1288 105.897 93.2045 105.389 93.2045ZM105.594 92C106.124 92 106.571 91.8958 106.935 91.6875C107.302 91.4792 107.579 91.2102 107.764 90.8807C107.954 90.5511 108.048 90.2045 108.048 89.8409V88.6136C107.991 88.6818 107.866 88.7443 107.673 88.8011C107.484 88.8542 107.264 88.9015 107.014 88.9432C106.768 88.9811 106.527 89.0152 106.293 89.0455C106.062 89.072 105.874 89.0947 105.73 89.1136C105.382 89.1591 105.056 89.233 104.753 89.3352C104.454 89.4337 104.211 89.5833 104.026 89.7841C103.844 89.9811 103.753 90.25 103.753 90.5909C103.753 91.0568 103.925 91.4091 104.27 91.6477C104.618 91.8826 105.06 92 105.594 92ZM111.837 93V84.2727H113.132V85.6364H113.246C113.428 85.1705 113.721 84.8087 114.126 84.5511C114.532 84.2898 115.018 84.1591 115.587 84.1591C116.162 84.1591 116.642 84.2898 117.024 84.5511C117.411 84.8087 117.712 85.1705 117.928 85.6364H118.018C118.242 85.1856 118.577 84.8277 119.024 84.5625C119.471 84.2936 120.007 84.1591 120.632 84.1591C121.412 84.1591 122.051 84.4034 122.547 84.892C123.043 85.3769 123.291 86.1326 123.291 87.1591V93H121.95V87.1591C121.95 86.5152 121.774 86.0549 121.422 85.7784C121.07 85.5019 120.655 85.3636 120.178 85.3636C119.564 85.3636 119.089 85.5492 118.751 85.9205C118.414 86.2879 118.246 86.7538 118.246 87.3182V93H116.882V87.0227C116.882 86.5265 116.721 86.1269 116.399 85.8239C116.077 85.517 115.662 85.3636 115.155 85.3636C114.806 85.3636 114.481 85.4564 114.178 85.642C113.878 85.8277 113.636 86.0852 113.45 86.4148C113.268 86.7405 113.178 87.1174 113.178 87.5455V93H111.837ZM132.447 96.0682C131.288 96.0682 130.264 95.9091 129.374 95.5909C128.483 95.2765 127.735 94.8125 127.129 94.1989C126.523 93.5852 126.065 92.8333 125.754 91.9432C125.444 91.053 125.288 90.0341 125.288 88.8864C125.288 87.7765 125.446 86.7841 125.76 85.9091C126.078 85.0341 126.538 84.2917 127.141 83.6818C127.747 83.0682 128.482 82.6004 129.345 82.2784C130.213 81.9564 131.194 81.7955 132.288 81.7955C133.353 81.7955 134.285 81.9697 135.084 82.3182C135.887 82.6629 136.557 83.1307 137.095 83.7216C137.637 84.3087 138.042 84.9697 138.311 85.7045C138.584 86.4394 138.72 87.197 138.72 87.9773C138.72 88.5265 138.694 89.0833 138.641 89.6477C138.588 90.2121 138.476 90.7311 138.305 91.2045C138.135 91.6742 137.872 92.053 137.516 92.3409C137.163 92.6288 136.686 92.7727 136.084 92.7727C135.819 92.7727 135.527 92.7311 135.209 92.6477C134.891 92.5644 134.608 92.4261 134.362 92.233C134.116 92.0398 133.97 91.7803 133.925 91.4545H133.857C133.766 91.6742 133.625 91.8826 133.436 92.0795C133.25 92.2765 133.006 92.4337 132.703 92.5511C132.404 92.6686 132.038 92.7197 131.607 92.7045C131.114 92.6856 130.68 92.5758 130.305 92.375C129.93 92.1705 129.616 91.8939 129.362 91.5455C129.112 91.1932 128.923 90.786 128.794 90.3239C128.669 89.858 128.607 89.3561 128.607 88.8182C128.607 88.3068 128.682 87.839 128.834 87.4148C128.985 86.9905 129.196 86.6193 129.464 86.3011C129.737 85.983 130.055 85.7292 130.419 85.5398C130.786 85.3466 131.182 85.2273 131.607 85.1818C131.985 85.1439 132.33 85.161 132.641 85.233C132.951 85.3011 133.207 85.4053 133.408 85.5455C133.608 85.6818 133.735 85.8333 133.788 86H133.857V85.3636H135.061V90.5C135.061 90.8182 135.15 91.0985 135.328 91.3409C135.506 91.5833 135.766 91.7045 136.107 91.7045C136.493 91.7045 136.788 91.572 136.993 91.3068C137.201 91.0417 137.343 90.6326 137.419 90.0795C137.499 89.5265 137.538 88.8182 137.538 87.9545C137.538 87.447 137.468 86.947 137.328 86.4545C137.192 85.9583 136.983 85.4943 136.703 85.0625C136.427 84.6307 136.076 84.25 135.652 83.9205C135.228 83.5909 134.73 83.3333 134.158 83.1477C133.589 82.9583 132.944 82.8636 132.22 82.8636C131.33 82.8636 130.533 83.0019 129.828 83.2784C129.127 83.5511 128.531 83.9508 128.038 84.4773C127.55 85 127.177 85.6364 126.919 86.3864C126.665 87.1326 126.538 87.9811 126.538 88.9318C126.538 89.8977 126.665 90.7557 126.919 91.5057C127.177 92.2557 127.555 92.8883 128.055 93.4034C128.559 93.9186 129.182 94.3087 129.925 94.5739C130.667 94.8428 131.523 94.9773 132.493 94.9773C132.91 94.9773 133.321 94.9375 133.726 94.858C134.131 94.7784 134.489 94.6913 134.8 94.5966C135.11 94.5019 135.334 94.4318 135.47 94.3864L135.788 95.4318C135.554 95.5303 135.247 95.6288 134.868 95.7273C134.493 95.8258 134.091 95.9072 133.663 95.9716C133.239 96.036 132.834 96.0682 132.447 96.0682ZM131.788 91.5455C132.296 91.5455 132.707 91.4432 133.021 91.2386C133.336 91.0341 133.565 90.7254 133.709 90.3125C133.853 89.8996 133.925 89.3788 133.925 88.75C133.925 88.1136 133.845 87.6174 133.686 87.2614C133.527 86.9053 133.292 86.6553 132.982 86.5114C132.671 86.3674 132.288 86.2955 131.834 86.2955C131.402 86.2955 131.033 86.4091 130.726 86.6364C130.423 86.8598 130.19 87.1591 130.027 87.5341C129.868 87.9053 129.788 88.3106 129.788 88.75C129.788 89.2348 129.853 89.6913 129.982 90.1193C130.11 90.5436 130.321 90.8883 130.612 91.1534C130.904 91.4148 131.296 91.5455 131.788 91.5455ZM140.727 93V84.2727H142.023V85.6364H142.136C142.318 85.1705 142.612 84.8087 143.017 84.5511C143.422 84.2898 143.909 84.1591 144.477 84.1591C145.053 84.1591 145.532 84.2898 145.915 84.5511C146.301 84.8087 146.602 85.1705 146.818 85.6364H146.909C147.133 85.1856 147.468 84.8277 147.915 84.5625C148.362 84.2936 148.898 84.1591 149.523 84.1591C150.303 84.1591 150.941 84.4034 151.438 84.892C151.934 85.3769 152.182 86.1326 152.182 87.1591V93H150.841V87.1591C150.841 86.5152 150.665 86.0549 150.312 85.7784C149.96 85.5019 149.545 85.3636 149.068 85.3636C148.455 85.3636 147.979 85.5492 147.642 85.9205C147.305 86.2879 147.136 86.7538 147.136 87.3182V93H145.773V87.0227C145.773 86.5265 145.612 86.1269 145.29 85.8239C144.968 85.517 144.553 85.3636 144.045 85.3636C143.697 85.3636 143.371 85.4564 143.068 85.642C142.769 85.8277 142.527 86.0852 142.341 86.4148C142.159 86.7405 142.068 87.1174 142.068 87.5455V93H140.727ZM157.202 93.2045C156.649 93.2045 156.147 93.1004 155.696 92.892C155.245 92.6799 154.887 92.375 154.622 91.9773C154.357 91.5758 154.224 91.0909 154.224 90.5227C154.224 90.0227 154.323 89.6174 154.52 89.3068C154.717 88.9924 154.98 88.7462 155.31 88.5682C155.639 88.3902 156.003 88.2576 156.401 88.1705C156.802 88.0795 157.205 88.0076 157.611 87.9545C158.141 87.8864 158.571 87.8352 158.901 87.8011C159.234 87.7633 159.476 87.7008 159.628 87.6136C159.783 87.5265 159.861 87.375 159.861 87.1591V87.1136C159.861 86.553 159.707 86.1174 159.401 85.8068C159.098 85.4962 158.637 85.3409 158.02 85.3409C157.38 85.3409 156.878 85.4811 156.514 85.7614C156.151 86.0417 155.895 86.3409 155.747 86.6591L154.474 86.2045C154.702 85.6742 155.005 85.2614 155.384 84.9659C155.766 84.6667 156.183 84.4583 156.634 84.3409C157.088 84.2197 157.535 84.1591 157.974 84.1591C158.255 84.1591 158.577 84.1932 158.94 84.2614C159.308 84.3258 159.662 84.4602 160.003 84.6648C160.348 84.8693 160.634 85.178 160.861 85.5909C161.088 86.0038 161.202 86.5568 161.202 87.25V93H159.861V91.8182H159.793C159.702 92.0076 159.55 92.2102 159.338 92.4261C159.126 92.642 158.844 92.8258 158.491 92.9773C158.139 93.1288 157.709 93.2045 157.202 93.2045ZM157.406 92C157.937 92 158.384 91.8958 158.747 91.6875C159.115 91.4792 159.391 91.2102 159.577 90.8807C159.766 90.5511 159.861 90.2045 159.861 89.8409V88.6136C159.804 88.6818 159.679 88.7443 159.486 88.8011C159.296 88.8542 159.077 88.9015 158.827 88.9432C158.58 88.9811 158.34 89.0152 158.105 89.0455C157.874 89.072 157.687 89.0947 157.543 89.1136C157.194 89.1591 156.868 89.233 156.565 89.3352C156.266 89.4337 156.024 89.5833 155.838 89.7841C155.656 89.9811 155.565 90.25 155.565 90.5909C155.565 91.0568 155.738 91.4091 156.082 91.6477C156.431 91.8826 156.872 92 157.406 92ZM166.945 93.1818C166.217 93.1818 165.575 92.9981 165.018 92.6307C164.462 92.2595 164.026 91.7367 163.712 91.0625C163.397 90.3845 163.24 89.5833 163.24 88.6591C163.24 87.7424 163.397 86.947 163.712 86.2727C164.026 85.5985 164.464 85.0777 165.024 84.7102C165.585 84.3428 166.232 84.1591 166.967 84.1591C167.536 84.1591 167.984 84.2538 168.314 84.4432C168.647 84.6288 168.901 84.8409 169.075 85.0795C169.253 85.3144 169.392 85.5076 169.49 85.6591H169.604V81.3636H170.945V93H169.649V91.6591H169.49C169.392 91.8182 169.251 92.0189 169.07 92.2614C168.888 92.5 168.628 92.714 168.291 92.9034C167.954 93.089 167.505 93.1818 166.945 93.1818ZM167.126 91.9773C167.664 91.9773 168.119 91.8371 168.49 91.5568C168.861 91.2727 169.143 90.8807 169.337 90.3807C169.53 89.8769 169.626 89.2955 169.626 88.6364C169.626 87.9848 169.532 87.4148 169.342 86.9261C169.153 86.4337 168.873 86.0511 168.501 85.7784C168.13 85.5019 167.672 85.3636 167.126 85.3636C166.558 85.3636 166.085 85.5095 165.706 85.8011C165.331 86.089 165.049 86.4811 164.859 86.9773C164.674 87.4697 164.581 88.0227 164.581 88.6364C164.581 89.2576 164.676 89.822 164.865 90.3295C165.058 90.8333 165.342 91.2348 165.717 91.5341C166.096 91.8295 166.566 91.9773 167.126 91.9773ZM173.587 93V84.2727H174.928V93H173.587ZM174.268 82.8182C174.007 82.8182 173.782 82.7292 173.592 82.5511C173.407 82.3731 173.314 82.1591 173.314 81.9091C173.314 81.6591 173.407 81.4451 173.592 81.267C173.782 81.089 174.007 81 174.268 81C174.53 81 174.753 81.089 174.939 81.267C175.128 81.4451 175.223 81.6591 175.223 81.9091C175.223 82.1591 175.128 82.3731 174.939 82.5511C174.753 82.7292 174.53 82.8182 174.268 82.8182ZM180.906 96.4545C180.259 96.4545 179.702 96.3712 179.236 96.2045C178.77 96.0417 178.382 95.8258 178.071 95.5568C177.764 95.2917 177.52 95.0076 177.338 94.7045L178.406 93.9545C178.527 94.1136 178.681 94.2955 178.866 94.5C179.052 94.7083 179.306 94.8883 179.628 95.0398C179.954 95.1951 180.38 95.2727 180.906 95.2727C181.611 95.2727 182.192 95.1023 182.651 94.7614C183.109 94.4205 183.338 93.8864 183.338 93.1591V91.3864H183.224C183.126 91.5455 182.986 91.7424 182.804 91.9773C182.626 92.2083 182.368 92.4148 182.031 92.5966C181.698 92.7746 181.247 92.8636 180.679 92.8636C179.974 92.8636 179.342 92.697 178.781 92.3636C178.224 92.0303 177.783 91.5455 177.457 90.9091C177.135 90.2727 176.974 89.5 176.974 88.5909C176.974 87.697 177.132 86.9186 177.446 86.2557C177.76 85.589 178.198 85.0739 178.759 84.7102C179.319 84.3428 179.967 84.1591 180.702 84.1591C181.27 84.1591 181.721 84.2538 182.054 84.4432C182.391 84.6288 182.649 84.8409 182.827 85.0795C183.009 85.3144 183.149 85.5076 183.247 85.6591H183.384V84.2727H184.679V93.25C184.679 94 184.509 94.6098 184.168 95.0795C183.83 95.553 183.376 95.8996 182.804 96.1193C182.236 96.3428 181.603 96.4545 180.906 96.4545ZM180.861 91.6591C181.399 91.6591 181.853 91.536 182.224 91.2898C182.596 91.0436 182.878 90.6894 183.071 90.2273C183.264 89.7652 183.361 89.2121 183.361 88.5682C183.361 87.9394 183.266 87.3845 183.077 86.9034C182.887 86.4223 182.607 86.0455 182.236 85.7727C181.865 85.5 181.406 85.3636 180.861 85.3636C180.293 85.3636 179.819 85.5076 179.44 85.7955C179.065 86.0833 178.783 86.4697 178.594 86.9545C178.408 87.4394 178.315 87.9773 178.315 88.5682C178.315 89.1742 178.41 89.7102 178.599 90.1761C178.793 90.6383 179.077 91.0019 179.452 91.267C179.83 91.5284 180.3 91.6591 180.861 91.6591ZM187.134 93V84.2727H188.474V93H187.134ZM187.815 82.8182C187.554 82.8182 187.329 82.7292 187.139 82.5511C186.954 82.3731 186.861 82.1591 186.861 81.9091C186.861 81.6591 186.954 81.4451 187.139 81.267C187.329 81.089 187.554 81 187.815 81C188.077 81 188.3 81.089 188.486 81.267C188.675 81.4451 188.77 81.6591 188.77 81.9091C188.77 82.1591 188.675 82.3731 188.486 82.5511C188.3 82.7292 188.077 82.8182 187.815 82.8182ZM194.726 84.2727V85.4091H190.203V84.2727H194.726ZM191.521 82.1818H192.862V90.5C192.862 90.8788 192.917 91.1629 193.027 91.3523C193.141 91.5379 193.285 91.6629 193.459 91.7273C193.637 91.7879 193.824 91.8182 194.021 91.8182C194.169 91.8182 194.29 91.8106 194.385 91.7955C194.48 91.7765 194.555 91.7614 194.612 91.75L194.885 92.9545C194.794 92.9886 194.667 93.0227 194.504 93.0568C194.341 93.0947 194.135 93.1136 193.885 93.1136C193.506 93.1136 193.135 93.0322 192.771 92.8693C192.411 92.7064 192.112 92.4583 191.874 92.125C191.639 91.7917 191.521 91.3712 191.521 90.8636V82.1818ZM196.743 93V84.2727H198.084V93H196.743ZM197.425 82.8182C197.163 82.8182 196.938 82.7292 196.749 82.5511C196.563 82.3731 196.47 82.1591 196.47 81.9091C196.47 81.6591 196.563 81.4451 196.749 81.267C196.938 81.089 197.163 81 197.425 81C197.686 81 197.91 81.089 198.095 81.267C198.285 81.4451 198.379 81.6591 198.379 81.9091C198.379 82.1591 198.285 82.3731 198.095 82.5511C197.91 82.7292 197.686 82.8182 197.425 82.8182ZM200.29 93V91.9773L205.244 85.6136V85.5227H200.449V84.2727H206.972V85.3409L202.153 91.6591V91.75H207.131V93H200.29ZM212.605 93.1818C211.764 93.1818 211.039 92.9962 210.429 92.625C209.823 92.25 209.355 91.7273 209.026 91.0568C208.7 90.3826 208.537 89.5985 208.537 88.7045C208.537 87.8106 208.7 87.0227 209.026 86.3409C209.355 85.6553 209.813 85.1212 210.401 84.7386C210.991 84.3523 211.681 84.1591 212.469 84.1591C212.923 84.1591 213.372 84.2348 213.815 84.3864C214.259 84.5379 214.662 84.7841 215.026 85.125C215.389 85.4621 215.679 85.9091 215.895 86.4659C216.111 87.0227 216.219 87.7083 216.219 88.5227V89.0909H209.491V87.9318H214.855C214.855 87.4394 214.757 87 214.56 86.6136C214.366 86.2273 214.09 85.9223 213.73 85.6989C213.374 85.4754 212.954 85.3636 212.469 85.3636C211.935 85.3636 211.473 85.4962 211.082 85.7614C210.696 86.0227 210.399 86.3636 210.19 86.7841C209.982 87.2045 209.878 87.6553 209.878 88.1364V88.9091C209.878 89.5682 209.991 90.1269 210.219 90.5852C210.45 91.0398 210.77 91.3864 211.179 91.625C211.588 91.8598 212.063 91.9773 212.605 91.9773C212.957 91.9773 213.276 91.928 213.56 91.8295C213.848 91.7273 214.096 91.5758 214.304 91.375C214.512 91.1705 214.673 90.9167 214.787 90.6136L216.082 90.9773C215.946 91.4167 215.717 91.803 215.395 92.1364C215.073 92.4659 214.675 92.7235 214.202 92.9091C213.728 93.0909 213.196 93.1818 212.605 93.1818ZM219.236 93.0909C218.955 93.0909 218.715 92.9905 218.514 92.7898C218.313 92.589 218.213 92.3485 218.213 92.0682C218.213 91.7879 218.313 91.5473 218.514 91.3466C218.715 91.1458 218.955 91.0455 219.236 91.0455C219.516 91.0455 219.757 91.1458 219.957 91.3466C220.158 91.5473 220.259 91.7879 220.259 92.0682C220.259 92.2538 220.211 92.4242 220.116 92.5795C220.026 92.7348 219.902 92.8598 219.747 92.9545C219.596 93.0455 219.425 93.0909 219.236 93.0909ZM226.21 93.1818C225.392 93.1818 224.688 92.9886 224.097 92.6023C223.506 92.2159 223.051 91.6837 222.733 91.0057C222.415 90.3277 222.256 89.553 222.256 88.6818C222.256 87.7955 222.419 87.0133 222.744 86.3352C223.074 85.6534 223.532 85.1212 224.119 84.7386C224.71 84.3523 225.4 84.1591 226.188 84.1591C226.801 84.1591 227.354 84.2727 227.847 84.5C228.339 84.7273 228.742 85.0455 229.057 85.4545C229.371 85.8636 229.566 86.3409 229.642 86.8864H228.301C228.199 86.4886 227.972 86.1364 227.619 85.8295C227.271 85.5189 226.801 85.3636 226.21 85.3636C225.688 85.3636 225.229 85.5 224.835 85.7727C224.445 86.0417 224.14 86.4223 223.92 86.9148C223.705 87.4034 223.597 87.9773 223.597 88.6364C223.597 89.3106 223.703 89.8977 223.915 90.3977C224.131 90.8977 224.434 91.286 224.824 91.5625C225.218 91.839 225.68 91.9773 226.21 91.9773C226.559 91.9773 226.875 91.9167 227.159 91.7955C227.443 91.6742 227.684 91.5 227.881 91.2727C228.078 91.0455 228.218 90.7727 228.301 90.4545H229.642C229.566 90.9697 229.379 91.4337 229.08 91.8466C228.784 92.2557 228.392 92.5814 227.903 92.8239C227.419 93.0625 226.854 93.1818 226.21 93.1818ZM235.148 93.1818C234.36 93.1818 233.669 92.9943 233.074 92.6193C232.483 92.2443 232.021 91.7197 231.688 91.0455C231.358 90.3712 231.193 89.5833 231.193 88.6818C231.193 87.7727 231.358 86.9792 231.688 86.3011C232.021 85.6231 232.483 85.0966 233.074 84.7216C233.669 84.3466 234.36 84.1591 235.148 84.1591C235.936 84.1591 236.625 84.3466 237.216 84.7216C237.811 85.0966 238.273 85.6231 238.602 86.3011C238.936 86.9792 239.102 87.7727 239.102 88.6818C239.102 89.5833 238.936 90.3712 238.602 91.0455C238.273 91.7197 237.811 92.2443 237.216 92.6193C236.625 92.9943 235.936 93.1818 235.148 93.1818ZM235.148 91.9773C235.746 91.9773 236.239 91.8239 236.625 91.517C237.011 91.2102 237.297 90.8068 237.483 90.3068C237.669 89.8068 237.761 89.2652 237.761 88.6818C237.761 88.0985 237.669 87.5549 237.483 87.0511C237.297 86.5473 237.011 86.1402 236.625 85.8295C236.239 85.5189 235.746 85.3636 235.148 85.3636C234.549 85.3636 234.057 85.5189 233.67 85.8295C233.284 86.1402 232.998 86.5473 232.812 87.0511C232.627 87.5549 232.534 88.0985 232.534 88.6818C232.534 89.2652 232.627 89.8068 232.812 90.3068C232.998 90.8068 233.284 91.2102 233.67 91.517C234.057 91.8239 234.549 91.9773 235.148 91.9773ZM241.149 93V84.2727H242.445V85.6364H242.558C242.74 85.1705 243.034 84.8087 243.439 84.5511C243.844 84.2898 244.331 84.1591 244.899 84.1591C245.475 84.1591 245.954 84.2898 246.337 84.5511C246.723 84.8087 247.024 85.1705 247.24 85.6364H247.331C247.554 85.1856 247.89 84.8277 248.337 84.5625C248.784 84.2936 249.32 84.1591 249.945 84.1591C250.725 84.1591 251.363 84.4034 251.859 84.892C252.356 85.3769 252.604 86.1326 252.604 87.1591V93H251.263V87.1591C251.263 86.5152 251.087 86.0549 250.734 85.7784C250.382 85.5019 249.967 85.3636 249.49 85.3636C248.876 85.3636 248.401 85.5492 248.064 85.9205C247.727 86.2879 247.558 86.7538 247.558 87.3182V93H246.195V87.0227C246.195 86.5265 246.034 86.1269 245.712 85.8239C245.39 85.517 244.975 85.3636 244.467 85.3636C244.119 85.3636 243.793 85.4564 243.49 85.642C243.191 85.8277 242.948 86.0852 242.763 86.4148C242.581 86.7405 242.49 87.1174 242.49 87.5455V93H241.149Z" fill="#101828"/>
<path d="M328.06 84.9999C328.217 84.5544 328.526 84.1787 328.933 83.9393C329.341 83.7 329.819 83.6125 330.285 83.6924C330.75 83.7722 331.173 84.0143 331.477 84.3756C331.781 84.7369 331.947 85.1943 331.947 85.6666C331.947 86.9999 329.947 87.6666 329.947 87.6666M330 90.3333H330.007M336.667 86.9999C336.667 90.6818 333.682 93.6666 330 93.6666C326.318 93.6666 323.333 90.6818 323.333 86.9999C323.333 83.318 326.318 80.3333 330 80.3333C333.682 80.3333 336.667 83.318 336.667 86.9999Z" stroke="#99A1AF" stroke-width="1.32" stroke-linecap="round" stroke-linejoin="round"/>
</g>
<path d="M55.233 128V117.818H56.4659V122.352H61.8949V117.818H63.1278V128H61.8949V123.446H56.4659V128H55.233ZM65.4371 128V120.364H66.6104V128H65.4371ZM66.0337 119.091C65.805 119.091 65.6078 119.013 65.4421 118.857C65.2797 118.701 65.1985 118.514 65.1985 118.295C65.1985 118.077 65.2797 117.889 65.4421 117.734C65.6078 117.578 65.805 117.5 66.0337 117.5C66.2624 117.5 66.458 117.578 66.6204 117.734C66.7861 117.889 66.869 118.077 66.869 118.295C66.869 118.514 66.7861 118.701 66.6204 118.857C66.458 119.013 66.2624 119.091 66.0337 119.091ZM69.9327 123.406V128H68.7594V120.364H69.8929V121.557H69.9924C70.1713 121.169 70.4431 120.857 70.8077 120.622C71.1723 120.384 71.6429 120.264 72.2196 120.264C72.7367 120.264 73.1891 120.37 73.5769 120.582C73.9647 120.791 74.2663 121.109 74.4817 121.537C74.6971 121.961 74.8049 122.498 74.8049 123.148V128H73.6316V123.227C73.6316 122.627 73.4758 122.16 73.1642 121.825C72.8527 121.487 72.4251 121.318 71.8816 121.318C71.507 121.318 71.1723 121.399 70.8773 121.562C70.5856 121.724 70.3553 121.961 70.1863 122.273C70.0172 122.584 69.9327 122.962 69.9327 123.406ZM80.2699 120.364V121.358H76.3125V120.364H80.2699ZM77.4659 118.534H78.6392V125.812C78.6392 126.144 78.6873 126.393 78.7834 126.558C78.8828 126.721 79.0088 126.83 79.1612 126.886C79.317 126.939 79.4811 126.966 79.6534 126.966C79.7827 126.966 79.8887 126.959 79.9716 126.946C80.0545 126.929 80.1207 126.916 80.1705 126.906L80.4091 127.96C80.3295 127.99 80.2185 128.02 80.076 128.05C79.9335 128.083 79.7528 128.099 79.5341 128.099C79.2027 128.099 78.8778 128.028 78.5597 127.886C78.2448 127.743 77.983 127.526 77.7741 127.234C77.5687 126.943 77.4659 126.575 77.4659 126.131V118.534ZM89.2933 120.364V121.358H85.3359V120.364H89.2933ZM86.4893 118.534H87.6626V125.812C87.6626 126.144 87.7107 126.393 87.8068 126.558C87.9063 126.721 88.0322 126.83 88.1847 126.886C88.3404 126.939 88.5045 126.966 88.6768 126.966C88.8061 126.966 88.9122 126.959 88.995 126.946C89.0779 126.929 89.1442 126.916 89.1939 126.906L89.4325 127.96C89.353 127.99 89.242 128.02 89.0994 128.05C88.9569 128.083 88.7763 128.099 88.5575 128.099C88.2261 128.099 87.9013 128.028 87.5831 127.886C87.2682 127.743 87.0064 127.526 86.7976 127.234C86.5921 126.943 86.4893 126.575 86.4893 126.131V118.534ZM94.1779 128.159C93.4421 128.159 92.8074 127.997 92.2738 127.672C91.7435 127.344 91.3342 126.886 91.0458 126.3C90.7608 125.71 90.6183 125.024 90.6183 124.241C90.6183 123.459 90.7608 122.77 91.0458 122.173C91.3342 121.573 91.7352 121.106 92.2489 120.771C92.766 120.433 93.3692 120.264 94.0586 120.264C94.4563 120.264 94.8491 120.33 95.2369 120.463C95.6246 120.596 95.9776 120.811 96.2958 121.109C96.614 121.404 96.8675 121.795 97.0565 122.283C97.2454 122.77 97.3398 123.37 97.3398 124.082V124.58H91.4535V123.565H96.1467C96.1467 123.134 96.0605 122.75 95.8881 122.412C95.7191 122.074 95.4772 121.807 95.1623 121.612C94.8507 121.416 94.4828 121.318 94.0586 121.318C93.5913 121.318 93.1869 121.434 92.8455 121.666C92.5075 121.895 92.2473 122.193 92.065 122.561C91.8827 122.929 91.7915 123.323 91.7915 123.744V124.42C91.7915 124.997 91.891 125.486 92.0898 125.887C92.292 126.285 92.5721 126.588 92.93 126.797C93.288 127.002 93.704 127.105 94.1779 127.105C94.4862 127.105 94.7646 127.062 95.0131 126.976C95.265 126.886 95.4821 126.754 95.6644 126.578C95.8467 126.399 95.9876 126.177 96.087 125.912L97.2205 126.23C97.1012 126.615 96.9007 126.953 96.619 127.244C96.3372 127.533 95.9892 127.758 95.5749 127.92C95.1606 128.08 94.695 128.159 94.1779 128.159ZM99.7946 120.364L101.624 123.486L103.454 120.364H104.806L102.34 124.182L104.806 128H103.454L101.624 125.037L99.7946 128H98.4423L100.868 124.182L98.4423 120.364H99.7946ZM109.801 120.364V121.358H105.844V120.364H109.801ZM106.997 118.534H108.17V125.812C108.17 126.144 108.219 126.393 108.315 126.558C108.414 126.721 108.54 126.83 108.692 126.886C108.848 126.939 109.012 126.966 109.185 126.966C109.314 126.966 109.42 126.959 109.503 126.946C109.586 126.929 109.652 126.916 109.702 126.906L109.94 127.96C109.861 127.99 109.75 128.02 109.607 128.05C109.465 128.083 109.284 128.099 109.065 128.099C108.734 128.099 108.409 128.028 108.091 127.886C107.776 127.743 107.514 127.526 107.305 127.234C107.1 126.943 106.997 126.575 106.997 126.131V118.534ZM112.421 128.08C112.176 128.08 111.965 127.992 111.79 127.816C111.614 127.64 111.526 127.43 111.526 127.185C111.526 126.939 111.614 126.729 111.79 126.553C111.965 126.378 112.176 126.29 112.421 126.29C112.666 126.29 112.877 126.378 113.053 126.553C113.228 126.729 113.316 126.939 113.316 127.185C113.316 127.347 113.275 127.496 113.192 127.632C113.112 127.768 113.004 127.877 112.869 127.96C112.736 128.04 112.587 128.08 112.421 128.08Z" fill="#6A7282"/>
<path d="M55.1186 164V153.818H61.5021V155.141H56.6548V158.243H61.169V159.56H56.6548V162.678H61.5618V164H55.1186ZM63.4348 164V156.364H64.8617V157.607H64.9561C65.1152 157.186 65.3754 156.857 65.7367 156.622C66.098 156.384 66.5305 156.264 67.0343 156.264C67.5447 156.264 67.9722 156.384 68.3169 156.622C68.665 156.861 68.9218 157.189 69.0875 157.607H69.1671C69.3494 157.199 69.6394 156.874 70.0371 156.632C70.4348 156.387 70.9088 156.264 71.459 156.264C72.1517 156.264 72.7168 156.481 73.1543 156.915C73.5951 157.35 73.8155 158.004 73.8155 158.879V164H72.329V159.018C72.329 158.501 72.1882 158.127 71.9064 157.895C71.6247 157.663 71.2883 157.547 70.8972 157.547C70.4133 157.547 70.0371 157.696 69.7686 157.994C69.5002 158.289 69.3659 158.669 69.3659 159.133V164H67.8844V158.924C67.8844 158.51 67.7551 158.177 67.4966 157.925C67.2381 157.673 66.9017 157.547 66.4874 157.547C66.2057 157.547 65.9455 157.621 65.7069 157.771C65.4715 157.916 65.281 158.12 65.1351 158.382C64.9926 158.644 64.9213 158.947 64.9213 159.292V164H63.4348ZM78.0302 164.169C77.5463 164.169 77.1088 164.08 76.7177 163.901C76.3266 163.718 76.0167 163.455 75.788 163.11C75.5626 162.765 75.4499 162.343 75.4499 161.842C75.4499 161.411 75.5328 161.057 75.6985 160.778C75.8642 160.5 76.0879 160.28 76.3697 160.117C76.6514 159.955 76.9663 159.832 77.3143 159.749C77.6623 159.666 78.0169 159.603 78.3782 159.56C78.8356 159.507 79.2068 159.464 79.4918 159.431C79.7769 159.395 79.984 159.337 80.1133 159.257C80.2425 159.178 80.3072 159.048 80.3072 158.869V158.835C80.3072 158.4 80.1845 158.064 79.9393 157.825C79.6973 157.587 79.3361 157.467 78.8555 157.467C78.355 157.467 77.9606 157.578 77.6722 157.8C77.3872 158.019 77.19 158.263 77.0806 158.531L75.6836 158.213C75.8493 157.749 76.0913 157.375 76.4094 157.089C76.7309 156.801 77.1005 156.592 77.5181 156.463C77.9357 156.33 78.3749 156.264 78.8356 156.264C79.1405 156.264 79.4637 156.301 79.805 156.374C80.1497 156.443 80.4712 156.572 80.7695 156.761C81.0711 156.95 81.3181 157.22 81.5103 157.572C81.7025 157.92 81.7987 158.372 81.7987 158.929V164H80.3469V162.956H80.2873C80.1912 163.148 80.047 163.337 79.8548 163.523C79.6625 163.708 79.4156 163.862 79.114 163.985C78.8124 164.108 78.4511 164.169 78.0302 164.169ZM78.3533 162.976C78.7643 162.976 79.1156 162.895 79.4073 162.732C79.7023 162.57 79.926 162.358 80.0785 162.096C80.2343 161.831 80.3121 161.547 80.3121 161.246V160.261C80.2591 160.314 80.1564 160.364 80.0039 160.411C79.8548 160.454 79.6841 160.492 79.4918 160.525C79.2996 160.555 79.1123 160.583 78.93 160.609C78.7478 160.633 78.5953 160.652 78.4727 160.669C78.1843 160.705 77.9208 160.767 77.6822 160.853C77.4469 160.939 77.2579 161.063 77.1154 161.226C76.9762 161.385 76.9066 161.597 76.9066 161.862C76.9066 162.23 77.0425 162.509 77.3143 162.697C77.5861 162.883 77.9324 162.976 78.3533 162.976ZM83.7786 164V156.364H85.2651V164H83.7786ZM84.5293 155.185C84.2708 155.185 84.0487 155.099 83.8631 154.927C83.6808 154.751 83.5897 154.542 83.5897 154.3C83.5897 154.055 83.6808 153.846 83.8631 153.674C84.0487 153.498 84.2708 153.411 84.5293 153.411C84.7878 153.411 85.0082 153.498 85.1905 153.674C85.3761 153.846 85.4689 154.055 85.4689 154.3C85.4689 154.542 85.3761 154.751 85.1905 154.927C85.0082 155.099 84.7878 155.185 84.5293 155.185ZM88.7514 153.818V164H87.2649V153.818H88.7514Z" fill="#364153"/>
<path d="M95.1122 159.545L95.2067 157.447L93.4368 158.586L92.8949 157.641L94.7741 156.682L92.8949 155.722L93.4368 154.778L95.2067 155.916L95.1122 153.818H96.1911L96.0966 155.916L97.8665 154.778L98.4084 155.722L96.5291 156.682L98.4084 157.641L97.8665 158.586L96.0966 157.447L96.1911 159.545H95.1122Z" fill="#4F39F6"/>
<g filter="url(#filter2_d_3907_10989)">
<path d="M54 183C54 178.582 57.5817 175 62 175H342C346.418 175 350 178.582 350 183V207C350 211.418 346.418 215 342 215H62C57.5817 215 54 211.418 54 207V183Z" fill="#F3F4F6" shape-rendering="crispEdges"/>
<path d="M62 175.5H342C346.142 175.5 349.5 178.858 349.5 183V207C349.5 211.142 346.142 214.5 342 214.5H62C57.8579 214.5 54.5 211.142 54.5 207V183C54.5 178.858 57.8579 175.5 62 175.5Z" stroke="#E5E7EB" shape-rendering="crispEdges"/>
<path d="M84.3333 190.833L76.8408 195.606C76.5866 195.753 76.2978 195.831 76.0037 195.831C75.7097 195.831 75.4209 195.753 75.1667 195.606L67.6667 190.833M69.3333 188.333H82.6667C83.5871 188.333 84.3333 189.079 84.3333 190V200C84.3333 200.92 83.5871 201.667 82.6667 201.667H69.3333C68.4129 201.667 67.6667 200.92 67.6667 200V190C67.6667 189.079 68.4129 188.333 69.3333 188.333Z" stroke="#D1D5DC" stroke-width="1.5" stroke-linecap="round" stroke-linejoin="round"/>
<path d="M96.5682 189.364V201H95.2273V189.364H96.5682ZM99.0241 201V192.273H100.365V201H99.0241ZM99.706 190.818C99.4446 190.818 99.2192 190.729 99.0298 190.551C98.8442 190.373 98.7514 190.159 98.7514 189.909C98.7514 189.659 98.8442 189.445 99.0298 189.267C99.2192 189.089 99.4446 189 99.706 189C99.9673 189 100.191 189.089 100.376 189.267C100.566 189.445 100.661 189.659 100.661 189.909C100.661 190.159 100.566 190.373 100.376 190.551C100.191 190.729 99.9673 190.818 99.706 190.818ZM105.389 201.205C104.836 201.205 104.334 201.1 103.884 200.892C103.433 200.68 103.075 200.375 102.81 199.977C102.545 199.576 102.412 199.091 102.412 198.523C102.412 198.023 102.51 197.617 102.707 197.307C102.904 196.992 103.168 196.746 103.497 196.568C103.827 196.39 104.19 196.258 104.588 196.17C104.99 196.08 105.393 196.008 105.798 195.955C106.329 195.886 106.759 195.835 107.088 195.801C107.421 195.763 107.664 195.701 107.815 195.614C107.971 195.527 108.048 195.375 108.048 195.159V195.114C108.048 194.553 107.895 194.117 107.588 193.807C107.285 193.496 106.825 193.341 106.207 193.341C105.567 193.341 105.065 193.481 104.702 193.761C104.338 194.042 104.082 194.341 103.935 194.659L102.662 194.205C102.889 193.674 103.192 193.261 103.571 192.966C103.954 192.667 104.37 192.458 104.821 192.341C105.276 192.22 105.723 192.159 106.162 192.159C106.442 192.159 106.764 192.193 107.128 192.261C107.495 192.326 107.849 192.46 108.19 192.665C108.535 192.869 108.821 193.178 109.048 193.591C109.276 194.004 109.389 194.557 109.389 195.25V201H108.048V199.818H107.98C107.889 200.008 107.738 200.21 107.526 200.426C107.313 200.642 107.031 200.826 106.679 200.977C106.327 201.129 105.897 201.205 105.389 201.205ZM105.594 200C106.124 200 106.571 199.896 106.935 199.688C107.302 199.479 107.579 199.21 107.764 198.881C107.954 198.551 108.048 198.205 108.048 197.841V196.614C107.991 196.682 107.866 196.744 107.673 196.801C107.484 196.854 107.264 196.902 107.014 196.943C106.768 196.981 106.527 197.015 106.293 197.045C106.062 197.072 105.874 197.095 105.73 197.114C105.382 197.159 105.056 197.233 104.753 197.335C104.454 197.434 104.211 197.583 104.026 197.784C103.844 197.981 103.753 198.25 103.753 198.591C103.753 199.057 103.925 199.409 104.27 199.648C104.618 199.883 105.06 200 105.594 200ZM111.837 201V192.273H113.132V193.636H113.246C113.428 193.17 113.721 192.809 114.126 192.551C114.532 192.29 115.018 192.159 115.587 192.159C116.162 192.159 116.642 192.29 117.024 192.551C117.411 192.809 117.712 193.17 117.928 193.636H118.018C118.242 193.186 118.577 192.828 119.024 192.562C119.471 192.294 120.007 192.159 120.632 192.159C121.412 192.159 122.051 192.403 122.547 192.892C123.043 193.377 123.291 194.133 123.291 195.159V201H121.95V195.159C121.95 194.515 121.774 194.055 121.422 193.778C121.07 193.502 120.655 193.364 120.178 193.364C119.564 193.364 119.089 193.549 118.751 193.92C118.414 194.288 118.246 194.754 118.246 195.318V201H116.882V195.023C116.882 194.527 116.721 194.127 116.399 193.824C116.077 193.517 115.662 193.364 115.155 193.364C114.806 193.364 114.481 193.456 114.178 193.642C113.878 193.828 113.636 194.085 113.45 194.415C113.268 194.741 113.178 195.117 113.178 195.545V201H111.837ZM132.447 204.068C131.288 204.068 130.264 203.909 129.374 203.591C128.483 203.277 127.735 202.813 127.129 202.199C126.523 201.585 126.065 200.833 125.754 199.943C125.444 199.053 125.288 198.034 125.288 196.886C125.288 195.777 125.446 194.784 125.76 193.909C126.078 193.034 126.538 192.292 127.141 191.682C127.747 191.068 128.482 190.6 129.345 190.278C130.213 189.956 131.194 189.795 132.288 189.795C133.353 189.795 134.285 189.97 135.084 190.318C135.887 190.663 136.557 191.131 137.095 191.722C137.637 192.309 138.042 192.97 138.311 193.705C138.584 194.439 138.72 195.197 138.72 195.977C138.72 196.527 138.694 197.083 138.641 197.648C138.588 198.212 138.476 198.731 138.305 199.205C138.135 199.674 137.872 200.053 137.516 200.341C137.163 200.629 136.686 200.773 136.084 200.773C135.819 200.773 135.527 200.731 135.209 200.648C134.891 200.564 134.608 200.426 134.362 200.233C134.116 200.04 133.97 199.78 133.925 199.455H133.857C133.766 199.674 133.625 199.883 133.436 200.08C133.25 200.277 133.006 200.434 132.703 200.551C132.404 200.669 132.038 200.72 131.607 200.705C131.114 200.686 130.68 200.576 130.305 200.375C129.93 200.17 129.616 199.894 129.362 199.545C129.112 199.193 128.923 198.786 128.794 198.324C128.669 197.858 128.607 197.356 128.607 196.818C128.607 196.307 128.682 195.839 128.834 195.415C128.985 194.991 129.196 194.619 129.464 194.301C129.737 193.983 130.055 193.729 130.419 193.54C130.786 193.347 131.182 193.227 131.607 193.182C131.985 193.144 132.33 193.161 132.641 193.233C132.951 193.301 133.207 193.405 133.408 193.545C133.608 193.682 133.735 193.833 133.788 194H133.857V193.364H135.061V198.5C135.061 198.818 135.15 199.098 135.328 199.341C135.506 199.583 135.766 199.705 136.107 199.705C136.493 199.705 136.788 199.572 136.993 199.307C137.201 199.042 137.343 198.633 137.419 198.08C137.499 197.527 137.538 196.818 137.538 195.955C137.538 195.447 137.468 194.947 137.328 194.455C137.192 193.958 136.983 193.494 136.703 193.062C136.427 192.631 136.076 192.25 135.652 191.92C135.228 191.591 134.73 191.333 134.158 191.148C133.589 190.958 132.944 190.864 132.22 190.864C131.33 190.864 130.533 191.002 129.828 191.278C129.127 191.551 128.531 191.951 128.038 192.477C127.55 193 127.177 193.636 126.919 194.386C126.665 195.133 126.538 195.981 126.538 196.932C126.538 197.898 126.665 198.756 126.919 199.506C127.177 200.256 127.555 200.888 128.055 201.403C128.559 201.919 129.182 202.309 129.925 202.574C130.667 202.843 131.523 202.977 132.493 202.977C132.91 202.977 133.321 202.938 133.726 202.858C134.131 202.778 134.489 202.691 134.8 202.597C135.11 202.502 135.334 202.432 135.47 202.386L135.788 203.432C135.554 203.53 135.247 203.629 134.868 203.727C134.493 203.826 134.091 203.907 133.663 203.972C133.239 204.036 132.834 204.068 132.447 204.068ZM131.788 199.545C132.296 199.545 132.707 199.443 133.021 199.239C133.336 199.034 133.565 198.725 133.709 198.312C133.853 197.9 133.925 197.379 133.925 196.75C133.925 196.114 133.845 195.617 133.686 195.261C133.527 194.905 133.292 194.655 132.982 194.511C132.671 194.367 132.288 194.295 131.834 194.295C131.402 194.295 131.033 194.409 130.726 194.636C130.423 194.86 130.19 195.159 130.027 195.534C129.868 195.905 129.788 196.311 129.788 196.75C129.788 197.235 129.853 197.691 129.982 198.119C130.11 198.544 130.321 198.888 130.612 199.153C130.904 199.415 131.296 199.545 131.788 199.545ZM140.727 201V192.273H142.023V193.636H142.136C142.318 193.17 142.612 192.809 143.017 192.551C143.422 192.29 143.909 192.159 144.477 192.159C145.053 192.159 145.532 192.29 145.915 192.551C146.301 192.809 146.602 193.17 146.818 193.636H146.909C147.133 193.186 147.468 192.828 147.915 192.562C148.362 192.294 148.898 192.159 149.523 192.159C150.303 192.159 150.941 192.403 151.438 192.892C151.934 193.377 152.182 194.133 152.182 195.159V201H150.841V195.159C150.841 194.515 150.665 194.055 150.312 193.778C149.96 193.502 149.545 193.364 149.068 193.364C148.455 193.364 147.979 193.549 147.642 193.92C147.305 194.288 147.136 194.754 147.136 195.318V201H145.773V195.023C145.773 194.527 145.612 194.127 145.29 193.824C144.968 193.517 144.553 193.364 144.045 193.364C143.697 193.364 143.371 193.456 143.068 193.642C142.769 193.828 142.527 194.085 142.341 194.415C142.159 194.741 142.068 195.117 142.068 195.545V201H140.727ZM157.202 201.205C156.649 201.205 156.147 201.1 155.696 200.892C155.245 200.68 154.887 200.375 154.622 199.977C154.357 199.576 154.224 199.091 154.224 198.523C154.224 198.023 154.323 197.617 154.52 197.307C154.717 196.992 154.98 196.746 155.31 196.568C155.639 196.39 156.003 196.258 156.401 196.17C156.802 196.08 157.205 196.008 157.611 195.955C158.141 195.886 158.571 195.835 158.901 195.801C159.234 195.763 159.476 195.701 159.628 195.614C159.783 195.527 159.861 195.375 159.861 195.159V195.114C159.861 194.553 159.707 194.117 159.401 193.807C159.098 193.496 158.637 193.341 158.02 193.341C157.38 193.341 156.878 193.481 156.514 193.761C156.151 194.042 155.895 194.341 155.747 194.659L154.474 194.205C154.702 193.674 155.005 193.261 155.384 192.966C155.766 192.667 156.183 192.458 156.634 192.341C157.088 192.22 157.535 192.159 157.974 192.159C158.255 192.159 158.577 192.193 158.94 192.261C159.308 192.326 159.662 192.46 160.003 192.665C160.348 192.869 160.634 193.178 160.861 193.591C161.088 194.004 161.202 194.557 161.202 195.25V201H159.861V199.818H159.793C159.702 200.008 159.55 200.21 159.338 200.426C159.126 200.642 158.844 200.826 158.491 200.977C158.139 201.129 157.709 201.205 157.202 201.205ZM157.406 200C157.937 200 158.384 199.896 158.747 199.688C159.115 199.479 159.391 199.21 159.577 198.881C159.766 198.551 159.861 198.205 159.861 197.841V196.614C159.804 196.682 159.679 196.744 159.486 196.801C159.296 196.854 159.077 196.902 158.827 196.943C158.58 196.981 158.34 197.015 158.105 197.045C157.874 197.072 157.687 197.095 157.543 197.114C157.194 197.159 156.868 197.233 156.565 197.335C156.266 197.434 156.024 197.583 155.838 197.784C155.656 197.981 155.565 198.25 155.565 198.591C155.565 199.057 155.738 199.409 156.082 199.648C156.431 199.883 156.872 200 157.406 200ZM166.945 201.182C166.217 201.182 165.575 200.998 165.018 200.631C164.462 200.259 164.026 199.737 163.712 199.062C163.397 198.384 163.24 197.583 163.24 196.659C163.24 195.742 163.397 194.947 163.712 194.273C164.026 193.598 164.464 193.078 165.024 192.71C165.585 192.343 166.232 192.159 166.967 192.159C167.536 192.159 167.984 192.254 168.314 192.443C168.647 192.629 168.901 192.841 169.075 193.08C169.253 193.314 169.392 193.508 169.49 193.659H169.604V189.364H170.945V201H169.649V199.659H169.49C169.392 199.818 169.251 200.019 169.07 200.261C168.888 200.5 168.628 200.714 168.291 200.903C167.954 201.089 167.505 201.182 166.945 201.182ZM167.126 199.977C167.664 199.977 168.119 199.837 168.49 199.557C168.861 199.273 169.143 198.881 169.337 198.381C169.53 197.877 169.626 197.295 169.626 196.636C169.626 195.985 169.532 195.415 169.342 194.926C169.153 194.434 168.873 194.051 168.501 193.778C168.13 193.502 167.672 193.364 167.126 193.364C166.558 193.364 166.085 193.509 165.706 193.801C165.331 194.089 165.049 194.481 164.859 194.977C164.674 195.47 164.581 196.023 164.581 196.636C164.581 197.258 164.676 197.822 164.865 198.33C165.058 198.833 165.342 199.235 165.717 199.534C166.096 199.83 166.566 199.977 167.126 199.977ZM173.587 201V192.273H174.928V201H173.587ZM174.268 190.818C174.007 190.818 173.782 190.729 173.592 190.551C173.407 190.373 173.314 190.159 173.314 189.909C173.314 189.659 173.407 189.445 173.592 189.267C173.782 189.089 174.007 189 174.268 189C174.53 189 174.753 189.089 174.939 189.267C175.128 189.445 175.223 189.659 175.223 189.909C175.223 190.159 175.128 190.373 174.939 190.551C174.753 190.729 174.53 190.818 174.268 190.818ZM180.906 204.455C180.259 204.455 179.702 204.371 179.236 204.205C178.77 204.042 178.382 203.826 178.071 203.557C177.764 203.292 177.52 203.008 177.338 202.705L178.406 201.955C178.527 202.114 178.681 202.295 178.866 202.5C179.052 202.708 179.306 202.888 179.628 203.04C179.954 203.195 180.38 203.273 180.906 203.273C181.611 203.273 182.192 203.102 182.651 202.761C183.109 202.42 183.338 201.886 183.338 201.159V199.386H183.224C183.126 199.545 182.986 199.742 182.804 199.977C182.626 200.208 182.368 200.415 182.031 200.597C181.698 200.775 181.247 200.864 180.679 200.864C179.974 200.864 179.342 200.697 178.781 200.364C178.224 200.03 177.783 199.545 177.457 198.909C177.135 198.273 176.974 197.5 176.974 196.591C176.974 195.697 177.132 194.919 177.446 194.256C177.76 193.589 178.198 193.074 178.759 192.71C179.319 192.343 179.967 192.159 180.702 192.159C181.27 192.159 181.721 192.254 182.054 192.443C182.391 192.629 182.649 192.841 182.827 193.08C183.009 193.314 183.149 193.508 183.247 193.659H183.384V192.273H184.679V201.25C184.679 202 184.509 202.61 184.168 203.08C183.83 203.553 183.376 203.9 182.804 204.119C182.236 204.343 181.603 204.455 180.906 204.455ZM180.861 199.659C181.399 199.659 181.853 199.536 182.224 199.29C182.596 199.044 182.878 198.689 183.071 198.227C183.264 197.765 183.361 197.212 183.361 196.568C183.361 195.939 183.266 195.384 183.077 194.903C182.887 194.422 182.607 194.045 182.236 193.773C181.865 193.5 181.406 193.364 180.861 193.364C180.293 193.364 179.819 193.508 179.44 193.795C179.065 194.083 178.783 194.47 178.594 194.955C178.408 195.439 178.315 195.977 178.315 196.568C178.315 197.174 178.41 197.71 178.599 198.176C178.793 198.638 179.077 199.002 179.452 199.267C179.83 199.528 180.3 199.659 180.861 199.659ZM187.134 201V192.273H188.474V201H187.134ZM187.815 190.818C187.554 190.818 187.329 190.729 187.139 190.551C186.954 190.373 186.861 190.159 186.861 189.909C186.861 189.659 186.954 189.445 187.139 189.267C187.329 189.089 187.554 189 187.815 189C188.077 189 188.3 189.089 188.486 189.267C188.675 189.445 188.77 189.659 188.77 189.909C188.77 190.159 188.675 190.373 188.486 190.551C188.3 190.729 188.077 190.818 187.815 190.818ZM194.726 192.273V193.409H190.203V192.273H194.726ZM191.521 190.182H192.862V198.5C192.862 198.879 192.917 199.163 193.027 199.352C193.141 199.538 193.285 199.663 193.459 199.727C193.637 199.788 193.824 199.818 194.021 199.818C194.169 199.818 194.29 199.811 194.385 199.795C194.48 199.777 194.555 199.761 194.612 199.75L194.885 200.955C194.794 200.989 194.667 201.023 194.504 201.057C194.341 201.095 194.135 201.114 193.885 201.114C193.506 201.114 193.135 201.032 192.771 200.869C192.411 200.706 192.112 200.458 191.874 200.125C191.639 199.792 191.521 199.371 191.521 198.864V190.182ZM196.743 201V192.273H198.084V201H196.743ZM197.425 190.818C197.163 190.818 196.938 190.729 196.749 190.551C196.563 190.373 196.47 190.159 196.47 189.909C196.47 189.659 196.563 189.445 196.749 189.267C196.938 189.089 197.163 189 197.425 189C197.686 189 197.91 189.089 198.095 189.267C198.285 189.445 198.379 189.659 198.379 189.909C198.379 190.159 198.285 190.373 198.095 190.551C197.91 190.729 197.686 190.818 197.425 190.818ZM200.29 201V199.977L205.244 193.614V193.523H200.449V192.273H206.972V193.341L202.153 199.659V199.75H207.131V201H200.29ZM212.605 201.182C211.764 201.182 211.039 200.996 210.429 200.625C209.823 200.25 209.355 199.727 209.026 199.057C208.7 198.383 208.537 197.598 208.537 196.705C208.537 195.811 208.7 195.023 209.026 194.341C209.355 193.655 209.813 193.121 210.401 192.739C210.991 192.352 211.681 192.159 212.469 192.159C212.923 192.159 213.372 192.235 213.815 192.386C214.259 192.538 214.662 192.784 215.026 193.125C215.389 193.462 215.679 193.909 215.895 194.466C216.111 195.023 216.219 195.708 216.219 196.523V197.091H209.491V195.932H214.855C214.855 195.439 214.757 195 214.56 194.614C214.366 194.227 214.09 193.922 213.73 193.699C213.374 193.475 212.954 193.364 212.469 193.364C211.935 193.364 211.473 193.496 211.082 193.761C210.696 194.023 210.399 194.364 210.19 194.784C209.982 195.205 209.878 195.655 209.878 196.136V196.909C209.878 197.568 209.991 198.127 210.219 198.585C210.45 199.04 210.77 199.386 211.179 199.625C211.588 199.86 212.063 199.977 212.605 199.977C212.957 199.977 213.276 199.928 213.56 199.83C213.848 199.727 214.096 199.576 214.304 199.375C214.512 199.17 214.673 198.917 214.787 198.614L216.082 198.977C215.946 199.417 215.717 199.803 215.395 200.136C215.073 200.466 214.675 200.723 214.202 200.909C213.728 201.091 213.196 201.182 212.605 201.182ZM219.236 201.091C218.955 201.091 218.715 200.991 218.514 200.79C218.313 200.589 218.213 200.348 218.213 200.068C218.213 199.788 218.313 199.547 218.514 199.347C218.715 199.146 218.955 199.045 219.236 199.045C219.516 199.045 219.757 199.146 219.957 199.347C220.158 199.547 220.259 199.788 220.259 200.068C220.259 200.254 220.211 200.424 220.116 200.58C220.026 200.735 219.902 200.86 219.747 200.955C219.596 201.045 219.425 201.091 219.236 201.091ZM226.21 201.182C225.392 201.182 224.688 200.989 224.097 200.602C223.506 200.216 223.051 199.684 222.733 199.006C222.415 198.328 222.256 197.553 222.256 196.682C222.256 195.795 222.419 195.013 222.744 194.335C223.074 193.653 223.532 193.121 224.119 192.739C224.71 192.352 225.4 192.159 226.188 192.159C226.801 192.159 227.354 192.273 227.847 192.5C228.339 192.727 228.742 193.045 229.057 193.455C229.371 193.864 229.566 194.341 229.642 194.886H228.301C228.199 194.489 227.972 194.136 227.619 193.83C227.271 193.519 226.801 193.364 226.21 193.364C225.688 193.364 225.229 193.5 224.835 193.773C224.445 194.042 224.14 194.422 223.92 194.915C223.705 195.403 223.597 195.977 223.597 196.636C223.597 197.311 223.703 197.898 223.915 198.398C224.131 198.898 224.434 199.286 224.824 199.562C225.218 199.839 225.68 199.977 226.21 199.977C226.559 199.977 226.875 199.917 227.159 199.795C227.443 199.674 227.684 199.5 227.881 199.273C228.078 199.045 228.218 198.773 228.301 198.455H229.642C229.566 198.97 229.379 199.434 229.08 199.847C228.784 200.256 228.392 200.581 227.903 200.824C227.419 201.062 226.854 201.182 226.21 201.182ZM235.148 201.182C234.36 201.182 233.669 200.994 233.074 200.619C232.483 200.244 232.021 199.72 231.688 199.045C231.358 198.371 231.193 197.583 231.193 196.682C231.193 195.773 231.358 194.979 231.688 194.301C232.021 193.623 232.483 193.097 233.074 192.722C233.669 192.347 234.36 192.159 235.148 192.159C235.936 192.159 236.625 192.347 237.216 192.722C237.811 193.097 238.273 193.623 238.602 194.301C238.936 194.979 239.102 195.773 239.102 196.682C239.102 197.583 238.936 198.371 238.602 199.045C238.273 199.72 237.811 200.244 237.216 200.619C236.625 200.994 235.936 201.182 235.148 201.182ZM235.148 199.977C235.746 199.977 236.239 199.824 236.625 199.517C237.011 199.21 237.297 198.807 237.483 198.307C237.669 197.807 237.761 197.265 237.761 196.682C237.761 196.098 237.669 195.555 237.483 195.051C237.297 194.547 237.011 194.14 236.625 193.83C236.239 193.519 235.746 193.364 235.148 193.364C234.549 193.364 234.057 193.519 233.67 193.83C233.284 194.14 232.998 194.547 232.812 195.051C232.627 195.555 232.534 196.098 232.534 196.682C232.534 197.265 232.627 197.807 232.812 198.307C232.998 198.807 233.284 199.21 233.67 199.517C234.057 199.824 234.549 199.977 235.148 199.977ZM241.149 201V192.273H242.445V193.636H242.558C242.74 193.17 243.034 192.809 243.439 192.551C243.844 192.29 244.331 192.159 244.899 192.159C245.475 192.159 245.954 192.29 246.337 192.551C246.723 192.809 247.024 193.17 247.24 193.636H247.331C247.554 193.186 247.89 192.828 248.337 192.562C248.784 192.294 249.32 192.159 249.945 192.159C250.725 192.159 251.363 192.403 251.859 192.892C252.356 193.377 252.604 194.133 252.604 195.159V201H251.263V195.159C251.263 194.515 251.087 194.055 250.734 193.778C250.382 193.502 249.967 193.364 249.49 193.364C248.876 193.364 248.401 193.549 248.064 193.92C247.727 194.288 247.558 194.754 247.558 195.318V201H246.195V195.023C246.195 194.527 246.034 194.127 245.712 193.824C245.39 193.517 244.975 193.364 244.467 193.364C244.119 193.364 243.793 193.456 243.49 193.642C243.191 193.828 242.948 194.085 242.763 194.415C242.581 194.741 242.49 195.117 242.49 195.545V201H241.149Z" fill="#99A1AF"/>
<path d="M328.06 193C328.217 192.554 328.526 192.179 328.933 191.939C329.341 191.7 329.819 191.613 330.285 191.692C330.75 191.772 331.173 192.014 331.477 192.376C331.781 192.737 331.947 193.194 331.947 193.667C331.947 195 329.947 195.667 329.947 195.667M330 198.333H330.007M336.667 195C336.667 198.682 333.682 201.667 330 201.667C326.318 201.667 323.333 198.682 323.333 195C323.333 191.318 326.318 188.333 330 188.333C333.682 188.333 336.667 191.318 336.667 195Z" stroke="#D1D5DC" stroke-width="1.32" stroke-linecap="round" stroke-linejoin="round"/>
</g>
<path d="M55.233 236V225.818H56.4659V230.352H61.8949V225.818H63.1278V236H61.8949V231.446H56.4659V236H55.233ZM65.4371 236V228.364H66.6104V236H65.4371ZM66.0337 227.091C65.805 227.091 65.6078 227.013 65.4421 226.857C65.2797 226.701 65.1985 226.514 65.1985 226.295C65.1985 226.077 65.2797 225.889 65.4421 225.734C65.6078 225.578 65.805 225.5 66.0337 225.5C66.2624 225.5 66.458 225.578 66.6204 225.734C66.7861 225.889 66.869 226.077 66.869 226.295C66.869 226.514 66.7861 226.701 66.6204 226.857C66.458 227.013 66.2624 227.091 66.0337 227.091ZM69.9327 231.406V236H68.7594V228.364H69.8929V229.557H69.9924C70.1713 229.169 70.4431 228.857 70.8077 228.622C71.1723 228.384 71.6429 228.264 72.2196 228.264C72.7367 228.264 73.1891 228.37 73.5769 228.582C73.9647 228.791 74.2663 229.109 74.4817 229.537C74.6971 229.961 74.8049 230.498 74.8049 231.148V236H73.6316V231.227C73.6316 230.627 73.4758 230.16 73.1642 229.825C72.8527 229.487 72.4251 229.318 71.8816 229.318C71.507 229.318 71.1723 229.399 70.8773 229.562C70.5856 229.724 70.3553 229.961 70.1863 230.273C70.0172 230.584 69.9327 230.962 69.9327 231.406ZM80.2699 228.364V229.358H76.3125V228.364H80.2699ZM77.4659 226.534H78.6392V233.812C78.6392 234.144 78.6873 234.393 78.7834 234.558C78.8828 234.721 79.0088 234.83 79.1612 234.886C79.317 234.939 79.4811 234.966 79.6534 234.966C79.7827 234.966 79.8887 234.959 79.9716 234.946C80.0545 234.929 80.1207 234.916 80.1705 234.906L80.4091 235.96C80.3295 235.99 80.2185 236.02 80.076 236.05C79.9335 236.083 79.7528 236.099 79.5341 236.099C79.2027 236.099 78.8778 236.028 78.5597 235.886C78.2448 235.743 77.983 235.526 77.7741 235.234C77.5687 234.943 77.4659 234.575 77.4659 234.131V226.534ZM89.2933 228.364V229.358H85.3359V228.364H89.2933ZM86.4893 226.534H87.6626V233.812C87.6626 234.144 87.7107 234.393 87.8068 234.558C87.9063 234.721 88.0322 234.83 88.1847 234.886C88.3404 234.939 88.5045 234.966 88.6768 234.966C88.8061 234.966 88.9122 234.959 88.995 234.946C89.0779 234.929 89.1442 234.916 89.1939 234.906L89.4325 235.96C89.353 235.99 89.242 236.02 89.0994 236.05C88.9569 236.083 88.7763 236.099 88.5575 236.099C88.2261 236.099 87.9013 236.028 87.5831 235.886C87.2682 235.743 87.0064 235.526 86.7976 235.234C86.5921 234.943 86.4893 234.575 86.4893 234.131V226.534ZM94.1779 236.159C93.4421 236.159 92.8074 235.997 92.2738 235.672C91.7435 235.344 91.3342 234.886 91.0458 234.3C90.7608 233.71 90.6183 233.024 90.6183 232.241C90.6183 231.459 90.7608 230.77 91.0458 230.173C91.3342 229.573 91.7352 229.106 92.2489 228.771C92.766 228.433 93.3692 228.264 94.0586 228.264C94.4563 228.264 94.8491 228.33 95.2369 228.463C95.6246 228.596 95.9776 228.811 96.2958 229.109C96.614 229.404 96.8675 229.795 97.0565 230.283C97.2454 230.77 97.3398 231.37 97.3398 232.082V232.58H91.4535V231.565H96.1467C96.1467 231.134 96.0605 230.75 95.8881 230.412C95.7191 230.074 95.4772 229.807 95.1623 229.612C94.8507 229.416 94.4828 229.318 94.0586 229.318C93.5913 229.318 93.1869 229.434 92.8455 229.666C92.5075 229.895 92.2473 230.193 92.065 230.561C91.8827 230.929 91.7915 231.323 91.7915 231.744V232.42C91.7915 232.997 91.891 233.486 92.0898 233.887C92.292 234.285 92.5721 234.588 92.93 234.797C93.288 235.002 93.704 235.105 94.1779 235.105C94.4862 235.105 94.7646 235.062 95.0131 234.976C95.265 234.886 95.4821 234.754 95.6644 234.578C95.8467 234.399 95.9876 234.177 96.087 233.912L97.2205 234.23C97.1012 234.615 96.9007 234.953 96.619 235.244C96.3372 235.533 95.9892 235.758 95.5749 235.92C95.1606 236.08 94.695 236.159 94.1779 236.159ZM99.7946 228.364L101.624 231.486L103.454 228.364H104.806L102.34 232.182L104.806 236H103.454L101.624 233.037L99.7946 236H98.4423L100.868 232.182L98.4423 228.364H99.7946ZM109.801 228.364V229.358H105.844V228.364H109.801ZM106.997 226.534H108.17V233.812C108.17 234.144 108.219 234.393 108.315 234.558C108.414 234.721 108.54 234.83 108.692 234.886C108.848 234.939 109.012 234.966 109.185 234.966C109.314 234.966 109.42 234.959 109.503 234.946C109.586 234.929 109.652 234.916 109.702 234.906L109.94 235.96C109.861 235.99 109.75 236.02 109.607 236.05C109.465 236.083 109.284 236.099 109.065 236.099C108.734 236.099 108.409 236.028 108.091 235.886C107.776 235.743 107.514 235.526 107.305 235.234C107.1 234.943 106.997 234.575 106.997 234.131V226.534ZM112.421 236.08C112.176 236.08 111.965 235.992 111.79 235.816C111.614 235.64 111.526 235.43 111.526 235.185C111.526 234.939 111.614 234.729 111.79 234.553C111.965 234.378 112.176 234.29 112.421 234.29C112.666 234.29 112.877 234.378 113.053 234.553C113.228 234.729 113.316 234.939 113.316 235.185C113.316 235.347 113.275 235.496 113.192 235.632C113.112 235.768 113.004 235.877 112.869 235.96C112.736 236.04 112.587 236.08 112.421 236.08Z" fill="#6A7282"/>
</g>
<defs>
<filter id="filter0_d_3907_10989" x="0" y="0" width="404" height="284" filterUnits="userSpaceOnUse" color-interpolation-filters="sRGB">
<feFlood flood-opacity="0" result="BackgroundImageFix"/>
<feColorMatrix in="SourceAlpha" type="matrix" values="0 0 0 0 0 0 0 0 0 0 0 0 0 0 0 0 0 0 127 0" result="hardAlpha"/>
<feOffset dy="1"/>
<feGaussianBlur stdDeviation="1"/>
<feComposite in2="hardAlpha" operator="out"/>
<feColorMatrix type="matrix" values="0 0 0 0 0.0117647 0 0 0 0 0.027451 0 0 0 0 0.0705882 0 0 0 0.06 0"/>
<feBlend mode="normal" in2="BackgroundImageFix" result="effect1_dropShadow_3907_10989"/>
<feBlend mode="normal" in="SourceGraphic" in2="effect1_dropShadow_3907_10989" result="shape"/>
</filter>
<filter id="filter1_d_3907_10989" x="52" y="66" width="300" height="44" filterUnits="userSpaceOnUse" color-interpolation-filters="sRGB">
<feFlood flood-opacity="0" result="BackgroundImageFix"/>
<feColorMatrix in="SourceAlpha" type="matrix" values="0 0 0 0 0 0 0 0 0 0 0 0 0 0 0 0 0 0 127 0" result="hardAlpha"/>
<feOffset dy="1"/>
<feGaussianBlur stdDeviation="1"/>
<feComposite in2="hardAlpha" operator="out"/>
<feColorMatrix type="matrix" values="0 0 0 0 0.0117647 0 0 0 0 0.027451 0 0 0 0 0.0705882 0 0 0 0.06 0"/>
<feBlend mode="normal" in2="BackgroundImageFix" result="effect1_dropShadow_3907_10989"/>
<feBlend mode="normal" in="SourceGraphic" in2="effect1_dropShadow_3907_10989" result="shape"/>
</filter>
<filter id="filter2_d_3907_10989" x="52" y="174" width="300" height="44" filterUnits="userSpaceOnUse" color-interpolation-filters="sRGB">
<feFlood flood-opacity="0" result="BackgroundImageFix"/>
<feColorMatrix in="SourceAlpha" type="matrix" values="0 0 0 0 0 0 0 0 0 0 0 0 0 0 0 0 0 0 127 0" result="hardAlpha"/>
<feOffset dy="1"/>
<feGaussianBlur stdDeviation="1"/>
<feComposite in2="hardAlpha" operator="out"/>
<feColorMatrix type="matrix" values="0 0 0 0 0.0117647 0 0 0 0 0.027451 0 0 0 0 0.0705882 0 0 0 0.06 0"/>
<feBlend mode="normal" in2="BackgroundImageFix" result="effect1_dropShadow_3907_10989"/>
<feBlend mode="normal" in="SourceGraphic" in2="effect1_dropShadow_3907_10989" result="shape"/>
</filter>
</defs>
</svg>
